%TF.GenerationSoftware,KiCad,Pcbnew,9.0.4*%
%TF.CreationDate,2026-06-28T13:41:14-04:00*%
%TF.ProjectId,XDQ-001,5844512d-3030-4312-9e6b-696361645f70,rev?*%
%TF.SameCoordinates,Original*%
%TF.FileFunction,Copper,L2,Inr*%
%TF.FilePolarity,Positive*%
%FSLAX46Y46*%
G04 Gerber Fmt 4.6, Leading zero omitted, Abs format (unit mm)*
G04 Created by KiCad (PCBNEW 9.0.4) date 2026-06-28 13:41:14*
%MOMM*%
%LPD*%
G01*
G04 APERTURE LIST*
G04 Aperture macros list*
%AMRoundRect*
0 Rectangle with rounded corners*
0 $1 Rounding radius*
0 $2 $3 $4 $5 $6 $7 $8 $9 X,Y pos of 4 corners*
0 Add a 4 corners polygon primitive as box body*
4,1,4,$2,$3,$4,$5,$6,$7,$8,$9,$2,$3,0*
0 Add four circle primitives for the rounded corners*
1,1,$1+$1,$2,$3*
1,1,$1+$1,$4,$5*
1,1,$1+$1,$6,$7*
1,1,$1+$1,$8,$9*
0 Add four rect primitives between the rounded corners*
20,1,$1+$1,$2,$3,$4,$5,0*
20,1,$1+$1,$4,$5,$6,$7,0*
20,1,$1+$1,$6,$7,$8,$9,0*
20,1,$1+$1,$8,$9,$2,$3,0*%
G04 Aperture macros list end*
%TA.AperFunction,ComponentPad*%
%ADD10RoundRect,0.250000X0.625000X-0.350000X0.625000X0.350000X-0.625000X0.350000X-0.625000X-0.350000X0*%
%TD*%
%TA.AperFunction,ComponentPad*%
%ADD11O,1.750000X1.200000*%
%TD*%
%TA.AperFunction,HeatsinkPad*%
%ADD12O,1.900000X1.200000*%
%TD*%
%TA.AperFunction,HeatsinkPad*%
%ADD13C,1.450000*%
%TD*%
%TA.AperFunction,ComponentPad*%
%ADD14RoundRect,0.250000X-0.350000X-0.625000X0.350000X-0.625000X0.350000X0.625000X-0.350000X0.625000X0*%
%TD*%
%TA.AperFunction,ComponentPad*%
%ADD15O,1.200000X1.750000*%
%TD*%
%TA.AperFunction,ComponentPad*%
%ADD16RoundRect,0.250000X0.350000X0.625000X-0.350000X0.625000X-0.350000X-0.625000X0.350000X-0.625000X0*%
%TD*%
%TA.AperFunction,ViaPad*%
%ADD17C,0.600000*%
%TD*%
%TA.AperFunction,Conductor*%
%ADD18C,0.300000*%
%TD*%
%TA.AperFunction,Conductor*%
%ADD19C,0.200000*%
%TD*%
G04 APERTURE END LIST*
D10*
%TO.N,+5V*%
%TO.C,J3*%
X130200000Y-112500000D03*
D11*
%TO.N,/GPS_TX*%
X130200000Y-110500000D03*
%TO.N,/GPS_RX*%
X130200000Y-108500000D03*
%TO.N,GND*%
X130200000Y-106500000D03*
%TD*%
D12*
%TO.N,GND*%
%TO.C,J5*%
X90500000Y-110000000D03*
D13*
X93200000Y-111000000D03*
X93200000Y-116000000D03*
D12*
X90500000Y-117000000D03*
%TD*%
D14*
%TO.N,/SWDIO*%
%TO.C,J4*%
X98250000Y-120500000D03*
D15*
%TO.N,/SWCLK*%
X100250000Y-120500000D03*
%TO.N,/NRST*%
X102250000Y-120500000D03*
%TO.N,GND*%
X104250000Y-120500000D03*
%TD*%
D16*
%TO.N,+BATT*%
%TO.C,J6*%
X105500000Y-77700000D03*
D15*
%TO.N,GND*%
X103500000Y-77700000D03*
%TD*%
D17*
%TO.N,GND*%
X107650000Y-109200000D03*
X109150000Y-113700000D03*
X109687500Y-89412500D03*
X102250000Y-98307500D03*
X106150000Y-109200000D03*
X109150000Y-110700000D03*
X120162500Y-103155000D03*
X109150000Y-109200000D03*
X117887500Y-85000000D03*
X106150000Y-113700000D03*
X107650000Y-112200000D03*
X106150000Y-112200000D03*
X110650000Y-110700000D03*
X115250000Y-100735000D03*
X112757500Y-116225000D03*
X128550000Y-85700000D03*
X110650000Y-112200000D03*
X117000000Y-76350000D03*
X107650000Y-110700000D03*
X109150000Y-112200000D03*
X106150000Y-110700000D03*
X115167500Y-98300000D03*
X122500000Y-86750000D03*
X107650000Y-113700000D03*
X123080000Y-122000000D03*
X116223750Y-109623750D03*
X103500000Y-114682500D03*
X110650000Y-109200000D03*
X91000000Y-85880000D03*
X110650000Y-113700000D03*
X109125000Y-98850000D03*
%TO.N,+3V3_ANALOG*%
X111450000Y-89400000D03*
X108475000Y-90750000D03*
%TO.N,+5V*%
X99000000Y-111152500D03*
X112437500Y-77100000D03*
%TO.N,/MAG_VDD*%
X104900000Y-95875000D03*
X104076250Y-91776250D03*
%TO.N,/NRST*%
X113882057Y-111062183D03*
%TO.N,/VBUS*%
X110562500Y-77950000D03*
X95300000Y-108800000D03*
%TO.N,/DIO2*%
X107737500Y-106687500D03*
%TO.N,/NRESET*%
X113600000Y-114150000D03*
%TO.N,/DIO1*%
X108350000Y-105900000D03*
%TO.N,/GPS_TX*%
X101000000Y-111250000D03*
%TO.N,/GPS_RX*%
X102312500Y-110812500D03*
%TO.N,/DEBUG_LED*%
X113750000Y-113000000D03*
X119625000Y-109000000D03*
%TO.N,/D-*%
X101700000Y-112100000D03*
X100097500Y-114500000D03*
%TO.N,/BARO_CS*%
X114900000Y-107100000D03*
X112475000Y-94100000D03*
%TO.N,/FLASH_MISO*%
X120162500Y-100615000D03*
X107125000Y-116625000D03*
%TO.N,/INT2*%
X104600000Y-94800000D03*
X113450000Y-105525000D03*
%TO.N,/FLASH_MOSI*%
X108650000Y-118350000D03*
X127337500Y-103155000D03*
%TO.N,/GYRO_CS*%
X111525000Y-104275000D03*
X112000000Y-96797500D03*
%TO.N,/FLASH_CS*%
X120162500Y-99345000D03*
X105529133Y-116292792D03*
%TO.N,/IMU_SCK*%
X107275000Y-93740000D03*
X109850000Y-103275000D03*
X110975000Y-95650000D03*
%TO.N,/IMU_MISO*%
X99800000Y-93975000D03*
X109225000Y-103900000D03*
X107475000Y-92550000D03*
%TO.N,/IMU_MOSI*%
X108562500Y-104437500D03*
X105500000Y-96950000D03*
X106074000Y-94340000D03*
%TO.N,/INT1*%
X109100000Y-99900000D03*
X113100003Y-107100000D03*
%TO.N,/FLASH_SCK*%
X127337500Y-101885000D03*
X106500000Y-117250000D03*
%TO.N,/MAG_CS*%
X101750000Y-92337500D03*
X112250000Y-105300000D03*
%TD*%
D18*
%TO.N,+3V3_ANALOG*%
X111450000Y-89400000D02*
X110100000Y-90750000D01*
X110100000Y-90750000D02*
X108475000Y-90750000D01*
D19*
%TO.N,/MAG_VDD*%
X105201000Y-95574000D02*
X105201000Y-92901000D01*
X104900000Y-95875000D02*
X105201000Y-95574000D01*
X105201000Y-92901000D02*
X104076250Y-91776250D01*
%TO.N,/DIO2*%
X94067500Y-106687500D02*
X91000000Y-103620000D01*
X107737500Y-106687500D02*
X94067500Y-106687500D01*
%TO.N,/NRESET*%
X91000000Y-106160000D02*
X94939000Y-110099000D01*
X107049000Y-110674000D02*
X107049000Y-110948943D01*
X111049000Y-111599000D02*
X113600000Y-114150000D01*
X94939000Y-110099000D02*
X106474000Y-110099000D01*
X106474000Y-110099000D02*
X107049000Y-110674000D01*
X107699057Y-111599000D02*
X111049000Y-111599000D01*
X107049000Y-110948943D02*
X107699057Y-111599000D01*
%TO.N,/DIO1*%
X91000000Y-101080000D02*
X95820000Y-105900000D01*
X95820000Y-105900000D02*
X108350000Y-105900000D01*
%TO.N,/GPS_TX*%
X101025000Y-111275000D02*
X101000000Y-111250000D01*
X102063557Y-111413500D02*
X101925057Y-111275000D01*
X125450000Y-115250000D02*
X106182900Y-115250000D01*
X130200000Y-110500000D02*
X125450000Y-115250000D01*
X101925057Y-111275000D02*
X101025000Y-111275000D01*
X102346400Y-111413500D02*
X102063557Y-111413500D01*
X106182900Y-115250000D02*
X102346400Y-111413500D01*
%TO.N,/GPS_RX*%
X106251000Y-114751000D02*
X106250000Y-114750000D01*
X106250000Y-114750000D02*
X102312500Y-110812500D01*
X106250000Y-114750000D02*
X123950000Y-114750000D01*
X123950000Y-114750000D02*
X130200000Y-108500000D01*
%TO.N,/DEBUG_LED*%
X113750000Y-113000000D02*
X117750000Y-109000000D01*
X117750000Y-109000000D02*
X119625000Y-109000000D01*
%TO.N,/BARO_CS*%
X114566500Y-106766500D02*
X114566500Y-96191500D01*
X114900000Y-107100000D02*
X114566500Y-106766500D01*
X114566500Y-96191500D02*
X112475000Y-94100000D01*
%TO.N,/INT2*%
X113450000Y-105525000D02*
X113450000Y-105252057D01*
X105748943Y-97551000D02*
X105251057Y-97551000D01*
X104299000Y-95101000D02*
X104600000Y-94800000D01*
X104299000Y-96598943D02*
X104299000Y-95101000D01*
X105251057Y-97551000D02*
X104299000Y-96598943D01*
X113450000Y-105252057D02*
X105748943Y-97551000D01*
%TO.N,/INT1*%
X114051000Y-106149003D02*
X114051000Y-104851000D01*
X113100003Y-107100000D02*
X114051000Y-106149003D01*
X114051000Y-104851000D02*
X109100000Y-99900000D01*
%TD*%
%TA.AperFunction,Conductor*%
%TO.N,+5V*%
G36*
X133442539Y-74520185D02*
G01*
X133488294Y-74572989D01*
X133499500Y-74624500D01*
X133499500Y-123375500D01*
X133479815Y-123442539D01*
X133427011Y-123488294D01*
X133375500Y-123499500D01*
X89624500Y-123499500D01*
X89557461Y-123479815D01*
X89511706Y-123427011D01*
X89500500Y-123375500D01*
X89500500Y-120893713D01*
X90649500Y-120893713D01*
X90649500Y-121106287D01*
X90682754Y-121316243D01*
X90725288Y-121447150D01*
X90748444Y-121518414D01*
X90844951Y-121707820D01*
X90969890Y-121879786D01*
X91120213Y-122030109D01*
X91292179Y-122155048D01*
X91292181Y-122155049D01*
X91292184Y-122155051D01*
X91481588Y-122251557D01*
X91683757Y-122317246D01*
X91893713Y-122350500D01*
X91893714Y-122350500D01*
X92106286Y-122350500D01*
X92106287Y-122350500D01*
X92316243Y-122317246D01*
X92518412Y-122251557D01*
X92707816Y-122155051D01*
X92830534Y-122065892D01*
X92879786Y-122030109D01*
X92879788Y-122030106D01*
X92879792Y-122030104D01*
X92975788Y-121934108D01*
X122579500Y-121934108D01*
X122579500Y-122065891D01*
X122613608Y-122193187D01*
X122646554Y-122250250D01*
X122679500Y-122307314D01*
X122772686Y-122400500D01*
X122886814Y-122466392D01*
X123014108Y-122500500D01*
X123014110Y-122500500D01*
X123145890Y-122500500D01*
X123145892Y-122500500D01*
X123273186Y-122466392D01*
X123387314Y-122400500D01*
X123480500Y-122307314D01*
X123546392Y-122193186D01*
X123580500Y-122065892D01*
X123580500Y-121934108D01*
X123546392Y-121806814D01*
X123480500Y-121692686D01*
X123387314Y-121599500D01*
X123292464Y-121544738D01*
X123273187Y-121533608D01*
X123209539Y-121516554D01*
X123145892Y-121499500D01*
X123014108Y-121499500D01*
X122886812Y-121533608D01*
X122772686Y-121599500D01*
X122772683Y-121599502D01*
X122679502Y-121692683D01*
X122679500Y-121692686D01*
X122613608Y-121806812D01*
X122579500Y-121934108D01*
X92975788Y-121934108D01*
X93030104Y-121879792D01*
X93038215Y-121868626D01*
X93049501Y-121853095D01*
X93098536Y-121785601D01*
X93155051Y-121707816D01*
X93251557Y-121518412D01*
X93317246Y-121316243D01*
X93350500Y-121106287D01*
X93350500Y-120893713D01*
X93317246Y-120683757D01*
X93251557Y-120481588D01*
X93155051Y-120292184D01*
X93155049Y-120292181D01*
X93155048Y-120292179D01*
X93030109Y-120120213D01*
X92879790Y-119969894D01*
X92879785Y-119969890D01*
X92808598Y-119918169D01*
X92808575Y-119918154D01*
X92707815Y-119844948D01*
X92660284Y-119820730D01*
X97449500Y-119820730D01*
X97449500Y-121179269D01*
X97452353Y-121209699D01*
X97452353Y-121209701D01*
X97489635Y-121316243D01*
X97497207Y-121337882D01*
X97577850Y-121447150D01*
X97687118Y-121527793D01*
X97729845Y-121542744D01*
X97815299Y-121572646D01*
X97845730Y-121575500D01*
X97845734Y-121575500D01*
X98654270Y-121575500D01*
X98684699Y-121572646D01*
X98684701Y-121572646D01*
X98748790Y-121550219D01*
X98812882Y-121527793D01*
X98922150Y-121447150D01*
X99002793Y-121337882D01*
X99025219Y-121273790D01*
X99047646Y-121209701D01*
X99047646Y-121209699D01*
X99050500Y-121179269D01*
X99050500Y-120146153D01*
X99449500Y-120146153D01*
X99449500Y-120853846D01*
X99480261Y-121008489D01*
X99480264Y-121008501D01*
X99540602Y-121154172D01*
X99540609Y-121154185D01*
X99628210Y-121285288D01*
X99628213Y-121285292D01*
X99739707Y-121396786D01*
X99739711Y-121396789D01*
X99870814Y-121484390D01*
X99870827Y-121484397D01*
X99975596Y-121527793D01*
X100016503Y-121544737D01*
X100156810Y-121572646D01*
X100171153Y-121575499D01*
X100171156Y-121575500D01*
X100171158Y-121575500D01*
X100328844Y-121575500D01*
X100328845Y-121575499D01*
X100483497Y-121544737D01*
X100629179Y-121484394D01*
X100760289Y-121396789D01*
X100871789Y-121285289D01*
X100959394Y-121154179D01*
X101019737Y-121008497D01*
X101050500Y-120853842D01*
X101050500Y-120146158D01*
X101050500Y-120146155D01*
X101050499Y-120146153D01*
X101449500Y-120146153D01*
X101449500Y-120853846D01*
X101480261Y-121008489D01*
X101480264Y-121008501D01*
X101540602Y-121154172D01*
X101540609Y-121154185D01*
X101628210Y-121285288D01*
X101628213Y-121285292D01*
X101739707Y-121396786D01*
X101739711Y-121396789D01*
X101870814Y-121484390D01*
X101870827Y-121484397D01*
X101975596Y-121527793D01*
X102016503Y-121544737D01*
X102156810Y-121572646D01*
X102171153Y-121575499D01*
X102171156Y-121575500D01*
X102171158Y-121575500D01*
X102328844Y-121575500D01*
X102328845Y-121575499D01*
X102483497Y-121544737D01*
X102629179Y-121484394D01*
X102760289Y-121396789D01*
X102871789Y-121285289D01*
X102959394Y-121154179D01*
X103019737Y-121008497D01*
X103050500Y-120853842D01*
X103050500Y-120146158D01*
X103050500Y-120146155D01*
X103050499Y-120146153D01*
X103449500Y-120146153D01*
X103449500Y-120853846D01*
X103480261Y-121008489D01*
X103480264Y-121008501D01*
X103540602Y-121154172D01*
X103540609Y-121154185D01*
X103628210Y-121285288D01*
X103628213Y-121285292D01*
X103739707Y-121396786D01*
X103739711Y-121396789D01*
X103870814Y-121484390D01*
X103870827Y-121484397D01*
X103975596Y-121527793D01*
X104016503Y-121544737D01*
X104156810Y-121572646D01*
X104171153Y-121575499D01*
X104171156Y-121575500D01*
X104171158Y-121575500D01*
X104328844Y-121575500D01*
X104328845Y-121575499D01*
X104483497Y-121544737D01*
X104629179Y-121484394D01*
X104760289Y-121396789D01*
X104871789Y-121285289D01*
X104959394Y-121154179D01*
X105019737Y-121008497D01*
X105042569Y-120893713D01*
X129649500Y-120893713D01*
X129649500Y-121106287D01*
X129682754Y-121316243D01*
X129725288Y-121447150D01*
X129748444Y-121518414D01*
X129844951Y-121707820D01*
X129969890Y-121879786D01*
X130120213Y-122030109D01*
X130292179Y-122155048D01*
X130292181Y-122155049D01*
X130292184Y-122155051D01*
X130481588Y-122251557D01*
X130683757Y-122317246D01*
X130893713Y-122350500D01*
X130893714Y-122350500D01*
X131106286Y-122350500D01*
X131106287Y-122350500D01*
X131316243Y-122317246D01*
X131518412Y-122251557D01*
X131707816Y-122155051D01*
X131830534Y-122065892D01*
X131879786Y-122030109D01*
X131879788Y-122030106D01*
X131879792Y-122030104D01*
X132030104Y-121879792D01*
X132030106Y-121879788D01*
X132030109Y-121879786D01*
X132155048Y-121707820D01*
X132155047Y-121707820D01*
X132155051Y-121707816D01*
X132251557Y-121518412D01*
X132317246Y-121316243D01*
X132350500Y-121106287D01*
X132350500Y-120893713D01*
X132317246Y-120683757D01*
X132251557Y-120481588D01*
X132155051Y-120292184D01*
X132155049Y-120292181D01*
X132155048Y-120292179D01*
X132030109Y-120120213D01*
X131879786Y-119969890D01*
X131707820Y-119844951D01*
X131518414Y-119748444D01*
X131518413Y-119748443D01*
X131518412Y-119748443D01*
X131316243Y-119682754D01*
X131316241Y-119682753D01*
X131316240Y-119682753D01*
X131154957Y-119657208D01*
X131106287Y-119649500D01*
X130893713Y-119649500D01*
X130845042Y-119657208D01*
X130683760Y-119682753D01*
X130481585Y-119748444D01*
X130292179Y-119844951D01*
X130120213Y-119969890D01*
X129969890Y-120120213D01*
X129844951Y-120292179D01*
X129748444Y-120481585D01*
X129682753Y-120683760D01*
X129655815Y-120853841D01*
X129649500Y-120893713D01*
X105042569Y-120893713D01*
X105050500Y-120853842D01*
X105050500Y-120146158D01*
X105050500Y-120146155D01*
X105050499Y-120146153D01*
X105019738Y-119991510D01*
X105019737Y-119991503D01*
X105010785Y-119969890D01*
X104959397Y-119845827D01*
X104959390Y-119845814D01*
X104871789Y-119714711D01*
X104871786Y-119714707D01*
X104760292Y-119603213D01*
X104760288Y-119603210D01*
X104629185Y-119515609D01*
X104629172Y-119515602D01*
X104483501Y-119455264D01*
X104483489Y-119455261D01*
X104328845Y-119424500D01*
X104328842Y-119424500D01*
X104171158Y-119424500D01*
X104171155Y-119424500D01*
X104016510Y-119455261D01*
X104016498Y-119455264D01*
X103870827Y-119515602D01*
X103870814Y-119515609D01*
X103739711Y-119603210D01*
X103739707Y-119603213D01*
X103628213Y-119714707D01*
X103628210Y-119714711D01*
X103540609Y-119845814D01*
X103540602Y-119845827D01*
X103480264Y-119991498D01*
X103480261Y-119991510D01*
X103449500Y-120146153D01*
X103050499Y-120146153D01*
X103019738Y-119991510D01*
X103019737Y-119991503D01*
X103010785Y-119969890D01*
X102959397Y-119845827D01*
X102959390Y-119845814D01*
X102871789Y-119714711D01*
X102871786Y-119714707D01*
X102760292Y-119603213D01*
X102760288Y-119603210D01*
X102629185Y-119515609D01*
X102629172Y-119515602D01*
X102483501Y-119455264D01*
X102483489Y-119455261D01*
X102328845Y-119424500D01*
X102328842Y-119424500D01*
X102171158Y-119424500D01*
X102171155Y-119424500D01*
X102016510Y-119455261D01*
X102016498Y-119455264D01*
X101870827Y-119515602D01*
X101870814Y-119515609D01*
X101739711Y-119603210D01*
X101739707Y-119603213D01*
X101628213Y-119714707D01*
X101628210Y-119714711D01*
X101540609Y-119845814D01*
X101540602Y-119845827D01*
X101480264Y-119991498D01*
X101480261Y-119991510D01*
X101449500Y-120146153D01*
X101050499Y-120146153D01*
X101019738Y-119991510D01*
X101019737Y-119991503D01*
X101010785Y-119969890D01*
X100959397Y-119845827D01*
X100959390Y-119845814D01*
X100871789Y-119714711D01*
X100871786Y-119714707D01*
X100760292Y-119603213D01*
X100760288Y-119603210D01*
X100629185Y-119515609D01*
X100629172Y-119515602D01*
X100483501Y-119455264D01*
X100483489Y-119455261D01*
X100328845Y-119424500D01*
X100328842Y-119424500D01*
X100171158Y-119424500D01*
X100171155Y-119424500D01*
X100016510Y-119455261D01*
X100016498Y-119455264D01*
X99870827Y-119515602D01*
X99870814Y-119515609D01*
X99739711Y-119603210D01*
X99739707Y-119603213D01*
X99628213Y-119714707D01*
X99628210Y-119714711D01*
X99540609Y-119845814D01*
X99540602Y-119845827D01*
X99480264Y-119991498D01*
X99480261Y-119991510D01*
X99449500Y-120146153D01*
X99050500Y-120146153D01*
X99050500Y-119820730D01*
X99047646Y-119790300D01*
X99047646Y-119790298D01*
X99002793Y-119662119D01*
X99002792Y-119662117D01*
X98922150Y-119552850D01*
X98812882Y-119472207D01*
X98812880Y-119472206D01*
X98684700Y-119427353D01*
X98654270Y-119424500D01*
X98654266Y-119424500D01*
X97845734Y-119424500D01*
X97845730Y-119424500D01*
X97815300Y-119427353D01*
X97815298Y-119427353D01*
X97687119Y-119472206D01*
X97687117Y-119472207D01*
X97577850Y-119552850D01*
X97497207Y-119662117D01*
X97497206Y-119662119D01*
X97452353Y-119790298D01*
X97452353Y-119790300D01*
X97449500Y-119820730D01*
X92660284Y-119820730D01*
X92518414Y-119748444D01*
X92518413Y-119748443D01*
X92518412Y-119748443D01*
X92316243Y-119682754D01*
X92316241Y-119682753D01*
X92316240Y-119682753D01*
X92154957Y-119657208D01*
X92106287Y-119649500D01*
X91893713Y-119649500D01*
X91845042Y-119657208D01*
X91683760Y-119682753D01*
X91481585Y-119748444D01*
X91292179Y-119844951D01*
X91120213Y-119969890D01*
X90969890Y-120120213D01*
X90844951Y-120292179D01*
X90748444Y-120481585D01*
X90682753Y-120683760D01*
X90655815Y-120853841D01*
X90649500Y-120893713D01*
X89500500Y-120893713D01*
X89500500Y-118284108D01*
X108149500Y-118284108D01*
X108149500Y-118415891D01*
X108183608Y-118543187D01*
X108216554Y-118600250D01*
X108249500Y-118657314D01*
X108342686Y-118750500D01*
X108456814Y-118816392D01*
X108584108Y-118850500D01*
X108584110Y-118850500D01*
X108715890Y-118850500D01*
X108715892Y-118850500D01*
X108843186Y-118816392D01*
X108957314Y-118750500D01*
X109050500Y-118657314D01*
X109116392Y-118543186D01*
X109150500Y-118415892D01*
X109150500Y-118284108D01*
X109116392Y-118156814D01*
X109050500Y-118042686D01*
X108957314Y-117949500D01*
X108900250Y-117916554D01*
X108843187Y-117883608D01*
X108779539Y-117866554D01*
X108715892Y-117849500D01*
X108584108Y-117849500D01*
X108456812Y-117883608D01*
X108342686Y-117949500D01*
X108342683Y-117949502D01*
X108249502Y-118042683D01*
X108249500Y-118042686D01*
X108183608Y-118156812D01*
X108149500Y-118284108D01*
X89500500Y-118284108D01*
X89500500Y-117760759D01*
X89520185Y-117693720D01*
X89572989Y-117647965D01*
X89642147Y-117638021D01*
X89693391Y-117657657D01*
X89770821Y-117709394D01*
X89770823Y-117709395D01*
X89770827Y-117709397D01*
X89870060Y-117750500D01*
X89916503Y-117769737D01*
X90071153Y-117800499D01*
X90071156Y-117800500D01*
X90071158Y-117800500D01*
X90928844Y-117800500D01*
X90928845Y-117800499D01*
X91083497Y-117769737D01*
X91229179Y-117709394D01*
X91360289Y-117621789D01*
X91471789Y-117510289D01*
X91559394Y-117379179D01*
X91619737Y-117233497D01*
X91629561Y-117184108D01*
X105999500Y-117184108D01*
X105999500Y-117315891D01*
X106033608Y-117443187D01*
X106066554Y-117500250D01*
X106099500Y-117557314D01*
X106192686Y-117650500D01*
X106306814Y-117716392D01*
X106434108Y-117750500D01*
X106434110Y-117750500D01*
X106565890Y-117750500D01*
X106565892Y-117750500D01*
X106693186Y-117716392D01*
X106807314Y-117650500D01*
X106900500Y-117557314D01*
X106966392Y-117443186D01*
X107000500Y-117315892D01*
X107000500Y-117249500D01*
X107020185Y-117182461D01*
X107072989Y-117136706D01*
X107124500Y-117125500D01*
X107190890Y-117125500D01*
X107190892Y-117125500D01*
X107318186Y-117091392D01*
X107432314Y-117025500D01*
X107525500Y-116932314D01*
X107591392Y-116818186D01*
X107625500Y-116690892D01*
X107625500Y-116559108D01*
X107591392Y-116431814D01*
X107525500Y-116317686D01*
X107432314Y-116224500D01*
X107375250Y-116191554D01*
X107318187Y-116158608D01*
X107254539Y-116141554D01*
X107190892Y-116124500D01*
X107059108Y-116124500D01*
X106931812Y-116158608D01*
X106817686Y-116224500D01*
X106817683Y-116224502D01*
X106724502Y-116317683D01*
X106724500Y-116317686D01*
X106658608Y-116431812D01*
X106624500Y-116559108D01*
X106624500Y-116625500D01*
X106604815Y-116692539D01*
X106552011Y-116738294D01*
X106500500Y-116749500D01*
X106434108Y-116749500D01*
X106306812Y-116783608D01*
X106192686Y-116849500D01*
X106192683Y-116849502D01*
X106099502Y-116942683D01*
X106099500Y-116942686D01*
X106033608Y-117056812D01*
X105999500Y-117184108D01*
X91629561Y-117184108D01*
X91641219Y-117125500D01*
X91650500Y-117078844D01*
X91650500Y-116921155D01*
X91650499Y-116921153D01*
X91644289Y-116889933D01*
X91619737Y-116766503D01*
X91600014Y-116718886D01*
X91559397Y-116620827D01*
X91559390Y-116620814D01*
X91471789Y-116489711D01*
X91471786Y-116489707D01*
X91360292Y-116378213D01*
X91360288Y-116378210D01*
X91229185Y-116290609D01*
X91229172Y-116290602D01*
X91083501Y-116230264D01*
X91083489Y-116230261D01*
X90928845Y-116199500D01*
X90928842Y-116199500D01*
X90071158Y-116199500D01*
X90071155Y-116199500D01*
X89916510Y-116230261D01*
X89916498Y-116230264D01*
X89770827Y-116290602D01*
X89770809Y-116290612D01*
X89693390Y-116342342D01*
X89626713Y-116363220D01*
X89559333Y-116344735D01*
X89512643Y-116292756D01*
X89500500Y-116239240D01*
X89500500Y-116091156D01*
X92274499Y-116091156D01*
X92310065Y-116269952D01*
X92310068Y-116269962D01*
X92379831Y-116438387D01*
X92379833Y-116438391D01*
X92481113Y-116589967D01*
X92481119Y-116589975D01*
X92610024Y-116718880D01*
X92610032Y-116718886D01*
X92761608Y-116820166D01*
X92761612Y-116820168D01*
X92930037Y-116889931D01*
X92930042Y-116889933D01*
X92930046Y-116889933D01*
X92930047Y-116889934D01*
X93108843Y-116925500D01*
X93108846Y-116925500D01*
X93291156Y-116925500D01*
X93411445Y-116901572D01*
X93469958Y-116889933D01*
X93638389Y-116820167D01*
X93638391Y-116820166D01*
X93760921Y-116738294D01*
X93789972Y-116718883D01*
X93918883Y-116589972D01*
X94020167Y-116438389D01*
X94022891Y-116431814D01*
X94053182Y-116358683D01*
X94089933Y-116269958D01*
X94098498Y-116226900D01*
X105028633Y-116226900D01*
X105028633Y-116358684D01*
X105033865Y-116378210D01*
X105062741Y-116485979D01*
X105089493Y-116532314D01*
X105128633Y-116600106D01*
X105221819Y-116693292D01*
X105335947Y-116759184D01*
X105463241Y-116793292D01*
X105463243Y-116793292D01*
X105595023Y-116793292D01*
X105595025Y-116793292D01*
X105722319Y-116759184D01*
X105836447Y-116693292D01*
X105929633Y-116600106D01*
X105995525Y-116485978D01*
X106029633Y-116358684D01*
X106029633Y-116226900D01*
X105995525Y-116099606D01*
X105929633Y-115985478D01*
X105836447Y-115892292D01*
X105779383Y-115859346D01*
X105722320Y-115826400D01*
X105658672Y-115809346D01*
X105595025Y-115792292D01*
X105463241Y-115792292D01*
X105335945Y-115826400D01*
X105221819Y-115892292D01*
X105221816Y-115892294D01*
X105128635Y-115985475D01*
X105128633Y-115985478D01*
X105062741Y-116099604D01*
X105046797Y-116159110D01*
X105028633Y-116226900D01*
X94098498Y-116226900D01*
X94104927Y-116194581D01*
X94125500Y-116091156D01*
X94125500Y-115908843D01*
X94089934Y-115730047D01*
X94089933Y-115730046D01*
X94089933Y-115730042D01*
X94089931Y-115730037D01*
X94020168Y-115561612D01*
X94020166Y-115561608D01*
X93918886Y-115410032D01*
X93918880Y-115410024D01*
X93789975Y-115281119D01*
X93789967Y-115281113D01*
X93638391Y-115179833D01*
X93638387Y-115179831D01*
X93469962Y-115110068D01*
X93469952Y-115110065D01*
X93291156Y-115074500D01*
X93291154Y-115074500D01*
X93108846Y-115074500D01*
X93108844Y-115074500D01*
X92930047Y-115110065D01*
X92930037Y-115110068D01*
X92761612Y-115179831D01*
X92761608Y-115179833D01*
X92610032Y-115281113D01*
X92610024Y-115281119D01*
X92481119Y-115410024D01*
X92481113Y-115410032D01*
X92379833Y-115561608D01*
X92379831Y-115561612D01*
X92310068Y-115730037D01*
X92310065Y-115730047D01*
X92274500Y-115908843D01*
X92274500Y-115908846D01*
X92274500Y-116091154D01*
X92274500Y-116091156D01*
X92274499Y-116091156D01*
X89500500Y-116091156D01*
X89500500Y-114434108D01*
X99597000Y-114434108D01*
X99597000Y-114565892D01*
X99610589Y-114616608D01*
X99631108Y-114693187D01*
X99656877Y-114737819D01*
X99697000Y-114807314D01*
X99790186Y-114900500D01*
X99904314Y-114966392D01*
X100031608Y-115000500D01*
X100031610Y-115000500D01*
X100163390Y-115000500D01*
X100163392Y-115000500D01*
X100290686Y-114966392D01*
X100404814Y-114900500D01*
X100498000Y-114807314D01*
X100563892Y-114693186D01*
X100584411Y-114616608D01*
X102999500Y-114616608D01*
X102999500Y-114748392D01*
X103015432Y-114807853D01*
X103033608Y-114875687D01*
X103047934Y-114900499D01*
X103099500Y-114989814D01*
X103192686Y-115083000D01*
X103306814Y-115148892D01*
X103434108Y-115183000D01*
X103434110Y-115183000D01*
X103565890Y-115183000D01*
X103565892Y-115183000D01*
X103693186Y-115148892D01*
X103807314Y-115083000D01*
X103900500Y-114989814D01*
X103966392Y-114875686D01*
X104000500Y-114748392D01*
X104000500Y-114616608D01*
X103966392Y-114489314D01*
X103900500Y-114375186D01*
X103807314Y-114282000D01*
X103735188Y-114240358D01*
X103693187Y-114216108D01*
X103605762Y-114192683D01*
X103565892Y-114182000D01*
X103434108Y-114182000D01*
X103306812Y-114216108D01*
X103192686Y-114282000D01*
X103192683Y-114282002D01*
X103099502Y-114375183D01*
X103099500Y-114375186D01*
X103033608Y-114489312D01*
X103013090Y-114565890D01*
X102999500Y-114616608D01*
X100584411Y-114616608D01*
X100598000Y-114565892D01*
X100598000Y-114434108D01*
X100563892Y-114306814D01*
X100498000Y-114192686D01*
X100404814Y-114099500D01*
X100347750Y-114066554D01*
X100290687Y-114033608D01*
X100227039Y-114016554D01*
X100163392Y-113999500D01*
X100031608Y-113999500D01*
X99904312Y-114033608D01*
X99790186Y-114099500D01*
X99790183Y-114099502D01*
X99697002Y-114192683D01*
X99697000Y-114192686D01*
X99631108Y-114306812D01*
X99612789Y-114375183D01*
X99597000Y-114434108D01*
X89500500Y-114434108D01*
X89500500Y-111091156D01*
X92274499Y-111091156D01*
X92310065Y-111269952D01*
X92310068Y-111269962D01*
X92379831Y-111438387D01*
X92379833Y-111438391D01*
X92481113Y-111589967D01*
X92481119Y-111589975D01*
X92610024Y-111718880D01*
X92610032Y-111718886D01*
X92761608Y-111820166D01*
X92761612Y-111820168D01*
X92834991Y-111850562D01*
X92930042Y-111889933D01*
X92930046Y-111889933D01*
X92930047Y-111889934D01*
X93108843Y-111925500D01*
X93108846Y-111925500D01*
X93291156Y-111925500D01*
X93424562Y-111898963D01*
X93469958Y-111889933D01*
X93582245Y-111843422D01*
X93638387Y-111820168D01*
X93638391Y-111820166D01*
X93713672Y-111769864D01*
X93789972Y-111718883D01*
X93918883Y-111589972D01*
X94001958Y-111465641D01*
X94020166Y-111438391D01*
X94020168Y-111438387D01*
X94069628Y-111318979D01*
X94089933Y-111269958D01*
X94110534Y-111166391D01*
X94125500Y-111091156D01*
X94125500Y-110908843D01*
X94089934Y-110730047D01*
X94089933Y-110730046D01*
X94089933Y-110730042D01*
X94081382Y-110709397D01*
X94020168Y-110561612D01*
X94020166Y-110561608D01*
X93918886Y-110410032D01*
X93918880Y-110410024D01*
X93789975Y-110281119D01*
X93789967Y-110281113D01*
X93638391Y-110179833D01*
X93638387Y-110179831D01*
X93469962Y-110110068D01*
X93469952Y-110110065D01*
X93291156Y-110074500D01*
X93291154Y-110074500D01*
X93108846Y-110074500D01*
X93108844Y-110074500D01*
X92930047Y-110110065D01*
X92930037Y-110110068D01*
X92761612Y-110179831D01*
X92761608Y-110179833D01*
X92610032Y-110281113D01*
X92610024Y-110281119D01*
X92481119Y-110410024D01*
X92481113Y-110410032D01*
X92379833Y-110561608D01*
X92379831Y-110561612D01*
X92310068Y-110730037D01*
X92310065Y-110730047D01*
X92274500Y-110908843D01*
X92274500Y-110908846D01*
X92274500Y-111091154D01*
X92274500Y-111091156D01*
X92274499Y-111091156D01*
X89500500Y-111091156D01*
X89500500Y-110760759D01*
X89520185Y-110693720D01*
X89572989Y-110647965D01*
X89642147Y-110638021D01*
X89693391Y-110657657D01*
X89747363Y-110693720D01*
X89770821Y-110709394D01*
X89770823Y-110709395D01*
X89770827Y-110709397D01*
X89867646Y-110749500D01*
X89916503Y-110769737D01*
X90060958Y-110798471D01*
X90071153Y-110800499D01*
X90071156Y-110800500D01*
X90071158Y-110800500D01*
X90928844Y-110800500D01*
X90928845Y-110800499D01*
X90958805Y-110794539D01*
X91026183Y-110781138D01*
X91026188Y-110781137D01*
X91066370Y-110773143D01*
X91083497Y-110769737D01*
X91229179Y-110709394D01*
X91360289Y-110621789D01*
X91471789Y-110510289D01*
X91559394Y-110379179D01*
X91559460Y-110379021D01*
X91578345Y-110333426D01*
X91619737Y-110233497D01*
X91650500Y-110078842D01*
X91650500Y-109921158D01*
X91650500Y-109921155D01*
X91650499Y-109921153D01*
X91641957Y-109878210D01*
X91619737Y-109766503D01*
X91617947Y-109762181D01*
X91559397Y-109620827D01*
X91559390Y-109620814D01*
X91471789Y-109489711D01*
X91471786Y-109489707D01*
X91360292Y-109378213D01*
X91360288Y-109378210D01*
X91229185Y-109290609D01*
X91229172Y-109290602D01*
X91083501Y-109230264D01*
X91083489Y-109230261D01*
X90928845Y-109199500D01*
X90928842Y-109199500D01*
X90071158Y-109199500D01*
X90071155Y-109199500D01*
X89916510Y-109230261D01*
X89916498Y-109230264D01*
X89770827Y-109290602D01*
X89770809Y-109290612D01*
X89693390Y-109342342D01*
X89626713Y-109363220D01*
X89559333Y-109344735D01*
X89512643Y-109292756D01*
X89500500Y-109239240D01*
X89500500Y-106120438D01*
X90699500Y-106120438D01*
X90699500Y-106199562D01*
X90719657Y-106274787D01*
X90719979Y-106275987D01*
X90719979Y-106275988D01*
X90756734Y-106339652D01*
X90759540Y-106344511D01*
X94698540Y-110283511D01*
X94754489Y-110339460D01*
X94754491Y-110339461D01*
X94754495Y-110339464D01*
X94793401Y-110361926D01*
X94823011Y-110379021D01*
X94899438Y-110399500D01*
X101758243Y-110399500D01*
X101825282Y-110419185D01*
X101871037Y-110471989D01*
X101880981Y-110541147D01*
X101865630Y-110585500D01*
X101846109Y-110619310D01*
X101846109Y-110619311D01*
X101846108Y-110619313D01*
X101846108Y-110619314D01*
X101841096Y-110638021D01*
X101812000Y-110746608D01*
X101812000Y-110850500D01*
X101809449Y-110859185D01*
X101810738Y-110868147D01*
X101799759Y-110892187D01*
X101792315Y-110917539D01*
X101785474Y-110923466D01*
X101781713Y-110931703D01*
X101759478Y-110945992D01*
X101739511Y-110963294D01*
X101728996Y-110965581D01*
X101722935Y-110969477D01*
X101688000Y-110974500D01*
X101483676Y-110974500D01*
X101416637Y-110954815D01*
X101395995Y-110938181D01*
X101307316Y-110849502D01*
X101307314Y-110849500D01*
X101222442Y-110800499D01*
X101193187Y-110783608D01*
X101127061Y-110765890D01*
X101065892Y-110749500D01*
X100934108Y-110749500D01*
X100806812Y-110783608D01*
X100692686Y-110849500D01*
X100692683Y-110849502D01*
X100599502Y-110942683D01*
X100599500Y-110942686D01*
X100533608Y-111056812D01*
X100499500Y-111184108D01*
X100499500Y-111315891D01*
X100533608Y-111443187D01*
X100566554Y-111500250D01*
X100599500Y-111557314D01*
X100692686Y-111650500D01*
X100806814Y-111716392D01*
X100934108Y-111750500D01*
X100934110Y-111750500D01*
X101065888Y-111750500D01*
X101065892Y-111750500D01*
X101084499Y-111745514D01*
X101154343Y-111747174D01*
X101212207Y-111786335D01*
X101239713Y-111850562D01*
X101233160Y-111898279D01*
X101235712Y-111898963D01*
X101233608Y-111906812D01*
X101233608Y-111906814D01*
X101216145Y-111971989D01*
X101199500Y-112034108D01*
X101199500Y-112165891D01*
X101233608Y-112293187D01*
X101241591Y-112307013D01*
X101299500Y-112407314D01*
X101392686Y-112500500D01*
X101506814Y-112566392D01*
X101634108Y-112600500D01*
X101634110Y-112600500D01*
X101765890Y-112600500D01*
X101765892Y-112600500D01*
X101893186Y-112566392D01*
X102007314Y-112500500D01*
X102100500Y-112407314D01*
X102166392Y-112293186D01*
X102200500Y-112165892D01*
X102200500Y-112034108D01*
X102195263Y-112014563D01*
X102196924Y-111944716D01*
X102236086Y-111886853D01*
X102300314Y-111859347D01*
X102369216Y-111870932D01*
X102402718Y-111894789D01*
X105942440Y-115434511D01*
X105998389Y-115490460D01*
X105998391Y-115490461D01*
X105998395Y-115490464D01*
X106066904Y-115530017D01*
X106066911Y-115530021D01*
X106143338Y-115550500D01*
X106143340Y-115550500D01*
X112461993Y-115550500D01*
X112529032Y-115570185D01*
X112574787Y-115622989D01*
X112584731Y-115692147D01*
X112555706Y-115755703D01*
X112523994Y-115781887D01*
X112450186Y-115824500D01*
X112450183Y-115824502D01*
X112357002Y-115917683D01*
X112357000Y-115917686D01*
X112291108Y-116031812D01*
X112272944Y-116099604D01*
X112257000Y-116159108D01*
X112257000Y-116290892D01*
X112270786Y-116342342D01*
X112291108Y-116418187D01*
X112298975Y-116431812D01*
X112357000Y-116532314D01*
X112450186Y-116625500D01*
X112549021Y-116682563D01*
X112563444Y-116690890D01*
X112564314Y-116691392D01*
X112691608Y-116725500D01*
X112691610Y-116725500D01*
X112823390Y-116725500D01*
X112823392Y-116725500D01*
X112950686Y-116691392D01*
X113064814Y-116625500D01*
X113158000Y-116532314D01*
X113223892Y-116418186D01*
X113258000Y-116290892D01*
X113258000Y-116159108D01*
X113223892Y-116031814D01*
X113158000Y-115917686D01*
X113064814Y-115824500D01*
X112991005Y-115781886D01*
X112942791Y-115731320D01*
X112929569Y-115662712D01*
X112955537Y-115597848D01*
X113012451Y-115557320D01*
X113053007Y-115550500D01*
X125489560Y-115550500D01*
X125489562Y-115550500D01*
X125565989Y-115530021D01*
X125634511Y-115490460D01*
X125690460Y-115434511D01*
X128838651Y-112286318D01*
X128899974Y-112252834D01*
X128926332Y-112250000D01*
X129919670Y-112250000D01*
X129899925Y-112269745D01*
X129850556Y-112355255D01*
X129825000Y-112450630D01*
X129825000Y-112549370D01*
X129850556Y-112644745D01*
X129899925Y-112730255D01*
X129919670Y-112750000D01*
X128825001Y-112750000D01*
X128825001Y-112899986D01*
X128835494Y-113002697D01*
X128890641Y-113169119D01*
X128890643Y-113169124D01*
X128982684Y-113318345D01*
X129106654Y-113442315D01*
X129255875Y-113534356D01*
X129255880Y-113534358D01*
X129422302Y-113589505D01*
X129422309Y-113589506D01*
X129525019Y-113599999D01*
X129949999Y-113599999D01*
X129950000Y-113599998D01*
X129950000Y-112780330D01*
X129969745Y-112800075D01*
X130055255Y-112849444D01*
X130150630Y-112875000D01*
X130249370Y-112875000D01*
X130344745Y-112849444D01*
X130430255Y-112800075D01*
X130450000Y-112780330D01*
X130450000Y-113599999D01*
X130874972Y-113599999D01*
X130874986Y-113599998D01*
X130977697Y-113589505D01*
X131144119Y-113534358D01*
X131144124Y-113534356D01*
X131293345Y-113442315D01*
X131417315Y-113318345D01*
X131509356Y-113169124D01*
X131509358Y-113169119D01*
X131564505Y-113002697D01*
X131564506Y-113002690D01*
X131574999Y-112899986D01*
X131575000Y-112899973D01*
X131575000Y-112750000D01*
X130480330Y-112750000D01*
X130500075Y-112730255D01*
X130549444Y-112644745D01*
X130575000Y-112549370D01*
X130575000Y-112450630D01*
X130549444Y-112355255D01*
X130500075Y-112269745D01*
X130480330Y-112250000D01*
X131574999Y-112250000D01*
X131574999Y-112100028D01*
X131574998Y-112100013D01*
X131564505Y-111997302D01*
X131509358Y-111830880D01*
X131509356Y-111830875D01*
X131417315Y-111681654D01*
X131293345Y-111557684D01*
X131144124Y-111465643D01*
X131144119Y-111465641D01*
X130977697Y-111410494D01*
X130977691Y-111410493D01*
X130952301Y-111407899D01*
X130887610Y-111381501D01*
X130847460Y-111324319D01*
X130844599Y-111254508D01*
X130879935Y-111194232D01*
X130896011Y-111181442D01*
X130985289Y-111121789D01*
X131096789Y-111010289D01*
X131184394Y-110879179D01*
X131188612Y-110868997D01*
X131217824Y-110798471D01*
X131244737Y-110733497D01*
X131275500Y-110578842D01*
X131275500Y-110421158D01*
X131275500Y-110421155D01*
X131275499Y-110421153D01*
X131271192Y-110399500D01*
X131244737Y-110266503D01*
X131211002Y-110185058D01*
X131184397Y-110120827D01*
X131184390Y-110120814D01*
X131096789Y-109989711D01*
X131096786Y-109989707D01*
X130985292Y-109878213D01*
X130985288Y-109878210D01*
X130854185Y-109790609D01*
X130854172Y-109790602D01*
X130708501Y-109730264D01*
X130708489Y-109730261D01*
X130553845Y-109699500D01*
X130553842Y-109699500D01*
X129846158Y-109699500D01*
X129846153Y-109699500D01*
X129721929Y-109724210D01*
X129652338Y-109717983D01*
X129597160Y-109675120D01*
X129573916Y-109609230D01*
X129589984Y-109541233D01*
X129610053Y-109514916D01*
X129788151Y-109336818D01*
X129849474Y-109303334D01*
X129875832Y-109300500D01*
X130553844Y-109300500D01*
X130553845Y-109300499D01*
X130708497Y-109269737D01*
X130854179Y-109209394D01*
X130985289Y-109121789D01*
X131096789Y-109010289D01*
X131184394Y-108879179D01*
X131189899Y-108865890D01*
X131217398Y-108799500D01*
X131244737Y-108733497D01*
X131275500Y-108578842D01*
X131275500Y-108421158D01*
X131275500Y-108421155D01*
X131275499Y-108421153D01*
X131258085Y-108333608D01*
X131244737Y-108266503D01*
X131244735Y-108266498D01*
X131184397Y-108120827D01*
X131184390Y-108120814D01*
X131096789Y-107989711D01*
X131096786Y-107989707D01*
X130985292Y-107878213D01*
X130985288Y-107878210D01*
X130854185Y-107790609D01*
X130854172Y-107790602D01*
X130708501Y-107730264D01*
X130708489Y-107730261D01*
X130553845Y-107699500D01*
X130553842Y-107699500D01*
X129846158Y-107699500D01*
X129846155Y-107699500D01*
X129691510Y-107730261D01*
X129691498Y-107730264D01*
X129545827Y-107790602D01*
X129545814Y-107790609D01*
X129414711Y-107878210D01*
X129414707Y-107878213D01*
X129303213Y-107989707D01*
X129303210Y-107989711D01*
X129215609Y-108120814D01*
X129215602Y-108120827D01*
X129155264Y-108266498D01*
X129155261Y-108266510D01*
X129124500Y-108421153D01*
X129124500Y-108578846D01*
X129155261Y-108733489D01*
X129155264Y-108733501D01*
X129215602Y-108879171D01*
X129215603Y-108879172D01*
X129215606Y-108879179D01*
X129215609Y-108879184D01*
X129215610Y-108879185D01*
X129231263Y-108902611D01*
X129252142Y-108969288D01*
X129233658Y-109036668D01*
X129215843Y-109059184D01*
X123861848Y-114413181D01*
X123800525Y-114446666D01*
X123774167Y-114449500D01*
X114199505Y-114449500D01*
X114132466Y-114429815D01*
X114086711Y-114377011D01*
X114076767Y-114307853D01*
X114079730Y-114293407D01*
X114082786Y-114282002D01*
X114100500Y-114215892D01*
X114100500Y-114084108D01*
X114066392Y-113956814D01*
X114000500Y-113842686D01*
X113907314Y-113749500D01*
X113843019Y-113712379D01*
X113794803Y-113661812D01*
X113781581Y-113593205D01*
X113807549Y-113528340D01*
X113864463Y-113487812D01*
X113872909Y-113485222D01*
X113943186Y-113466392D01*
X114057314Y-113400500D01*
X114150500Y-113307314D01*
X114216392Y-113193186D01*
X114250500Y-113065892D01*
X114250500Y-112975832D01*
X114270185Y-112908793D01*
X114286819Y-112888151D01*
X117838152Y-109336819D01*
X117899475Y-109303334D01*
X117925833Y-109300500D01*
X119166324Y-109300500D01*
X119233363Y-109320185D01*
X119254005Y-109336819D01*
X119317686Y-109400500D01*
X119431814Y-109466392D01*
X119559108Y-109500500D01*
X119559110Y-109500500D01*
X119690890Y-109500500D01*
X119690892Y-109500500D01*
X119818186Y-109466392D01*
X119932314Y-109400500D01*
X120025500Y-109307314D01*
X120091392Y-109193186D01*
X120125500Y-109065892D01*
X120125500Y-108934108D01*
X120091392Y-108806814D01*
X120025500Y-108692686D01*
X119932314Y-108599500D01*
X119875250Y-108566554D01*
X119818187Y-108533608D01*
X119754539Y-108516554D01*
X119690892Y-108499500D01*
X119559108Y-108499500D01*
X119431812Y-108533608D01*
X119317686Y-108599500D01*
X119317683Y-108599502D01*
X119254005Y-108663181D01*
X119192682Y-108696666D01*
X119166324Y-108699500D01*
X117710438Y-108699500D01*
X117672224Y-108709739D01*
X117634009Y-108719979D01*
X117613195Y-108731996D01*
X117610405Y-108733608D01*
X117609536Y-108734110D01*
X117565489Y-108759539D01*
X116879197Y-109445831D01*
X116817874Y-109479316D01*
X116748182Y-109474332D01*
X116692249Y-109432460D01*
X116684129Y-109420150D01*
X116672784Y-109400500D01*
X116624250Y-109316436D01*
X116531064Y-109223250D01*
X116474000Y-109190304D01*
X116416937Y-109157358D01*
X116330165Y-109134108D01*
X116289642Y-109123250D01*
X116157858Y-109123250D01*
X116030562Y-109157358D01*
X115916436Y-109223250D01*
X115916433Y-109223252D01*
X115823252Y-109316433D01*
X115823250Y-109316436D01*
X115757358Y-109430562D01*
X115734757Y-109514912D01*
X115723250Y-109557858D01*
X115723250Y-109689642D01*
X115734134Y-109730261D01*
X115757358Y-109816937D01*
X115758539Y-109818982D01*
X115823250Y-109931064D01*
X115916436Y-110024250D01*
X116003471Y-110074500D01*
X116020149Y-110084129D01*
X116068365Y-110134696D01*
X116081587Y-110203303D01*
X116055619Y-110268168D01*
X116045830Y-110279197D01*
X113861847Y-112463181D01*
X113800524Y-112496666D01*
X113774166Y-112499500D01*
X113684108Y-112499500D01*
X113556812Y-112533608D01*
X113442686Y-112599500D01*
X113442683Y-112599502D01*
X113349502Y-112692683D01*
X113349500Y-112692686D01*
X113283608Y-112806812D01*
X113249500Y-112934108D01*
X113249500Y-113074019D01*
X113246296Y-113074019D01*
X113237846Y-113128195D01*
X113191464Y-113180449D01*
X113124194Y-113199332D01*
X113057395Y-113178849D01*
X113037993Y-113163022D01*
X111233512Y-111358541D01*
X111233504Y-111358535D01*
X111164995Y-111318982D01*
X111164990Y-111318979D01*
X111139513Y-111312152D01*
X111088562Y-111298500D01*
X111088560Y-111298500D01*
X111058676Y-111298500D01*
X111044444Y-111294321D01*
X111029631Y-111295050D01*
X111011597Y-111284676D01*
X110991637Y-111278815D01*
X110981925Y-111267607D01*
X110969068Y-111260211D01*
X110959505Y-111241732D01*
X110945882Y-111226011D01*
X110943771Y-111211330D01*
X110936954Y-111198158D01*
X110938898Y-111177445D01*
X110935938Y-111156853D01*
X110942211Y-111142172D01*
X110943486Y-111128595D01*
X110956379Y-111109015D01*
X110961085Y-111098002D01*
X110965701Y-111092112D01*
X111050500Y-111007314D01*
X111056864Y-110996291D01*
X113381557Y-110996291D01*
X113381557Y-111128075D01*
X113382999Y-111133456D01*
X113415665Y-111255370D01*
X113440384Y-111298184D01*
X113481557Y-111369497D01*
X113574743Y-111462683D01*
X113688871Y-111528575D01*
X113816165Y-111562683D01*
X113816167Y-111562683D01*
X113947947Y-111562683D01*
X113947949Y-111562683D01*
X114075243Y-111528575D01*
X114189371Y-111462683D01*
X114282557Y-111369497D01*
X114348449Y-111255369D01*
X114382557Y-111128075D01*
X114382557Y-110996291D01*
X114348449Y-110868997D01*
X114282557Y-110754869D01*
X114189371Y-110661683D01*
X114115979Y-110619310D01*
X114075244Y-110595791D01*
X114011596Y-110578737D01*
X113947949Y-110561683D01*
X113816165Y-110561683D01*
X113688869Y-110595791D01*
X113574743Y-110661683D01*
X113574740Y-110661685D01*
X113481559Y-110754866D01*
X113481557Y-110754869D01*
X113415665Y-110868995D01*
X113401070Y-110923466D01*
X113381557Y-110996291D01*
X111056864Y-110996291D01*
X111116392Y-110893186D01*
X111150500Y-110765892D01*
X111150500Y-110634108D01*
X111116392Y-110506814D01*
X111050500Y-110392686D01*
X110957314Y-110299500D01*
X110895641Y-110263893D01*
X110843187Y-110233608D01*
X110779539Y-110216554D01*
X110715892Y-110199500D01*
X110584108Y-110199500D01*
X110456812Y-110233608D01*
X110342686Y-110299500D01*
X110342683Y-110299502D01*
X110249502Y-110392683D01*
X110249500Y-110392686D01*
X110183608Y-110506812D01*
X110170538Y-110555593D01*
X110149500Y-110634108D01*
X110149500Y-110765892D01*
X110158773Y-110800499D01*
X110183608Y-110893187D01*
X110192649Y-110908846D01*
X110249500Y-111007314D01*
X110249502Y-111007316D01*
X110329005Y-111086819D01*
X110362490Y-111148142D01*
X110357506Y-111217834D01*
X110315634Y-111273767D01*
X110250170Y-111298184D01*
X110241324Y-111298500D01*
X109558676Y-111298500D01*
X109491637Y-111278815D01*
X109445882Y-111226011D01*
X109435938Y-111156853D01*
X109464963Y-111093297D01*
X109470995Y-111086819D01*
X109503744Y-111054070D01*
X109550500Y-111007314D01*
X109616392Y-110893186D01*
X109650500Y-110765892D01*
X109650500Y-110634108D01*
X109616392Y-110506814D01*
X109550500Y-110392686D01*
X109457314Y-110299500D01*
X109395641Y-110263893D01*
X109343187Y-110233608D01*
X109279539Y-110216554D01*
X109215892Y-110199500D01*
X109084108Y-110199500D01*
X108956812Y-110233608D01*
X108842686Y-110299500D01*
X108842683Y-110299502D01*
X108749502Y-110392683D01*
X108749500Y-110392686D01*
X108683608Y-110506812D01*
X108670538Y-110555593D01*
X108649500Y-110634108D01*
X108649500Y-110765892D01*
X108658773Y-110800499D01*
X108683608Y-110893187D01*
X108692649Y-110908846D01*
X108749500Y-111007314D01*
X108749502Y-111007316D01*
X108829005Y-111086819D01*
X108862490Y-111148142D01*
X108857506Y-111217834D01*
X108815634Y-111273767D01*
X108750170Y-111298184D01*
X108741324Y-111298500D01*
X108058676Y-111298500D01*
X107991637Y-111278815D01*
X107945882Y-111226011D01*
X107935938Y-111156853D01*
X107964963Y-111093297D01*
X107970995Y-111086819D01*
X108003744Y-111054070D01*
X108050500Y-111007314D01*
X108116392Y-110893186D01*
X108150500Y-110765892D01*
X108150500Y-110634108D01*
X108116392Y-110506814D01*
X108050500Y-110392686D01*
X107957314Y-110299500D01*
X107895641Y-110263893D01*
X107843187Y-110233608D01*
X107779539Y-110216554D01*
X107715892Y-110199500D01*
X107584108Y-110199500D01*
X107456812Y-110233608D01*
X107342686Y-110299500D01*
X107342682Y-110299503D01*
X107308758Y-110333427D01*
X107247435Y-110366912D01*
X107177743Y-110361926D01*
X107133397Y-110333426D01*
X106658512Y-109858541D01*
X106658504Y-109858535D01*
X106589995Y-109818982D01*
X106589990Y-109818979D01*
X106571364Y-109813988D01*
X106520494Y-109800357D01*
X106460837Y-109763994D01*
X106430308Y-109701147D01*
X106438603Y-109631771D01*
X106464905Y-109592908D01*
X106550500Y-109507314D01*
X106616392Y-109393186D01*
X106650500Y-109265892D01*
X106650500Y-109134108D01*
X107149500Y-109134108D01*
X107149500Y-109265892D01*
X107163042Y-109316433D01*
X107183608Y-109393187D01*
X107205187Y-109430562D01*
X107249500Y-109507314D01*
X107342686Y-109600500D01*
X107456814Y-109666392D01*
X107584108Y-109700500D01*
X107584110Y-109700500D01*
X107715890Y-109700500D01*
X107715892Y-109700500D01*
X107843186Y-109666392D01*
X107957314Y-109600500D01*
X108050500Y-109507314D01*
X108116392Y-109393186D01*
X108150500Y-109265892D01*
X108150500Y-109134108D01*
X108649500Y-109134108D01*
X108649500Y-109265892D01*
X108663042Y-109316433D01*
X108683608Y-109393187D01*
X108705187Y-109430562D01*
X108749500Y-109507314D01*
X108842686Y-109600500D01*
X108956814Y-109666392D01*
X109084108Y-109700500D01*
X109084110Y-109700500D01*
X109215890Y-109700500D01*
X109215892Y-109700500D01*
X109343186Y-109666392D01*
X109457314Y-109600500D01*
X109550500Y-109507314D01*
X109616392Y-109393186D01*
X109650500Y-109265892D01*
X109650500Y-109134108D01*
X110149500Y-109134108D01*
X110149500Y-109265892D01*
X110163042Y-109316433D01*
X110183608Y-109393187D01*
X110205187Y-109430562D01*
X110249500Y-109507314D01*
X110342686Y-109600500D01*
X110456814Y-109666392D01*
X110584108Y-109700500D01*
X110584110Y-109700500D01*
X110715890Y-109700500D01*
X110715892Y-109700500D01*
X110843186Y-109666392D01*
X110957314Y-109600500D01*
X111050500Y-109507314D01*
X111116392Y-109393186D01*
X111150500Y-109265892D01*
X111150500Y-109134108D01*
X111116392Y-109006814D01*
X111050500Y-108892686D01*
X110957314Y-108799500D01*
X110900250Y-108766554D01*
X110843187Y-108733608D01*
X110779539Y-108716554D01*
X110715892Y-108699500D01*
X110584108Y-108699500D01*
X110456812Y-108733608D01*
X110342686Y-108799500D01*
X110342683Y-108799502D01*
X110249502Y-108892683D01*
X110249500Y-108892686D01*
X110183608Y-109006812D01*
X110167778Y-109065892D01*
X110149500Y-109134108D01*
X109650500Y-109134108D01*
X109616392Y-109006814D01*
X109550500Y-108892686D01*
X109457314Y-108799500D01*
X109400250Y-108766554D01*
X109343187Y-108733608D01*
X109279539Y-108716554D01*
X109215892Y-108699500D01*
X109084108Y-108699500D01*
X108956812Y-108733608D01*
X108842686Y-108799500D01*
X108842683Y-108799502D01*
X108749502Y-108892683D01*
X108749500Y-108892686D01*
X108683608Y-109006812D01*
X108667778Y-109065892D01*
X108649500Y-109134108D01*
X108150500Y-109134108D01*
X108116392Y-109006814D01*
X108050500Y-108892686D01*
X107957314Y-108799500D01*
X107900250Y-108766554D01*
X107843187Y-108733608D01*
X107779539Y-108716554D01*
X107715892Y-108699500D01*
X107584108Y-108699500D01*
X107456812Y-108733608D01*
X107342686Y-108799500D01*
X107342683Y-108799502D01*
X107249502Y-108892683D01*
X107249500Y-108892686D01*
X107183608Y-109006812D01*
X107167778Y-109065892D01*
X107149500Y-109134108D01*
X106650500Y-109134108D01*
X106616392Y-109006814D01*
X106550500Y-108892686D01*
X106457314Y-108799500D01*
X106400250Y-108766554D01*
X106343187Y-108733608D01*
X106279539Y-108716554D01*
X106215892Y-108699500D01*
X106084108Y-108699500D01*
X105956812Y-108733608D01*
X105842686Y-108799500D01*
X105842683Y-108799502D01*
X105749502Y-108892683D01*
X105749500Y-108892686D01*
X105683608Y-109006812D01*
X105667778Y-109065892D01*
X105649500Y-109134108D01*
X105649500Y-109265892D01*
X105663042Y-109316433D01*
X105683608Y-109393187D01*
X105705187Y-109430562D01*
X105749500Y-109507314D01*
X105749502Y-109507316D01*
X105829005Y-109586819D01*
X105862490Y-109648142D01*
X105857506Y-109717834D01*
X105815634Y-109773767D01*
X105750170Y-109798184D01*
X105741324Y-109798500D01*
X95114833Y-109798500D01*
X95047794Y-109778815D01*
X95027152Y-109762181D01*
X93999079Y-108734108D01*
X94799500Y-108734108D01*
X94799500Y-108865892D01*
X94809339Y-108902611D01*
X94833608Y-108993187D01*
X94843482Y-109010289D01*
X94899500Y-109107314D01*
X94992686Y-109200500D01*
X95091521Y-109257563D01*
X95105944Y-109265890D01*
X95106814Y-109266392D01*
X95234108Y-109300500D01*
X95234110Y-109300500D01*
X95365890Y-109300500D01*
X95365892Y-109300500D01*
X95493186Y-109266392D01*
X95607314Y-109200500D01*
X95700500Y-109107314D01*
X95766392Y-108993186D01*
X95800500Y-108865892D01*
X95800500Y-108734108D01*
X95766392Y-108606814D01*
X95700500Y-108492686D01*
X95607314Y-108399500D01*
X95550250Y-108366554D01*
X95493187Y-108333608D01*
X95429539Y-108316554D01*
X95365892Y-108299500D01*
X95234108Y-108299500D01*
X95106812Y-108333608D01*
X94992686Y-108399500D01*
X94992683Y-108399502D01*
X94899502Y-108492683D01*
X94899500Y-108492686D01*
X94833608Y-108606812D01*
X94810600Y-108692683D01*
X94799500Y-108734108D01*
X93999079Y-108734108D01*
X91184510Y-105919539D01*
X91155548Y-105902818D01*
X91115988Y-105879979D01*
X91039562Y-105859500D01*
X90960438Y-105859500D01*
X90884012Y-105879979D01*
X90884011Y-105879979D01*
X90815489Y-105919539D01*
X90759539Y-105975489D01*
X90719979Y-106044011D01*
X90719979Y-106044012D01*
X90699500Y-106120438D01*
X89500500Y-106120438D01*
X89500500Y-101040438D01*
X90699500Y-101040438D01*
X90699500Y-101119562D01*
X90719979Y-101195988D01*
X90759540Y-101264511D01*
X95579540Y-106084511D01*
X95635489Y-106140460D01*
X95635490Y-106140461D01*
X95635492Y-106140462D01*
X95661734Y-106155613D01*
X95709950Y-106206180D01*
X95723173Y-106274787D01*
X95697204Y-106339652D01*
X95640290Y-106380180D01*
X95599734Y-106387000D01*
X94243333Y-106387000D01*
X94176294Y-106367315D01*
X94155652Y-106350681D01*
X91184510Y-103379539D01*
X91155548Y-103362818D01*
X91115988Y-103339979D01*
X91039562Y-103319500D01*
X90960438Y-103319500D01*
X90884012Y-103339979D01*
X90884011Y-103339979D01*
X90815489Y-103379539D01*
X90759539Y-103435489D01*
X90719979Y-103504011D01*
X90719979Y-103504012D01*
X90699500Y-103580438D01*
X90699500Y-103659562D01*
X90703771Y-103675500D01*
X90719979Y-103735987D01*
X90719979Y-103735988D01*
X90751841Y-103791177D01*
X90759540Y-103804511D01*
X93827040Y-106872011D01*
X93882989Y-106927960D01*
X93882991Y-106927961D01*
X93882995Y-106927964D01*
X93951504Y-106967517D01*
X93951511Y-106967521D01*
X94027938Y-106988000D01*
X107278824Y-106988000D01*
X107345863Y-107007685D01*
X107366505Y-107024319D01*
X107430186Y-107088000D01*
X107544314Y-107153892D01*
X107671608Y-107188000D01*
X107671610Y-107188000D01*
X107803390Y-107188000D01*
X107803392Y-107188000D01*
X107930686Y-107153892D01*
X108044814Y-107088000D01*
X108138000Y-106994814D01*
X108203892Y-106880686D01*
X108238000Y-106753392D01*
X108238000Y-106621608D01*
X108220579Y-106556591D01*
X108222242Y-106486743D01*
X108261405Y-106428881D01*
X108325633Y-106401377D01*
X108340354Y-106400500D01*
X108415890Y-106400500D01*
X108415892Y-106400500D01*
X108543186Y-106366392D01*
X108657314Y-106300500D01*
X108750500Y-106207314D01*
X108816392Y-106093186D01*
X108850500Y-105965892D01*
X108850500Y-105834108D01*
X108816392Y-105706814D01*
X108750500Y-105592686D01*
X108657314Y-105499500D01*
X108579781Y-105454736D01*
X108543187Y-105433608D01*
X108479539Y-105416554D01*
X108415892Y-105399500D01*
X108284108Y-105399500D01*
X108156812Y-105433608D01*
X108042686Y-105499500D01*
X108042683Y-105499502D01*
X107979005Y-105563181D01*
X107917682Y-105596666D01*
X107891324Y-105599500D01*
X95995833Y-105599500D01*
X95928794Y-105579815D01*
X95908152Y-105563181D01*
X94716579Y-104371608D01*
X108062000Y-104371608D01*
X108062000Y-104503391D01*
X108096108Y-104630687D01*
X108121980Y-104675497D01*
X108162000Y-104744814D01*
X108255186Y-104838000D01*
X108369314Y-104903892D01*
X108496608Y-104938000D01*
X108496610Y-104938000D01*
X108628390Y-104938000D01*
X108628392Y-104938000D01*
X108755686Y-104903892D01*
X108869814Y-104838000D01*
X108963000Y-104744814D01*
X109028892Y-104630686D01*
X109063000Y-104503392D01*
X109063000Y-104503390D01*
X109065103Y-104495542D01*
X109067692Y-104496235D01*
X109090625Y-104444410D01*
X109148953Y-104405944D01*
X109185291Y-104400500D01*
X109290890Y-104400500D01*
X109290892Y-104400500D01*
X109418186Y-104366392D01*
X109532314Y-104300500D01*
X109625500Y-104207314D01*
X109691392Y-104093186D01*
X109725500Y-103965892D01*
X109725500Y-103899500D01*
X109745185Y-103832461D01*
X109797989Y-103786706D01*
X109849500Y-103775500D01*
X109915890Y-103775500D01*
X109915892Y-103775500D01*
X110043186Y-103741392D01*
X110157314Y-103675500D01*
X110250500Y-103582314D01*
X110316392Y-103468186D01*
X110350500Y-103340892D01*
X110350500Y-103209108D01*
X110316392Y-103081814D01*
X110250500Y-102967686D01*
X110157314Y-102874500D01*
X110100250Y-102841554D01*
X110043187Y-102808608D01*
X109979539Y-102791554D01*
X109915892Y-102774500D01*
X109784108Y-102774500D01*
X109656812Y-102808608D01*
X109542686Y-102874500D01*
X109542683Y-102874502D01*
X109449502Y-102967683D01*
X109449500Y-102967686D01*
X109383608Y-103081812D01*
X109349500Y-103209108D01*
X109349500Y-103275500D01*
X109329815Y-103342539D01*
X109277011Y-103388294D01*
X109225500Y-103399500D01*
X109159108Y-103399500D01*
X109031812Y-103433608D01*
X108917686Y-103499500D01*
X108917683Y-103499502D01*
X108824502Y-103592683D01*
X108824500Y-103592686D01*
X108758608Y-103706812D01*
X108750990Y-103735244D01*
X108724942Y-103832461D01*
X108722397Y-103841958D01*
X108719807Y-103841264D01*
X108696875Y-103893090D01*
X108638547Y-103931556D01*
X108602209Y-103937000D01*
X108496608Y-103937000D01*
X108369312Y-103971108D01*
X108255186Y-104037000D01*
X108255183Y-104037002D01*
X108162002Y-104130183D01*
X108162000Y-104130186D01*
X108096108Y-104244312D01*
X108062000Y-104371608D01*
X94716579Y-104371608D01*
X91184510Y-100839539D01*
X91155548Y-100822818D01*
X91115988Y-100799979D01*
X91039562Y-100779500D01*
X90960438Y-100779500D01*
X90884012Y-100799979D01*
X90884011Y-100799979D01*
X90815489Y-100839539D01*
X90759539Y-100895489D01*
X90719979Y-100964011D01*
X90719979Y-100964012D01*
X90699500Y-101040438D01*
X89500500Y-101040438D01*
X89500500Y-98241608D01*
X101749500Y-98241608D01*
X101749500Y-98373392D01*
X101756630Y-98400000D01*
X101783608Y-98500687D01*
X101807855Y-98542683D01*
X101849500Y-98614814D01*
X101942686Y-98708000D01*
X102056814Y-98773892D01*
X102184108Y-98808000D01*
X102184110Y-98808000D01*
X102315890Y-98808000D01*
X102315892Y-98808000D01*
X102443186Y-98773892D01*
X102557314Y-98708000D01*
X102650500Y-98614814D01*
X102716392Y-98500686D01*
X102750500Y-98373392D01*
X102750500Y-98241608D01*
X102716392Y-98114314D01*
X102650500Y-98000186D01*
X102557314Y-97907000D01*
X102495281Y-97871185D01*
X102443187Y-97841108D01*
X102366417Y-97820538D01*
X102315892Y-97807000D01*
X102184108Y-97807000D01*
X102056812Y-97841108D01*
X101942686Y-97907000D01*
X101942683Y-97907002D01*
X101849502Y-98000183D01*
X101849500Y-98000186D01*
X101783608Y-98114312D01*
X101751510Y-98234108D01*
X101749500Y-98241608D01*
X89500500Y-98241608D01*
X89500500Y-95740000D01*
X101750000Y-95740000D01*
X103250000Y-95740000D01*
X103250000Y-94240000D01*
X101750000Y-94240000D01*
X101750000Y-95740000D01*
X89500500Y-95740000D01*
X89500500Y-93909108D01*
X99299500Y-93909108D01*
X99299500Y-94040892D01*
X99316554Y-94104539D01*
X99333608Y-94168187D01*
X99336671Y-94173492D01*
X99399500Y-94282314D01*
X99492686Y-94375500D01*
X99606814Y-94441392D01*
X99734108Y-94475500D01*
X99734110Y-94475500D01*
X99865890Y-94475500D01*
X99865892Y-94475500D01*
X99993186Y-94441392D01*
X100107314Y-94375500D01*
X100200500Y-94282314D01*
X100266392Y-94168186D01*
X100300500Y-94040892D01*
X100300500Y-93909108D01*
X100266392Y-93781814D01*
X100200500Y-93667686D01*
X100107314Y-93574500D01*
X100050250Y-93541554D01*
X99993187Y-93508608D01*
X99929539Y-93491554D01*
X99865892Y-93474500D01*
X99734108Y-93474500D01*
X99606812Y-93508608D01*
X99492686Y-93574500D01*
X99492683Y-93574502D01*
X99399502Y-93667683D01*
X99399500Y-93667686D01*
X99333608Y-93781812D01*
X99327156Y-93805892D01*
X99299500Y-93909108D01*
X89500500Y-93909108D01*
X89500500Y-92271608D01*
X101249500Y-92271608D01*
X101249500Y-92403391D01*
X101283608Y-92530687D01*
X101316554Y-92587750D01*
X101349500Y-92644814D01*
X101442686Y-92738000D01*
X101556814Y-92803892D01*
X101684108Y-92838000D01*
X101684110Y-92838000D01*
X101815890Y-92838000D01*
X101815892Y-92838000D01*
X101943186Y-92803892D01*
X102057314Y-92738000D01*
X102150500Y-92644814D01*
X102216392Y-92530686D01*
X102250500Y-92403392D01*
X102250500Y-92271608D01*
X102216392Y-92144314D01*
X102150500Y-92030186D01*
X102057314Y-91937000D01*
X102000250Y-91904054D01*
X101943187Y-91871108D01*
X101835082Y-91842142D01*
X101815892Y-91837000D01*
X101684108Y-91837000D01*
X101556812Y-91871108D01*
X101442686Y-91937000D01*
X101442683Y-91937002D01*
X101349502Y-92030183D01*
X101349500Y-92030186D01*
X101283608Y-92144312D01*
X101249500Y-92271608D01*
X89500500Y-92271608D01*
X89500500Y-91710358D01*
X103575750Y-91710358D01*
X103575750Y-91842142D01*
X103583511Y-91871108D01*
X103609858Y-91969437D01*
X103642804Y-92026500D01*
X103675750Y-92083564D01*
X103768936Y-92176750D01*
X103883064Y-92242642D01*
X104010358Y-92276750D01*
X104010360Y-92276750D01*
X104100417Y-92276750D01*
X104167456Y-92296435D01*
X104188098Y-92313069D01*
X104864181Y-92989152D01*
X104897666Y-93050475D01*
X104900500Y-93076833D01*
X104900500Y-94200763D01*
X104880815Y-94267802D01*
X104828011Y-94313557D01*
X104758853Y-94323501D01*
X104744409Y-94320538D01*
X104665892Y-94299500D01*
X104534108Y-94299500D01*
X104406812Y-94333608D01*
X104292686Y-94399500D01*
X104292683Y-94399502D01*
X104199502Y-94492683D01*
X104199500Y-94492686D01*
X104133608Y-94606812D01*
X104099500Y-94734108D01*
X104099500Y-94824166D01*
X104079815Y-94891205D01*
X104063185Y-94911843D01*
X104058543Y-94916484D01*
X104058535Y-94916496D01*
X104018982Y-94985004D01*
X104018979Y-94985009D01*
X104005326Y-95035962D01*
X103998500Y-95061438D01*
X103998500Y-96638505D01*
X103999621Y-96642687D01*
X104018979Y-96714933D01*
X104018982Y-96714938D01*
X104058535Y-96783447D01*
X104058539Y-96783452D01*
X104058540Y-96783454D01*
X105010597Y-97735511D01*
X105066546Y-97791460D01*
X105066548Y-97791461D01*
X105066552Y-97791464D01*
X105093462Y-97807000D01*
X105135068Y-97831021D01*
X105211495Y-97851500D01*
X105290619Y-97851500D01*
X105573110Y-97851500D01*
X105640149Y-97871185D01*
X105660791Y-97887819D01*
X111377201Y-103604229D01*
X111410686Y-103665552D01*
X111405702Y-103735244D01*
X111363830Y-103791177D01*
X111336971Y-103806472D01*
X111331814Y-103808607D01*
X111217686Y-103874500D01*
X111217683Y-103874502D01*
X111124502Y-103967683D01*
X111124500Y-103967686D01*
X111058608Y-104081812D01*
X111045647Y-104130186D01*
X111024500Y-104209108D01*
X111024500Y-104340892D01*
X111040472Y-104400500D01*
X111058608Y-104468187D01*
X111078934Y-104503392D01*
X111124500Y-104582314D01*
X111217686Y-104675500D01*
X111331814Y-104741392D01*
X111459108Y-104775500D01*
X111459110Y-104775500D01*
X111590890Y-104775500D01*
X111590892Y-104775500D01*
X111718186Y-104741392D01*
X111832314Y-104675500D01*
X111925500Y-104582314D01*
X111991392Y-104468186D01*
X111991393Y-104468181D01*
X111993523Y-104463039D01*
X112014105Y-104437491D01*
X112033779Y-104411212D01*
X112035922Y-104410412D01*
X112037358Y-104408631D01*
X112068488Y-104398265D01*
X112099243Y-104386795D01*
X112101479Y-104387281D01*
X112103649Y-104386559D01*
X112135443Y-104394669D01*
X112167516Y-104401647D01*
X112169957Y-104403474D01*
X112171350Y-104403830D01*
X112195770Y-104422798D01*
X112360791Y-104587819D01*
X112394276Y-104649142D01*
X112389292Y-104718834D01*
X112347420Y-104774767D01*
X112281956Y-104799184D01*
X112273110Y-104799500D01*
X112184108Y-104799500D01*
X112056812Y-104833608D01*
X111942686Y-104899500D01*
X111942683Y-104899502D01*
X111849502Y-104992683D01*
X111849500Y-104992686D01*
X111783608Y-105106812D01*
X111749500Y-105234108D01*
X111749500Y-105365891D01*
X111783608Y-105493187D01*
X111794268Y-105511650D01*
X111849500Y-105607314D01*
X111942686Y-105700500D01*
X112056814Y-105766392D01*
X112184108Y-105800500D01*
X112184110Y-105800500D01*
X112315890Y-105800500D01*
X112315892Y-105800500D01*
X112443186Y-105766392D01*
X112557314Y-105700500D01*
X112650500Y-105607314D01*
X112705732Y-105511650D01*
X112718113Y-105490206D01*
X112768680Y-105441990D01*
X112837287Y-105428768D01*
X112902152Y-105454736D01*
X112942680Y-105511650D01*
X112949500Y-105552206D01*
X112949500Y-105590892D01*
X112953899Y-105607310D01*
X112983608Y-105718187D01*
X112990581Y-105730264D01*
X113049500Y-105832314D01*
X113142686Y-105925500D01*
X113212647Y-105965892D01*
X113253895Y-105989707D01*
X113256814Y-105991392D01*
X113384108Y-106025500D01*
X113384110Y-106025500D01*
X113450170Y-106025500D01*
X113517209Y-106045185D01*
X113562964Y-106097989D01*
X113572908Y-106167147D01*
X113543883Y-106230703D01*
X113537855Y-106237175D01*
X113374532Y-106400499D01*
X113211850Y-106563181D01*
X113150527Y-106596666D01*
X113124169Y-106599500D01*
X113034111Y-106599500D01*
X112906815Y-106633608D01*
X112792689Y-106699500D01*
X112792686Y-106699502D01*
X112699505Y-106792683D01*
X112699503Y-106792686D01*
X112633611Y-106906812D01*
X112606583Y-107007685D01*
X112599503Y-107034108D01*
X112599503Y-107165892D01*
X112605427Y-107188000D01*
X112633611Y-107293187D01*
X112666557Y-107350250D01*
X112699503Y-107407314D01*
X112792689Y-107500500D01*
X112906817Y-107566392D01*
X113034111Y-107600500D01*
X113034113Y-107600500D01*
X113165893Y-107600500D01*
X113165895Y-107600500D01*
X113293189Y-107566392D01*
X113407317Y-107500500D01*
X113500503Y-107407314D01*
X113566395Y-107293186D01*
X113600503Y-107165892D01*
X113600503Y-107075832D01*
X113620188Y-107008793D01*
X113636822Y-106988151D01*
X113925473Y-106699500D01*
X114054320Y-106570653D01*
X114115642Y-106537169D01*
X114185334Y-106542153D01*
X114241267Y-106584025D01*
X114265684Y-106649489D01*
X114266000Y-106658335D01*
X114266000Y-106806062D01*
X114283671Y-106872011D01*
X114286479Y-106882489D01*
X114307717Y-106919275D01*
X114307719Y-106919277D01*
X114312732Y-106927960D01*
X114326040Y-106951011D01*
X114367586Y-106992557D01*
X114371528Y-106997382D01*
X114382787Y-107024058D01*
X114396666Y-107049473D01*
X114397742Y-107059489D01*
X114398698Y-107061752D01*
X114398258Y-107064285D01*
X114399500Y-107075832D01*
X114399500Y-107165892D01*
X114405424Y-107188000D01*
X114433608Y-107293187D01*
X114466554Y-107350250D01*
X114499500Y-107407314D01*
X114592686Y-107500500D01*
X114706814Y-107566392D01*
X114834108Y-107600500D01*
X114834110Y-107600500D01*
X114965890Y-107600500D01*
X114965892Y-107600500D01*
X115093186Y-107566392D01*
X115207314Y-107500500D01*
X115300500Y-107407314D01*
X115366392Y-107293186D01*
X115400500Y-107165892D01*
X115400500Y-107034108D01*
X115366392Y-106906814D01*
X115300500Y-106792686D01*
X115207314Y-106699500D01*
X115093186Y-106633608D01*
X114965892Y-106599500D01*
X114958906Y-106597628D01*
X114935126Y-106583133D01*
X114909797Y-106571566D01*
X114905706Y-106565200D01*
X114899246Y-106561263D01*
X114887078Y-106536215D01*
X114872023Y-106512788D01*
X114870477Y-106502040D01*
X114868717Y-106498416D01*
X114867000Y-106477853D01*
X114867000Y-106421153D01*
X129124500Y-106421153D01*
X129124500Y-106578846D01*
X129155261Y-106733489D01*
X129155264Y-106733501D01*
X129215602Y-106879172D01*
X129215609Y-106879185D01*
X129303210Y-107010288D01*
X129303213Y-107010292D01*
X129414707Y-107121786D01*
X129414711Y-107121789D01*
X129545814Y-107209390D01*
X129545827Y-107209397D01*
X129691498Y-107269735D01*
X129691503Y-107269737D01*
X129846153Y-107300499D01*
X129846156Y-107300500D01*
X129846158Y-107300500D01*
X130553844Y-107300500D01*
X130553845Y-107300499D01*
X130708497Y-107269737D01*
X130854179Y-107209394D01*
X130985289Y-107121789D01*
X131096789Y-107010289D01*
X131184394Y-106879179D01*
X131244737Y-106733497D01*
X131275500Y-106578842D01*
X131275500Y-106421158D01*
X131275500Y-106421155D01*
X131275499Y-106421153D01*
X131271391Y-106400499D01*
X131244737Y-106266503D01*
X131220221Y-106207316D01*
X131184397Y-106120827D01*
X131184390Y-106120814D01*
X131096789Y-105989711D01*
X131096786Y-105989707D01*
X130985292Y-105878213D01*
X130985288Y-105878210D01*
X130854185Y-105790609D01*
X130854172Y-105790602D01*
X130708501Y-105730264D01*
X130708489Y-105730261D01*
X130553845Y-105699500D01*
X130553842Y-105699500D01*
X129846158Y-105699500D01*
X129846155Y-105699500D01*
X129691510Y-105730261D01*
X129691498Y-105730264D01*
X129545827Y-105790602D01*
X129545814Y-105790609D01*
X129414711Y-105878210D01*
X129414707Y-105878213D01*
X129303213Y-105989707D01*
X129303210Y-105989711D01*
X129215609Y-106120814D01*
X129215602Y-106120827D01*
X129155264Y-106266498D01*
X129155261Y-106266510D01*
X129124500Y-106421153D01*
X114867000Y-106421153D01*
X114867000Y-103089108D01*
X119662000Y-103089108D01*
X119662000Y-103220891D01*
X119696108Y-103348187D01*
X119714210Y-103379540D01*
X119762000Y-103462314D01*
X119855186Y-103555500D01*
X119969314Y-103621392D01*
X120096608Y-103655500D01*
X120096610Y-103655500D01*
X120228390Y-103655500D01*
X120228392Y-103655500D01*
X120355686Y-103621392D01*
X120469814Y-103555500D01*
X120563000Y-103462314D01*
X120628892Y-103348186D01*
X120663000Y-103220892D01*
X120663000Y-103089108D01*
X126837000Y-103089108D01*
X126837000Y-103220891D01*
X126871108Y-103348187D01*
X126889210Y-103379540D01*
X126937000Y-103462314D01*
X127030186Y-103555500D01*
X127144314Y-103621392D01*
X127271608Y-103655500D01*
X127271610Y-103655500D01*
X127403390Y-103655500D01*
X127403392Y-103655500D01*
X127530686Y-103621392D01*
X127644814Y-103555500D01*
X127738000Y-103462314D01*
X127803892Y-103348186D01*
X127838000Y-103220892D01*
X127838000Y-103089108D01*
X127803892Y-102961814D01*
X127738000Y-102847686D01*
X127644814Y-102754500D01*
X127587750Y-102721554D01*
X127530687Y-102688608D01*
X127467039Y-102671554D01*
X127403392Y-102654500D01*
X127271608Y-102654500D01*
X127144312Y-102688608D01*
X127030186Y-102754500D01*
X127030183Y-102754502D01*
X126937002Y-102847683D01*
X126937000Y-102847686D01*
X126871108Y-102961812D01*
X126837000Y-103089108D01*
X120663000Y-103089108D01*
X120628892Y-102961814D01*
X120563000Y-102847686D01*
X120469814Y-102754500D01*
X120412750Y-102721554D01*
X120355687Y-102688608D01*
X120292039Y-102671554D01*
X120228392Y-102654500D01*
X120096608Y-102654500D01*
X119969312Y-102688608D01*
X119855186Y-102754500D01*
X119855183Y-102754502D01*
X119762002Y-102847683D01*
X119762000Y-102847686D01*
X119696108Y-102961812D01*
X119662000Y-103089108D01*
X114867000Y-103089108D01*
X114867000Y-101819108D01*
X126837000Y-101819108D01*
X126837000Y-101950891D01*
X126871108Y-102078187D01*
X126904054Y-102135250D01*
X126937000Y-102192314D01*
X127030186Y-102285500D01*
X127144314Y-102351392D01*
X127271608Y-102385500D01*
X127271610Y-102385500D01*
X127403390Y-102385500D01*
X127403392Y-102385500D01*
X127530686Y-102351392D01*
X127644814Y-102285500D01*
X127738000Y-102192314D01*
X127803892Y-102078186D01*
X127838000Y-101950892D01*
X127838000Y-101819108D01*
X127803892Y-101691814D01*
X127738000Y-101577686D01*
X127644814Y-101484500D01*
X127587750Y-101451554D01*
X127530687Y-101418608D01*
X127467039Y-101401554D01*
X127403392Y-101384500D01*
X127271608Y-101384500D01*
X127144312Y-101418608D01*
X127030186Y-101484500D01*
X127030183Y-101484502D01*
X126937002Y-101577683D01*
X126937000Y-101577686D01*
X126871108Y-101691812D01*
X126837000Y-101819108D01*
X114867000Y-101819108D01*
X114867000Y-101306577D01*
X114886685Y-101239538D01*
X114939489Y-101193783D01*
X115008647Y-101183839D01*
X115053002Y-101199191D01*
X115056814Y-101201392D01*
X115184108Y-101235500D01*
X115184110Y-101235500D01*
X115315890Y-101235500D01*
X115315892Y-101235500D01*
X115443186Y-101201392D01*
X115557314Y-101135500D01*
X115650500Y-101042314D01*
X115716392Y-100928186D01*
X115750500Y-100800892D01*
X115750500Y-100669108D01*
X115718346Y-100549108D01*
X119662000Y-100549108D01*
X119662000Y-100680891D01*
X119696108Y-100808187D01*
X119714210Y-100839540D01*
X119762000Y-100922314D01*
X119855186Y-101015500D01*
X119969314Y-101081392D01*
X120096608Y-101115500D01*
X120096610Y-101115500D01*
X120228390Y-101115500D01*
X120228392Y-101115500D01*
X120355686Y-101081392D01*
X120469814Y-101015500D01*
X120563000Y-100922314D01*
X120628892Y-100808186D01*
X120663000Y-100680892D01*
X120663000Y-100549108D01*
X120628892Y-100421814D01*
X120563000Y-100307686D01*
X120469814Y-100214500D01*
X120381345Y-100163422D01*
X120355687Y-100148608D01*
X120292039Y-100131554D01*
X120228392Y-100114500D01*
X120096608Y-100114500D01*
X119969312Y-100148608D01*
X119855186Y-100214500D01*
X119855183Y-100214502D01*
X119762002Y-100307683D01*
X119762000Y-100307686D01*
X119696108Y-100421812D01*
X119662000Y-100549108D01*
X115718346Y-100549108D01*
X115716392Y-100541814D01*
X115650500Y-100427686D01*
X115557314Y-100334500D01*
X115475529Y-100287281D01*
X115443187Y-100268608D01*
X115379539Y-100251554D01*
X115315892Y-100234500D01*
X115184108Y-100234500D01*
X115056814Y-100268608D01*
X115056813Y-100268608D01*
X115056811Y-100268609D01*
X115056810Y-100268609D01*
X115052997Y-100270811D01*
X115049371Y-100271690D01*
X115049300Y-100271720D01*
X115049295Y-100271708D01*
X114985096Y-100287281D01*
X114919070Y-100264427D01*
X114875881Y-100209505D01*
X114867000Y-100163422D01*
X114867000Y-99279108D01*
X119662000Y-99279108D01*
X119662000Y-99410891D01*
X119696108Y-99538187D01*
X119727572Y-99592683D01*
X119762000Y-99652314D01*
X119855186Y-99745500D01*
X119969314Y-99811392D01*
X120096608Y-99845500D01*
X120096610Y-99845500D01*
X120228390Y-99845500D01*
X120228392Y-99845500D01*
X120355686Y-99811392D01*
X120469814Y-99745500D01*
X120563000Y-99652314D01*
X120628892Y-99538186D01*
X120663000Y-99410892D01*
X120663000Y-99279108D01*
X120628892Y-99151814D01*
X120563000Y-99037686D01*
X120469814Y-98944500D01*
X120391415Y-98899236D01*
X120355687Y-98878608D01*
X120292039Y-98861554D01*
X120228392Y-98844500D01*
X120096608Y-98844500D01*
X119969312Y-98878608D01*
X119855186Y-98944500D01*
X119855183Y-98944502D01*
X119762002Y-99037683D01*
X119762000Y-99037686D01*
X119696108Y-99151812D01*
X119662000Y-99279108D01*
X114867000Y-99279108D01*
X114867000Y-98899236D01*
X114886685Y-98832197D01*
X114939489Y-98786442D01*
X115008647Y-98776498D01*
X115023071Y-98779456D01*
X115101608Y-98800500D01*
X115101611Y-98800500D01*
X115233390Y-98800500D01*
X115233392Y-98800500D01*
X115360686Y-98766392D01*
X115474814Y-98700500D01*
X115568000Y-98607314D01*
X115633892Y-98493186D01*
X115668000Y-98365892D01*
X115668000Y-98234108D01*
X115633892Y-98106814D01*
X115568000Y-97992686D01*
X115474814Y-97899500D01*
X115391676Y-97851500D01*
X115360687Y-97833608D01*
X115297039Y-97816554D01*
X115233392Y-97799500D01*
X115101608Y-97799500D01*
X115023092Y-97820537D01*
X114953243Y-97818875D01*
X114895381Y-97779712D01*
X114867877Y-97715484D01*
X114867000Y-97700763D01*
X114867000Y-96151940D01*
X114866999Y-96151936D01*
X114866614Y-96150500D01*
X114858687Y-96120913D01*
X114846522Y-96075512D01*
X114806960Y-96006989D01*
X113011819Y-94211848D01*
X112978334Y-94150525D01*
X112975500Y-94124167D01*
X112975500Y-94034110D01*
X112975500Y-94034108D01*
X112941392Y-93906814D01*
X112875500Y-93792686D01*
X112782314Y-93699500D01*
X112725250Y-93666554D01*
X112668187Y-93633608D01*
X112604539Y-93616554D01*
X112540892Y-93599500D01*
X112409108Y-93599500D01*
X112281812Y-93633608D01*
X112167686Y-93699500D01*
X112167683Y-93699502D01*
X112074502Y-93792683D01*
X112074500Y-93792686D01*
X112008608Y-93906812D01*
X111978784Y-94018118D01*
X111974500Y-94034108D01*
X111974500Y-94165892D01*
X111983844Y-94200763D01*
X112008608Y-94293187D01*
X112026110Y-94323501D01*
X112074500Y-94407314D01*
X112167686Y-94500500D01*
X112281814Y-94566392D01*
X112409108Y-94600500D01*
X112409110Y-94600500D01*
X112499167Y-94600500D01*
X112566206Y-94620185D01*
X112586848Y-94636819D01*
X114229681Y-96279652D01*
X114263166Y-96340975D01*
X114266000Y-96367333D01*
X114266000Y-104341667D01*
X114246315Y-104408706D01*
X114193511Y-104454461D01*
X114124353Y-104464405D01*
X114060797Y-104435380D01*
X114054319Y-104429348D01*
X109636819Y-100011848D01*
X109603334Y-99950525D01*
X109600500Y-99924167D01*
X109600500Y-99834110D01*
X109600500Y-99834108D01*
X109566392Y-99706814D01*
X109504723Y-99600000D01*
X110700000Y-99600000D01*
X112300000Y-99600000D01*
X112300000Y-98400000D01*
X110700000Y-98400000D01*
X110700000Y-99600000D01*
X109504723Y-99600000D01*
X109500500Y-99592686D01*
X109407314Y-99499500D01*
X109407312Y-99499499D01*
X109407310Y-99499497D01*
X109390171Y-99489602D01*
X109341956Y-99439034D01*
X109328735Y-99370426D01*
X109354704Y-99305562D01*
X109390171Y-99274831D01*
X109432314Y-99250500D01*
X109525500Y-99157314D01*
X109591392Y-99043186D01*
X109625500Y-98915892D01*
X109625500Y-98784108D01*
X109591392Y-98656814D01*
X109525500Y-98542686D01*
X109432314Y-98449500D01*
X109346578Y-98400000D01*
X109318187Y-98383608D01*
X109252061Y-98365890D01*
X109190892Y-98349500D01*
X109059108Y-98349500D01*
X108931812Y-98383608D01*
X108817686Y-98449500D01*
X108817683Y-98449502D01*
X108724502Y-98542683D01*
X108724500Y-98542686D01*
X108658608Y-98656812D01*
X108644893Y-98707999D01*
X108624500Y-98784108D01*
X108624500Y-98915892D01*
X108632166Y-98944502D01*
X108658608Y-99043187D01*
X108691554Y-99100250D01*
X108724500Y-99157314D01*
X108817686Y-99250500D01*
X108834827Y-99260396D01*
X108883042Y-99310964D01*
X108896264Y-99379571D01*
X108870296Y-99444435D01*
X108834827Y-99475170D01*
X108792686Y-99499500D01*
X108792683Y-99499502D01*
X108699502Y-99592683D01*
X108699500Y-99592686D01*
X108633607Y-99706814D01*
X108624977Y-99739023D01*
X108588611Y-99798682D01*
X108525764Y-99829211D01*
X108456388Y-99820914D01*
X108417522Y-99794608D01*
X105960360Y-97337446D01*
X105926875Y-97276123D01*
X105931859Y-97206431D01*
X105940655Y-97187764D01*
X105966389Y-97143191D01*
X105966388Y-97143191D01*
X105966392Y-97143186D01*
X106000500Y-97015892D01*
X106000500Y-96884108D01*
X105966392Y-96756814D01*
X105962658Y-96750347D01*
X105951839Y-96731608D01*
X111499500Y-96731608D01*
X111499500Y-96863392D01*
X111505051Y-96884108D01*
X111533608Y-96990687D01*
X111566554Y-97047750D01*
X111599500Y-97104814D01*
X111692686Y-97198000D01*
X111806814Y-97263892D01*
X111934108Y-97298000D01*
X111934110Y-97298000D01*
X112065890Y-97298000D01*
X112065892Y-97298000D01*
X112193186Y-97263892D01*
X112307314Y-97198000D01*
X112400500Y-97104814D01*
X112466392Y-96990686D01*
X112500500Y-96863392D01*
X112500500Y-96731608D01*
X112466392Y-96604314D01*
X112400500Y-96490186D01*
X112307314Y-96397000D01*
X112230169Y-96352460D01*
X112193187Y-96331108D01*
X112129539Y-96314054D01*
X112065892Y-96297000D01*
X111934108Y-96297000D01*
X111806812Y-96331108D01*
X111692686Y-96397000D01*
X111692683Y-96397002D01*
X111599502Y-96490183D01*
X111599500Y-96490186D01*
X111533608Y-96604312D01*
X111523327Y-96642683D01*
X111499500Y-96731608D01*
X105951839Y-96731608D01*
X105942211Y-96714932D01*
X105900500Y-96642686D01*
X105807314Y-96549500D01*
X105750250Y-96516554D01*
X105693187Y-96483608D01*
X105629539Y-96466554D01*
X105565892Y-96449500D01*
X105434108Y-96449500D01*
X105348126Y-96472538D01*
X105348123Y-96472539D01*
X105306814Y-96483608D01*
X105192686Y-96549500D01*
X105173693Y-96568492D01*
X105173691Y-96568494D01*
X105099499Y-96642687D01*
X105058857Y-96713081D01*
X105040761Y-96730334D01*
X105025780Y-96750347D01*
X105015912Y-96754027D01*
X105008289Y-96761296D01*
X104983740Y-96766026D01*
X104960316Y-96774764D01*
X104950023Y-96772524D01*
X104939682Y-96774518D01*
X104916472Y-96765226D01*
X104892043Y-96759912D01*
X104879220Y-96750312D01*
X104874817Y-96748550D01*
X104863789Y-96738761D01*
X104705659Y-96580631D01*
X104672174Y-96519308D01*
X104677158Y-96449616D01*
X104719030Y-96393683D01*
X104784494Y-96369266D01*
X104825428Y-96373174D01*
X104834108Y-96375500D01*
X104834112Y-96375500D01*
X104965889Y-96375500D01*
X104965892Y-96375500D01*
X105093186Y-96341392D01*
X105207314Y-96275500D01*
X105300500Y-96182314D01*
X105366392Y-96068186D01*
X105400500Y-95940892D01*
X105400500Y-95850833D01*
X105420185Y-95783794D01*
X105423745Y-95778552D01*
X105429649Y-95770321D01*
X105441460Y-95758511D01*
X105452147Y-95740000D01*
X105481021Y-95689989D01*
X105501500Y-95613562D01*
X105501500Y-95584108D01*
X110474500Y-95584108D01*
X110474500Y-95715892D01*
X110480960Y-95740000D01*
X110508608Y-95843187D01*
X110513023Y-95850833D01*
X110574500Y-95957314D01*
X110667686Y-96050500D01*
X110781814Y-96116392D01*
X110909108Y-96150500D01*
X110909110Y-96150500D01*
X111040890Y-96150500D01*
X111040892Y-96150500D01*
X111168186Y-96116392D01*
X111282314Y-96050500D01*
X111375500Y-95957314D01*
X111441392Y-95843186D01*
X111475500Y-95715892D01*
X111475500Y-95584108D01*
X111441392Y-95456814D01*
X111375500Y-95342686D01*
X111282314Y-95249500D01*
X111204258Y-95204434D01*
X111168187Y-95183608D01*
X111104539Y-95166554D01*
X111040892Y-95149500D01*
X110909108Y-95149500D01*
X110781812Y-95183608D01*
X110667686Y-95249500D01*
X110667683Y-95249502D01*
X110574502Y-95342683D01*
X110574500Y-95342686D01*
X110508608Y-95456812D01*
X110504923Y-95470565D01*
X110474500Y-95584108D01*
X105501500Y-95584108D01*
X105501500Y-94774676D01*
X105521185Y-94707637D01*
X105573989Y-94661882D01*
X105643147Y-94651938D01*
X105706703Y-94680963D01*
X105713181Y-94686995D01*
X105766686Y-94740500D01*
X105880814Y-94806392D01*
X106008108Y-94840500D01*
X106008110Y-94840500D01*
X106139890Y-94840500D01*
X106139892Y-94840500D01*
X106267186Y-94806392D01*
X106381314Y-94740500D01*
X106474500Y-94647314D01*
X106540392Y-94533186D01*
X106574500Y-94405892D01*
X106574500Y-94274108D01*
X106540392Y-94146814D01*
X106474500Y-94032686D01*
X106381314Y-93939500D01*
X106322120Y-93905324D01*
X106267187Y-93873608D01*
X106203539Y-93856554D01*
X106139892Y-93839500D01*
X106008108Y-93839500D01*
X105880812Y-93873608D01*
X105766686Y-93939500D01*
X105766683Y-93939502D01*
X105713181Y-93993005D01*
X105693744Y-94003617D01*
X105677011Y-94018118D01*
X105663679Y-94020034D01*
X105651858Y-94026490D01*
X105629771Y-94024910D01*
X105607853Y-94028062D01*
X105595601Y-94022466D01*
X105582166Y-94021506D01*
X105564439Y-94008235D01*
X105544297Y-93999037D01*
X105537014Y-93987705D01*
X105526233Y-93979634D01*
X105518495Y-93958888D01*
X105506523Y-93940259D01*
X105503371Y-93918340D01*
X105501816Y-93914170D01*
X105501500Y-93905324D01*
X105501500Y-93674108D01*
X106774500Y-93674108D01*
X106774500Y-93805891D01*
X106808608Y-93933187D01*
X106823447Y-93958888D01*
X106874500Y-94047314D01*
X106967686Y-94140500D01*
X107081814Y-94206392D01*
X107209108Y-94240500D01*
X107209110Y-94240500D01*
X107340890Y-94240500D01*
X107340892Y-94240500D01*
X107468186Y-94206392D01*
X107582314Y-94140500D01*
X107675500Y-94047314D01*
X107741392Y-93933186D01*
X107775500Y-93805892D01*
X107775500Y-93674108D01*
X107741392Y-93546814D01*
X107675500Y-93432686D01*
X107582314Y-93339500D01*
X107482526Y-93281887D01*
X107434310Y-93231320D01*
X107421088Y-93162713D01*
X107447056Y-93097848D01*
X107503970Y-93057320D01*
X107532948Y-93052446D01*
X107532832Y-93051561D01*
X107540883Y-93050500D01*
X107540892Y-93050500D01*
X107668186Y-93016392D01*
X107782314Y-92950500D01*
X107875500Y-92857314D01*
X107941392Y-92743186D01*
X107975500Y-92615892D01*
X107975500Y-92484108D01*
X107941392Y-92356814D01*
X107875500Y-92242686D01*
X107782314Y-92149500D01*
X107725250Y-92116554D01*
X107668187Y-92083608D01*
X107604539Y-92066554D01*
X107540892Y-92049500D01*
X107409108Y-92049500D01*
X107281812Y-92083608D01*
X107167686Y-92149500D01*
X107167683Y-92149502D01*
X107074502Y-92242683D01*
X107074500Y-92242686D01*
X107008608Y-92356812D01*
X106974500Y-92484108D01*
X106974500Y-92615891D01*
X107008608Y-92743187D01*
X107032755Y-92785010D01*
X107074500Y-92857314D01*
X107167686Y-92950500D01*
X107234633Y-92989152D01*
X107267474Y-93008113D01*
X107315690Y-93058680D01*
X107328912Y-93127287D01*
X107302944Y-93192152D01*
X107246030Y-93232680D01*
X107217051Y-93237553D01*
X107217168Y-93238439D01*
X107209108Y-93239500D01*
X107081812Y-93273608D01*
X106967686Y-93339500D01*
X106967683Y-93339502D01*
X106874502Y-93432683D01*
X106874500Y-93432686D01*
X106808608Y-93546812D01*
X106774500Y-93674108D01*
X105501500Y-93674108D01*
X105501500Y-92861441D01*
X105501500Y-92861438D01*
X105495220Y-92838000D01*
X105481022Y-92785012D01*
X105441460Y-92716489D01*
X104613069Y-91888098D01*
X104579584Y-91826775D01*
X104576750Y-91800417D01*
X104576750Y-91710360D01*
X104576750Y-91710358D01*
X104542642Y-91583064D01*
X104476750Y-91468936D01*
X104383564Y-91375750D01*
X104326500Y-91342804D01*
X104269437Y-91309858D01*
X104205789Y-91292804D01*
X104142142Y-91275750D01*
X104010358Y-91275750D01*
X103883062Y-91309858D01*
X103768936Y-91375750D01*
X103768933Y-91375752D01*
X103675752Y-91468933D01*
X103675750Y-91468936D01*
X103609858Y-91583062D01*
X103575750Y-91710358D01*
X89500500Y-91710358D01*
X89500500Y-90684108D01*
X107974500Y-90684108D01*
X107974500Y-90815891D01*
X108008608Y-90943187D01*
X108041554Y-91000250D01*
X108074500Y-91057314D01*
X108167686Y-91150500D01*
X108281814Y-91216392D01*
X108409108Y-91250500D01*
X108409110Y-91250500D01*
X108540890Y-91250500D01*
X108540892Y-91250500D01*
X108668186Y-91216392D01*
X108782314Y-91150500D01*
X108795995Y-91136819D01*
X108857318Y-91103334D01*
X108883676Y-91100500D01*
X110146142Y-91100500D01*
X110146144Y-91100500D01*
X110235288Y-91076614D01*
X110245912Y-91070480D01*
X110315212Y-91030470D01*
X111408862Y-89936818D01*
X111470185Y-89903334D01*
X111496543Y-89900500D01*
X111515890Y-89900500D01*
X111515892Y-89900500D01*
X111643186Y-89866392D01*
X111757314Y-89800500D01*
X111850500Y-89707314D01*
X111916392Y-89593186D01*
X111950500Y-89465892D01*
X111950500Y-89334108D01*
X111916392Y-89206814D01*
X111850500Y-89092686D01*
X111757314Y-88999500D01*
X111664837Y-88946108D01*
X111643187Y-88933608D01*
X111562543Y-88912000D01*
X111515892Y-88899500D01*
X111384108Y-88899500D01*
X111256812Y-88933608D01*
X111142686Y-88999500D01*
X111142683Y-88999502D01*
X111049502Y-89092683D01*
X111049500Y-89092686D01*
X110983608Y-89206812D01*
X110949500Y-89334108D01*
X110949500Y-89353456D01*
X110929815Y-89420495D01*
X110913181Y-89441137D01*
X109991137Y-90363181D01*
X109929814Y-90396666D01*
X109903456Y-90399500D01*
X108883676Y-90399500D01*
X108816637Y-90379815D01*
X108795995Y-90363181D01*
X108782316Y-90349502D01*
X108782314Y-90349500D01*
X108725250Y-90316554D01*
X108668187Y-90283608D01*
X108604539Y-90266554D01*
X108540892Y-90249500D01*
X108409108Y-90249500D01*
X108281812Y-90283608D01*
X108167686Y-90349500D01*
X108167683Y-90349502D01*
X108074502Y-90442683D01*
X108074500Y-90442686D01*
X108008608Y-90556812D01*
X107974500Y-90684108D01*
X89500500Y-90684108D01*
X89500500Y-89346608D01*
X109187000Y-89346608D01*
X109187000Y-89478391D01*
X109221108Y-89605687D01*
X109254054Y-89662750D01*
X109287000Y-89719814D01*
X109380186Y-89813000D01*
X109494314Y-89878892D01*
X109621608Y-89913000D01*
X109621610Y-89913000D01*
X109753390Y-89913000D01*
X109753392Y-89913000D01*
X109880686Y-89878892D01*
X109994814Y-89813000D01*
X110088000Y-89719814D01*
X110153892Y-89605686D01*
X110188000Y-89478392D01*
X110188000Y-89346608D01*
X110153892Y-89219314D01*
X110088000Y-89105186D01*
X109994814Y-89012000D01*
X109937750Y-88979054D01*
X109880687Y-88946108D01*
X109817039Y-88929054D01*
X109753392Y-88912000D01*
X109621608Y-88912000D01*
X109494312Y-88946108D01*
X109380186Y-89012000D01*
X109380183Y-89012002D01*
X109287002Y-89105183D01*
X109287000Y-89105186D01*
X109221108Y-89219312D01*
X109187000Y-89346608D01*
X89500500Y-89346608D01*
X89500500Y-86684108D01*
X121999500Y-86684108D01*
X121999500Y-86815891D01*
X122033608Y-86943187D01*
X122066554Y-87000250D01*
X122099500Y-87057314D01*
X122192686Y-87150500D01*
X122306814Y-87216392D01*
X122434108Y-87250500D01*
X122434110Y-87250500D01*
X122565890Y-87250500D01*
X122565892Y-87250500D01*
X122693186Y-87216392D01*
X122807314Y-87150500D01*
X122900500Y-87057314D01*
X122966392Y-86943186D01*
X123000500Y-86815892D01*
X123000500Y-86684108D01*
X122966392Y-86556814D01*
X122900500Y-86442686D01*
X122807314Y-86349500D01*
X122750250Y-86316554D01*
X122693187Y-86283608D01*
X122629539Y-86266554D01*
X122565892Y-86249500D01*
X122434108Y-86249500D01*
X122306812Y-86283608D01*
X122192686Y-86349500D01*
X122192683Y-86349502D01*
X122099502Y-86442683D01*
X122099500Y-86442686D01*
X122033608Y-86556812D01*
X121999500Y-86684108D01*
X89500500Y-86684108D01*
X89500500Y-85814108D01*
X90499500Y-85814108D01*
X90499500Y-85945891D01*
X90533608Y-86073187D01*
X90566554Y-86130250D01*
X90599500Y-86187314D01*
X90692686Y-86280500D01*
X90806814Y-86346392D01*
X90934108Y-86380500D01*
X90934110Y-86380500D01*
X91065890Y-86380500D01*
X91065892Y-86380500D01*
X91193186Y-86346392D01*
X91307314Y-86280500D01*
X91400500Y-86187314D01*
X91466392Y-86073186D01*
X91500500Y-85945892D01*
X91500500Y-85814108D01*
X91466392Y-85686814D01*
X91435962Y-85634108D01*
X128049500Y-85634108D01*
X128049500Y-85765891D01*
X128083608Y-85893187D01*
X128114037Y-85945890D01*
X128149500Y-86007314D01*
X128242686Y-86100500D01*
X128356814Y-86166392D01*
X128484108Y-86200500D01*
X128484110Y-86200500D01*
X128615890Y-86200500D01*
X128615892Y-86200500D01*
X128743186Y-86166392D01*
X128857314Y-86100500D01*
X128950500Y-86007314D01*
X129016392Y-85893186D01*
X129050500Y-85765892D01*
X129050500Y-85634108D01*
X129016392Y-85506814D01*
X128950500Y-85392686D01*
X128857314Y-85299500D01*
X128800250Y-85266554D01*
X128743187Y-85233608D01*
X128679539Y-85216554D01*
X128615892Y-85199500D01*
X128484108Y-85199500D01*
X128356812Y-85233608D01*
X128242686Y-85299500D01*
X128242683Y-85299502D01*
X128149502Y-85392683D01*
X128149500Y-85392686D01*
X128083608Y-85506812D01*
X128049500Y-85634108D01*
X91435962Y-85634108D01*
X91400500Y-85572686D01*
X91307314Y-85479500D01*
X91250250Y-85446554D01*
X91193187Y-85413608D01*
X91115092Y-85392683D01*
X91065892Y-85379500D01*
X90934108Y-85379500D01*
X90806812Y-85413608D01*
X90692686Y-85479500D01*
X90692683Y-85479502D01*
X90599502Y-85572683D01*
X90599500Y-85572686D01*
X90533608Y-85686812D01*
X90499500Y-85814108D01*
X89500500Y-85814108D01*
X89500500Y-84934108D01*
X117387000Y-84934108D01*
X117387000Y-85065891D01*
X117421108Y-85193187D01*
X117424753Y-85199500D01*
X117487000Y-85307314D01*
X117580186Y-85400500D01*
X117694314Y-85466392D01*
X117821608Y-85500500D01*
X117821610Y-85500500D01*
X117953390Y-85500500D01*
X117953392Y-85500500D01*
X118080686Y-85466392D01*
X118194814Y-85400500D01*
X118288000Y-85307314D01*
X118353892Y-85193186D01*
X118388000Y-85065892D01*
X118388000Y-84934108D01*
X118353892Y-84806814D01*
X118288000Y-84692686D01*
X118194814Y-84599500D01*
X118137750Y-84566554D01*
X118080687Y-84533608D01*
X118017039Y-84516554D01*
X117953392Y-84499500D01*
X117821608Y-84499500D01*
X117694312Y-84533608D01*
X117580186Y-84599500D01*
X117580183Y-84599502D01*
X117487002Y-84692683D01*
X117487000Y-84692686D01*
X117421108Y-84806812D01*
X117387000Y-84934108D01*
X89500500Y-84934108D01*
X89500500Y-76893713D01*
X90649500Y-76893713D01*
X90649500Y-77106287D01*
X90682754Y-77316243D01*
X90737134Y-77483608D01*
X90748444Y-77518414D01*
X90844951Y-77707820D01*
X90969890Y-77879786D01*
X91120213Y-78030109D01*
X91292179Y-78155048D01*
X91292181Y-78155049D01*
X91292184Y-78155051D01*
X91481588Y-78251557D01*
X91683757Y-78317246D01*
X91893713Y-78350500D01*
X91893714Y-78350500D01*
X92106286Y-78350500D01*
X92106287Y-78350500D01*
X92316243Y-78317246D01*
X92518412Y-78251557D01*
X92707816Y-78155051D01*
X92847114Y-78053846D01*
X92879786Y-78030109D01*
X92879788Y-78030106D01*
X92879792Y-78030104D01*
X93030104Y-77879792D01*
X93030106Y-77879788D01*
X93030109Y-77879786D01*
X93155048Y-77707820D01*
X93155047Y-77707820D01*
X93155051Y-77707816D01*
X93251557Y-77518412D01*
X93307528Y-77346153D01*
X102699500Y-77346153D01*
X102699500Y-78053846D01*
X102730261Y-78208489D01*
X102730264Y-78208501D01*
X102790602Y-78354172D01*
X102790609Y-78354185D01*
X102878210Y-78485288D01*
X102878213Y-78485292D01*
X102989707Y-78596786D01*
X102989711Y-78596789D01*
X103120814Y-78684390D01*
X103120827Y-78684397D01*
X103225596Y-78727793D01*
X103266503Y-78744737D01*
X103406810Y-78772646D01*
X103421153Y-78775499D01*
X103421156Y-78775500D01*
X103421158Y-78775500D01*
X103578844Y-78775500D01*
X103578845Y-78775499D01*
X103733497Y-78744737D01*
X103879179Y-78684394D01*
X104010289Y-78596789D01*
X104121789Y-78485289D01*
X104209394Y-78354179D01*
X104269737Y-78208497D01*
X104300500Y-78053842D01*
X104300500Y-77346158D01*
X104300500Y-77346155D01*
X104300499Y-77346153D01*
X104269738Y-77191510D01*
X104269737Y-77191503D01*
X104234440Y-77106287D01*
X104217474Y-77065327D01*
X104217458Y-77065289D01*
X104216394Y-77062722D01*
X104209394Y-77045821D01*
X104209391Y-77045816D01*
X104209390Y-77045814D01*
X104192629Y-77020730D01*
X104699500Y-77020730D01*
X104699500Y-78379269D01*
X104702353Y-78409699D01*
X104702353Y-78409701D01*
X104747206Y-78537880D01*
X104747207Y-78537882D01*
X104827850Y-78647150D01*
X104937118Y-78727793D01*
X104979845Y-78742744D01*
X105065299Y-78772646D01*
X105095730Y-78775500D01*
X105095734Y-78775500D01*
X105904270Y-78775500D01*
X105934699Y-78772646D01*
X105934701Y-78772646D01*
X105998790Y-78750219D01*
X106062882Y-78727793D01*
X106172150Y-78647150D01*
X106252793Y-78537882D01*
X106283370Y-78450499D01*
X106297646Y-78409701D01*
X106297646Y-78409699D01*
X106300500Y-78379269D01*
X106300500Y-77884108D01*
X110062000Y-77884108D01*
X110062000Y-78015892D01*
X110072169Y-78053842D01*
X110096108Y-78143187D01*
X110102958Y-78155051D01*
X110162000Y-78257314D01*
X110255186Y-78350500D01*
X110369314Y-78416392D01*
X110496608Y-78450500D01*
X110496610Y-78450500D01*
X110628390Y-78450500D01*
X110628392Y-78450500D01*
X110755686Y-78416392D01*
X110869814Y-78350500D01*
X110963000Y-78257314D01*
X111028892Y-78143186D01*
X111063000Y-78015892D01*
X111063000Y-77884108D01*
X111028892Y-77756814D01*
X110963000Y-77642686D01*
X110869814Y-77549500D01*
X110812750Y-77516554D01*
X110755687Y-77483608D01*
X110692039Y-77466554D01*
X110628392Y-77449500D01*
X110496608Y-77449500D01*
X110369312Y-77483608D01*
X110255186Y-77549500D01*
X110255183Y-77549502D01*
X110162002Y-77642683D01*
X110162000Y-77642686D01*
X110096108Y-77756812D01*
X110063158Y-77879786D01*
X110062000Y-77884108D01*
X106300500Y-77884108D01*
X106300500Y-77020730D01*
X106297646Y-76990300D01*
X106297646Y-76990298D01*
X106263849Y-76893713D01*
X129649500Y-76893713D01*
X129649500Y-77106287D01*
X129682754Y-77316243D01*
X129737134Y-77483608D01*
X129748444Y-77518414D01*
X129844951Y-77707820D01*
X129969890Y-77879786D01*
X130120213Y-78030109D01*
X130292179Y-78155048D01*
X130292181Y-78155049D01*
X130292184Y-78155051D01*
X130481588Y-78251557D01*
X130683757Y-78317246D01*
X130893713Y-78350500D01*
X130893714Y-78350500D01*
X131106286Y-78350500D01*
X131106287Y-78350500D01*
X131316243Y-78317246D01*
X131518412Y-78251557D01*
X131707816Y-78155051D01*
X131847114Y-78053846D01*
X131879786Y-78030109D01*
X131879788Y-78030106D01*
X131879792Y-78030104D01*
X132030104Y-77879792D01*
X132030106Y-77879788D01*
X132030109Y-77879786D01*
X132155048Y-77707820D01*
X132155047Y-77707820D01*
X132155051Y-77707816D01*
X132251557Y-77518412D01*
X132317246Y-77316243D01*
X132350500Y-77106287D01*
X132350500Y-76893713D01*
X132317246Y-76683757D01*
X132251557Y-76481588D01*
X132155051Y-76292184D01*
X132155049Y-76292181D01*
X132155048Y-76292179D01*
X132030109Y-76120213D01*
X131879786Y-75969890D01*
X131707820Y-75844951D01*
X131518414Y-75748444D01*
X131518413Y-75748443D01*
X131518412Y-75748443D01*
X131316243Y-75682754D01*
X131316241Y-75682753D01*
X131316240Y-75682753D01*
X131154957Y-75657208D01*
X131106287Y-75649500D01*
X130893713Y-75649500D01*
X130845042Y-75657208D01*
X130683760Y-75682753D01*
X130481585Y-75748444D01*
X130292179Y-75844951D01*
X130120213Y-75969890D01*
X129969890Y-76120213D01*
X129844951Y-76292179D01*
X129748444Y-76481585D01*
X129682753Y-76683760D01*
X129656344Y-76850499D01*
X129649500Y-76893713D01*
X106263849Y-76893713D01*
X106252793Y-76862119D01*
X106252792Y-76862117D01*
X106172150Y-76752850D01*
X106062882Y-76672207D01*
X106062880Y-76672206D01*
X105934700Y-76627353D01*
X105904270Y-76624500D01*
X105904266Y-76624500D01*
X105095734Y-76624500D01*
X105095730Y-76624500D01*
X105065300Y-76627353D01*
X105065298Y-76627353D01*
X104937119Y-76672206D01*
X104937117Y-76672207D01*
X104827850Y-76752850D01*
X104747207Y-76862117D01*
X104747206Y-76862119D01*
X104702353Y-76990298D01*
X104702353Y-76990300D01*
X104699500Y-77020730D01*
X104192629Y-77020730D01*
X104121789Y-76914711D01*
X104121786Y-76914707D01*
X104010292Y-76803213D01*
X104010288Y-76803210D01*
X103879185Y-76715609D01*
X103879172Y-76715602D01*
X103733501Y-76655264D01*
X103733489Y-76655261D01*
X103578845Y-76624500D01*
X103578842Y-76624500D01*
X103421158Y-76624500D01*
X103421155Y-76624500D01*
X103266510Y-76655261D01*
X103266498Y-76655264D01*
X103120827Y-76715602D01*
X103120814Y-76715609D01*
X102989711Y-76803210D01*
X102989707Y-76803213D01*
X102878213Y-76914707D01*
X102878210Y-76914711D01*
X102790609Y-77045814D01*
X102790602Y-77045827D01*
X102730264Y-77191498D01*
X102730261Y-77191510D01*
X102699500Y-77346153D01*
X93307528Y-77346153D01*
X93317246Y-77316243D01*
X93350500Y-77106287D01*
X93350500Y-76893713D01*
X93317246Y-76683757D01*
X93251557Y-76481588D01*
X93155051Y-76292184D01*
X93149184Y-76284108D01*
X116499500Y-76284108D01*
X116499500Y-76415891D01*
X116533608Y-76543187D01*
X116566554Y-76600250D01*
X116599500Y-76657314D01*
X116692686Y-76750500D01*
X116783982Y-76803210D01*
X116806810Y-76816390D01*
X116806814Y-76816392D01*
X116934108Y-76850500D01*
X116934110Y-76850500D01*
X117065890Y-76850500D01*
X117065892Y-76850500D01*
X117193186Y-76816392D01*
X117307314Y-76750500D01*
X117400500Y-76657314D01*
X117466392Y-76543186D01*
X117500500Y-76415892D01*
X117500500Y-76284108D01*
X117466392Y-76156814D01*
X117400500Y-76042686D01*
X117307314Y-75949500D01*
X117250250Y-75916554D01*
X117193187Y-75883608D01*
X117129539Y-75866554D01*
X117065892Y-75849500D01*
X116934108Y-75849500D01*
X116806812Y-75883608D01*
X116692686Y-75949500D01*
X116692683Y-75949502D01*
X116599502Y-76042683D01*
X116599500Y-76042686D01*
X116533608Y-76156812D01*
X116499500Y-76284108D01*
X93149184Y-76284108D01*
X93147023Y-76281134D01*
X93030109Y-76120213D01*
X92879786Y-75969890D01*
X92707820Y-75844951D01*
X92518414Y-75748444D01*
X92518413Y-75748443D01*
X92518412Y-75748443D01*
X92316243Y-75682754D01*
X92316241Y-75682753D01*
X92316240Y-75682753D01*
X92154957Y-75657208D01*
X92106287Y-75649500D01*
X91893713Y-75649500D01*
X91845042Y-75657208D01*
X91683760Y-75682753D01*
X91481585Y-75748444D01*
X91292179Y-75844951D01*
X91120213Y-75969890D01*
X90969890Y-76120213D01*
X90844951Y-76292179D01*
X90748444Y-76481585D01*
X90682753Y-76683760D01*
X90656344Y-76850499D01*
X90649500Y-76893713D01*
X89500500Y-76893713D01*
X89500500Y-74624500D01*
X89520185Y-74557461D01*
X89572989Y-74511706D01*
X89624500Y-74500500D01*
X133375500Y-74500500D01*
X133442539Y-74520185D01*
G37*
%TD.AperFunction*%
%TD*%
M02*
