%TF.GenerationSoftware,KiCad,Pcbnew,9.0.4*%
%TF.CreationDate,2026-06-28T13:41:14-04:00*%
%TF.ProjectId,XDQ-001,5844512d-3030-4312-9e6b-696361645f70,rev?*%
%TF.SameCoordinates,Original*%
%TF.FileFunction,Paste,Top*%
%TF.FilePolarity,Positive*%
%FSLAX46Y46*%
G04 Gerber Fmt 4.6, Leading zero omitted, Abs format (unit mm)*
G04 Created by KiCad (PCBNEW 9.0.4) date 2026-06-28 13:41:14*
%MOMM*%
%LPD*%
G01*
G04 APERTURE LIST*
G04 Aperture macros list*
%AMRoundRect*
0 Rectangle with rounded corners*
0 $1 Rounding radius*
0 $2 $3 $4 $5 $6 $7 $8 $9 X,Y pos of 4 corners*
0 Add a 4 corners polygon primitive as box body*
4,1,4,$2,$3,$4,$5,$6,$7,$8,$9,$2,$3,0*
0 Add four circle primitives for the rounded corners*
1,1,$1+$1,$2,$3*
1,1,$1+$1,$4,$5*
1,1,$1+$1,$6,$7*
1,1,$1+$1,$8,$9*
0 Add four rect primitives between the rounded corners*
20,1,$1+$1,$2,$3,$4,$5,0*
20,1,$1+$1,$4,$5,$6,$7,0*
20,1,$1+$1,$6,$7,$8,$9,0*
20,1,$1+$1,$8,$9,$2,$3,0*%
G04 Aperture macros list end*
%ADD10RoundRect,0.155000X-0.155000X0.212500X-0.155000X-0.212500X0.155000X-0.212500X0.155000X0.212500X0*%
%ADD11RoundRect,0.150000X0.512500X0.150000X-0.512500X0.150000X-0.512500X-0.150000X0.512500X-0.150000X0*%
%ADD12RoundRect,0.155000X0.212500X0.155000X-0.212500X0.155000X-0.212500X-0.155000X0.212500X-0.155000X0*%
%ADD13RoundRect,0.093750X-0.156250X-0.093750X0.156250X-0.093750X0.156250X0.093750X-0.156250X0.093750X0*%
%ADD14RoundRect,0.075000X-0.250000X-0.075000X0.250000X-0.075000X0.250000X0.075000X-0.250000X0.075000X0*%
%ADD15RoundRect,0.160000X-0.160000X0.197500X-0.160000X-0.197500X0.160000X-0.197500X0.160000X0.197500X0*%
%ADD16RoundRect,0.147500X-0.147500X-0.172500X0.147500X-0.172500X0.147500X0.172500X-0.147500X0.172500X0*%
%ADD17RoundRect,0.250000X0.550000X-1.250000X0.550000X1.250000X-0.550000X1.250000X-0.550000X-1.250000X0*%
%ADD18RoundRect,0.160000X0.160000X-0.197500X0.160000X0.197500X-0.160000X0.197500X-0.160000X-0.197500X0*%
%ADD19RoundRect,0.237500X0.237500X-0.300000X0.237500X0.300000X-0.237500X0.300000X-0.237500X-0.300000X0*%
%ADD20RoundRect,0.150000X-0.512500X-0.150000X0.512500X-0.150000X0.512500X0.150000X-0.512500X0.150000X0*%
%ADD21RoundRect,0.160000X0.197500X0.160000X-0.197500X0.160000X-0.197500X-0.160000X0.197500X-0.160000X0*%
%ADD22RoundRect,0.155000X-0.212500X-0.155000X0.212500X-0.155000X0.212500X0.155000X-0.212500X0.155000X0*%
%ADD23RoundRect,0.155000X0.155000X-0.212500X0.155000X0.212500X-0.155000X0.212500X-0.155000X-0.212500X0*%
%ADD24RoundRect,0.237500X-0.287500X-0.237500X0.287500X-0.237500X0.287500X0.237500X-0.287500X0.237500X0*%
%ADD25R,1.350000X0.400000*%
%ADD26R,1.900000X1.500000*%
%ADD27RoundRect,0.250000X0.315000X0.315000X-0.315000X0.315000X-0.315000X-0.315000X0.315000X-0.315000X0*%
%ADD28RoundRect,0.062500X0.375000X0.062500X-0.375000X0.062500X-0.375000X-0.062500X0.375000X-0.062500X0*%
%ADD29RoundRect,0.062500X0.062500X0.375000X-0.062500X0.375000X-0.062500X-0.375000X0.062500X-0.375000X0*%
%ADD30RoundRect,0.237500X-0.300000X-0.237500X0.300000X-0.237500X0.300000X0.237500X-0.300000X0.237500X0*%
%ADD31R,0.400000X0.600000*%
%ADD32RoundRect,0.250000X0.300000X-0.275000X0.300000X0.275000X-0.300000X0.275000X-0.300000X-0.275000X0*%
%ADD33RoundRect,0.237500X0.300000X0.237500X-0.300000X0.237500X-0.300000X-0.237500X0.300000X-0.237500X0*%
%ADD34RoundRect,0.160000X-0.197500X-0.160000X0.197500X-0.160000X0.197500X0.160000X-0.197500X0.160000X0*%
%ADD35RoundRect,0.250000X0.900000X-1.000000X0.900000X1.000000X-0.900000X1.000000X-0.900000X-1.000000X0*%
%ADD36RoundRect,0.237500X0.237500X-0.287500X0.237500X0.287500X-0.237500X0.287500X-0.237500X-0.287500X0*%
%ADD37R,0.675000X0.280000*%
%ADD38R,0.280000X0.675000*%
%ADD39RoundRect,0.150000X-0.587500X-0.150000X0.587500X-0.150000X0.587500X0.150000X-0.587500X0.150000X0*%
%ADD40RoundRect,0.162500X-0.650000X-0.162500X0.650000X-0.162500X0.650000X0.162500X-0.650000X0.162500X0*%
%ADD41R,0.250000X0.450000*%
%ADD42R,0.450000X0.250000*%
%ADD43RoundRect,0.237500X0.287500X0.237500X-0.287500X0.237500X-0.287500X-0.237500X0.287500X-0.237500X0*%
%ADD44RoundRect,0.150000X-0.150000X0.512500X-0.150000X-0.512500X0.150000X-0.512500X0.150000X0.512500X0*%
%ADD45RoundRect,0.237500X-0.237500X0.300000X-0.237500X-0.300000X0.237500X-0.300000X0.237500X0.300000X0*%
G04 APERTURE END LIST*
D10*
%TO.C,C22*%
X102250000Y-97172500D03*
X102250000Y-98307500D03*
%TD*%
D11*
%TO.C,U6*%
X98387500Y-83200000D03*
X98387500Y-82250000D03*
X98387500Y-81300000D03*
X96112500Y-81300000D03*
X96112500Y-83200000D03*
%TD*%
D12*
%TO.C,C4*%
X120317500Y-111250000D03*
X119182500Y-111250000D03*
%TD*%
%TO.C,C13*%
X113892500Y-116225000D03*
X112757500Y-116225000D03*
%TD*%
D13*
%TO.C,U1*%
X95650000Y-113462500D03*
D14*
X95575000Y-114000000D03*
D13*
X95650000Y-114537500D03*
X97350000Y-114537500D03*
D14*
X97425000Y-114000000D03*
D13*
X97350000Y-113462500D03*
%TD*%
D15*
%TO.C,R3*%
X99000000Y-111152500D03*
X99000000Y-112347500D03*
%TD*%
D16*
%TO.C,FB2*%
X116515000Y-99667500D03*
X117485000Y-99667500D03*
%TD*%
D17*
%TO.C,C2*%
X122500000Y-80700000D03*
X122500000Y-76300000D03*
%TD*%
D18*
%TO.C,R7*%
X120000000Y-97597500D03*
X120000000Y-96402500D03*
%TD*%
D19*
%TO.C,C20*%
X104000000Y-91852500D03*
X104000000Y-90127500D03*
%TD*%
D20*
%TO.C,U4*%
X114612500Y-86550000D03*
X114612500Y-87500000D03*
X114612500Y-88450000D03*
X116887500Y-88450000D03*
X116887500Y-86550000D03*
%TD*%
D21*
%TO.C,R13*%
X128447500Y-92250000D03*
X127252500Y-92250000D03*
%TD*%
D15*
%TO.C,R10*%
X97500000Y-76402500D03*
X97500000Y-77597500D03*
%TD*%
D22*
%TO.C,C1*%
X102682500Y-117750000D03*
X103817500Y-117750000D03*
%TD*%
D23*
%TO.C,C12*%
X103500000Y-115817500D03*
X103500000Y-114682500D03*
%TD*%
D24*
%TO.C,D6*%
X117875000Y-109000000D03*
X119625000Y-109000000D03*
%TD*%
D18*
%TO.C,R12*%
X101750000Y-92337500D03*
X101750000Y-91142500D03*
%TD*%
D19*
%TO.C,C5*%
X131600000Y-84862500D03*
X131600000Y-83137500D03*
%TD*%
D25*
%TO.C,J5*%
X93200000Y-112200000D03*
X93200000Y-112850000D03*
X93200000Y-113500000D03*
X93200000Y-114150000D03*
X93200000Y-114800000D03*
D26*
X90500000Y-112500000D03*
X90500000Y-114500000D03*
%TD*%
D15*
%TO.C,R11*%
X122500000Y-86750000D03*
X122500000Y-87945000D03*
%TD*%
D27*
%TO.C,U3*%
X110500000Y-113550000D03*
X110500000Y-112150000D03*
X110500000Y-110750000D03*
X110500000Y-109350000D03*
X109100000Y-113550000D03*
X109100000Y-112150000D03*
X109100000Y-110750000D03*
X109100000Y-109350000D03*
X107700000Y-113550000D03*
X107700000Y-112150000D03*
X107700000Y-110750000D03*
X107700000Y-109350000D03*
X106300000Y-113550000D03*
X106300000Y-112150000D03*
X106300000Y-110750000D03*
X106300000Y-109350000D03*
D28*
X111837500Y-114200000D03*
X111837500Y-113700000D03*
X111837500Y-113200000D03*
X111837500Y-112700000D03*
X111837500Y-112200000D03*
X111837500Y-111700000D03*
X111837500Y-111200000D03*
X111837500Y-110700000D03*
X111837500Y-110200000D03*
X111837500Y-109700000D03*
X111837500Y-109200000D03*
X111837500Y-108700000D03*
D29*
X111150000Y-108012500D03*
X110650000Y-108012500D03*
X110150000Y-108012500D03*
X109650000Y-108012500D03*
X109150000Y-108012500D03*
X108650000Y-108012500D03*
X108150000Y-108012500D03*
X107650000Y-108012500D03*
X107150000Y-108012500D03*
X106650000Y-108012500D03*
X106150000Y-108012500D03*
X105650000Y-108012500D03*
D28*
X104962500Y-108700000D03*
X104962500Y-109200000D03*
X104962500Y-109700000D03*
X104962500Y-110200000D03*
X104962500Y-110700000D03*
X104962500Y-111200000D03*
X104962500Y-111700000D03*
X104962500Y-112200000D03*
X104962500Y-112700000D03*
X104962500Y-113200000D03*
X104962500Y-113700000D03*
X104962500Y-114200000D03*
D29*
X105650000Y-114887500D03*
X106150000Y-114887500D03*
X106650000Y-114887500D03*
X107150000Y-114887500D03*
X107650000Y-114887500D03*
X108150000Y-114887500D03*
X108650000Y-114887500D03*
X109150000Y-114887500D03*
X109650000Y-114887500D03*
X110150000Y-114887500D03*
X110650000Y-114887500D03*
X111150000Y-114887500D03*
%TD*%
D30*
%TO.C,C15*%
X94387500Y-85250000D03*
X96112500Y-85250000D03*
%TD*%
D22*
%TO.C,C3*%
X119182500Y-113250000D03*
X120317500Y-113250000D03*
%TD*%
D31*
%TO.C,U8*%
X111287500Y-92840000D03*
X110627500Y-92840000D03*
X109987500Y-92840000D03*
X109327500Y-92840000D03*
X109327500Y-91400000D03*
X109987500Y-91400000D03*
X110627500Y-91400000D03*
X111287500Y-91400000D03*
%TD*%
D32*
%TO.C,Y1*%
X117500000Y-112925000D03*
X117500000Y-111075000D03*
%TD*%
D33*
%TO.C,C19*%
X111400000Y-89400000D03*
X109675000Y-89400000D03*
%TD*%
D12*
%TO.C,C21*%
X111355000Y-87900000D03*
X110220000Y-87900000D03*
%TD*%
D33*
%TO.C,C9*%
X119612500Y-85000000D03*
X117887500Y-85000000D03*
%TD*%
D10*
%TO.C,C23*%
X114000000Y-99600000D03*
X114000000Y-100735000D03*
%TD*%
D34*
%TO.C,R9*%
X129652500Y-100750000D03*
X130847500Y-100750000D03*
%TD*%
D35*
%TO.C,D2*%
X117000000Y-80650000D03*
X117000000Y-76350000D03*
%TD*%
D21*
%TO.C,R2*%
X100097500Y-114500000D03*
X98902500Y-114500000D03*
%TD*%
D36*
%TO.C,D4*%
X121000000Y-88625000D03*
X121000000Y-86875000D03*
%TD*%
D21*
%TO.C,R8*%
X117847500Y-102000000D03*
X116652500Y-102000000D03*
%TD*%
D15*
%TO.C,R6*%
X115500000Y-111402500D03*
X115500000Y-112597500D03*
%TD*%
D10*
%TO.C,C24*%
X115250000Y-99600000D03*
X115250000Y-100735000D03*
%TD*%
D16*
%TO.C,FB1*%
X105500000Y-90750000D03*
X106470000Y-90750000D03*
%TD*%
D22*
%TO.C,C17*%
X114032500Y-98300000D03*
X115167500Y-98300000D03*
%TD*%
%TO.C,C14*%
X113682500Y-109750000D03*
X114817500Y-109750000D03*
%TD*%
D37*
%TO.C,U7*%
X110240000Y-98250000D03*
X110240000Y-98750000D03*
X110240000Y-99250000D03*
X110240000Y-99750000D03*
D38*
X111000000Y-100010000D03*
X111500000Y-100010000D03*
X112000000Y-100010000D03*
D37*
X112760000Y-99750000D03*
X112760000Y-99250000D03*
X112760000Y-98750000D03*
X112760000Y-98250000D03*
D38*
X112000000Y-97990000D03*
X111500000Y-97990000D03*
X111000000Y-97990000D03*
%TD*%
D39*
%TO.C,D1*%
X110562500Y-76050000D03*
X110562500Y-77950000D03*
X112437500Y-77000000D03*
%TD*%
D18*
%TO.C,R14*%
X116250000Y-109597500D03*
X116250000Y-108402500D03*
%TD*%
D33*
%TO.C,C10*%
X101362500Y-85250000D03*
X99637500Y-85250000D03*
%TD*%
D21*
%TO.C,R1*%
X100097500Y-113500000D03*
X98902500Y-113500000D03*
%TD*%
D40*
%TO.C,U5*%
X120162500Y-99345000D03*
X120162500Y-100615000D03*
X120162500Y-101885000D03*
X120162500Y-103155000D03*
X127337500Y-103155000D03*
X127337500Y-101885000D03*
X127337500Y-100615000D03*
X127337500Y-99345000D03*
%TD*%
D23*
%TO.C,C18*%
X102750000Y-91807500D03*
X102750000Y-90672500D03*
%TD*%
D33*
%TO.C,C6*%
X106862500Y-105000000D03*
X105137500Y-105000000D03*
%TD*%
D41*
%TO.C,U9*%
X103250000Y-93740000D03*
X102750000Y-93740000D03*
X102250000Y-93740000D03*
X101750000Y-93740000D03*
D42*
X101240000Y-94250000D03*
X101240000Y-94750000D03*
X101240000Y-95250000D03*
X101240000Y-95750000D03*
D41*
X101750000Y-96260000D03*
X102250000Y-96260000D03*
X102750000Y-96260000D03*
X103250000Y-96260000D03*
D42*
X103760000Y-95750000D03*
X103760000Y-95250000D03*
X103760000Y-94750000D03*
X103760000Y-94250000D03*
%TD*%
D22*
%TO.C,C11*%
X104432500Y-106250000D03*
X105567500Y-106250000D03*
%TD*%
D43*
%TO.C,D3*%
X97375000Y-79250000D03*
X95625000Y-79250000D03*
%TD*%
D24*
%TO.C,D5*%
X126975000Y-90750000D03*
X128725000Y-90750000D03*
%TD*%
D22*
%TO.C,C16*%
X129682500Y-99250000D03*
X130817500Y-99250000D03*
%TD*%
D44*
%TO.C,U2*%
X129500000Y-85725000D03*
X128550000Y-85725000D03*
X127600000Y-85725000D03*
X127600000Y-88000000D03*
X129500000Y-88000000D03*
%TD*%
D21*
%TO.C,R17*%
X113697500Y-94100000D03*
X112502500Y-94100000D03*
%TD*%
D30*
%TO.C,C8*%
X112137500Y-85000000D03*
X113862500Y-85000000D03*
%TD*%
D15*
%TO.C,R18*%
X112000000Y-95602500D03*
X112000000Y-96797500D03*
%TD*%
D45*
%TO.C,C7*%
X131100000Y-89387500D03*
X131100000Y-91112500D03*
%TD*%
M02*
