M48
; DRILL file {KiCad 9.0.4} date 2026-06-28T13:41:12-0400
; FORMAT={-:-/ absolute / metric / decimal}
; #@! TF.CreationDate,2026-06-28T13:41:12-04:00
; #@! TF.GenerationSoftware,Kicad,Pcbnew,9.0.4
; #@! TF.FileFunction,Plated,1,4,PTH
FMAT,2
METRIC
; #@! TA.AperFunction,Plated,PTH,ViaDrill
T1C0.300
; #@! TA.AperFunction,Plated,PTH,ComponentDrill
T2C0.600
; #@! TA.AperFunction,Plated,PTH,ComponentDrill
T3C0.750
; #@! TA.AperFunction,Plated,PTH,ComponentDrill
T4C0.850
%
G90
G05
T1
X91.0Y-85.88
X95.3Y-108.8
X99.0Y-111.152
X99.8Y-93.975
X100.097Y-114.5
X101.0Y-111.25
X101.7Y-112.1
X101.75Y-92.337
X102.25Y-98.307
X102.312Y-110.812
X103.5Y-114.682
X104.076Y-91.776
X104.6Y-94.8
X104.9Y-95.875
X105.5Y-96.95
X105.529Y-116.293
X106.074Y-94.34
X106.15Y-109.2
X106.15Y-110.7
X106.15Y-112.2
X106.15Y-113.7
X106.5Y-117.25
X107.125Y-116.625
X107.275Y-93.74
X107.475Y-92.55
X107.65Y-109.2
X107.65Y-110.7
X107.65Y-112.2
X107.65Y-113.7
X107.737Y-106.688
X108.35Y-105.9
X108.475Y-90.75
X108.562Y-104.438
X108.65Y-118.35
X109.1Y-99.9
X109.125Y-98.85
X109.15Y-109.2
X109.15Y-110.7
X109.15Y-112.2
X109.15Y-113.7
X109.225Y-103.9
X109.688Y-89.412
X109.85Y-103.275
X110.562Y-77.95
X110.65Y-109.2
X110.65Y-110.7
X110.65Y-112.2
X110.65Y-113.7
X110.975Y-95.65
X111.45Y-89.4
X111.525Y-104.275
X112.0Y-96.797
X112.25Y-105.3
X112.438Y-77.1
X112.475Y-94.1
X112.757Y-116.225
X113.1Y-107.1
X113.45Y-105.525
X113.6Y-114.15
X113.75Y-113.0
X113.882Y-111.062
X114.9Y-107.1
X115.167Y-98.3
X115.25Y-100.735
X116.224Y-109.624
X117.0Y-76.35
X117.887Y-85.0
X119.625Y-109.0
X120.162Y-99.345
X120.162Y-100.615
X120.162Y-103.155
X122.5Y-86.75
X123.08Y-122.0
X127.337Y-101.885
X127.337Y-103.155
X128.55Y-85.7
T3
X98.25Y-120.5
X100.25Y-120.5
X102.25Y-120.5
X103.5Y-77.7
X104.25Y-120.5
X105.5Y-77.7
X130.2Y-106.5
X130.2Y-108.5
X130.2Y-110.5
X130.2Y-112.5
T4
X93.2Y-111.0
X93.2Y-116.0
T2
G00X90.15Y-110.0
M15
G01X90.85Y-110.0
M16
G05
G00X90.85Y-117.0
M15
G01X90.15Y-117.0
M16
G05
M30
