%TF.GenerationSoftware,KiCad,Pcbnew,9.0.4*%
%TF.CreationDate,2026-05-30T16:23:29-04:00*%
%TF.ProjectId,XDQ-001,5844512d-3030-4312-9e6b-696361645f70,rev?*%
%TF.SameCoordinates,Original*%
%TF.FileFunction,Copper,L4,Bot*%
%TF.FilePolarity,Positive*%
%FSLAX46Y46*%
G04 Gerber Fmt 4.6, Leading zero omitted, Abs format (unit mm)*
G04 Created by KiCad (PCBNEW 9.0.4) date 2026-05-30 16:23:29*
%MOMM*%
%LPD*%
G01*
G04 APERTURE LIST*
G04 Aperture macros list*
%AMRoundRect*
0 Rectangle with rounded corners*
0 $1 Rounding radius*
0 $2 $3 $4 $5 $6 $7 $8 $9 X,Y pos of 4 corners*
0 Add a 4 corners polygon primitive as box body*
4,1,4,$2,$3,$4,$5,$6,$7,$8,$9,$2,$3,0*
0 Add four circle primitives for the rounded corners*
1,1,$1+$1,$2,$3*
1,1,$1+$1,$4,$5*
1,1,$1+$1,$6,$7*
1,1,$1+$1,$8,$9*
0 Add four rect primitives between the rounded corners*
20,1,$1+$1,$2,$3,$4,$5,0*
20,1,$1+$1,$4,$5,$6,$7,0*
20,1,$1+$1,$6,$7,$8,$9,0*
20,1,$1+$1,$8,$9,$2,$3,0*%
G04 Aperture macros list end*
%TA.AperFunction,ComponentPad*%
%ADD10R,1.700000X1.700000*%
%TD*%
%TA.AperFunction,ComponentPad*%
%ADD11C,1.700000*%
%TD*%
%TA.AperFunction,HeatsinkPad*%
%ADD12O,1.900000X1.200000*%
%TD*%
%TA.AperFunction,HeatsinkPad*%
%ADD13C,1.450000*%
%TD*%
%TA.AperFunction,ComponentPad*%
%ADD14RoundRect,0.250000X0.350000X0.625000X-0.350000X0.625000X-0.350000X-0.625000X0.350000X-0.625000X0*%
%TD*%
%TA.AperFunction,ComponentPad*%
%ADD15O,1.200000X1.750000*%
%TD*%
%TA.AperFunction,ViaPad*%
%ADD16C,0.600000*%
%TD*%
%TA.AperFunction,Conductor*%
%ADD17C,0.200000*%
%TD*%
G04 APERTURE END LIST*
D10*
%TO.P,J2,1,Pin_1*%
%TO.N,/MOTOR1*%
X112950000Y-121975000D03*
D11*
%TO.P,J2,2,Pin_2*%
%TO.N,/MOTOR2*%
X115490000Y-121975000D03*
%TO.P,J2,3,Pin_3*%
%TO.N,/MOTOR3*%
X118030000Y-121975000D03*
%TO.P,J2,4,Pin_4*%
%TO.N,/MOTOR4*%
X120570000Y-121975000D03*
%TO.P,J2,5,Pin_5*%
%TO.N,GND*%
X123110000Y-121975000D03*
%TD*%
D12*
%TO.P,J5,6,Shield*%
%TO.N,GND*%
X90750000Y-106850000D03*
D13*
X93450000Y-107850000D03*
X93450000Y-112850000D03*
D12*
X90750000Y-113850000D03*
%TD*%
D10*
%TO.P,J1,1,Pin_1*%
%TO.N,+3V3_RADIO*%
X91000000Y-75340000D03*
D11*
%TO.P,J1,2,Pin_2*%
%TO.N,GND*%
X91000000Y-77880000D03*
%TO.P,J1,3,Pin_3*%
%TO.N,/CS_RADIO*%
X91000000Y-80420000D03*
%TO.P,J1,4,Pin_4*%
%TO.N,/SCK_RADIO*%
X91000000Y-82960000D03*
%TO.P,J1,5,Pin_5*%
%TO.N,/MISO_RADIO*%
X91000000Y-85500000D03*
%TO.P,J1,6,Pin_6*%
%TO.N,/MOSI_RADIO*%
X91000000Y-88040000D03*
%TO.P,J1,7,Pin_7*%
%TO.N,/BUSY*%
X91000000Y-90580000D03*
%TO.P,J1,8,Pin_8*%
%TO.N,/DIO1*%
X91000000Y-93120000D03*
%TO.P,J1,9,Pin_9*%
%TO.N,/DIO2*%
X91000000Y-95660000D03*
%TO.P,J1,10,Pin_10*%
%TO.N,/NRESET*%
X91000000Y-98200000D03*
%TD*%
D10*
%TO.P,J3,1,Pin_1*%
%TO.N,+5V*%
X132000000Y-114540000D03*
D11*
%TO.P,J3,2,Pin_2*%
%TO.N,/GPS_TX*%
X132000000Y-112000000D03*
%TO.P,J3,3,Pin_3*%
%TO.N,/GPS_RX*%
X132000000Y-109460000D03*
%TO.P,J3,4,Pin_4*%
%TO.N,GND*%
X132000000Y-106920000D03*
%TD*%
D14*
%TO.P,J6,1,Pin_1*%
%TO.N,+BATT*%
X105500000Y-68000000D03*
D15*
%TO.P,J6,2,Pin_2*%
%TO.N,GND*%
X103500000Y-68000000D03*
%TD*%
D10*
%TO.P,J4,1,Pin_1*%
%TO.N,/SWDIO*%
X97450000Y-121975000D03*
D11*
%TO.P,J4,2,Pin_2*%
%TO.N,/SWCLK*%
X99990000Y-121975000D03*
%TO.P,J4,3,Pin_3*%
%TO.N,/NRST*%
X102530000Y-121975000D03*
%TO.P,J4,4,Pin_4*%
%TO.N,GND*%
X105070000Y-121975000D03*
%TD*%
D16*
%TO.N,GND*%
X117900000Y-67750000D03*
X106225000Y-112275000D03*
X107725000Y-113775000D03*
X109225000Y-110775000D03*
X109250000Y-97250000D03*
X109434142Y-90140000D03*
X100930000Y-92199595D03*
X110725000Y-113775000D03*
X107725000Y-110775000D03*
X106225000Y-109275000D03*
X108149888Y-91374389D03*
X109225000Y-112275000D03*
X107725000Y-109275000D03*
X104209313Y-86459313D03*
X109225000Y-109275000D03*
X106225000Y-113775000D03*
X107497331Y-93409000D03*
X110725000Y-112275000D03*
X113000000Y-92000000D03*
X110465544Y-103142228D03*
X107725000Y-112275000D03*
X109225000Y-113775000D03*
X130817500Y-99250000D03*
X120317500Y-113250000D03*
X104000000Y-90127500D03*
X110725000Y-110775000D03*
X115250000Y-96317500D03*
X117887500Y-85000000D03*
X107342500Y-82250000D03*
X106225000Y-110775000D03*
X102216250Y-98273750D03*
X110725000Y-109275000D03*
X113750000Y-76950000D03*
X120162500Y-103155000D03*
X108830000Y-87920000D03*
%TO.N,+3V3_ANALOG*%
X112000000Y-90652500D03*
X106538043Y-90681957D03*
%TO.N,+5V*%
X99000000Y-107902500D03*
X112137500Y-85000000D03*
X113500000Y-72550000D03*
X101056250Y-77443750D03*
%TO.N,/MAG_VDD*%
X104750000Y-96000000D03*
X104000000Y-91852500D03*
%TO.N,/NRST*%
X114500000Y-111000000D03*
X103182500Y-119250000D03*
%TO.N,/VBUS*%
X107062500Y-73700000D03*
X95500000Y-106250000D03*
%TO.N,/DIO2*%
X107485706Y-107084233D03*
%TO.N,/NRESET*%
X113500000Y-114750000D03*
%TO.N,/DIO1*%
X107481818Y-105906900D03*
%TO.N,/GPS_TX*%
X102450000Y-111600000D03*
%TO.N,/GPS_RX*%
X103184373Y-111100000D03*
%TO.N,/DEBUG_LED*%
X113750000Y-113000000D03*
X119625000Y-109000000D03*
%TO.N,/D+*%
X100097500Y-110250000D03*
X103250000Y-113000000D03*
%TO.N,/BARO_CS*%
X109652500Y-89250000D03*
X113750000Y-107250000D03*
%TO.N,/FLASH_MISO*%
X120162500Y-100615000D03*
X106584616Y-117013913D03*
%TO.N,/INT2*%
X104750000Y-94750000D03*
X112000000Y-107000000D03*
%TO.N,/FLASH_MOSI*%
X127337500Y-103155000D03*
X107416661Y-117022466D03*
%TO.N,/GYRO_CS*%
X112000000Y-91847500D03*
X110211001Y-102383801D03*
%TO.N,/FLASH_CS*%
X105000000Y-116500000D03*
X120162500Y-99345000D03*
%TO.N,/IMU_SCK*%
X108648500Y-92000000D03*
X110000000Y-104750000D03*
%TO.N,/IMU_MISO*%
X108098331Y-94250000D03*
X104775000Y-87025000D03*
X109375000Y-105375000D03*
%TO.N,/IMU_MOSI*%
X107110000Y-88000000D03*
X108500000Y-106000000D03*
X106750000Y-92809000D03*
%TO.N,/INT1*%
X110000000Y-95750000D03*
X112800003Y-107000000D03*
%TO.N,/FLASH_SCK*%
X127337500Y-101885000D03*
X105768329Y-117036657D03*
%TO.N,/MAG_CS*%
X111250000Y-103500000D03*
X101750000Y-92337500D03*
%TD*%
D17*
%TO.N,+3V3_ANALOG*%
X106538043Y-90681957D02*
X106596086Y-90740000D01*
X106596086Y-90740000D02*
X111912500Y-90740000D01*
X111912500Y-90740000D02*
X112000000Y-90652500D01*
%TO.N,/VBUS*%
X95500000Y-85262500D02*
X95500000Y-106250000D01*
X107062500Y-73700000D02*
X95500000Y-85262500D01*
%TO.N,/DEBUG_LED*%
X117750000Y-109000000D02*
X119625000Y-109000000D01*
X113750000Y-113000000D02*
X117750000Y-109000000D01*
%TO.N,/D+*%
X102847500Y-113000000D02*
X103250000Y-113000000D01*
X100097500Y-110250000D02*
X102847500Y-113000000D01*
%TO.N,/FLASH_MISO*%
X120162500Y-101687443D02*
X120162500Y-100615000D01*
X109213184Y-114376000D02*
X110973943Y-114376000D01*
X113899000Y-107950943D02*
X120162500Y-101687443D01*
X106584616Y-117013913D02*
X106584616Y-117004568D01*
X110973943Y-114376000D02*
X113899000Y-111450943D01*
X106584616Y-117004568D02*
X109213184Y-114376000D01*
X113899000Y-111450943D02*
X113899000Y-107950943D01*
%TO.N,/FLASH_MOSI*%
X113470034Y-117022466D02*
X127337500Y-103155000D01*
X107416661Y-117022466D02*
X113470034Y-117022466D01*
%TO.N,/FLASH_CS*%
X109443882Y-105976000D02*
X106745882Y-108674000D01*
X120162500Y-99345000D02*
X113531500Y-105976000D01*
X106745882Y-108674000D02*
X105576000Y-108674000D01*
X105000000Y-109250000D02*
X105000000Y-116500000D01*
X105576000Y-108674000D02*
X105000000Y-109250000D01*
X113531500Y-105976000D02*
X109443882Y-105976000D01*
%TO.N,/IMU_SCK*%
X108499331Y-103249331D02*
X108499331Y-94698943D01*
X108250000Y-92675343D02*
X108250000Y-92398500D01*
X108699331Y-94498943D02*
X108699331Y-94001057D01*
X108499331Y-94698943D02*
X108699331Y-94498943D01*
X108499331Y-92924674D02*
X108250000Y-92675343D01*
X110000000Y-104750000D02*
X108499331Y-103249331D01*
X108499331Y-93801057D02*
X108499331Y-92924674D01*
X108699331Y-94001057D02*
X108499331Y-93801057D01*
X108250000Y-92398500D02*
X108648500Y-92000000D01*
%TO.N,/IMU_MISO*%
X104775000Y-89767443D02*
X108098331Y-93090774D01*
X108098331Y-104098331D02*
X109375000Y-105375000D01*
X108098331Y-93090774D02*
X108098331Y-94250000D01*
X108098331Y-94250000D02*
X108098331Y-104098331D01*
X104775000Y-87025000D02*
X104775000Y-89767443D01*
%TO.N,/IMU_MOSI*%
X106750000Y-104250000D02*
X108500000Y-106000000D01*
X103960370Y-85858313D02*
X103399000Y-86419683D01*
X104968313Y-85858313D02*
X103960370Y-85858313D01*
X106750000Y-92809000D02*
X106750000Y-104250000D01*
X103399000Y-86419683D02*
X103399000Y-90376443D01*
X107110000Y-88000000D02*
X104968313Y-85858313D01*
X105831557Y-92809000D02*
X106750000Y-92809000D01*
X103399000Y-90376443D02*
X105831557Y-92809000D01*
%TO.N,/FLASH_SCK*%
X127938500Y-103403943D02*
X113718977Y-117623466D01*
X127337500Y-101885000D02*
X127938500Y-102486000D01*
X113718977Y-117623466D02*
X106123466Y-117623466D01*
X105768329Y-117268329D02*
X105768329Y-117036657D01*
X127938500Y-102486000D02*
X127938500Y-103403943D01*
X106123466Y-117623466D02*
X105768329Y-117268329D01*
%TD*%
M02*
