%TF.GenerationSoftware,KiCad,Pcbnew,9.0.4*%
%TF.CreationDate,2026-05-30T16:23:29-04:00*%
%TF.ProjectId,XDQ-001,5844512d-3030-4312-9e6b-696361645f70,rev?*%
%TF.SameCoordinates,Original*%
%TF.FileFunction,Legend,Top*%
%TF.FilePolarity,Positive*%
%FSLAX46Y46*%
G04 Gerber Fmt 4.6, Leading zero omitted, Abs format (unit mm)*
G04 Created by KiCad (PCBNEW 9.0.4) date 2026-05-30 16:23:29*
%MOMM*%
%LPD*%
G01*
G04 APERTURE LIST*
%ADD10C,0.150000*%
%ADD11C,0.120000*%
%ADD12C,0.250000*%
%ADD13C,0.200000*%
%ADD14C,0.060000*%
G04 APERTURE END LIST*
D10*
X103769580Y-98382857D02*
X103817200Y-98430476D01*
X103817200Y-98430476D02*
X103864819Y-98573333D01*
X103864819Y-98573333D02*
X103864819Y-98668571D01*
X103864819Y-98668571D02*
X103817200Y-98811428D01*
X103817200Y-98811428D02*
X103721961Y-98906666D01*
X103721961Y-98906666D02*
X103626723Y-98954285D01*
X103626723Y-98954285D02*
X103436247Y-99001904D01*
X103436247Y-99001904D02*
X103293390Y-99001904D01*
X103293390Y-99001904D02*
X103102914Y-98954285D01*
X103102914Y-98954285D02*
X103007676Y-98906666D01*
X103007676Y-98906666D02*
X102912438Y-98811428D01*
X102912438Y-98811428D02*
X102864819Y-98668571D01*
X102864819Y-98668571D02*
X102864819Y-98573333D01*
X102864819Y-98573333D02*
X102912438Y-98430476D01*
X102912438Y-98430476D02*
X102960057Y-98382857D01*
X102960057Y-98001904D02*
X102912438Y-97954285D01*
X102912438Y-97954285D02*
X102864819Y-97859047D01*
X102864819Y-97859047D02*
X102864819Y-97620952D01*
X102864819Y-97620952D02*
X102912438Y-97525714D01*
X102912438Y-97525714D02*
X102960057Y-97478095D01*
X102960057Y-97478095D02*
X103055295Y-97430476D01*
X103055295Y-97430476D02*
X103150533Y-97430476D01*
X103150533Y-97430476D02*
X103293390Y-97478095D01*
X103293390Y-97478095D02*
X103864819Y-98049523D01*
X103864819Y-98049523D02*
X103864819Y-97430476D01*
X102960057Y-97049523D02*
X102912438Y-97001904D01*
X102912438Y-97001904D02*
X102864819Y-96906666D01*
X102864819Y-96906666D02*
X102864819Y-96668571D01*
X102864819Y-96668571D02*
X102912438Y-96573333D01*
X102912438Y-96573333D02*
X102960057Y-96525714D01*
X102960057Y-96525714D02*
X103055295Y-96478095D01*
X103055295Y-96478095D02*
X103150533Y-96478095D01*
X103150533Y-96478095D02*
X103293390Y-96525714D01*
X103293390Y-96525714D02*
X103864819Y-97097142D01*
X103864819Y-97097142D02*
X103864819Y-96478095D01*
X96375595Y-76654819D02*
X96375595Y-77464342D01*
X96375595Y-77464342D02*
X96423214Y-77559580D01*
X96423214Y-77559580D02*
X96470833Y-77607200D01*
X96470833Y-77607200D02*
X96566071Y-77654819D01*
X96566071Y-77654819D02*
X96756547Y-77654819D01*
X96756547Y-77654819D02*
X96851785Y-77607200D01*
X96851785Y-77607200D02*
X96899404Y-77559580D01*
X96899404Y-77559580D02*
X96947023Y-77464342D01*
X96947023Y-77464342D02*
X96947023Y-76654819D01*
X97851785Y-76654819D02*
X97661309Y-76654819D01*
X97661309Y-76654819D02*
X97566071Y-76702438D01*
X97566071Y-76702438D02*
X97518452Y-76750057D01*
X97518452Y-76750057D02*
X97423214Y-76892914D01*
X97423214Y-76892914D02*
X97375595Y-77083390D01*
X97375595Y-77083390D02*
X97375595Y-77464342D01*
X97375595Y-77464342D02*
X97423214Y-77559580D01*
X97423214Y-77559580D02*
X97470833Y-77607200D01*
X97470833Y-77607200D02*
X97566071Y-77654819D01*
X97566071Y-77654819D02*
X97756547Y-77654819D01*
X97756547Y-77654819D02*
X97851785Y-77607200D01*
X97851785Y-77607200D02*
X97899404Y-77559580D01*
X97899404Y-77559580D02*
X97947023Y-77464342D01*
X97947023Y-77464342D02*
X97947023Y-77226247D01*
X97947023Y-77226247D02*
X97899404Y-77131009D01*
X97899404Y-77131009D02*
X97851785Y-77083390D01*
X97851785Y-77083390D02*
X97756547Y-77035771D01*
X97756547Y-77035771D02*
X97566071Y-77035771D01*
X97566071Y-77035771D02*
X97470833Y-77083390D01*
X97470833Y-77083390D02*
X97423214Y-77131009D01*
X97423214Y-77131009D02*
X97375595Y-77226247D01*
X119583333Y-112769580D02*
X119535714Y-112817200D01*
X119535714Y-112817200D02*
X119392857Y-112864819D01*
X119392857Y-112864819D02*
X119297619Y-112864819D01*
X119297619Y-112864819D02*
X119154762Y-112817200D01*
X119154762Y-112817200D02*
X119059524Y-112721961D01*
X119059524Y-112721961D02*
X119011905Y-112626723D01*
X119011905Y-112626723D02*
X118964286Y-112436247D01*
X118964286Y-112436247D02*
X118964286Y-112293390D01*
X118964286Y-112293390D02*
X119011905Y-112102914D01*
X119011905Y-112102914D02*
X119059524Y-112007676D01*
X119059524Y-112007676D02*
X119154762Y-111912438D01*
X119154762Y-111912438D02*
X119297619Y-111864819D01*
X119297619Y-111864819D02*
X119392857Y-111864819D01*
X119392857Y-111864819D02*
X119535714Y-111912438D01*
X119535714Y-111912438D02*
X119583333Y-111960057D01*
X120440476Y-112198152D02*
X120440476Y-112864819D01*
X120202381Y-111817200D02*
X119964286Y-112531485D01*
X119964286Y-112531485D02*
X120583333Y-112531485D01*
X112107142Y-117769580D02*
X112059523Y-117817200D01*
X112059523Y-117817200D02*
X111916666Y-117864819D01*
X111916666Y-117864819D02*
X111821428Y-117864819D01*
X111821428Y-117864819D02*
X111678571Y-117817200D01*
X111678571Y-117817200D02*
X111583333Y-117721961D01*
X111583333Y-117721961D02*
X111535714Y-117626723D01*
X111535714Y-117626723D02*
X111488095Y-117436247D01*
X111488095Y-117436247D02*
X111488095Y-117293390D01*
X111488095Y-117293390D02*
X111535714Y-117102914D01*
X111535714Y-117102914D02*
X111583333Y-117007676D01*
X111583333Y-117007676D02*
X111678571Y-116912438D01*
X111678571Y-116912438D02*
X111821428Y-116864819D01*
X111821428Y-116864819D02*
X111916666Y-116864819D01*
X111916666Y-116864819D02*
X112059523Y-116912438D01*
X112059523Y-116912438D02*
X112107142Y-116960057D01*
X113059523Y-117864819D02*
X112488095Y-117864819D01*
X112773809Y-117864819D02*
X112773809Y-116864819D01*
X112773809Y-116864819D02*
X112678571Y-117007676D01*
X112678571Y-117007676D02*
X112583333Y-117102914D01*
X112583333Y-117102914D02*
X112488095Y-117150533D01*
X113392857Y-116864819D02*
X114011904Y-116864819D01*
X114011904Y-116864819D02*
X113678571Y-117245771D01*
X113678571Y-117245771D02*
X113821428Y-117245771D01*
X113821428Y-117245771D02*
X113916666Y-117293390D01*
X113916666Y-117293390D02*
X113964285Y-117341009D01*
X113964285Y-117341009D02*
X114011904Y-117436247D01*
X114011904Y-117436247D02*
X114011904Y-117674342D01*
X114011904Y-117674342D02*
X113964285Y-117769580D01*
X113964285Y-117769580D02*
X113916666Y-117817200D01*
X113916666Y-117817200D02*
X113821428Y-117864819D01*
X113821428Y-117864819D02*
X113535714Y-117864819D01*
X113535714Y-117864819D02*
X113440476Y-117817200D01*
X113440476Y-117817200D02*
X113392857Y-117769580D01*
X95738095Y-108204819D02*
X95738095Y-109014342D01*
X95738095Y-109014342D02*
X95785714Y-109109580D01*
X95785714Y-109109580D02*
X95833333Y-109157200D01*
X95833333Y-109157200D02*
X95928571Y-109204819D01*
X95928571Y-109204819D02*
X96119047Y-109204819D01*
X96119047Y-109204819D02*
X96214285Y-109157200D01*
X96214285Y-109157200D02*
X96261904Y-109109580D01*
X96261904Y-109109580D02*
X96309523Y-109014342D01*
X96309523Y-109014342D02*
X96309523Y-108204819D01*
X97309523Y-109204819D02*
X96738095Y-109204819D01*
X97023809Y-109204819D02*
X97023809Y-108204819D01*
X97023809Y-108204819D02*
X96928571Y-108347676D01*
X96928571Y-108347676D02*
X96833333Y-108442914D01*
X96833333Y-108442914D02*
X96738095Y-108490533D01*
X100624819Y-108666666D02*
X100148628Y-108999999D01*
X100624819Y-109238094D02*
X99624819Y-109238094D01*
X99624819Y-109238094D02*
X99624819Y-108857142D01*
X99624819Y-108857142D02*
X99672438Y-108761904D01*
X99672438Y-108761904D02*
X99720057Y-108714285D01*
X99720057Y-108714285D02*
X99815295Y-108666666D01*
X99815295Y-108666666D02*
X99958152Y-108666666D01*
X99958152Y-108666666D02*
X100053390Y-108714285D01*
X100053390Y-108714285D02*
X100101009Y-108761904D01*
X100101009Y-108761904D02*
X100148628Y-108857142D01*
X100148628Y-108857142D02*
X100148628Y-109238094D01*
X99624819Y-108333332D02*
X99624819Y-107714285D01*
X99624819Y-107714285D02*
X100005771Y-108047618D01*
X100005771Y-108047618D02*
X100005771Y-107904761D01*
X100005771Y-107904761D02*
X100053390Y-107809523D01*
X100053390Y-107809523D02*
X100101009Y-107761904D01*
X100101009Y-107761904D02*
X100196247Y-107714285D01*
X100196247Y-107714285D02*
X100434342Y-107714285D01*
X100434342Y-107714285D02*
X100529580Y-107761904D01*
X100529580Y-107761904D02*
X100577200Y-107809523D01*
X100577200Y-107809523D02*
X100624819Y-107904761D01*
X100624819Y-107904761D02*
X100624819Y-108190475D01*
X100624819Y-108190475D02*
X100577200Y-108285713D01*
X100577200Y-108285713D02*
X100529580Y-108333332D01*
X116166666Y-94011009D02*
X115833333Y-94011009D01*
X115833333Y-94534819D02*
X115833333Y-93534819D01*
X115833333Y-93534819D02*
X116309523Y-93534819D01*
X117023809Y-94011009D02*
X117166666Y-94058628D01*
X117166666Y-94058628D02*
X117214285Y-94106247D01*
X117214285Y-94106247D02*
X117261904Y-94201485D01*
X117261904Y-94201485D02*
X117261904Y-94344342D01*
X117261904Y-94344342D02*
X117214285Y-94439580D01*
X117214285Y-94439580D02*
X117166666Y-94487200D01*
X117166666Y-94487200D02*
X117071428Y-94534819D01*
X117071428Y-94534819D02*
X116690476Y-94534819D01*
X116690476Y-94534819D02*
X116690476Y-93534819D01*
X116690476Y-93534819D02*
X117023809Y-93534819D01*
X117023809Y-93534819D02*
X117119047Y-93582438D01*
X117119047Y-93582438D02*
X117166666Y-93630057D01*
X117166666Y-93630057D02*
X117214285Y-93725295D01*
X117214285Y-93725295D02*
X117214285Y-93820533D01*
X117214285Y-93820533D02*
X117166666Y-93915771D01*
X117166666Y-93915771D02*
X117119047Y-93963390D01*
X117119047Y-93963390D02*
X117023809Y-94011009D01*
X117023809Y-94011009D02*
X116690476Y-94011009D01*
X117642857Y-93630057D02*
X117690476Y-93582438D01*
X117690476Y-93582438D02*
X117785714Y-93534819D01*
X117785714Y-93534819D02*
X118023809Y-93534819D01*
X118023809Y-93534819D02*
X118119047Y-93582438D01*
X118119047Y-93582438D02*
X118166666Y-93630057D01*
X118166666Y-93630057D02*
X118214285Y-93725295D01*
X118214285Y-93725295D02*
X118214285Y-93820533D01*
X118214285Y-93820533D02*
X118166666Y-93963390D01*
X118166666Y-93963390D02*
X117595238Y-94534819D01*
X117595238Y-94534819D02*
X118214285Y-94534819D01*
X117809580Y-74916666D02*
X117857200Y-74964285D01*
X117857200Y-74964285D02*
X117904819Y-75107142D01*
X117904819Y-75107142D02*
X117904819Y-75202380D01*
X117904819Y-75202380D02*
X117857200Y-75345237D01*
X117857200Y-75345237D02*
X117761961Y-75440475D01*
X117761961Y-75440475D02*
X117666723Y-75488094D01*
X117666723Y-75488094D02*
X117476247Y-75535713D01*
X117476247Y-75535713D02*
X117333390Y-75535713D01*
X117333390Y-75535713D02*
X117142914Y-75488094D01*
X117142914Y-75488094D02*
X117047676Y-75440475D01*
X117047676Y-75440475D02*
X116952438Y-75345237D01*
X116952438Y-75345237D02*
X116904819Y-75202380D01*
X116904819Y-75202380D02*
X116904819Y-75107142D01*
X116904819Y-75107142D02*
X116952438Y-74964285D01*
X116952438Y-74964285D02*
X117000057Y-74916666D01*
X117000057Y-74535713D02*
X116952438Y-74488094D01*
X116952438Y-74488094D02*
X116904819Y-74392856D01*
X116904819Y-74392856D02*
X116904819Y-74154761D01*
X116904819Y-74154761D02*
X116952438Y-74059523D01*
X116952438Y-74059523D02*
X117000057Y-74011904D01*
X117000057Y-74011904D02*
X117095295Y-73964285D01*
X117095295Y-73964285D02*
X117190533Y-73964285D01*
X117190533Y-73964285D02*
X117333390Y-74011904D01*
X117333390Y-74011904D02*
X117904819Y-74583332D01*
X117904819Y-74583332D02*
X117904819Y-73964285D01*
X119284819Y-97166666D02*
X118808628Y-97499999D01*
X119284819Y-97738094D02*
X118284819Y-97738094D01*
X118284819Y-97738094D02*
X118284819Y-97357142D01*
X118284819Y-97357142D02*
X118332438Y-97261904D01*
X118332438Y-97261904D02*
X118380057Y-97214285D01*
X118380057Y-97214285D02*
X118475295Y-97166666D01*
X118475295Y-97166666D02*
X118618152Y-97166666D01*
X118618152Y-97166666D02*
X118713390Y-97214285D01*
X118713390Y-97214285D02*
X118761009Y-97261904D01*
X118761009Y-97261904D02*
X118808628Y-97357142D01*
X118808628Y-97357142D02*
X118808628Y-97738094D01*
X118284819Y-96833332D02*
X118284819Y-96166666D01*
X118284819Y-96166666D02*
X119284819Y-96595237D01*
X102929580Y-91632857D02*
X102977200Y-91680476D01*
X102977200Y-91680476D02*
X103024819Y-91823333D01*
X103024819Y-91823333D02*
X103024819Y-91918571D01*
X103024819Y-91918571D02*
X102977200Y-92061428D01*
X102977200Y-92061428D02*
X102881961Y-92156666D01*
X102881961Y-92156666D02*
X102786723Y-92204285D01*
X102786723Y-92204285D02*
X102596247Y-92251904D01*
X102596247Y-92251904D02*
X102453390Y-92251904D01*
X102453390Y-92251904D02*
X102262914Y-92204285D01*
X102262914Y-92204285D02*
X102167676Y-92156666D01*
X102167676Y-92156666D02*
X102072438Y-92061428D01*
X102072438Y-92061428D02*
X102024819Y-91918571D01*
X102024819Y-91918571D02*
X102024819Y-91823333D01*
X102024819Y-91823333D02*
X102072438Y-91680476D01*
X102072438Y-91680476D02*
X102120057Y-91632857D01*
X102120057Y-91251904D02*
X102072438Y-91204285D01*
X102072438Y-91204285D02*
X102024819Y-91109047D01*
X102024819Y-91109047D02*
X102024819Y-90870952D01*
X102024819Y-90870952D02*
X102072438Y-90775714D01*
X102072438Y-90775714D02*
X102120057Y-90728095D01*
X102120057Y-90728095D02*
X102215295Y-90680476D01*
X102215295Y-90680476D02*
X102310533Y-90680476D01*
X102310533Y-90680476D02*
X102453390Y-90728095D01*
X102453390Y-90728095D02*
X103024819Y-91299523D01*
X103024819Y-91299523D02*
X103024819Y-90680476D01*
X102024819Y-90061428D02*
X102024819Y-89966190D01*
X102024819Y-89966190D02*
X102072438Y-89870952D01*
X102072438Y-89870952D02*
X102120057Y-89823333D01*
X102120057Y-89823333D02*
X102215295Y-89775714D01*
X102215295Y-89775714D02*
X102405771Y-89728095D01*
X102405771Y-89728095D02*
X102643866Y-89728095D01*
X102643866Y-89728095D02*
X102834342Y-89775714D01*
X102834342Y-89775714D02*
X102929580Y-89823333D01*
X102929580Y-89823333D02*
X102977200Y-89870952D01*
X102977200Y-89870952D02*
X103024819Y-89966190D01*
X103024819Y-89966190D02*
X103024819Y-90061428D01*
X103024819Y-90061428D02*
X102977200Y-90156666D01*
X102977200Y-90156666D02*
X102929580Y-90204285D01*
X102929580Y-90204285D02*
X102834342Y-90251904D01*
X102834342Y-90251904D02*
X102643866Y-90299523D01*
X102643866Y-90299523D02*
X102405771Y-90299523D01*
X102405771Y-90299523D02*
X102215295Y-90251904D01*
X102215295Y-90251904D02*
X102120057Y-90204285D01*
X102120057Y-90204285D02*
X102072438Y-90156666D01*
X102072438Y-90156666D02*
X102024819Y-90061428D01*
X114988095Y-84554819D02*
X114988095Y-85364342D01*
X114988095Y-85364342D02*
X115035714Y-85459580D01*
X115035714Y-85459580D02*
X115083333Y-85507200D01*
X115083333Y-85507200D02*
X115178571Y-85554819D01*
X115178571Y-85554819D02*
X115369047Y-85554819D01*
X115369047Y-85554819D02*
X115464285Y-85507200D01*
X115464285Y-85507200D02*
X115511904Y-85459580D01*
X115511904Y-85459580D02*
X115559523Y-85364342D01*
X115559523Y-85364342D02*
X115559523Y-84554819D01*
X116464285Y-84888152D02*
X116464285Y-85554819D01*
X116226190Y-84507200D02*
X115988095Y-85221485D01*
X115988095Y-85221485D02*
X116607142Y-85221485D01*
X133124819Y-75892857D02*
X132648628Y-76226190D01*
X133124819Y-76464285D02*
X132124819Y-76464285D01*
X132124819Y-76464285D02*
X132124819Y-76083333D01*
X132124819Y-76083333D02*
X132172438Y-75988095D01*
X132172438Y-75988095D02*
X132220057Y-75940476D01*
X132220057Y-75940476D02*
X132315295Y-75892857D01*
X132315295Y-75892857D02*
X132458152Y-75892857D01*
X132458152Y-75892857D02*
X132553390Y-75940476D01*
X132553390Y-75940476D02*
X132601009Y-75988095D01*
X132601009Y-75988095D02*
X132648628Y-76083333D01*
X132648628Y-76083333D02*
X132648628Y-76464285D01*
X133124819Y-74940476D02*
X133124819Y-75511904D01*
X133124819Y-75226190D02*
X132124819Y-75226190D01*
X132124819Y-75226190D02*
X132267676Y-75321428D01*
X132267676Y-75321428D02*
X132362914Y-75416666D01*
X132362914Y-75416666D02*
X132410533Y-75511904D01*
X132124819Y-74607142D02*
X132124819Y-73988095D01*
X132124819Y-73988095D02*
X132505771Y-74321428D01*
X132505771Y-74321428D02*
X132505771Y-74178571D01*
X132505771Y-74178571D02*
X132553390Y-74083333D01*
X132553390Y-74083333D02*
X132601009Y-74035714D01*
X132601009Y-74035714D02*
X132696247Y-73988095D01*
X132696247Y-73988095D02*
X132934342Y-73988095D01*
X132934342Y-73988095D02*
X133029580Y-74035714D01*
X133029580Y-74035714D02*
X133077200Y-74083333D01*
X133077200Y-74083333D02*
X133124819Y-74178571D01*
X133124819Y-74178571D02*
X133124819Y-74464285D01*
X133124819Y-74464285D02*
X133077200Y-74559523D01*
X133077200Y-74559523D02*
X133029580Y-74607142D01*
X98874819Y-69892857D02*
X98398628Y-70226190D01*
X98874819Y-70464285D02*
X97874819Y-70464285D01*
X97874819Y-70464285D02*
X97874819Y-70083333D01*
X97874819Y-70083333D02*
X97922438Y-69988095D01*
X97922438Y-69988095D02*
X97970057Y-69940476D01*
X97970057Y-69940476D02*
X98065295Y-69892857D01*
X98065295Y-69892857D02*
X98208152Y-69892857D01*
X98208152Y-69892857D02*
X98303390Y-69940476D01*
X98303390Y-69940476D02*
X98351009Y-69988095D01*
X98351009Y-69988095D02*
X98398628Y-70083333D01*
X98398628Y-70083333D02*
X98398628Y-70464285D01*
X98874819Y-68940476D02*
X98874819Y-69511904D01*
X98874819Y-69226190D02*
X97874819Y-69226190D01*
X97874819Y-69226190D02*
X98017676Y-69321428D01*
X98017676Y-69321428D02*
X98112914Y-69416666D01*
X98112914Y-69416666D02*
X98160533Y-69511904D01*
X97874819Y-68321428D02*
X97874819Y-68226190D01*
X97874819Y-68226190D02*
X97922438Y-68130952D01*
X97922438Y-68130952D02*
X97970057Y-68083333D01*
X97970057Y-68083333D02*
X98065295Y-68035714D01*
X98065295Y-68035714D02*
X98255771Y-67988095D01*
X98255771Y-67988095D02*
X98493866Y-67988095D01*
X98493866Y-67988095D02*
X98684342Y-68035714D01*
X98684342Y-68035714D02*
X98779580Y-68083333D01*
X98779580Y-68083333D02*
X98827200Y-68130952D01*
X98827200Y-68130952D02*
X98874819Y-68226190D01*
X98874819Y-68226190D02*
X98874819Y-68321428D01*
X98874819Y-68321428D02*
X98827200Y-68416666D01*
X98827200Y-68416666D02*
X98779580Y-68464285D01*
X98779580Y-68464285D02*
X98684342Y-68511904D01*
X98684342Y-68511904D02*
X98493866Y-68559523D01*
X98493866Y-68559523D02*
X98255771Y-68559523D01*
X98255771Y-68559523D02*
X98065295Y-68511904D01*
X98065295Y-68511904D02*
X97970057Y-68464285D01*
X97970057Y-68464285D02*
X97922438Y-68416666D01*
X97922438Y-68416666D02*
X97874819Y-68321428D01*
X103583333Y-118449580D02*
X103535714Y-118497200D01*
X103535714Y-118497200D02*
X103392857Y-118544819D01*
X103392857Y-118544819D02*
X103297619Y-118544819D01*
X103297619Y-118544819D02*
X103154762Y-118497200D01*
X103154762Y-118497200D02*
X103059524Y-118401961D01*
X103059524Y-118401961D02*
X103011905Y-118306723D01*
X103011905Y-118306723D02*
X102964286Y-118116247D01*
X102964286Y-118116247D02*
X102964286Y-117973390D01*
X102964286Y-117973390D02*
X103011905Y-117782914D01*
X103011905Y-117782914D02*
X103059524Y-117687676D01*
X103059524Y-117687676D02*
X103154762Y-117592438D01*
X103154762Y-117592438D02*
X103297619Y-117544819D01*
X103297619Y-117544819D02*
X103392857Y-117544819D01*
X103392857Y-117544819D02*
X103535714Y-117592438D01*
X103535714Y-117592438D02*
X103583333Y-117640057D01*
X104535714Y-118544819D02*
X103964286Y-118544819D01*
X104250000Y-118544819D02*
X104250000Y-117544819D01*
X104250000Y-117544819D02*
X104154762Y-117687676D01*
X104154762Y-117687676D02*
X104059524Y-117782914D01*
X104059524Y-117782914D02*
X103964286Y-117830533D01*
X102699580Y-115892857D02*
X102747200Y-115940476D01*
X102747200Y-115940476D02*
X102794819Y-116083333D01*
X102794819Y-116083333D02*
X102794819Y-116178571D01*
X102794819Y-116178571D02*
X102747200Y-116321428D01*
X102747200Y-116321428D02*
X102651961Y-116416666D01*
X102651961Y-116416666D02*
X102556723Y-116464285D01*
X102556723Y-116464285D02*
X102366247Y-116511904D01*
X102366247Y-116511904D02*
X102223390Y-116511904D01*
X102223390Y-116511904D02*
X102032914Y-116464285D01*
X102032914Y-116464285D02*
X101937676Y-116416666D01*
X101937676Y-116416666D02*
X101842438Y-116321428D01*
X101842438Y-116321428D02*
X101794819Y-116178571D01*
X101794819Y-116178571D02*
X101794819Y-116083333D01*
X101794819Y-116083333D02*
X101842438Y-115940476D01*
X101842438Y-115940476D02*
X101890057Y-115892857D01*
X102794819Y-114940476D02*
X102794819Y-115511904D01*
X102794819Y-115226190D02*
X101794819Y-115226190D01*
X101794819Y-115226190D02*
X101937676Y-115321428D01*
X101937676Y-115321428D02*
X102032914Y-115416666D01*
X102032914Y-115416666D02*
X102080533Y-115511904D01*
X101890057Y-114559523D02*
X101842438Y-114511904D01*
X101842438Y-114511904D02*
X101794819Y-114416666D01*
X101794819Y-114416666D02*
X101794819Y-114178571D01*
X101794819Y-114178571D02*
X101842438Y-114083333D01*
X101842438Y-114083333D02*
X101890057Y-114035714D01*
X101890057Y-114035714D02*
X101985295Y-113988095D01*
X101985295Y-113988095D02*
X102080533Y-113988095D01*
X102080533Y-113988095D02*
X102223390Y-114035714D01*
X102223390Y-114035714D02*
X102794819Y-114607142D01*
X102794819Y-114607142D02*
X102794819Y-113988095D01*
X118011905Y-108024819D02*
X118011905Y-107024819D01*
X118011905Y-107024819D02*
X118250000Y-107024819D01*
X118250000Y-107024819D02*
X118392857Y-107072438D01*
X118392857Y-107072438D02*
X118488095Y-107167676D01*
X118488095Y-107167676D02*
X118535714Y-107262914D01*
X118535714Y-107262914D02*
X118583333Y-107453390D01*
X118583333Y-107453390D02*
X118583333Y-107596247D01*
X118583333Y-107596247D02*
X118535714Y-107786723D01*
X118535714Y-107786723D02*
X118488095Y-107881961D01*
X118488095Y-107881961D02*
X118392857Y-107977200D01*
X118392857Y-107977200D02*
X118250000Y-108024819D01*
X118250000Y-108024819D02*
X118011905Y-108024819D01*
X119440476Y-107024819D02*
X119250000Y-107024819D01*
X119250000Y-107024819D02*
X119154762Y-107072438D01*
X119154762Y-107072438D02*
X119107143Y-107120057D01*
X119107143Y-107120057D02*
X119011905Y-107262914D01*
X119011905Y-107262914D02*
X118964286Y-107453390D01*
X118964286Y-107453390D02*
X118964286Y-107834342D01*
X118964286Y-107834342D02*
X119011905Y-107929580D01*
X119011905Y-107929580D02*
X119059524Y-107977200D01*
X119059524Y-107977200D02*
X119154762Y-108024819D01*
X119154762Y-108024819D02*
X119345238Y-108024819D01*
X119345238Y-108024819D02*
X119440476Y-107977200D01*
X119440476Y-107977200D02*
X119488095Y-107929580D01*
X119488095Y-107929580D02*
X119535714Y-107834342D01*
X119535714Y-107834342D02*
X119535714Y-107596247D01*
X119535714Y-107596247D02*
X119488095Y-107501009D01*
X119488095Y-107501009D02*
X119440476Y-107453390D01*
X119440476Y-107453390D02*
X119345238Y-107405771D01*
X119345238Y-107405771D02*
X119154762Y-107405771D01*
X119154762Y-107405771D02*
X119059524Y-107453390D01*
X119059524Y-107453390D02*
X119011905Y-107501009D01*
X119011905Y-107501009D02*
X118964286Y-107596247D01*
X101034819Y-92382857D02*
X100558628Y-92716190D01*
X101034819Y-92954285D02*
X100034819Y-92954285D01*
X100034819Y-92954285D02*
X100034819Y-92573333D01*
X100034819Y-92573333D02*
X100082438Y-92478095D01*
X100082438Y-92478095D02*
X100130057Y-92430476D01*
X100130057Y-92430476D02*
X100225295Y-92382857D01*
X100225295Y-92382857D02*
X100368152Y-92382857D01*
X100368152Y-92382857D02*
X100463390Y-92430476D01*
X100463390Y-92430476D02*
X100511009Y-92478095D01*
X100511009Y-92478095D02*
X100558628Y-92573333D01*
X100558628Y-92573333D02*
X100558628Y-92954285D01*
X101034819Y-91430476D02*
X101034819Y-92001904D01*
X101034819Y-91716190D02*
X100034819Y-91716190D01*
X100034819Y-91716190D02*
X100177676Y-91811428D01*
X100177676Y-91811428D02*
X100272914Y-91906666D01*
X100272914Y-91906666D02*
X100320533Y-92001904D01*
X100130057Y-91049523D02*
X100082438Y-91001904D01*
X100082438Y-91001904D02*
X100034819Y-90906666D01*
X100034819Y-90906666D02*
X100034819Y-90668571D01*
X100034819Y-90668571D02*
X100082438Y-90573333D01*
X100082438Y-90573333D02*
X100130057Y-90525714D01*
X100130057Y-90525714D02*
X100225295Y-90478095D01*
X100225295Y-90478095D02*
X100320533Y-90478095D01*
X100320533Y-90478095D02*
X100463390Y-90525714D01*
X100463390Y-90525714D02*
X101034819Y-91097142D01*
X101034819Y-91097142D02*
X101034819Y-90478095D01*
X109634819Y-122308333D02*
X110349104Y-122308333D01*
X110349104Y-122308333D02*
X110491961Y-122355952D01*
X110491961Y-122355952D02*
X110587200Y-122451190D01*
X110587200Y-122451190D02*
X110634819Y-122594047D01*
X110634819Y-122594047D02*
X110634819Y-122689285D01*
X109730057Y-121879761D02*
X109682438Y-121832142D01*
X109682438Y-121832142D02*
X109634819Y-121736904D01*
X109634819Y-121736904D02*
X109634819Y-121498809D01*
X109634819Y-121498809D02*
X109682438Y-121403571D01*
X109682438Y-121403571D02*
X109730057Y-121355952D01*
X109730057Y-121355952D02*
X109825295Y-121308333D01*
X109825295Y-121308333D02*
X109920533Y-121308333D01*
X109920533Y-121308333D02*
X110063390Y-121355952D01*
X110063390Y-121355952D02*
X110634819Y-121927380D01*
X110634819Y-121927380D02*
X110634819Y-121308333D01*
X123083333Y-73289580D02*
X123035714Y-73337200D01*
X123035714Y-73337200D02*
X122892857Y-73384819D01*
X122892857Y-73384819D02*
X122797619Y-73384819D01*
X122797619Y-73384819D02*
X122654762Y-73337200D01*
X122654762Y-73337200D02*
X122559524Y-73241961D01*
X122559524Y-73241961D02*
X122511905Y-73146723D01*
X122511905Y-73146723D02*
X122464286Y-72956247D01*
X122464286Y-72956247D02*
X122464286Y-72813390D01*
X122464286Y-72813390D02*
X122511905Y-72622914D01*
X122511905Y-72622914D02*
X122559524Y-72527676D01*
X122559524Y-72527676D02*
X122654762Y-72432438D01*
X122654762Y-72432438D02*
X122797619Y-72384819D01*
X122797619Y-72384819D02*
X122892857Y-72384819D01*
X122892857Y-72384819D02*
X123035714Y-72432438D01*
X123035714Y-72432438D02*
X123083333Y-72480057D01*
X123988095Y-72384819D02*
X123511905Y-72384819D01*
X123511905Y-72384819D02*
X123464286Y-72861009D01*
X123464286Y-72861009D02*
X123511905Y-72813390D01*
X123511905Y-72813390D02*
X123607143Y-72765771D01*
X123607143Y-72765771D02*
X123845238Y-72765771D01*
X123845238Y-72765771D02*
X123940476Y-72813390D01*
X123940476Y-72813390D02*
X123988095Y-72861009D01*
X123988095Y-72861009D02*
X124035714Y-72956247D01*
X124035714Y-72956247D02*
X124035714Y-73194342D01*
X124035714Y-73194342D02*
X123988095Y-73289580D01*
X123988095Y-73289580D02*
X123940476Y-73337200D01*
X123940476Y-73337200D02*
X123845238Y-73384819D01*
X123845238Y-73384819D02*
X123607143Y-73384819D01*
X123607143Y-73384819D02*
X123511905Y-73337200D01*
X123511905Y-73337200D02*
X123464286Y-73289580D01*
X94554819Y-110683333D02*
X95269104Y-110683333D01*
X95269104Y-110683333D02*
X95411961Y-110730952D01*
X95411961Y-110730952D02*
X95507200Y-110826190D01*
X95507200Y-110826190D02*
X95554819Y-110969047D01*
X95554819Y-110969047D02*
X95554819Y-111064285D01*
X94554819Y-109730952D02*
X94554819Y-110207142D01*
X94554819Y-110207142D02*
X95031009Y-110254761D01*
X95031009Y-110254761D02*
X94983390Y-110207142D01*
X94983390Y-110207142D02*
X94935771Y-110111904D01*
X94935771Y-110111904D02*
X94935771Y-109873809D01*
X94935771Y-109873809D02*
X94983390Y-109778571D01*
X94983390Y-109778571D02*
X95031009Y-109730952D01*
X95031009Y-109730952D02*
X95126247Y-109683333D01*
X95126247Y-109683333D02*
X95364342Y-109683333D01*
X95364342Y-109683333D02*
X95459580Y-109730952D01*
X95459580Y-109730952D02*
X95507200Y-109778571D01*
X95507200Y-109778571D02*
X95554819Y-109873809D01*
X95554819Y-109873809D02*
X95554819Y-110111904D01*
X95554819Y-110111904D02*
X95507200Y-110207142D01*
X95507200Y-110207142D02*
X95459580Y-110254761D01*
X124124819Y-87990357D02*
X123648628Y-88323690D01*
X124124819Y-88561785D02*
X123124819Y-88561785D01*
X123124819Y-88561785D02*
X123124819Y-88180833D01*
X123124819Y-88180833D02*
X123172438Y-88085595D01*
X123172438Y-88085595D02*
X123220057Y-88037976D01*
X123220057Y-88037976D02*
X123315295Y-87990357D01*
X123315295Y-87990357D02*
X123458152Y-87990357D01*
X123458152Y-87990357D02*
X123553390Y-88037976D01*
X123553390Y-88037976D02*
X123601009Y-88085595D01*
X123601009Y-88085595D02*
X123648628Y-88180833D01*
X123648628Y-88180833D02*
X123648628Y-88561785D01*
X124124819Y-87037976D02*
X124124819Y-87609404D01*
X124124819Y-87323690D02*
X123124819Y-87323690D01*
X123124819Y-87323690D02*
X123267676Y-87418928D01*
X123267676Y-87418928D02*
X123362914Y-87514166D01*
X123362914Y-87514166D02*
X123410533Y-87609404D01*
X124124819Y-86085595D02*
X124124819Y-86657023D01*
X124124819Y-86371309D02*
X123124819Y-86371309D01*
X123124819Y-86371309D02*
X123267676Y-86466547D01*
X123267676Y-86466547D02*
X123362914Y-86561785D01*
X123362914Y-86561785D02*
X123410533Y-86657023D01*
X107638095Y-115734819D02*
X107638095Y-116544342D01*
X107638095Y-116544342D02*
X107685714Y-116639580D01*
X107685714Y-116639580D02*
X107733333Y-116687200D01*
X107733333Y-116687200D02*
X107828571Y-116734819D01*
X107828571Y-116734819D02*
X108019047Y-116734819D01*
X108019047Y-116734819D02*
X108114285Y-116687200D01*
X108114285Y-116687200D02*
X108161904Y-116639580D01*
X108161904Y-116639580D02*
X108209523Y-116544342D01*
X108209523Y-116544342D02*
X108209523Y-115734819D01*
X108590476Y-115734819D02*
X109209523Y-115734819D01*
X109209523Y-115734819D02*
X108876190Y-116115771D01*
X108876190Y-116115771D02*
X109019047Y-116115771D01*
X109019047Y-116115771D02*
X109114285Y-116163390D01*
X109114285Y-116163390D02*
X109161904Y-116211009D01*
X109161904Y-116211009D02*
X109209523Y-116306247D01*
X109209523Y-116306247D02*
X109209523Y-116544342D01*
X109209523Y-116544342D02*
X109161904Y-116639580D01*
X109161904Y-116639580D02*
X109114285Y-116687200D01*
X109114285Y-116687200D02*
X109019047Y-116734819D01*
X109019047Y-116734819D02*
X108733333Y-116734819D01*
X108733333Y-116734819D02*
X108638095Y-116687200D01*
X108638095Y-116687200D02*
X108590476Y-116639580D01*
X94357142Y-76429580D02*
X94309523Y-76477200D01*
X94309523Y-76477200D02*
X94166666Y-76524819D01*
X94166666Y-76524819D02*
X94071428Y-76524819D01*
X94071428Y-76524819D02*
X93928571Y-76477200D01*
X93928571Y-76477200D02*
X93833333Y-76381961D01*
X93833333Y-76381961D02*
X93785714Y-76286723D01*
X93785714Y-76286723D02*
X93738095Y-76096247D01*
X93738095Y-76096247D02*
X93738095Y-75953390D01*
X93738095Y-75953390D02*
X93785714Y-75762914D01*
X93785714Y-75762914D02*
X93833333Y-75667676D01*
X93833333Y-75667676D02*
X93928571Y-75572438D01*
X93928571Y-75572438D02*
X94071428Y-75524819D01*
X94071428Y-75524819D02*
X94166666Y-75524819D01*
X94166666Y-75524819D02*
X94309523Y-75572438D01*
X94309523Y-75572438D02*
X94357142Y-75620057D01*
X95309523Y-76524819D02*
X94738095Y-76524819D01*
X95023809Y-76524819D02*
X95023809Y-75524819D01*
X95023809Y-75524819D02*
X94928571Y-75667676D01*
X94928571Y-75667676D02*
X94833333Y-75762914D01*
X94833333Y-75762914D02*
X94738095Y-75810533D01*
X96214285Y-75524819D02*
X95738095Y-75524819D01*
X95738095Y-75524819D02*
X95690476Y-76001009D01*
X95690476Y-76001009D02*
X95738095Y-75953390D01*
X95738095Y-75953390D02*
X95833333Y-75905771D01*
X95833333Y-75905771D02*
X96071428Y-75905771D01*
X96071428Y-75905771D02*
X96166666Y-75953390D01*
X96166666Y-75953390D02*
X96214285Y-76001009D01*
X96214285Y-76001009D02*
X96261904Y-76096247D01*
X96261904Y-76096247D02*
X96261904Y-76334342D01*
X96261904Y-76334342D02*
X96214285Y-76429580D01*
X96214285Y-76429580D02*
X96166666Y-76477200D01*
X96166666Y-76477200D02*
X96071428Y-76524819D01*
X96071428Y-76524819D02*
X95833333Y-76524819D01*
X95833333Y-76524819D02*
X95738095Y-76477200D01*
X95738095Y-76477200D02*
X95690476Y-76429580D01*
X119583333Y-112449580D02*
X119535714Y-112497200D01*
X119535714Y-112497200D02*
X119392857Y-112544819D01*
X119392857Y-112544819D02*
X119297619Y-112544819D01*
X119297619Y-112544819D02*
X119154762Y-112497200D01*
X119154762Y-112497200D02*
X119059524Y-112401961D01*
X119059524Y-112401961D02*
X119011905Y-112306723D01*
X119011905Y-112306723D02*
X118964286Y-112116247D01*
X118964286Y-112116247D02*
X118964286Y-111973390D01*
X118964286Y-111973390D02*
X119011905Y-111782914D01*
X119011905Y-111782914D02*
X119059524Y-111687676D01*
X119059524Y-111687676D02*
X119154762Y-111592438D01*
X119154762Y-111592438D02*
X119297619Y-111544819D01*
X119297619Y-111544819D02*
X119392857Y-111544819D01*
X119392857Y-111544819D02*
X119535714Y-111592438D01*
X119535714Y-111592438D02*
X119583333Y-111640057D01*
X119916667Y-111544819D02*
X120535714Y-111544819D01*
X120535714Y-111544819D02*
X120202381Y-111925771D01*
X120202381Y-111925771D02*
X120345238Y-111925771D01*
X120345238Y-111925771D02*
X120440476Y-111973390D01*
X120440476Y-111973390D02*
X120488095Y-112021009D01*
X120488095Y-112021009D02*
X120535714Y-112116247D01*
X120535714Y-112116247D02*
X120535714Y-112354342D01*
X120535714Y-112354342D02*
X120488095Y-112449580D01*
X120488095Y-112449580D02*
X120440476Y-112497200D01*
X120440476Y-112497200D02*
X120345238Y-112544819D01*
X120345238Y-112544819D02*
X120059524Y-112544819D01*
X120059524Y-112544819D02*
X119964286Y-112497200D01*
X119964286Y-112497200D02*
X119916667Y-112449580D01*
X111859819Y-87231904D02*
X112669342Y-87231904D01*
X112669342Y-87231904D02*
X112764580Y-87184285D01*
X112764580Y-87184285D02*
X112812200Y-87136666D01*
X112812200Y-87136666D02*
X112859819Y-87041428D01*
X112859819Y-87041428D02*
X112859819Y-86850952D01*
X112859819Y-86850952D02*
X112812200Y-86755714D01*
X112812200Y-86755714D02*
X112764580Y-86708095D01*
X112764580Y-86708095D02*
X112669342Y-86660476D01*
X112669342Y-86660476D02*
X111859819Y-86660476D01*
X112288390Y-86041428D02*
X112240771Y-86136666D01*
X112240771Y-86136666D02*
X112193152Y-86184285D01*
X112193152Y-86184285D02*
X112097914Y-86231904D01*
X112097914Y-86231904D02*
X112050295Y-86231904D01*
X112050295Y-86231904D02*
X111955057Y-86184285D01*
X111955057Y-86184285D02*
X111907438Y-86136666D01*
X111907438Y-86136666D02*
X111859819Y-86041428D01*
X111859819Y-86041428D02*
X111859819Y-85850952D01*
X111859819Y-85850952D02*
X111907438Y-85755714D01*
X111907438Y-85755714D02*
X111955057Y-85708095D01*
X111955057Y-85708095D02*
X112050295Y-85660476D01*
X112050295Y-85660476D02*
X112097914Y-85660476D01*
X112097914Y-85660476D02*
X112193152Y-85708095D01*
X112193152Y-85708095D02*
X112240771Y-85755714D01*
X112240771Y-85755714D02*
X112288390Y-85850952D01*
X112288390Y-85850952D02*
X112288390Y-86041428D01*
X112288390Y-86041428D02*
X112336009Y-86136666D01*
X112336009Y-86136666D02*
X112383628Y-86184285D01*
X112383628Y-86184285D02*
X112478866Y-86231904D01*
X112478866Y-86231904D02*
X112669342Y-86231904D01*
X112669342Y-86231904D02*
X112764580Y-86184285D01*
X112764580Y-86184285D02*
X112812200Y-86136666D01*
X112812200Y-86136666D02*
X112859819Y-86041428D01*
X112859819Y-86041428D02*
X112859819Y-85850952D01*
X112859819Y-85850952D02*
X112812200Y-85755714D01*
X112812200Y-85755714D02*
X112764580Y-85708095D01*
X112764580Y-85708095D02*
X112669342Y-85660476D01*
X112669342Y-85660476D02*
X112478866Y-85660476D01*
X112478866Y-85660476D02*
X112383628Y-85708095D01*
X112383628Y-85708095D02*
X112336009Y-85755714D01*
X112336009Y-85755714D02*
X112288390Y-85850952D01*
X115678628Y-112476190D02*
X116154819Y-112476190D01*
X115154819Y-112809523D02*
X115678628Y-112476190D01*
X115678628Y-112476190D02*
X115154819Y-112142857D01*
X116154819Y-111285714D02*
X116154819Y-111857142D01*
X116154819Y-111571428D02*
X115154819Y-111571428D01*
X115154819Y-111571428D02*
X115297676Y-111666666D01*
X115297676Y-111666666D02*
X115392914Y-111761904D01*
X115392914Y-111761904D02*
X115440533Y-111857142D01*
X107017142Y-85539580D02*
X106969523Y-85587200D01*
X106969523Y-85587200D02*
X106826666Y-85634819D01*
X106826666Y-85634819D02*
X106731428Y-85634819D01*
X106731428Y-85634819D02*
X106588571Y-85587200D01*
X106588571Y-85587200D02*
X106493333Y-85491961D01*
X106493333Y-85491961D02*
X106445714Y-85396723D01*
X106445714Y-85396723D02*
X106398095Y-85206247D01*
X106398095Y-85206247D02*
X106398095Y-85063390D01*
X106398095Y-85063390D02*
X106445714Y-84872914D01*
X106445714Y-84872914D02*
X106493333Y-84777676D01*
X106493333Y-84777676D02*
X106588571Y-84682438D01*
X106588571Y-84682438D02*
X106731428Y-84634819D01*
X106731428Y-84634819D02*
X106826666Y-84634819D01*
X106826666Y-84634819D02*
X106969523Y-84682438D01*
X106969523Y-84682438D02*
X107017142Y-84730057D01*
X107969523Y-85634819D02*
X107398095Y-85634819D01*
X107683809Y-85634819D02*
X107683809Y-84634819D01*
X107683809Y-84634819D02*
X107588571Y-84777676D01*
X107588571Y-84777676D02*
X107493333Y-84872914D01*
X107493333Y-84872914D02*
X107398095Y-84920533D01*
X108445714Y-85634819D02*
X108636190Y-85634819D01*
X108636190Y-85634819D02*
X108731428Y-85587200D01*
X108731428Y-85587200D02*
X108779047Y-85539580D01*
X108779047Y-85539580D02*
X108874285Y-85396723D01*
X108874285Y-85396723D02*
X108921904Y-85206247D01*
X108921904Y-85206247D02*
X108921904Y-84825295D01*
X108921904Y-84825295D02*
X108874285Y-84730057D01*
X108874285Y-84730057D02*
X108826666Y-84682438D01*
X108826666Y-84682438D02*
X108731428Y-84634819D01*
X108731428Y-84634819D02*
X108540952Y-84634819D01*
X108540952Y-84634819D02*
X108445714Y-84682438D01*
X108445714Y-84682438D02*
X108398095Y-84730057D01*
X108398095Y-84730057D02*
X108350476Y-84825295D01*
X108350476Y-84825295D02*
X108350476Y-85063390D01*
X108350476Y-85063390D02*
X108398095Y-85158628D01*
X108398095Y-85158628D02*
X108445714Y-85206247D01*
X108445714Y-85206247D02*
X108540952Y-85253866D01*
X108540952Y-85253866D02*
X108731428Y-85253866D01*
X108731428Y-85253866D02*
X108826666Y-85206247D01*
X108826666Y-85206247D02*
X108874285Y-85158628D01*
X108874285Y-85158628D02*
X108921904Y-85063390D01*
X107267142Y-83769580D02*
X107219523Y-83817200D01*
X107219523Y-83817200D02*
X107076666Y-83864819D01*
X107076666Y-83864819D02*
X106981428Y-83864819D01*
X106981428Y-83864819D02*
X106838571Y-83817200D01*
X106838571Y-83817200D02*
X106743333Y-83721961D01*
X106743333Y-83721961D02*
X106695714Y-83626723D01*
X106695714Y-83626723D02*
X106648095Y-83436247D01*
X106648095Y-83436247D02*
X106648095Y-83293390D01*
X106648095Y-83293390D02*
X106695714Y-83102914D01*
X106695714Y-83102914D02*
X106743333Y-83007676D01*
X106743333Y-83007676D02*
X106838571Y-82912438D01*
X106838571Y-82912438D02*
X106981428Y-82864819D01*
X106981428Y-82864819D02*
X107076666Y-82864819D01*
X107076666Y-82864819D02*
X107219523Y-82912438D01*
X107219523Y-82912438D02*
X107267142Y-82960057D01*
X107648095Y-82960057D02*
X107695714Y-82912438D01*
X107695714Y-82912438D02*
X107790952Y-82864819D01*
X107790952Y-82864819D02*
X108029047Y-82864819D01*
X108029047Y-82864819D02*
X108124285Y-82912438D01*
X108124285Y-82912438D02*
X108171904Y-82960057D01*
X108171904Y-82960057D02*
X108219523Y-83055295D01*
X108219523Y-83055295D02*
X108219523Y-83150533D01*
X108219523Y-83150533D02*
X108171904Y-83293390D01*
X108171904Y-83293390D02*
X107600476Y-83864819D01*
X107600476Y-83864819D02*
X108219523Y-83864819D01*
X109171904Y-83864819D02*
X108600476Y-83864819D01*
X108886190Y-83864819D02*
X108886190Y-82864819D01*
X108886190Y-82864819D02*
X108790952Y-83007676D01*
X108790952Y-83007676D02*
X108695714Y-83102914D01*
X108695714Y-83102914D02*
X108600476Y-83150533D01*
X118583333Y-86789580D02*
X118535714Y-86837200D01*
X118535714Y-86837200D02*
X118392857Y-86884819D01*
X118392857Y-86884819D02*
X118297619Y-86884819D01*
X118297619Y-86884819D02*
X118154762Y-86837200D01*
X118154762Y-86837200D02*
X118059524Y-86741961D01*
X118059524Y-86741961D02*
X118011905Y-86646723D01*
X118011905Y-86646723D02*
X117964286Y-86456247D01*
X117964286Y-86456247D02*
X117964286Y-86313390D01*
X117964286Y-86313390D02*
X118011905Y-86122914D01*
X118011905Y-86122914D02*
X118059524Y-86027676D01*
X118059524Y-86027676D02*
X118154762Y-85932438D01*
X118154762Y-85932438D02*
X118297619Y-85884819D01*
X118297619Y-85884819D02*
X118392857Y-85884819D01*
X118392857Y-85884819D02*
X118535714Y-85932438D01*
X118535714Y-85932438D02*
X118583333Y-85980057D01*
X119059524Y-86884819D02*
X119250000Y-86884819D01*
X119250000Y-86884819D02*
X119345238Y-86837200D01*
X119345238Y-86837200D02*
X119392857Y-86789580D01*
X119392857Y-86789580D02*
X119488095Y-86646723D01*
X119488095Y-86646723D02*
X119535714Y-86456247D01*
X119535714Y-86456247D02*
X119535714Y-86075295D01*
X119535714Y-86075295D02*
X119488095Y-85980057D01*
X119488095Y-85980057D02*
X119440476Y-85932438D01*
X119440476Y-85932438D02*
X119345238Y-85884819D01*
X119345238Y-85884819D02*
X119154762Y-85884819D01*
X119154762Y-85884819D02*
X119059524Y-85932438D01*
X119059524Y-85932438D02*
X119011905Y-85980057D01*
X119011905Y-85980057D02*
X118964286Y-86075295D01*
X118964286Y-86075295D02*
X118964286Y-86313390D01*
X118964286Y-86313390D02*
X119011905Y-86408628D01*
X119011905Y-86408628D02*
X119059524Y-86456247D01*
X119059524Y-86456247D02*
X119154762Y-86503866D01*
X119154762Y-86503866D02*
X119345238Y-86503866D01*
X119345238Y-86503866D02*
X119440476Y-86456247D01*
X119440476Y-86456247D02*
X119488095Y-86408628D01*
X119488095Y-86408628D02*
X119535714Y-86313390D01*
X115519580Y-96392857D02*
X115567200Y-96440476D01*
X115567200Y-96440476D02*
X115614819Y-96583333D01*
X115614819Y-96583333D02*
X115614819Y-96678571D01*
X115614819Y-96678571D02*
X115567200Y-96821428D01*
X115567200Y-96821428D02*
X115471961Y-96916666D01*
X115471961Y-96916666D02*
X115376723Y-96964285D01*
X115376723Y-96964285D02*
X115186247Y-97011904D01*
X115186247Y-97011904D02*
X115043390Y-97011904D01*
X115043390Y-97011904D02*
X114852914Y-96964285D01*
X114852914Y-96964285D02*
X114757676Y-96916666D01*
X114757676Y-96916666D02*
X114662438Y-96821428D01*
X114662438Y-96821428D02*
X114614819Y-96678571D01*
X114614819Y-96678571D02*
X114614819Y-96583333D01*
X114614819Y-96583333D02*
X114662438Y-96440476D01*
X114662438Y-96440476D02*
X114710057Y-96392857D01*
X114710057Y-96011904D02*
X114662438Y-95964285D01*
X114662438Y-95964285D02*
X114614819Y-95869047D01*
X114614819Y-95869047D02*
X114614819Y-95630952D01*
X114614819Y-95630952D02*
X114662438Y-95535714D01*
X114662438Y-95535714D02*
X114710057Y-95488095D01*
X114710057Y-95488095D02*
X114805295Y-95440476D01*
X114805295Y-95440476D02*
X114900533Y-95440476D01*
X114900533Y-95440476D02*
X115043390Y-95488095D01*
X115043390Y-95488095D02*
X115614819Y-96059523D01*
X115614819Y-96059523D02*
X115614819Y-95440476D01*
X114614819Y-95107142D02*
X114614819Y-94488095D01*
X114614819Y-94488095D02*
X114995771Y-94821428D01*
X114995771Y-94821428D02*
X114995771Y-94678571D01*
X114995771Y-94678571D02*
X115043390Y-94583333D01*
X115043390Y-94583333D02*
X115091009Y-94535714D01*
X115091009Y-94535714D02*
X115186247Y-94488095D01*
X115186247Y-94488095D02*
X115424342Y-94488095D01*
X115424342Y-94488095D02*
X115519580Y-94535714D01*
X115519580Y-94535714D02*
X115567200Y-94583333D01*
X115567200Y-94583333D02*
X115614819Y-94678571D01*
X115614819Y-94678571D02*
X115614819Y-94964285D01*
X115614819Y-94964285D02*
X115567200Y-95059523D01*
X115567200Y-95059523D02*
X115519580Y-95107142D01*
X130083333Y-100034819D02*
X129750000Y-99558628D01*
X129511905Y-100034819D02*
X129511905Y-99034819D01*
X129511905Y-99034819D02*
X129892857Y-99034819D01*
X129892857Y-99034819D02*
X129988095Y-99082438D01*
X129988095Y-99082438D02*
X130035714Y-99130057D01*
X130035714Y-99130057D02*
X130083333Y-99225295D01*
X130083333Y-99225295D02*
X130083333Y-99368152D01*
X130083333Y-99368152D02*
X130035714Y-99463390D01*
X130035714Y-99463390D02*
X129988095Y-99511009D01*
X129988095Y-99511009D02*
X129892857Y-99558628D01*
X129892857Y-99558628D02*
X129511905Y-99558628D01*
X130559524Y-100034819D02*
X130750000Y-100034819D01*
X130750000Y-100034819D02*
X130845238Y-99987200D01*
X130845238Y-99987200D02*
X130892857Y-99939580D01*
X130892857Y-99939580D02*
X130988095Y-99796723D01*
X130988095Y-99796723D02*
X131035714Y-99606247D01*
X131035714Y-99606247D02*
X131035714Y-99225295D01*
X131035714Y-99225295D02*
X130988095Y-99130057D01*
X130988095Y-99130057D02*
X130940476Y-99082438D01*
X130940476Y-99082438D02*
X130845238Y-99034819D01*
X130845238Y-99034819D02*
X130654762Y-99034819D01*
X130654762Y-99034819D02*
X130559524Y-99082438D01*
X130559524Y-99082438D02*
X130511905Y-99130057D01*
X130511905Y-99130057D02*
X130464286Y-99225295D01*
X130464286Y-99225295D02*
X130464286Y-99463390D01*
X130464286Y-99463390D02*
X130511905Y-99558628D01*
X130511905Y-99558628D02*
X130559524Y-99606247D01*
X130559524Y-99606247D02*
X130654762Y-99653866D01*
X130654762Y-99653866D02*
X130845238Y-99653866D01*
X130845238Y-99653866D02*
X130940476Y-99606247D01*
X130940476Y-99606247D02*
X130988095Y-99558628D01*
X130988095Y-99558628D02*
X131035714Y-99463390D01*
X115011905Y-65204819D02*
X115011905Y-64204819D01*
X115011905Y-64204819D02*
X115250000Y-64204819D01*
X115250000Y-64204819D02*
X115392857Y-64252438D01*
X115392857Y-64252438D02*
X115488095Y-64347676D01*
X115488095Y-64347676D02*
X115535714Y-64442914D01*
X115535714Y-64442914D02*
X115583333Y-64633390D01*
X115583333Y-64633390D02*
X115583333Y-64776247D01*
X115583333Y-64776247D02*
X115535714Y-64966723D01*
X115535714Y-64966723D02*
X115488095Y-65061961D01*
X115488095Y-65061961D02*
X115392857Y-65157200D01*
X115392857Y-65157200D02*
X115250000Y-65204819D01*
X115250000Y-65204819D02*
X115011905Y-65204819D01*
X115964286Y-64300057D02*
X116011905Y-64252438D01*
X116011905Y-64252438D02*
X116107143Y-64204819D01*
X116107143Y-64204819D02*
X116345238Y-64204819D01*
X116345238Y-64204819D02*
X116440476Y-64252438D01*
X116440476Y-64252438D02*
X116488095Y-64300057D01*
X116488095Y-64300057D02*
X116535714Y-64395295D01*
X116535714Y-64395295D02*
X116535714Y-64490533D01*
X116535714Y-64490533D02*
X116488095Y-64633390D01*
X116488095Y-64633390D02*
X115916667Y-65204819D01*
X115916667Y-65204819D02*
X116535714Y-65204819D01*
X99333333Y-112874819D02*
X99000000Y-112398628D01*
X98761905Y-112874819D02*
X98761905Y-111874819D01*
X98761905Y-111874819D02*
X99142857Y-111874819D01*
X99142857Y-111874819D02*
X99238095Y-111922438D01*
X99238095Y-111922438D02*
X99285714Y-111970057D01*
X99285714Y-111970057D02*
X99333333Y-112065295D01*
X99333333Y-112065295D02*
X99333333Y-112208152D01*
X99333333Y-112208152D02*
X99285714Y-112303390D01*
X99285714Y-112303390D02*
X99238095Y-112351009D01*
X99238095Y-112351009D02*
X99142857Y-112398628D01*
X99142857Y-112398628D02*
X98761905Y-112398628D01*
X99714286Y-111970057D02*
X99761905Y-111922438D01*
X99761905Y-111922438D02*
X99857143Y-111874819D01*
X99857143Y-111874819D02*
X100095238Y-111874819D01*
X100095238Y-111874819D02*
X100190476Y-111922438D01*
X100190476Y-111922438D02*
X100238095Y-111970057D01*
X100238095Y-111970057D02*
X100285714Y-112065295D01*
X100285714Y-112065295D02*
X100285714Y-112160533D01*
X100285714Y-112160533D02*
X100238095Y-112303390D01*
X100238095Y-112303390D02*
X99666667Y-112874819D01*
X99666667Y-112874819D02*
X100285714Y-112874819D01*
X120024819Y-88488094D02*
X119024819Y-88488094D01*
X119024819Y-88488094D02*
X119024819Y-88249999D01*
X119024819Y-88249999D02*
X119072438Y-88107142D01*
X119072438Y-88107142D02*
X119167676Y-88011904D01*
X119167676Y-88011904D02*
X119262914Y-87964285D01*
X119262914Y-87964285D02*
X119453390Y-87916666D01*
X119453390Y-87916666D02*
X119596247Y-87916666D01*
X119596247Y-87916666D02*
X119786723Y-87964285D01*
X119786723Y-87964285D02*
X119881961Y-88011904D01*
X119881961Y-88011904D02*
X119977200Y-88107142D01*
X119977200Y-88107142D02*
X120024819Y-88249999D01*
X120024819Y-88249999D02*
X120024819Y-88488094D01*
X119358152Y-87059523D02*
X120024819Y-87059523D01*
X118977200Y-87297618D02*
X119691485Y-87535713D01*
X119691485Y-87535713D02*
X119691485Y-86916666D01*
X117083333Y-103624819D02*
X116750000Y-103148628D01*
X116511905Y-103624819D02*
X116511905Y-102624819D01*
X116511905Y-102624819D02*
X116892857Y-102624819D01*
X116892857Y-102624819D02*
X116988095Y-102672438D01*
X116988095Y-102672438D02*
X117035714Y-102720057D01*
X117035714Y-102720057D02*
X117083333Y-102815295D01*
X117083333Y-102815295D02*
X117083333Y-102958152D01*
X117083333Y-102958152D02*
X117035714Y-103053390D01*
X117035714Y-103053390D02*
X116988095Y-103101009D01*
X116988095Y-103101009D02*
X116892857Y-103148628D01*
X116892857Y-103148628D02*
X116511905Y-103148628D01*
X117654762Y-103053390D02*
X117559524Y-103005771D01*
X117559524Y-103005771D02*
X117511905Y-102958152D01*
X117511905Y-102958152D02*
X117464286Y-102862914D01*
X117464286Y-102862914D02*
X117464286Y-102815295D01*
X117464286Y-102815295D02*
X117511905Y-102720057D01*
X117511905Y-102720057D02*
X117559524Y-102672438D01*
X117559524Y-102672438D02*
X117654762Y-102624819D01*
X117654762Y-102624819D02*
X117845238Y-102624819D01*
X117845238Y-102624819D02*
X117940476Y-102672438D01*
X117940476Y-102672438D02*
X117988095Y-102720057D01*
X117988095Y-102720057D02*
X118035714Y-102815295D01*
X118035714Y-102815295D02*
X118035714Y-102862914D01*
X118035714Y-102862914D02*
X117988095Y-102958152D01*
X117988095Y-102958152D02*
X117940476Y-103005771D01*
X117940476Y-103005771D02*
X117845238Y-103053390D01*
X117845238Y-103053390D02*
X117654762Y-103053390D01*
X117654762Y-103053390D02*
X117559524Y-103101009D01*
X117559524Y-103101009D02*
X117511905Y-103148628D01*
X117511905Y-103148628D02*
X117464286Y-103243866D01*
X117464286Y-103243866D02*
X117464286Y-103434342D01*
X117464286Y-103434342D02*
X117511905Y-103529580D01*
X117511905Y-103529580D02*
X117559524Y-103577200D01*
X117559524Y-103577200D02*
X117654762Y-103624819D01*
X117654762Y-103624819D02*
X117845238Y-103624819D01*
X117845238Y-103624819D02*
X117940476Y-103577200D01*
X117940476Y-103577200D02*
X117988095Y-103529580D01*
X117988095Y-103529580D02*
X118035714Y-103434342D01*
X118035714Y-103434342D02*
X118035714Y-103243866D01*
X118035714Y-103243866D02*
X117988095Y-103148628D01*
X117988095Y-103148628D02*
X117940476Y-103101009D01*
X117940476Y-103101009D02*
X117845238Y-103053390D01*
X117124819Y-112166666D02*
X116648628Y-112499999D01*
X117124819Y-112738094D02*
X116124819Y-112738094D01*
X116124819Y-112738094D02*
X116124819Y-112357142D01*
X116124819Y-112357142D02*
X116172438Y-112261904D01*
X116172438Y-112261904D02*
X116220057Y-112214285D01*
X116220057Y-112214285D02*
X116315295Y-112166666D01*
X116315295Y-112166666D02*
X116458152Y-112166666D01*
X116458152Y-112166666D02*
X116553390Y-112214285D01*
X116553390Y-112214285D02*
X116601009Y-112261904D01*
X116601009Y-112261904D02*
X116648628Y-112357142D01*
X116648628Y-112357142D02*
X116648628Y-112738094D01*
X116124819Y-111309523D02*
X116124819Y-111499999D01*
X116124819Y-111499999D02*
X116172438Y-111595237D01*
X116172438Y-111595237D02*
X116220057Y-111642856D01*
X116220057Y-111642856D02*
X116362914Y-111738094D01*
X116362914Y-111738094D02*
X116553390Y-111785713D01*
X116553390Y-111785713D02*
X116934342Y-111785713D01*
X116934342Y-111785713D02*
X117029580Y-111738094D01*
X117029580Y-111738094D02*
X117077200Y-111690475D01*
X117077200Y-111690475D02*
X117124819Y-111595237D01*
X117124819Y-111595237D02*
X117124819Y-111404761D01*
X117124819Y-111404761D02*
X117077200Y-111309523D01*
X117077200Y-111309523D02*
X117029580Y-111261904D01*
X117029580Y-111261904D02*
X116934342Y-111214285D01*
X116934342Y-111214285D02*
X116696247Y-111214285D01*
X116696247Y-111214285D02*
X116601009Y-111261904D01*
X116601009Y-111261904D02*
X116553390Y-111309523D01*
X116553390Y-111309523D02*
X116505771Y-111404761D01*
X116505771Y-111404761D02*
X116505771Y-111595237D01*
X116505771Y-111595237D02*
X116553390Y-111690475D01*
X116553390Y-111690475D02*
X116601009Y-111738094D01*
X116601009Y-111738094D02*
X116696247Y-111785713D01*
X116769580Y-96392857D02*
X116817200Y-96440476D01*
X116817200Y-96440476D02*
X116864819Y-96583333D01*
X116864819Y-96583333D02*
X116864819Y-96678571D01*
X116864819Y-96678571D02*
X116817200Y-96821428D01*
X116817200Y-96821428D02*
X116721961Y-96916666D01*
X116721961Y-96916666D02*
X116626723Y-96964285D01*
X116626723Y-96964285D02*
X116436247Y-97011904D01*
X116436247Y-97011904D02*
X116293390Y-97011904D01*
X116293390Y-97011904D02*
X116102914Y-96964285D01*
X116102914Y-96964285D02*
X116007676Y-96916666D01*
X116007676Y-96916666D02*
X115912438Y-96821428D01*
X115912438Y-96821428D02*
X115864819Y-96678571D01*
X115864819Y-96678571D02*
X115864819Y-96583333D01*
X115864819Y-96583333D02*
X115912438Y-96440476D01*
X115912438Y-96440476D02*
X115960057Y-96392857D01*
X115960057Y-96011904D02*
X115912438Y-95964285D01*
X115912438Y-95964285D02*
X115864819Y-95869047D01*
X115864819Y-95869047D02*
X115864819Y-95630952D01*
X115864819Y-95630952D02*
X115912438Y-95535714D01*
X115912438Y-95535714D02*
X115960057Y-95488095D01*
X115960057Y-95488095D02*
X116055295Y-95440476D01*
X116055295Y-95440476D02*
X116150533Y-95440476D01*
X116150533Y-95440476D02*
X116293390Y-95488095D01*
X116293390Y-95488095D02*
X116864819Y-96059523D01*
X116864819Y-96059523D02*
X116864819Y-95440476D01*
X116198152Y-94583333D02*
X116864819Y-94583333D01*
X115817200Y-94821428D02*
X116531485Y-95059523D01*
X116531485Y-95059523D02*
X116531485Y-94440476D01*
X105151666Y-89511009D02*
X104818333Y-89511009D01*
X104818333Y-90034819D02*
X104818333Y-89034819D01*
X104818333Y-89034819D02*
X105294523Y-89034819D01*
X106008809Y-89511009D02*
X106151666Y-89558628D01*
X106151666Y-89558628D02*
X106199285Y-89606247D01*
X106199285Y-89606247D02*
X106246904Y-89701485D01*
X106246904Y-89701485D02*
X106246904Y-89844342D01*
X106246904Y-89844342D02*
X106199285Y-89939580D01*
X106199285Y-89939580D02*
X106151666Y-89987200D01*
X106151666Y-89987200D02*
X106056428Y-90034819D01*
X106056428Y-90034819D02*
X105675476Y-90034819D01*
X105675476Y-90034819D02*
X105675476Y-89034819D01*
X105675476Y-89034819D02*
X106008809Y-89034819D01*
X106008809Y-89034819D02*
X106104047Y-89082438D01*
X106104047Y-89082438D02*
X106151666Y-89130057D01*
X106151666Y-89130057D02*
X106199285Y-89225295D01*
X106199285Y-89225295D02*
X106199285Y-89320533D01*
X106199285Y-89320533D02*
X106151666Y-89415771D01*
X106151666Y-89415771D02*
X106104047Y-89463390D01*
X106104047Y-89463390D02*
X106008809Y-89511009D01*
X106008809Y-89511009D02*
X105675476Y-89511009D01*
X107199285Y-90034819D02*
X106627857Y-90034819D01*
X106913571Y-90034819D02*
X106913571Y-89034819D01*
X106913571Y-89034819D02*
X106818333Y-89177676D01*
X106818333Y-89177676D02*
X106723095Y-89272914D01*
X106723095Y-89272914D02*
X106627857Y-89320533D01*
X90666666Y-72024819D02*
X90666666Y-72739104D01*
X90666666Y-72739104D02*
X90619047Y-72881961D01*
X90619047Y-72881961D02*
X90523809Y-72977200D01*
X90523809Y-72977200D02*
X90380952Y-73024819D01*
X90380952Y-73024819D02*
X90285714Y-73024819D01*
X91666666Y-73024819D02*
X91095238Y-73024819D01*
X91380952Y-73024819D02*
X91380952Y-72024819D01*
X91380952Y-72024819D02*
X91285714Y-72167676D01*
X91285714Y-72167676D02*
X91190476Y-72262914D01*
X91190476Y-72262914D02*
X91095238Y-72310533D01*
X111107142Y-95449580D02*
X111059523Y-95497200D01*
X111059523Y-95497200D02*
X110916666Y-95544819D01*
X110916666Y-95544819D02*
X110821428Y-95544819D01*
X110821428Y-95544819D02*
X110678571Y-95497200D01*
X110678571Y-95497200D02*
X110583333Y-95401961D01*
X110583333Y-95401961D02*
X110535714Y-95306723D01*
X110535714Y-95306723D02*
X110488095Y-95116247D01*
X110488095Y-95116247D02*
X110488095Y-94973390D01*
X110488095Y-94973390D02*
X110535714Y-94782914D01*
X110535714Y-94782914D02*
X110583333Y-94687676D01*
X110583333Y-94687676D02*
X110678571Y-94592438D01*
X110678571Y-94592438D02*
X110821428Y-94544819D01*
X110821428Y-94544819D02*
X110916666Y-94544819D01*
X110916666Y-94544819D02*
X111059523Y-94592438D01*
X111059523Y-94592438D02*
X111107142Y-94640057D01*
X112059523Y-95544819D02*
X111488095Y-95544819D01*
X111773809Y-95544819D02*
X111773809Y-94544819D01*
X111773809Y-94544819D02*
X111678571Y-94687676D01*
X111678571Y-94687676D02*
X111583333Y-94782914D01*
X111583333Y-94782914D02*
X111488095Y-94830533D01*
X112392857Y-94544819D02*
X113059523Y-94544819D01*
X113059523Y-94544819D02*
X112630952Y-95544819D01*
X113607142Y-108949580D02*
X113559523Y-108997200D01*
X113559523Y-108997200D02*
X113416666Y-109044819D01*
X113416666Y-109044819D02*
X113321428Y-109044819D01*
X113321428Y-109044819D02*
X113178571Y-108997200D01*
X113178571Y-108997200D02*
X113083333Y-108901961D01*
X113083333Y-108901961D02*
X113035714Y-108806723D01*
X113035714Y-108806723D02*
X112988095Y-108616247D01*
X112988095Y-108616247D02*
X112988095Y-108473390D01*
X112988095Y-108473390D02*
X113035714Y-108282914D01*
X113035714Y-108282914D02*
X113083333Y-108187676D01*
X113083333Y-108187676D02*
X113178571Y-108092438D01*
X113178571Y-108092438D02*
X113321428Y-108044819D01*
X113321428Y-108044819D02*
X113416666Y-108044819D01*
X113416666Y-108044819D02*
X113559523Y-108092438D01*
X113559523Y-108092438D02*
X113607142Y-108140057D01*
X114559523Y-109044819D02*
X113988095Y-109044819D01*
X114273809Y-109044819D02*
X114273809Y-108044819D01*
X114273809Y-108044819D02*
X114178571Y-108187676D01*
X114178571Y-108187676D02*
X114083333Y-108282914D01*
X114083333Y-108282914D02*
X113988095Y-108330533D01*
X115416666Y-108378152D02*
X115416666Y-109044819D01*
X115178571Y-107997200D02*
X114940476Y-108711485D01*
X114940476Y-108711485D02*
X115559523Y-108711485D01*
X110738095Y-90954819D02*
X110738095Y-91764342D01*
X110738095Y-91764342D02*
X110785714Y-91859580D01*
X110785714Y-91859580D02*
X110833333Y-91907200D01*
X110833333Y-91907200D02*
X110928571Y-91954819D01*
X110928571Y-91954819D02*
X111119047Y-91954819D01*
X111119047Y-91954819D02*
X111214285Y-91907200D01*
X111214285Y-91907200D02*
X111261904Y-91859580D01*
X111261904Y-91859580D02*
X111309523Y-91764342D01*
X111309523Y-91764342D02*
X111309523Y-90954819D01*
X111690476Y-90954819D02*
X112357142Y-90954819D01*
X112357142Y-90954819D02*
X111928571Y-91954819D01*
X107261905Y-70804819D02*
X107261905Y-69804819D01*
X107261905Y-69804819D02*
X107500000Y-69804819D01*
X107500000Y-69804819D02*
X107642857Y-69852438D01*
X107642857Y-69852438D02*
X107738095Y-69947676D01*
X107738095Y-69947676D02*
X107785714Y-70042914D01*
X107785714Y-70042914D02*
X107833333Y-70233390D01*
X107833333Y-70233390D02*
X107833333Y-70376247D01*
X107833333Y-70376247D02*
X107785714Y-70566723D01*
X107785714Y-70566723D02*
X107738095Y-70661961D01*
X107738095Y-70661961D02*
X107642857Y-70757200D01*
X107642857Y-70757200D02*
X107500000Y-70804819D01*
X107500000Y-70804819D02*
X107261905Y-70804819D01*
X108785714Y-70804819D02*
X108214286Y-70804819D01*
X108500000Y-70804819D02*
X108500000Y-69804819D01*
X108500000Y-69804819D02*
X108404762Y-69947676D01*
X108404762Y-69947676D02*
X108309524Y-70042914D01*
X108309524Y-70042914D02*
X108214286Y-70090533D01*
X115534819Y-109642857D02*
X115058628Y-109976190D01*
X115534819Y-110214285D02*
X114534819Y-110214285D01*
X114534819Y-110214285D02*
X114534819Y-109833333D01*
X114534819Y-109833333D02*
X114582438Y-109738095D01*
X114582438Y-109738095D02*
X114630057Y-109690476D01*
X114630057Y-109690476D02*
X114725295Y-109642857D01*
X114725295Y-109642857D02*
X114868152Y-109642857D01*
X114868152Y-109642857D02*
X114963390Y-109690476D01*
X114963390Y-109690476D02*
X115011009Y-109738095D01*
X115011009Y-109738095D02*
X115058628Y-109833333D01*
X115058628Y-109833333D02*
X115058628Y-110214285D01*
X115534819Y-108690476D02*
X115534819Y-109261904D01*
X115534819Y-108976190D02*
X114534819Y-108976190D01*
X114534819Y-108976190D02*
X114677676Y-109071428D01*
X114677676Y-109071428D02*
X114772914Y-109166666D01*
X114772914Y-109166666D02*
X114820533Y-109261904D01*
X114868152Y-107833333D02*
X115534819Y-107833333D01*
X114487200Y-108071428D02*
X115201485Y-108309523D01*
X115201485Y-108309523D02*
X115201485Y-107690476D01*
X99607142Y-79289580D02*
X99559523Y-79337200D01*
X99559523Y-79337200D02*
X99416666Y-79384819D01*
X99416666Y-79384819D02*
X99321428Y-79384819D01*
X99321428Y-79384819D02*
X99178571Y-79337200D01*
X99178571Y-79337200D02*
X99083333Y-79241961D01*
X99083333Y-79241961D02*
X99035714Y-79146723D01*
X99035714Y-79146723D02*
X98988095Y-78956247D01*
X98988095Y-78956247D02*
X98988095Y-78813390D01*
X98988095Y-78813390D02*
X99035714Y-78622914D01*
X99035714Y-78622914D02*
X99083333Y-78527676D01*
X99083333Y-78527676D02*
X99178571Y-78432438D01*
X99178571Y-78432438D02*
X99321428Y-78384819D01*
X99321428Y-78384819D02*
X99416666Y-78384819D01*
X99416666Y-78384819D02*
X99559523Y-78432438D01*
X99559523Y-78432438D02*
X99607142Y-78480057D01*
X100559523Y-79384819D02*
X99988095Y-79384819D01*
X100273809Y-79384819D02*
X100273809Y-78384819D01*
X100273809Y-78384819D02*
X100178571Y-78527676D01*
X100178571Y-78527676D02*
X100083333Y-78622914D01*
X100083333Y-78622914D02*
X99988095Y-78670533D01*
X101178571Y-78384819D02*
X101273809Y-78384819D01*
X101273809Y-78384819D02*
X101369047Y-78432438D01*
X101369047Y-78432438D02*
X101416666Y-78480057D01*
X101416666Y-78480057D02*
X101464285Y-78575295D01*
X101464285Y-78575295D02*
X101511904Y-78765771D01*
X101511904Y-78765771D02*
X101511904Y-79003866D01*
X101511904Y-79003866D02*
X101464285Y-79194342D01*
X101464285Y-79194342D02*
X101416666Y-79289580D01*
X101416666Y-79289580D02*
X101369047Y-79337200D01*
X101369047Y-79337200D02*
X101273809Y-79384819D01*
X101273809Y-79384819D02*
X101178571Y-79384819D01*
X101178571Y-79384819D02*
X101083333Y-79337200D01*
X101083333Y-79337200D02*
X101035714Y-79289580D01*
X101035714Y-79289580D02*
X100988095Y-79194342D01*
X100988095Y-79194342D02*
X100940476Y-79003866D01*
X100940476Y-79003866D02*
X100940476Y-78765771D01*
X100940476Y-78765771D02*
X100988095Y-78575295D01*
X100988095Y-78575295D02*
X101035714Y-78480057D01*
X101035714Y-78480057D02*
X101083333Y-78432438D01*
X101083333Y-78432438D02*
X101178571Y-78384819D01*
X99333333Y-111874819D02*
X99000000Y-111398628D01*
X98761905Y-111874819D02*
X98761905Y-110874819D01*
X98761905Y-110874819D02*
X99142857Y-110874819D01*
X99142857Y-110874819D02*
X99238095Y-110922438D01*
X99238095Y-110922438D02*
X99285714Y-110970057D01*
X99285714Y-110970057D02*
X99333333Y-111065295D01*
X99333333Y-111065295D02*
X99333333Y-111208152D01*
X99333333Y-111208152D02*
X99285714Y-111303390D01*
X99285714Y-111303390D02*
X99238095Y-111351009D01*
X99238095Y-111351009D02*
X99142857Y-111398628D01*
X99142857Y-111398628D02*
X98761905Y-111398628D01*
X100285714Y-111874819D02*
X99714286Y-111874819D01*
X100000000Y-111874819D02*
X100000000Y-110874819D01*
X100000000Y-110874819D02*
X99904762Y-111017676D01*
X99904762Y-111017676D02*
X99809524Y-111112914D01*
X99809524Y-111112914D02*
X99714286Y-111160533D01*
X131666666Y-116764819D02*
X131666666Y-117479104D01*
X131666666Y-117479104D02*
X131619047Y-117621961D01*
X131619047Y-117621961D02*
X131523809Y-117717200D01*
X131523809Y-117717200D02*
X131380952Y-117764819D01*
X131380952Y-117764819D02*
X131285714Y-117764819D01*
X132047619Y-116764819D02*
X132666666Y-116764819D01*
X132666666Y-116764819D02*
X132333333Y-117145771D01*
X132333333Y-117145771D02*
X132476190Y-117145771D01*
X132476190Y-117145771D02*
X132571428Y-117193390D01*
X132571428Y-117193390D02*
X132619047Y-117241009D01*
X132619047Y-117241009D02*
X132666666Y-117336247D01*
X132666666Y-117336247D02*
X132666666Y-117574342D01*
X132666666Y-117574342D02*
X132619047Y-117669580D01*
X132619047Y-117669580D02*
X132571428Y-117717200D01*
X132571428Y-117717200D02*
X132476190Y-117764819D01*
X132476190Y-117764819D02*
X132190476Y-117764819D01*
X132190476Y-117764819D02*
X132095238Y-117717200D01*
X132095238Y-117717200D02*
X132047619Y-117669580D01*
X122988095Y-97104819D02*
X122988095Y-97914342D01*
X122988095Y-97914342D02*
X123035714Y-98009580D01*
X123035714Y-98009580D02*
X123083333Y-98057200D01*
X123083333Y-98057200D02*
X123178571Y-98104819D01*
X123178571Y-98104819D02*
X123369047Y-98104819D01*
X123369047Y-98104819D02*
X123464285Y-98057200D01*
X123464285Y-98057200D02*
X123511904Y-98009580D01*
X123511904Y-98009580D02*
X123559523Y-97914342D01*
X123559523Y-97914342D02*
X123559523Y-97104819D01*
X124511904Y-97104819D02*
X124035714Y-97104819D01*
X124035714Y-97104819D02*
X123988095Y-97581009D01*
X123988095Y-97581009D02*
X124035714Y-97533390D01*
X124035714Y-97533390D02*
X124130952Y-97485771D01*
X124130952Y-97485771D02*
X124369047Y-97485771D01*
X124369047Y-97485771D02*
X124464285Y-97533390D01*
X124464285Y-97533390D02*
X124511904Y-97581009D01*
X124511904Y-97581009D02*
X124559523Y-97676247D01*
X124559523Y-97676247D02*
X124559523Y-97914342D01*
X124559523Y-97914342D02*
X124511904Y-98009580D01*
X124511904Y-98009580D02*
X124464285Y-98057200D01*
X124464285Y-98057200D02*
X124369047Y-98104819D01*
X124369047Y-98104819D02*
X124130952Y-98104819D01*
X124130952Y-98104819D02*
X124035714Y-98057200D01*
X124035714Y-98057200D02*
X123988095Y-98009580D01*
X104166666Y-70354819D02*
X104166666Y-71069104D01*
X104166666Y-71069104D02*
X104119047Y-71211961D01*
X104119047Y-71211961D02*
X104023809Y-71307200D01*
X104023809Y-71307200D02*
X103880952Y-71354819D01*
X103880952Y-71354819D02*
X103785714Y-71354819D01*
X105071428Y-70354819D02*
X104880952Y-70354819D01*
X104880952Y-70354819D02*
X104785714Y-70402438D01*
X104785714Y-70402438D02*
X104738095Y-70450057D01*
X104738095Y-70450057D02*
X104642857Y-70592914D01*
X104642857Y-70592914D02*
X104595238Y-70783390D01*
X104595238Y-70783390D02*
X104595238Y-71164342D01*
X104595238Y-71164342D02*
X104642857Y-71259580D01*
X104642857Y-71259580D02*
X104690476Y-71307200D01*
X104690476Y-71307200D02*
X104785714Y-71354819D01*
X104785714Y-71354819D02*
X104976190Y-71354819D01*
X104976190Y-71354819D02*
X105071428Y-71307200D01*
X105071428Y-71307200D02*
X105119047Y-71259580D01*
X105119047Y-71259580D02*
X105166666Y-71164342D01*
X105166666Y-71164342D02*
X105166666Y-70926247D01*
X105166666Y-70926247D02*
X105119047Y-70831009D01*
X105119047Y-70831009D02*
X105071428Y-70783390D01*
X105071428Y-70783390D02*
X104976190Y-70735771D01*
X104976190Y-70735771D02*
X104785714Y-70735771D01*
X104785714Y-70735771D02*
X104690476Y-70783390D01*
X104690476Y-70783390D02*
X104642857Y-70831009D01*
X104642857Y-70831009D02*
X104595238Y-70926247D01*
X101949580Y-91882857D02*
X101997200Y-91930476D01*
X101997200Y-91930476D02*
X102044819Y-92073333D01*
X102044819Y-92073333D02*
X102044819Y-92168571D01*
X102044819Y-92168571D02*
X101997200Y-92311428D01*
X101997200Y-92311428D02*
X101901961Y-92406666D01*
X101901961Y-92406666D02*
X101806723Y-92454285D01*
X101806723Y-92454285D02*
X101616247Y-92501904D01*
X101616247Y-92501904D02*
X101473390Y-92501904D01*
X101473390Y-92501904D02*
X101282914Y-92454285D01*
X101282914Y-92454285D02*
X101187676Y-92406666D01*
X101187676Y-92406666D02*
X101092438Y-92311428D01*
X101092438Y-92311428D02*
X101044819Y-92168571D01*
X101044819Y-92168571D02*
X101044819Y-92073333D01*
X101044819Y-92073333D02*
X101092438Y-91930476D01*
X101092438Y-91930476D02*
X101140057Y-91882857D01*
X102044819Y-90930476D02*
X102044819Y-91501904D01*
X102044819Y-91216190D02*
X101044819Y-91216190D01*
X101044819Y-91216190D02*
X101187676Y-91311428D01*
X101187676Y-91311428D02*
X101282914Y-91406666D01*
X101282914Y-91406666D02*
X101330533Y-91501904D01*
X101473390Y-90359047D02*
X101425771Y-90454285D01*
X101425771Y-90454285D02*
X101378152Y-90501904D01*
X101378152Y-90501904D02*
X101282914Y-90549523D01*
X101282914Y-90549523D02*
X101235295Y-90549523D01*
X101235295Y-90549523D02*
X101140057Y-90501904D01*
X101140057Y-90501904D02*
X101092438Y-90454285D01*
X101092438Y-90454285D02*
X101044819Y-90359047D01*
X101044819Y-90359047D02*
X101044819Y-90168571D01*
X101044819Y-90168571D02*
X101092438Y-90073333D01*
X101092438Y-90073333D02*
X101140057Y-90025714D01*
X101140057Y-90025714D02*
X101235295Y-89978095D01*
X101235295Y-89978095D02*
X101282914Y-89978095D01*
X101282914Y-89978095D02*
X101378152Y-90025714D01*
X101378152Y-90025714D02*
X101425771Y-90073333D01*
X101425771Y-90073333D02*
X101473390Y-90168571D01*
X101473390Y-90168571D02*
X101473390Y-90359047D01*
X101473390Y-90359047D02*
X101521009Y-90454285D01*
X101521009Y-90454285D02*
X101568628Y-90501904D01*
X101568628Y-90501904D02*
X101663866Y-90549523D01*
X101663866Y-90549523D02*
X101854342Y-90549523D01*
X101854342Y-90549523D02*
X101949580Y-90501904D01*
X101949580Y-90501904D02*
X101997200Y-90454285D01*
X101997200Y-90454285D02*
X102044819Y-90359047D01*
X102044819Y-90359047D02*
X102044819Y-90168571D01*
X102044819Y-90168571D02*
X101997200Y-90073333D01*
X101997200Y-90073333D02*
X101949580Y-90025714D01*
X101949580Y-90025714D02*
X101854342Y-89978095D01*
X101854342Y-89978095D02*
X101663866Y-89978095D01*
X101663866Y-89978095D02*
X101568628Y-90025714D01*
X101568628Y-90025714D02*
X101521009Y-90073333D01*
X101521009Y-90073333D02*
X101473390Y-90168571D01*
X105833333Y-106789580D02*
X105785714Y-106837200D01*
X105785714Y-106837200D02*
X105642857Y-106884819D01*
X105642857Y-106884819D02*
X105547619Y-106884819D01*
X105547619Y-106884819D02*
X105404762Y-106837200D01*
X105404762Y-106837200D02*
X105309524Y-106741961D01*
X105309524Y-106741961D02*
X105261905Y-106646723D01*
X105261905Y-106646723D02*
X105214286Y-106456247D01*
X105214286Y-106456247D02*
X105214286Y-106313390D01*
X105214286Y-106313390D02*
X105261905Y-106122914D01*
X105261905Y-106122914D02*
X105309524Y-106027676D01*
X105309524Y-106027676D02*
X105404762Y-105932438D01*
X105404762Y-105932438D02*
X105547619Y-105884819D01*
X105547619Y-105884819D02*
X105642857Y-105884819D01*
X105642857Y-105884819D02*
X105785714Y-105932438D01*
X105785714Y-105932438D02*
X105833333Y-105980057D01*
X106690476Y-105884819D02*
X106500000Y-105884819D01*
X106500000Y-105884819D02*
X106404762Y-105932438D01*
X106404762Y-105932438D02*
X106357143Y-105980057D01*
X106357143Y-105980057D02*
X106261905Y-106122914D01*
X106261905Y-106122914D02*
X106214286Y-106313390D01*
X106214286Y-106313390D02*
X106214286Y-106694342D01*
X106214286Y-106694342D02*
X106261905Y-106789580D01*
X106261905Y-106789580D02*
X106309524Y-106837200D01*
X106309524Y-106837200D02*
X106404762Y-106884819D01*
X106404762Y-106884819D02*
X106595238Y-106884819D01*
X106595238Y-106884819D02*
X106690476Y-106837200D01*
X106690476Y-106837200D02*
X106738095Y-106789580D01*
X106738095Y-106789580D02*
X106785714Y-106694342D01*
X106785714Y-106694342D02*
X106785714Y-106456247D01*
X106785714Y-106456247D02*
X106738095Y-106361009D01*
X106738095Y-106361009D02*
X106690476Y-106313390D01*
X106690476Y-106313390D02*
X106595238Y-106265771D01*
X106595238Y-106265771D02*
X106404762Y-106265771D01*
X106404762Y-106265771D02*
X106309524Y-106313390D01*
X106309524Y-106313390D02*
X106261905Y-106361009D01*
X106261905Y-106361009D02*
X106214286Y-106456247D01*
X101738095Y-99717819D02*
X101738095Y-100527342D01*
X101738095Y-100527342D02*
X101785714Y-100622580D01*
X101785714Y-100622580D02*
X101833333Y-100670200D01*
X101833333Y-100670200D02*
X101928571Y-100717819D01*
X101928571Y-100717819D02*
X102119047Y-100717819D01*
X102119047Y-100717819D02*
X102214285Y-100670200D01*
X102214285Y-100670200D02*
X102261904Y-100622580D01*
X102261904Y-100622580D02*
X102309523Y-100527342D01*
X102309523Y-100527342D02*
X102309523Y-99717819D01*
X102833333Y-100717819D02*
X103023809Y-100717819D01*
X103023809Y-100717819D02*
X103119047Y-100670200D01*
X103119047Y-100670200D02*
X103166666Y-100622580D01*
X103166666Y-100622580D02*
X103261904Y-100479723D01*
X103261904Y-100479723D02*
X103309523Y-100289247D01*
X103309523Y-100289247D02*
X103309523Y-99908295D01*
X103309523Y-99908295D02*
X103261904Y-99813057D01*
X103261904Y-99813057D02*
X103214285Y-99765438D01*
X103214285Y-99765438D02*
X103119047Y-99717819D01*
X103119047Y-99717819D02*
X102928571Y-99717819D01*
X102928571Y-99717819D02*
X102833333Y-99765438D01*
X102833333Y-99765438D02*
X102785714Y-99813057D01*
X102785714Y-99813057D02*
X102738095Y-99908295D01*
X102738095Y-99908295D02*
X102738095Y-100146390D01*
X102738095Y-100146390D02*
X102785714Y-100241628D01*
X102785714Y-100241628D02*
X102833333Y-100289247D01*
X102833333Y-100289247D02*
X102928571Y-100336866D01*
X102928571Y-100336866D02*
X103119047Y-100336866D01*
X103119047Y-100336866D02*
X103214285Y-100289247D01*
X103214285Y-100289247D02*
X103261904Y-100241628D01*
X103261904Y-100241628D02*
X103309523Y-100146390D01*
X104357142Y-105449580D02*
X104309523Y-105497200D01*
X104309523Y-105497200D02*
X104166666Y-105544819D01*
X104166666Y-105544819D02*
X104071428Y-105544819D01*
X104071428Y-105544819D02*
X103928571Y-105497200D01*
X103928571Y-105497200D02*
X103833333Y-105401961D01*
X103833333Y-105401961D02*
X103785714Y-105306723D01*
X103785714Y-105306723D02*
X103738095Y-105116247D01*
X103738095Y-105116247D02*
X103738095Y-104973390D01*
X103738095Y-104973390D02*
X103785714Y-104782914D01*
X103785714Y-104782914D02*
X103833333Y-104687676D01*
X103833333Y-104687676D02*
X103928571Y-104592438D01*
X103928571Y-104592438D02*
X104071428Y-104544819D01*
X104071428Y-104544819D02*
X104166666Y-104544819D01*
X104166666Y-104544819D02*
X104309523Y-104592438D01*
X104309523Y-104592438D02*
X104357142Y-104640057D01*
X105309523Y-105544819D02*
X104738095Y-105544819D01*
X105023809Y-105544819D02*
X105023809Y-104544819D01*
X105023809Y-104544819D02*
X104928571Y-104687676D01*
X104928571Y-104687676D02*
X104833333Y-104782914D01*
X104833333Y-104782914D02*
X104738095Y-104830533D01*
X106261904Y-105544819D02*
X105690476Y-105544819D01*
X105976190Y-105544819D02*
X105976190Y-104544819D01*
X105976190Y-104544819D02*
X105880952Y-104687676D01*
X105880952Y-104687676D02*
X105785714Y-104782914D01*
X105785714Y-104782914D02*
X105690476Y-104830533D01*
X95511905Y-73384819D02*
X95511905Y-72384819D01*
X95511905Y-72384819D02*
X95750000Y-72384819D01*
X95750000Y-72384819D02*
X95892857Y-72432438D01*
X95892857Y-72432438D02*
X95988095Y-72527676D01*
X95988095Y-72527676D02*
X96035714Y-72622914D01*
X96035714Y-72622914D02*
X96083333Y-72813390D01*
X96083333Y-72813390D02*
X96083333Y-72956247D01*
X96083333Y-72956247D02*
X96035714Y-73146723D01*
X96035714Y-73146723D02*
X95988095Y-73241961D01*
X95988095Y-73241961D02*
X95892857Y-73337200D01*
X95892857Y-73337200D02*
X95750000Y-73384819D01*
X95750000Y-73384819D02*
X95511905Y-73384819D01*
X96416667Y-72384819D02*
X97035714Y-72384819D01*
X97035714Y-72384819D02*
X96702381Y-72765771D01*
X96702381Y-72765771D02*
X96845238Y-72765771D01*
X96845238Y-72765771D02*
X96940476Y-72813390D01*
X96940476Y-72813390D02*
X96988095Y-72861009D01*
X96988095Y-72861009D02*
X97035714Y-72956247D01*
X97035714Y-72956247D02*
X97035714Y-73194342D01*
X97035714Y-73194342D02*
X96988095Y-73289580D01*
X96988095Y-73289580D02*
X96940476Y-73337200D01*
X96940476Y-73337200D02*
X96845238Y-73384819D01*
X96845238Y-73384819D02*
X96559524Y-73384819D01*
X96559524Y-73384819D02*
X96464286Y-73337200D01*
X96464286Y-73337200D02*
X96416667Y-73289580D01*
X129024819Y-75988094D02*
X128024819Y-75988094D01*
X128024819Y-75988094D02*
X128024819Y-75749999D01*
X128024819Y-75749999D02*
X128072438Y-75607142D01*
X128072438Y-75607142D02*
X128167676Y-75511904D01*
X128167676Y-75511904D02*
X128262914Y-75464285D01*
X128262914Y-75464285D02*
X128453390Y-75416666D01*
X128453390Y-75416666D02*
X128596247Y-75416666D01*
X128596247Y-75416666D02*
X128786723Y-75464285D01*
X128786723Y-75464285D02*
X128881961Y-75511904D01*
X128881961Y-75511904D02*
X128977200Y-75607142D01*
X128977200Y-75607142D02*
X129024819Y-75749999D01*
X129024819Y-75749999D02*
X129024819Y-75988094D01*
X128024819Y-74511904D02*
X128024819Y-74988094D01*
X128024819Y-74988094D02*
X128501009Y-75035713D01*
X128501009Y-75035713D02*
X128453390Y-74988094D01*
X128453390Y-74988094D02*
X128405771Y-74892856D01*
X128405771Y-74892856D02*
X128405771Y-74654761D01*
X128405771Y-74654761D02*
X128453390Y-74559523D01*
X128453390Y-74559523D02*
X128501009Y-74511904D01*
X128501009Y-74511904D02*
X128596247Y-74464285D01*
X128596247Y-74464285D02*
X128834342Y-74464285D01*
X128834342Y-74464285D02*
X128929580Y-74511904D01*
X128929580Y-74511904D02*
X128977200Y-74559523D01*
X128977200Y-74559523D02*
X129024819Y-74654761D01*
X129024819Y-74654761D02*
X129024819Y-74892856D01*
X129024819Y-74892856D02*
X128977200Y-74988094D01*
X128977200Y-74988094D02*
X128929580Y-75035713D01*
X129607142Y-98449580D02*
X129559523Y-98497200D01*
X129559523Y-98497200D02*
X129416666Y-98544819D01*
X129416666Y-98544819D02*
X129321428Y-98544819D01*
X129321428Y-98544819D02*
X129178571Y-98497200D01*
X129178571Y-98497200D02*
X129083333Y-98401961D01*
X129083333Y-98401961D02*
X129035714Y-98306723D01*
X129035714Y-98306723D02*
X128988095Y-98116247D01*
X128988095Y-98116247D02*
X128988095Y-97973390D01*
X128988095Y-97973390D02*
X129035714Y-97782914D01*
X129035714Y-97782914D02*
X129083333Y-97687676D01*
X129083333Y-97687676D02*
X129178571Y-97592438D01*
X129178571Y-97592438D02*
X129321428Y-97544819D01*
X129321428Y-97544819D02*
X129416666Y-97544819D01*
X129416666Y-97544819D02*
X129559523Y-97592438D01*
X129559523Y-97592438D02*
X129607142Y-97640057D01*
X130559523Y-98544819D02*
X129988095Y-98544819D01*
X130273809Y-98544819D02*
X130273809Y-97544819D01*
X130273809Y-97544819D02*
X130178571Y-97687676D01*
X130178571Y-97687676D02*
X130083333Y-97782914D01*
X130083333Y-97782914D02*
X129988095Y-97830533D01*
X131416666Y-97544819D02*
X131226190Y-97544819D01*
X131226190Y-97544819D02*
X131130952Y-97592438D01*
X131130952Y-97592438D02*
X131083333Y-97640057D01*
X131083333Y-97640057D02*
X130988095Y-97782914D01*
X130988095Y-97782914D02*
X130940476Y-97973390D01*
X130940476Y-97973390D02*
X130940476Y-98354342D01*
X130940476Y-98354342D02*
X130988095Y-98449580D01*
X130988095Y-98449580D02*
X131035714Y-98497200D01*
X131035714Y-98497200D02*
X131130952Y-98544819D01*
X131130952Y-98544819D02*
X131321428Y-98544819D01*
X131321428Y-98544819D02*
X131416666Y-98497200D01*
X131416666Y-98497200D02*
X131464285Y-98449580D01*
X131464285Y-98449580D02*
X131511904Y-98354342D01*
X131511904Y-98354342D02*
X131511904Y-98116247D01*
X131511904Y-98116247D02*
X131464285Y-98021009D01*
X131464285Y-98021009D02*
X131416666Y-97973390D01*
X131416666Y-97973390D02*
X131321428Y-97925771D01*
X131321428Y-97925771D02*
X131130952Y-97925771D01*
X131130952Y-97925771D02*
X131035714Y-97973390D01*
X131035714Y-97973390D02*
X130988095Y-98021009D01*
X130988095Y-98021009D02*
X130940476Y-98116247D01*
X125350595Y-71604819D02*
X125350595Y-72414342D01*
X125350595Y-72414342D02*
X125398214Y-72509580D01*
X125398214Y-72509580D02*
X125445833Y-72557200D01*
X125445833Y-72557200D02*
X125541071Y-72604819D01*
X125541071Y-72604819D02*
X125731547Y-72604819D01*
X125731547Y-72604819D02*
X125826785Y-72557200D01*
X125826785Y-72557200D02*
X125874404Y-72509580D01*
X125874404Y-72509580D02*
X125922023Y-72414342D01*
X125922023Y-72414342D02*
X125922023Y-71604819D01*
X126350595Y-71700057D02*
X126398214Y-71652438D01*
X126398214Y-71652438D02*
X126493452Y-71604819D01*
X126493452Y-71604819D02*
X126731547Y-71604819D01*
X126731547Y-71604819D02*
X126826785Y-71652438D01*
X126826785Y-71652438D02*
X126874404Y-71700057D01*
X126874404Y-71700057D02*
X126922023Y-71795295D01*
X126922023Y-71795295D02*
X126922023Y-71890533D01*
X126922023Y-71890533D02*
X126874404Y-72033390D01*
X126874404Y-72033390D02*
X126302976Y-72604819D01*
X126302976Y-72604819D02*
X126922023Y-72604819D01*
X94134819Y-122308333D02*
X94849104Y-122308333D01*
X94849104Y-122308333D02*
X94991961Y-122355952D01*
X94991961Y-122355952D02*
X95087200Y-122451190D01*
X95087200Y-122451190D02*
X95134819Y-122594047D01*
X95134819Y-122594047D02*
X95134819Y-122689285D01*
X94468152Y-121403571D02*
X95134819Y-121403571D01*
X94087200Y-121641666D02*
X94801485Y-121879761D01*
X94801485Y-121879761D02*
X94801485Y-121260714D01*
X109607142Y-90874819D02*
X109273809Y-90398628D01*
X109035714Y-90874819D02*
X109035714Y-89874819D01*
X109035714Y-89874819D02*
X109416666Y-89874819D01*
X109416666Y-89874819D02*
X109511904Y-89922438D01*
X109511904Y-89922438D02*
X109559523Y-89970057D01*
X109559523Y-89970057D02*
X109607142Y-90065295D01*
X109607142Y-90065295D02*
X109607142Y-90208152D01*
X109607142Y-90208152D02*
X109559523Y-90303390D01*
X109559523Y-90303390D02*
X109511904Y-90351009D01*
X109511904Y-90351009D02*
X109416666Y-90398628D01*
X109416666Y-90398628D02*
X109035714Y-90398628D01*
X110559523Y-90874819D02*
X109988095Y-90874819D01*
X110273809Y-90874819D02*
X110273809Y-89874819D01*
X110273809Y-89874819D02*
X110178571Y-90017676D01*
X110178571Y-90017676D02*
X110083333Y-90112914D01*
X110083333Y-90112914D02*
X109988095Y-90160533D01*
X110892857Y-89874819D02*
X111559523Y-89874819D01*
X111559523Y-89874819D02*
X111130952Y-90874819D01*
X112833333Y-83929580D02*
X112785714Y-83977200D01*
X112785714Y-83977200D02*
X112642857Y-84024819D01*
X112642857Y-84024819D02*
X112547619Y-84024819D01*
X112547619Y-84024819D02*
X112404762Y-83977200D01*
X112404762Y-83977200D02*
X112309524Y-83881961D01*
X112309524Y-83881961D02*
X112261905Y-83786723D01*
X112261905Y-83786723D02*
X112214286Y-83596247D01*
X112214286Y-83596247D02*
X112214286Y-83453390D01*
X112214286Y-83453390D02*
X112261905Y-83262914D01*
X112261905Y-83262914D02*
X112309524Y-83167676D01*
X112309524Y-83167676D02*
X112404762Y-83072438D01*
X112404762Y-83072438D02*
X112547619Y-83024819D01*
X112547619Y-83024819D02*
X112642857Y-83024819D01*
X112642857Y-83024819D02*
X112785714Y-83072438D01*
X112785714Y-83072438D02*
X112833333Y-83120057D01*
X113404762Y-83453390D02*
X113309524Y-83405771D01*
X113309524Y-83405771D02*
X113261905Y-83358152D01*
X113261905Y-83358152D02*
X113214286Y-83262914D01*
X113214286Y-83262914D02*
X113214286Y-83215295D01*
X113214286Y-83215295D02*
X113261905Y-83120057D01*
X113261905Y-83120057D02*
X113309524Y-83072438D01*
X113309524Y-83072438D02*
X113404762Y-83024819D01*
X113404762Y-83024819D02*
X113595238Y-83024819D01*
X113595238Y-83024819D02*
X113690476Y-83072438D01*
X113690476Y-83072438D02*
X113738095Y-83120057D01*
X113738095Y-83120057D02*
X113785714Y-83215295D01*
X113785714Y-83215295D02*
X113785714Y-83262914D01*
X113785714Y-83262914D02*
X113738095Y-83358152D01*
X113738095Y-83358152D02*
X113690476Y-83405771D01*
X113690476Y-83405771D02*
X113595238Y-83453390D01*
X113595238Y-83453390D02*
X113404762Y-83453390D01*
X113404762Y-83453390D02*
X113309524Y-83501009D01*
X113309524Y-83501009D02*
X113261905Y-83548628D01*
X113261905Y-83548628D02*
X113214286Y-83643866D01*
X113214286Y-83643866D02*
X113214286Y-83834342D01*
X113214286Y-83834342D02*
X113261905Y-83929580D01*
X113261905Y-83929580D02*
X113309524Y-83977200D01*
X113309524Y-83977200D02*
X113404762Y-84024819D01*
X113404762Y-84024819D02*
X113595238Y-84024819D01*
X113595238Y-84024819D02*
X113690476Y-83977200D01*
X113690476Y-83977200D02*
X113738095Y-83929580D01*
X113738095Y-83929580D02*
X113785714Y-83834342D01*
X113785714Y-83834342D02*
X113785714Y-83643866D01*
X113785714Y-83643866D02*
X113738095Y-83548628D01*
X113738095Y-83548628D02*
X113690476Y-83501009D01*
X113690476Y-83501009D02*
X113595238Y-83453390D01*
X113624819Y-91892857D02*
X113148628Y-92226190D01*
X113624819Y-92464285D02*
X112624819Y-92464285D01*
X112624819Y-92464285D02*
X112624819Y-92083333D01*
X112624819Y-92083333D02*
X112672438Y-91988095D01*
X112672438Y-91988095D02*
X112720057Y-91940476D01*
X112720057Y-91940476D02*
X112815295Y-91892857D01*
X112815295Y-91892857D02*
X112958152Y-91892857D01*
X112958152Y-91892857D02*
X113053390Y-91940476D01*
X113053390Y-91940476D02*
X113101009Y-91988095D01*
X113101009Y-91988095D02*
X113148628Y-92083333D01*
X113148628Y-92083333D02*
X113148628Y-92464285D01*
X113624819Y-90940476D02*
X113624819Y-91511904D01*
X113624819Y-91226190D02*
X112624819Y-91226190D01*
X112624819Y-91226190D02*
X112767676Y-91321428D01*
X112767676Y-91321428D02*
X112862914Y-91416666D01*
X112862914Y-91416666D02*
X112910533Y-91511904D01*
X113053390Y-90369047D02*
X113005771Y-90464285D01*
X113005771Y-90464285D02*
X112958152Y-90511904D01*
X112958152Y-90511904D02*
X112862914Y-90559523D01*
X112862914Y-90559523D02*
X112815295Y-90559523D01*
X112815295Y-90559523D02*
X112720057Y-90511904D01*
X112720057Y-90511904D02*
X112672438Y-90464285D01*
X112672438Y-90464285D02*
X112624819Y-90369047D01*
X112624819Y-90369047D02*
X112624819Y-90178571D01*
X112624819Y-90178571D02*
X112672438Y-90083333D01*
X112672438Y-90083333D02*
X112720057Y-90035714D01*
X112720057Y-90035714D02*
X112815295Y-89988095D01*
X112815295Y-89988095D02*
X112862914Y-89988095D01*
X112862914Y-89988095D02*
X112958152Y-90035714D01*
X112958152Y-90035714D02*
X113005771Y-90083333D01*
X113005771Y-90083333D02*
X113053390Y-90178571D01*
X113053390Y-90178571D02*
X113053390Y-90369047D01*
X113053390Y-90369047D02*
X113101009Y-90464285D01*
X113101009Y-90464285D02*
X113148628Y-90511904D01*
X113148628Y-90511904D02*
X113243866Y-90559523D01*
X113243866Y-90559523D02*
X113434342Y-90559523D01*
X113434342Y-90559523D02*
X113529580Y-90511904D01*
X113529580Y-90511904D02*
X113577200Y-90464285D01*
X113577200Y-90464285D02*
X113624819Y-90369047D01*
X113624819Y-90369047D02*
X113624819Y-90178571D01*
X113624819Y-90178571D02*
X113577200Y-90083333D01*
X113577200Y-90083333D02*
X113529580Y-90035714D01*
X113529580Y-90035714D02*
X113434342Y-89988095D01*
X113434342Y-89988095D02*
X113243866Y-89988095D01*
X113243866Y-89988095D02*
X113148628Y-90035714D01*
X113148628Y-90035714D02*
X113101009Y-90083333D01*
X113101009Y-90083333D02*
X113053390Y-90178571D01*
X129333333Y-70929580D02*
X129285714Y-70977200D01*
X129285714Y-70977200D02*
X129142857Y-71024819D01*
X129142857Y-71024819D02*
X129047619Y-71024819D01*
X129047619Y-71024819D02*
X128904762Y-70977200D01*
X128904762Y-70977200D02*
X128809524Y-70881961D01*
X128809524Y-70881961D02*
X128761905Y-70786723D01*
X128761905Y-70786723D02*
X128714286Y-70596247D01*
X128714286Y-70596247D02*
X128714286Y-70453390D01*
X128714286Y-70453390D02*
X128761905Y-70262914D01*
X128761905Y-70262914D02*
X128809524Y-70167676D01*
X128809524Y-70167676D02*
X128904762Y-70072438D01*
X128904762Y-70072438D02*
X129047619Y-70024819D01*
X129047619Y-70024819D02*
X129142857Y-70024819D01*
X129142857Y-70024819D02*
X129285714Y-70072438D01*
X129285714Y-70072438D02*
X129333333Y-70120057D01*
X129666667Y-70024819D02*
X130333333Y-70024819D01*
X130333333Y-70024819D02*
X129904762Y-71024819D01*
D11*
%TO.C,C22*%
X101890000Y-97624165D02*
X101890000Y-97855835D01*
X102610000Y-97624165D02*
X102610000Y-97855835D01*
%TO.C,U6*%
X97000000Y-72940000D02*
X96200000Y-72940000D01*
X97000000Y-72940000D02*
X97800000Y-72940000D01*
X97000000Y-76060000D02*
X96200000Y-76060000D01*
X97000000Y-76060000D02*
X97800000Y-76060000D01*
X98540000Y-76340000D02*
X98060000Y-76340000D01*
X98300000Y-76010000D01*
X98540000Y-76340000D01*
G36*
X98540000Y-76340000D02*
G01*
X98060000Y-76340000D01*
X98300000Y-76010000D01*
X98540000Y-76340000D01*
G37*
%TO.C,C4*%
X119865835Y-110890000D02*
X119634165Y-110890000D01*
X119865835Y-111610000D02*
X119634165Y-111610000D01*
%TO.C,C13*%
X112865835Y-115890000D02*
X112634165Y-115890000D01*
X112865835Y-116610000D02*
X112634165Y-116610000D01*
%TO.C,U1*%
X97150000Y-109760000D02*
X96100000Y-109760000D01*
X97150000Y-111740000D02*
X95850000Y-111740000D01*
X95730000Y-109760000D02*
X95450000Y-109760000D01*
X95730000Y-109480000D01*
X95730000Y-109760000D01*
G36*
X95730000Y-109760000D02*
G01*
X95450000Y-109760000D01*
X95730000Y-109480000D01*
X95730000Y-109760000D01*
G37*
%TO.C,R3*%
X98620000Y-108332379D02*
X98620000Y-108667621D01*
X99380000Y-108332379D02*
X99380000Y-108667621D01*
%TO.C,C2*%
X110990000Y-73054437D02*
X110990000Y-77510000D01*
X110990000Y-77510000D02*
X112690000Y-77510000D01*
X112054437Y-71990000D02*
X110990000Y-73054437D01*
X112054437Y-71990000D02*
X112690000Y-71990000D01*
X115435000Y-71125000D02*
X115435000Y-71750000D01*
X115445563Y-71990000D02*
X114810000Y-71990000D01*
X115445563Y-71990000D02*
X116510000Y-73054437D01*
X115747500Y-71437500D02*
X115122500Y-71437500D01*
X116510000Y-73054437D02*
X116510000Y-77510000D01*
X116510000Y-77510000D02*
X114810000Y-77510000D01*
%TO.C,R7*%
X119620000Y-97167621D02*
X119620000Y-96832379D01*
X120380000Y-97167621D02*
X120380000Y-96832379D01*
%TO.C,C20*%
X103490000Y-91136267D02*
X103490000Y-90843733D01*
X104510000Y-91136267D02*
X104510000Y-90843733D01*
%TO.C,U4*%
X115750000Y-85940000D02*
X114950000Y-85940000D01*
X115750000Y-85940000D02*
X116550000Y-85940000D01*
X115750000Y-89060000D02*
X114950000Y-89060000D01*
X115750000Y-89060000D02*
X116550000Y-89060000D01*
X114450000Y-85990000D02*
X114210000Y-85660000D01*
X114690000Y-85660000D01*
X114450000Y-85990000D01*
G36*
X114450000Y-85990000D02*
G01*
X114210000Y-85660000D01*
X114690000Y-85660000D01*
X114450000Y-85990000D01*
G37*
%TO.C,R13*%
X131120000Y-75082379D02*
X131120000Y-75417621D01*
X131880000Y-75082379D02*
X131880000Y-75417621D01*
%TO.C,R10*%
X96870000Y-69082379D02*
X96870000Y-69417621D01*
X97630000Y-69082379D02*
X97630000Y-69417621D01*
%TO.C,C1*%
X103634165Y-118890000D02*
X103865835Y-118890000D01*
X103634165Y-119610000D02*
X103865835Y-119610000D01*
%TO.C,C12*%
X103140000Y-115365835D02*
X103140000Y-115134165D01*
X103860000Y-115365835D02*
X103860000Y-115134165D01*
%TO.C,D6*%
X117090000Y-108265000D02*
X117090000Y-109735000D01*
X117090000Y-109735000D02*
X119550000Y-109735000D01*
X119550000Y-108265000D02*
X117090000Y-108265000D01*
%TO.C,R12*%
X101370000Y-91907621D02*
X101370000Y-91572379D01*
X102130000Y-91907621D02*
X102130000Y-91572379D01*
%TO.C,J2*%
X111620000Y-120645000D02*
X112950000Y-120645000D01*
X111620000Y-121975000D02*
X111620000Y-120645000D01*
X114220000Y-120645000D02*
X124440000Y-120645000D01*
X114220000Y-123305000D02*
X114220000Y-120645000D01*
X114220000Y-123305000D02*
X124440000Y-123305000D01*
X124440000Y-123305000D02*
X124440000Y-120645000D01*
%TO.C,C5*%
X123396267Y-70990000D02*
X123103733Y-70990000D01*
X123396267Y-72010000D02*
X123103733Y-72010000D01*
%TO.C,J5*%
X89350000Y-106450000D02*
X89600000Y-106450000D01*
X89350000Y-114250000D02*
X89600000Y-114250000D01*
X91900000Y-106450000D02*
X93750000Y-106450000D01*
X91900000Y-114250000D02*
X93750000Y-114250000D01*
X93750000Y-106450000D02*
X93750000Y-106900000D01*
X93750000Y-114250000D02*
X93750000Y-113800000D01*
X94300000Y-108650000D02*
X93850000Y-108650000D01*
X94300000Y-108650000D02*
X94300000Y-109100000D01*
%TO.C,R11*%
X122120000Y-87179879D02*
X122120000Y-87515121D01*
X122880000Y-87179879D02*
X122880000Y-87515121D01*
%TO.C,U3*%
X104790000Y-107840000D02*
X104790000Y-108315000D01*
X104790000Y-115060000D02*
X104790000Y-114585000D01*
X105265000Y-107840000D02*
X104790000Y-107840000D01*
X105265000Y-115060000D02*
X104790000Y-115060000D01*
X111535000Y-107840000D02*
X112010000Y-107840000D01*
X111535000Y-115060000D02*
X111710000Y-115060000D01*
X112010000Y-107840000D02*
X112010000Y-108315000D01*
X112010000Y-114585000D02*
X112010000Y-114820000D01*
X112250000Y-115390000D02*
X111770000Y-115390000D01*
X112010000Y-115060000D01*
X112250000Y-115390000D01*
G36*
X112250000Y-115390000D02*
G01*
X111770000Y-115390000D01*
X112010000Y-115060000D01*
X112250000Y-115390000D01*
G37*
%TO.C,C15*%
X94853733Y-76990000D02*
X95146267Y-76990000D01*
X94853733Y-78010000D02*
X95146267Y-78010000D01*
%TO.C,C3*%
X119634165Y-112890000D02*
X119865835Y-112890000D01*
X119634165Y-113610000D02*
X119865835Y-113610000D01*
D12*
%TO.C,U8*%
X106030000Y-85370000D02*
X106030000Y-87570000D01*
X106090000Y-85370000D02*
X106030000Y-85370000D01*
X106090000Y-87570000D02*
X106030000Y-87570000D01*
X108830000Y-85370000D02*
X108770000Y-85370000D01*
X108830000Y-85370000D02*
X108830000Y-87570000D01*
X108830000Y-87570000D02*
X108770000Y-87570000D01*
D13*
X108530000Y-87770000D02*
G75*
G02*
X108330000Y-87770000I-100000J0D01*
G01*
X108330000Y-87770000D02*
G75*
G02*
X108530000Y-87770000I100000J0D01*
G01*
D14*
X108710000Y-87470000D02*
G75*
G02*
X108650000Y-87470000I-30000J0D01*
G01*
X108650000Y-87470000D02*
G75*
G02*
X108710000Y-87470000I30000J0D01*
G01*
D11*
%TO.C,Y1*%
X116640000Y-110740000D02*
X116640000Y-113710000D01*
X116640000Y-113710000D02*
X118360000Y-113710000D01*
X118360000Y-113710000D02*
X118360000Y-110740000D01*
%TO.C,C19*%
X107806267Y-83240000D02*
X107513733Y-83240000D01*
X107806267Y-84260000D02*
X107513733Y-84260000D01*
%TO.C,C21*%
X108025835Y-81890000D02*
X107794165Y-81890000D01*
X108025835Y-82610000D02*
X107794165Y-82610000D01*
%TO.C,C9*%
X118896267Y-84490000D02*
X118603733Y-84490000D01*
X118896267Y-85510000D02*
X118603733Y-85510000D01*
%TO.C,C23*%
X113640000Y-95634165D02*
X113640000Y-95865835D01*
X114360000Y-95634165D02*
X114360000Y-95865835D01*
%TO.C,R9*%
X130082379Y-100370000D02*
X130417621Y-100370000D01*
X130082379Y-101130000D02*
X130417621Y-101130000D01*
%TO.C,D2*%
X112090000Y-65600000D02*
X112090000Y-69900000D01*
X112090000Y-65600000D02*
X117900000Y-65600000D01*
X112090000Y-69900000D02*
X117900000Y-69900000D01*
%TO.C,R2*%
X99667621Y-110870000D02*
X99332379Y-110870000D01*
X99667621Y-111630000D02*
X99332379Y-111630000D01*
%TO.C,D4*%
X120265000Y-86950000D02*
X120265000Y-89410000D01*
X120265000Y-89410000D02*
X121735000Y-89410000D01*
X121735000Y-89410000D02*
X121735000Y-86950000D01*
%TO.C,R8*%
X117417621Y-101620000D02*
X117082379Y-101620000D01*
X117417621Y-102380000D02*
X117082379Y-102380000D01*
%TO.C,R6*%
X115120000Y-111832379D02*
X115120000Y-112167621D01*
X115880000Y-111832379D02*
X115880000Y-112167621D01*
%TO.C,C24*%
X114890000Y-95634165D02*
X114890000Y-95865835D01*
X115610000Y-95634165D02*
X115610000Y-95865835D01*
%TO.C,J1*%
X89670000Y-76610000D02*
X89670000Y-99530000D01*
X89670000Y-76610000D02*
X92330000Y-76610000D01*
X89670000Y-99530000D02*
X92330000Y-99530000D01*
X91000000Y-74010000D02*
X92330000Y-74010000D01*
X92330000Y-74010000D02*
X92330000Y-75340000D01*
X92330000Y-76610000D02*
X92330000Y-99530000D01*
%TO.C,C17*%
X111634165Y-95890000D02*
X111865835Y-95890000D01*
X111634165Y-96610000D02*
X111865835Y-96610000D01*
%TO.C,C14*%
X114134165Y-109390000D02*
X114365835Y-109390000D01*
X114134165Y-110110000D02*
X114365835Y-110110000D01*
D10*
%TO.C,U7*%
X109920000Y-92670000D02*
X109920000Y-92920000D01*
X109920000Y-95330000D02*
X109920000Y-95080000D01*
X110670000Y-92670000D02*
X109920000Y-92670000D01*
X110670000Y-95330000D02*
X109920000Y-95330000D01*
X112330000Y-92670000D02*
X113080000Y-92670000D01*
X112330000Y-95330000D02*
X113080000Y-95330000D01*
X113080000Y-92670000D02*
X113080000Y-92920000D01*
X113080000Y-95330000D02*
X113080000Y-95080000D01*
X109670000Y-93240000D02*
G75*
G02*
X109510000Y-93240000I-80000J0D01*
G01*
X109510000Y-93240000D02*
G75*
G02*
X109670000Y-93240000I80000J0D01*
G01*
D14*
X110030000Y-92750000D02*
G75*
G02*
X109970000Y-92750000I-30000J0D01*
G01*
X109970000Y-92750000D02*
G75*
G02*
X110030000Y-92750000I30000J0D01*
G01*
D11*
%TO.C,D1*%
X108000000Y-71190000D02*
X107350000Y-71190000D01*
X108000000Y-71190000D02*
X108650000Y-71190000D01*
X108000000Y-74310000D02*
X107350000Y-74310000D01*
X108000000Y-74310000D02*
X108650000Y-74310000D01*
X106837500Y-71240000D02*
X106597500Y-70910000D01*
X107077500Y-70910000D01*
X106837500Y-71240000D01*
G36*
X106837500Y-71240000D02*
G01*
X106597500Y-70910000D01*
X107077500Y-70910000D01*
X106837500Y-71240000D01*
G37*
%TO.C,R14*%
X115870000Y-109167621D02*
X115870000Y-108832379D01*
X116630000Y-109167621D02*
X116630000Y-108832379D01*
%TO.C,C10*%
X100396267Y-76990000D02*
X100103733Y-76990000D01*
X100396267Y-78010000D02*
X100103733Y-78010000D01*
%TO.C,R1*%
X99667621Y-109870000D02*
X99332379Y-109870000D01*
X99667621Y-110630000D02*
X99332379Y-110630000D01*
%TO.C,J3*%
X130670000Y-113270000D02*
X130670000Y-105590000D01*
X130670000Y-115870000D02*
X130670000Y-114540000D01*
X132000000Y-115870000D02*
X130670000Y-115870000D01*
X133330000Y-105590000D02*
X130670000Y-105590000D01*
X133330000Y-113270000D02*
X130670000Y-113270000D01*
X133330000Y-113270000D02*
X133330000Y-105590000D01*
%TO.C,U5*%
X120990000Y-98490000D02*
X120990000Y-98760000D01*
X120990000Y-104010000D02*
X120990000Y-103740000D01*
X123750000Y-98490000D02*
X120990000Y-98490000D01*
X123750000Y-98490000D02*
X126510000Y-98490000D01*
X123750000Y-104010000D02*
X120990000Y-104010000D01*
X123750000Y-104010000D02*
X126510000Y-104010000D01*
X126510000Y-98490000D02*
X126510000Y-98760000D01*
X126510000Y-104010000D02*
X126510000Y-103740000D01*
X120225000Y-98760000D02*
X119985000Y-98430000D01*
X120465000Y-98430000D01*
X120225000Y-98760000D01*
G36*
X120225000Y-98760000D02*
G01*
X119985000Y-98430000D01*
X120465000Y-98430000D01*
X120225000Y-98760000D01*
G37*
%TO.C,J6*%
X101440000Y-65090000D02*
X101440000Y-69810000D01*
X101440000Y-67200000D02*
X102050000Y-67200000D01*
X101440000Y-68500000D02*
X102050000Y-68500000D01*
X101440000Y-69810000D02*
X107560000Y-69810000D01*
X102050000Y-65700000D02*
X102050000Y-69200000D01*
X102050000Y-69200000D02*
X104000000Y-69200000D01*
X104000000Y-69200000D02*
X104000000Y-69810000D01*
X104400000Y-66200000D02*
X104400000Y-65700000D01*
X104500000Y-65700000D02*
X104500000Y-66200000D01*
X104600000Y-65700000D02*
X104600000Y-66200000D01*
X104600000Y-66200000D02*
X104400000Y-66200000D01*
X105000000Y-69200000D02*
X106950000Y-69200000D01*
X105000000Y-69810000D02*
X105000000Y-69200000D01*
X105800000Y-69810000D02*
X105800000Y-70010000D01*
X105800000Y-69910000D02*
X106100000Y-69910000D01*
X105800000Y-70010000D02*
X106100000Y-70010000D01*
X106100000Y-70010000D02*
X106100000Y-69810000D01*
X106610000Y-70110000D02*
X107860000Y-70110000D01*
X106950000Y-65700000D02*
X102050000Y-65700000D01*
X106950000Y-69200000D02*
X106950000Y-65700000D01*
X107560000Y-65090000D02*
X101440000Y-65090000D01*
X107560000Y-67200000D02*
X106950000Y-67200000D01*
X107560000Y-68500000D02*
X106950000Y-68500000D01*
X107560000Y-69810000D02*
X107560000Y-65090000D01*
X107860000Y-70110000D02*
X107860000Y-68860000D01*
%TO.C,C18*%
X102390000Y-91355835D02*
X102390000Y-91124165D01*
X103110000Y-91355835D02*
X103110000Y-91124165D01*
%TO.C,C6*%
X106146267Y-104490000D02*
X105853733Y-104490000D01*
X106146267Y-105510000D02*
X105853733Y-105510000D01*
D10*
%TO.C,U9*%
X100890000Y-96600000D02*
X100890000Y-96190000D01*
X100900000Y-93390000D02*
X101310000Y-93390000D01*
X100900000Y-93800000D02*
X100900000Y-93390000D01*
X101300000Y-96600000D02*
X100890000Y-96600000D01*
X103700000Y-93400000D02*
X104110000Y-93400000D01*
X104100000Y-96190000D02*
X104100000Y-96600000D01*
X104100000Y-96600000D02*
X103690000Y-96600000D01*
X104110000Y-93400000D02*
X104110000Y-93810000D01*
D12*
X103300000Y-93300000D02*
G75*
G02*
X103302429Y-93299975I-20J120000D01*
G01*
D14*
X104030000Y-93500000D02*
G75*
G02*
X103970000Y-93500000I-30000J0D01*
G01*
X103970000Y-93500000D02*
G75*
G02*
X104030000Y-93500000I30000J0D01*
G01*
D11*
%TO.C,C11*%
X104884165Y-105890000D02*
X105115835Y-105890000D01*
X104884165Y-106610000D02*
X105115835Y-106610000D01*
%TO.C,D3*%
X95450000Y-72235000D02*
X97910000Y-72235000D01*
X97910000Y-70765000D02*
X95450000Y-70765000D01*
X97910000Y-72235000D02*
X97910000Y-70765000D01*
%TO.C,D5*%
X129265000Y-74450000D02*
X129265000Y-76910000D01*
X129265000Y-76910000D02*
X130735000Y-76910000D01*
X130735000Y-76910000D02*
X130735000Y-74450000D01*
%TO.C,C16*%
X130134165Y-98890000D02*
X130365835Y-98890000D01*
X130134165Y-99610000D02*
X130365835Y-99610000D01*
%TO.C,U2*%
X126112500Y-72990000D02*
X125312500Y-72990000D01*
X126112500Y-72990000D02*
X126912500Y-72990000D01*
X126112500Y-76110000D02*
X125312500Y-76110000D01*
X126112500Y-76110000D02*
X126912500Y-76110000D01*
X124812500Y-73040000D02*
X124572500Y-72710000D01*
X125052500Y-72710000D01*
X124812500Y-73040000D01*
G36*
X124812500Y-73040000D02*
G01*
X124572500Y-72710000D01*
X125052500Y-72710000D01*
X124812500Y-73040000D01*
G37*
%TO.C,J4*%
X96120000Y-120645000D02*
X97450000Y-120645000D01*
X96120000Y-121975000D02*
X96120000Y-120645000D01*
X98720000Y-120645000D02*
X106400000Y-120645000D01*
X98720000Y-123305000D02*
X98720000Y-120645000D01*
X98720000Y-123305000D02*
X106400000Y-123305000D01*
X106400000Y-123305000D02*
X106400000Y-120645000D01*
%TO.C,R17*%
X110417621Y-88870000D02*
X110082379Y-88870000D01*
X110417621Y-89630000D02*
X110082379Y-89630000D01*
%TO.C,C8*%
X112853733Y-84490000D02*
X113146267Y-84490000D01*
X112853733Y-85510000D02*
X113146267Y-85510000D01*
%TO.C,R18*%
X111620000Y-91082379D02*
X111620000Y-91417621D01*
X112380000Y-91082379D02*
X112380000Y-91417621D01*
%TO.C,C7*%
X129353733Y-71490000D02*
X129646267Y-71490000D01*
X129353733Y-72510000D02*
X129646267Y-72510000D01*
%TD*%
M02*
