%TF.GenerationSoftware,KiCad,Pcbnew,9.0.4*%
%TF.CreationDate,2026-06-28T13:41:14-04:00*%
%TF.ProjectId,XDQ-001,5844512d-3030-4312-9e6b-696361645f70,rev?*%
%TF.SameCoordinates,Original*%
%TF.FileFunction,Legend,Top*%
%TF.FilePolarity,Positive*%
%FSLAX46Y46*%
G04 Gerber Fmt 4.6, Leading zero omitted, Abs format (unit mm)*
G04 Created by KiCad (PCBNEW 9.0.4) date 2026-06-28 13:41:14*
%MOMM*%
%LPD*%
G01*
G04 APERTURE LIST*
%ADD10C,0.150000*%
%ADD11C,0.120000*%
%ADD12C,0.250000*%
%ADD13C,0.200000*%
%ADD14C,0.060000*%
G04 APERTURE END LIST*
D10*
X101607142Y-99859580D02*
X101559523Y-99907200D01*
X101559523Y-99907200D02*
X101416666Y-99954819D01*
X101416666Y-99954819D02*
X101321428Y-99954819D01*
X101321428Y-99954819D02*
X101178571Y-99907200D01*
X101178571Y-99907200D02*
X101083333Y-99811961D01*
X101083333Y-99811961D02*
X101035714Y-99716723D01*
X101035714Y-99716723D02*
X100988095Y-99526247D01*
X100988095Y-99526247D02*
X100988095Y-99383390D01*
X100988095Y-99383390D02*
X101035714Y-99192914D01*
X101035714Y-99192914D02*
X101083333Y-99097676D01*
X101083333Y-99097676D02*
X101178571Y-99002438D01*
X101178571Y-99002438D02*
X101321428Y-98954819D01*
X101321428Y-98954819D02*
X101416666Y-98954819D01*
X101416666Y-98954819D02*
X101559523Y-99002438D01*
X101559523Y-99002438D02*
X101607142Y-99050057D01*
X101988095Y-99050057D02*
X102035714Y-99002438D01*
X102035714Y-99002438D02*
X102130952Y-98954819D01*
X102130952Y-98954819D02*
X102369047Y-98954819D01*
X102369047Y-98954819D02*
X102464285Y-99002438D01*
X102464285Y-99002438D02*
X102511904Y-99050057D01*
X102511904Y-99050057D02*
X102559523Y-99145295D01*
X102559523Y-99145295D02*
X102559523Y-99240533D01*
X102559523Y-99240533D02*
X102511904Y-99383390D01*
X102511904Y-99383390D02*
X101940476Y-99954819D01*
X101940476Y-99954819D02*
X102559523Y-99954819D01*
X102940476Y-99050057D02*
X102988095Y-99002438D01*
X102988095Y-99002438D02*
X103083333Y-98954819D01*
X103083333Y-98954819D02*
X103321428Y-98954819D01*
X103321428Y-98954819D02*
X103416666Y-99002438D01*
X103416666Y-99002438D02*
X103464285Y-99050057D01*
X103464285Y-99050057D02*
X103511904Y-99145295D01*
X103511904Y-99145295D02*
X103511904Y-99240533D01*
X103511904Y-99240533D02*
X103464285Y-99383390D01*
X103464285Y-99383390D02*
X102892857Y-99954819D01*
X102892857Y-99954819D02*
X103511904Y-99954819D01*
X93238095Y-82954819D02*
X93238095Y-83764342D01*
X93238095Y-83764342D02*
X93285714Y-83859580D01*
X93285714Y-83859580D02*
X93333333Y-83907200D01*
X93333333Y-83907200D02*
X93428571Y-83954819D01*
X93428571Y-83954819D02*
X93619047Y-83954819D01*
X93619047Y-83954819D02*
X93714285Y-83907200D01*
X93714285Y-83907200D02*
X93761904Y-83859580D01*
X93761904Y-83859580D02*
X93809523Y-83764342D01*
X93809523Y-83764342D02*
X93809523Y-82954819D01*
X94714285Y-82954819D02*
X94523809Y-82954819D01*
X94523809Y-82954819D02*
X94428571Y-83002438D01*
X94428571Y-83002438D02*
X94380952Y-83050057D01*
X94380952Y-83050057D02*
X94285714Y-83192914D01*
X94285714Y-83192914D02*
X94238095Y-83383390D01*
X94238095Y-83383390D02*
X94238095Y-83764342D01*
X94238095Y-83764342D02*
X94285714Y-83859580D01*
X94285714Y-83859580D02*
X94333333Y-83907200D01*
X94333333Y-83907200D02*
X94428571Y-83954819D01*
X94428571Y-83954819D02*
X94619047Y-83954819D01*
X94619047Y-83954819D02*
X94714285Y-83907200D01*
X94714285Y-83907200D02*
X94761904Y-83859580D01*
X94761904Y-83859580D02*
X94809523Y-83764342D01*
X94809523Y-83764342D02*
X94809523Y-83526247D01*
X94809523Y-83526247D02*
X94761904Y-83431009D01*
X94761904Y-83431009D02*
X94714285Y-83383390D01*
X94714285Y-83383390D02*
X94619047Y-83335771D01*
X94619047Y-83335771D02*
X94428571Y-83335771D01*
X94428571Y-83335771D02*
X94333333Y-83383390D01*
X94333333Y-83383390D02*
X94285714Y-83431009D01*
X94285714Y-83431009D02*
X94238095Y-83526247D01*
X121833333Y-111609580D02*
X121785714Y-111657200D01*
X121785714Y-111657200D02*
X121642857Y-111704819D01*
X121642857Y-111704819D02*
X121547619Y-111704819D01*
X121547619Y-111704819D02*
X121404762Y-111657200D01*
X121404762Y-111657200D02*
X121309524Y-111561961D01*
X121309524Y-111561961D02*
X121261905Y-111466723D01*
X121261905Y-111466723D02*
X121214286Y-111276247D01*
X121214286Y-111276247D02*
X121214286Y-111133390D01*
X121214286Y-111133390D02*
X121261905Y-110942914D01*
X121261905Y-110942914D02*
X121309524Y-110847676D01*
X121309524Y-110847676D02*
X121404762Y-110752438D01*
X121404762Y-110752438D02*
X121547619Y-110704819D01*
X121547619Y-110704819D02*
X121642857Y-110704819D01*
X121642857Y-110704819D02*
X121785714Y-110752438D01*
X121785714Y-110752438D02*
X121833333Y-110800057D01*
X122690476Y-111038152D02*
X122690476Y-111704819D01*
X122452381Y-110657200D02*
X122214286Y-111371485D01*
X122214286Y-111371485D02*
X122833333Y-111371485D01*
X112682142Y-117744580D02*
X112634523Y-117792200D01*
X112634523Y-117792200D02*
X112491666Y-117839819D01*
X112491666Y-117839819D02*
X112396428Y-117839819D01*
X112396428Y-117839819D02*
X112253571Y-117792200D01*
X112253571Y-117792200D02*
X112158333Y-117696961D01*
X112158333Y-117696961D02*
X112110714Y-117601723D01*
X112110714Y-117601723D02*
X112063095Y-117411247D01*
X112063095Y-117411247D02*
X112063095Y-117268390D01*
X112063095Y-117268390D02*
X112110714Y-117077914D01*
X112110714Y-117077914D02*
X112158333Y-116982676D01*
X112158333Y-116982676D02*
X112253571Y-116887438D01*
X112253571Y-116887438D02*
X112396428Y-116839819D01*
X112396428Y-116839819D02*
X112491666Y-116839819D01*
X112491666Y-116839819D02*
X112634523Y-116887438D01*
X112634523Y-116887438D02*
X112682142Y-116935057D01*
X113634523Y-117839819D02*
X113063095Y-117839819D01*
X113348809Y-117839819D02*
X113348809Y-116839819D01*
X113348809Y-116839819D02*
X113253571Y-116982676D01*
X113253571Y-116982676D02*
X113158333Y-117077914D01*
X113158333Y-117077914D02*
X113063095Y-117125533D01*
X113967857Y-116839819D02*
X114586904Y-116839819D01*
X114586904Y-116839819D02*
X114253571Y-117220771D01*
X114253571Y-117220771D02*
X114396428Y-117220771D01*
X114396428Y-117220771D02*
X114491666Y-117268390D01*
X114491666Y-117268390D02*
X114539285Y-117316009D01*
X114539285Y-117316009D02*
X114586904Y-117411247D01*
X114586904Y-117411247D02*
X114586904Y-117649342D01*
X114586904Y-117649342D02*
X114539285Y-117744580D01*
X114539285Y-117744580D02*
X114491666Y-117792200D01*
X114491666Y-117792200D02*
X114396428Y-117839819D01*
X114396428Y-117839819D02*
X114110714Y-117839819D01*
X114110714Y-117839819D02*
X114015476Y-117792200D01*
X114015476Y-117792200D02*
X113967857Y-117744580D01*
X95738095Y-111454819D02*
X95738095Y-112264342D01*
X95738095Y-112264342D02*
X95785714Y-112359580D01*
X95785714Y-112359580D02*
X95833333Y-112407200D01*
X95833333Y-112407200D02*
X95928571Y-112454819D01*
X95928571Y-112454819D02*
X96119047Y-112454819D01*
X96119047Y-112454819D02*
X96214285Y-112407200D01*
X96214285Y-112407200D02*
X96261904Y-112359580D01*
X96261904Y-112359580D02*
X96309523Y-112264342D01*
X96309523Y-112264342D02*
X96309523Y-111454819D01*
X97309523Y-112454819D02*
X96738095Y-112454819D01*
X97023809Y-112454819D02*
X97023809Y-111454819D01*
X97023809Y-111454819D02*
X96928571Y-111597676D01*
X96928571Y-111597676D02*
X96833333Y-111692914D01*
X96833333Y-111692914D02*
X96738095Y-111740533D01*
X100624819Y-111916666D02*
X100148628Y-112249999D01*
X100624819Y-112488094D02*
X99624819Y-112488094D01*
X99624819Y-112488094D02*
X99624819Y-112107142D01*
X99624819Y-112107142D02*
X99672438Y-112011904D01*
X99672438Y-112011904D02*
X99720057Y-111964285D01*
X99720057Y-111964285D02*
X99815295Y-111916666D01*
X99815295Y-111916666D02*
X99958152Y-111916666D01*
X99958152Y-111916666D02*
X100053390Y-111964285D01*
X100053390Y-111964285D02*
X100101009Y-112011904D01*
X100101009Y-112011904D02*
X100148628Y-112107142D01*
X100148628Y-112107142D02*
X100148628Y-112488094D01*
X99624819Y-111583332D02*
X99624819Y-110964285D01*
X99624819Y-110964285D02*
X100005771Y-111297618D01*
X100005771Y-111297618D02*
X100005771Y-111154761D01*
X100005771Y-111154761D02*
X100053390Y-111059523D01*
X100053390Y-111059523D02*
X100101009Y-111011904D01*
X100101009Y-111011904D02*
X100196247Y-110964285D01*
X100196247Y-110964285D02*
X100434342Y-110964285D01*
X100434342Y-110964285D02*
X100529580Y-111011904D01*
X100529580Y-111011904D02*
X100577200Y-111059523D01*
X100577200Y-111059523D02*
X100624819Y-111154761D01*
X100624819Y-111154761D02*
X100624819Y-111440475D01*
X100624819Y-111440475D02*
X100577200Y-111535713D01*
X100577200Y-111535713D02*
X100529580Y-111583332D01*
X116166666Y-98428509D02*
X115833333Y-98428509D01*
X115833333Y-98952319D02*
X115833333Y-97952319D01*
X115833333Y-97952319D02*
X116309523Y-97952319D01*
X117023809Y-98428509D02*
X117166666Y-98476128D01*
X117166666Y-98476128D02*
X117214285Y-98523747D01*
X117214285Y-98523747D02*
X117261904Y-98618985D01*
X117261904Y-98618985D02*
X117261904Y-98761842D01*
X117261904Y-98761842D02*
X117214285Y-98857080D01*
X117214285Y-98857080D02*
X117166666Y-98904700D01*
X117166666Y-98904700D02*
X117071428Y-98952319D01*
X117071428Y-98952319D02*
X116690476Y-98952319D01*
X116690476Y-98952319D02*
X116690476Y-97952319D01*
X116690476Y-97952319D02*
X117023809Y-97952319D01*
X117023809Y-97952319D02*
X117119047Y-97999938D01*
X117119047Y-97999938D02*
X117166666Y-98047557D01*
X117166666Y-98047557D02*
X117214285Y-98142795D01*
X117214285Y-98142795D02*
X117214285Y-98238033D01*
X117214285Y-98238033D02*
X117166666Y-98333271D01*
X117166666Y-98333271D02*
X117119047Y-98380890D01*
X117119047Y-98380890D02*
X117023809Y-98428509D01*
X117023809Y-98428509D02*
X116690476Y-98428509D01*
X117642857Y-98047557D02*
X117690476Y-97999938D01*
X117690476Y-97999938D02*
X117785714Y-97952319D01*
X117785714Y-97952319D02*
X118023809Y-97952319D01*
X118023809Y-97952319D02*
X118119047Y-97999938D01*
X118119047Y-97999938D02*
X118166666Y-98047557D01*
X118166666Y-98047557D02*
X118214285Y-98142795D01*
X118214285Y-98142795D02*
X118214285Y-98238033D01*
X118214285Y-98238033D02*
X118166666Y-98380890D01*
X118166666Y-98380890D02*
X117595238Y-98952319D01*
X117595238Y-98952319D02*
X118214285Y-98952319D01*
X122283333Y-83509580D02*
X122235714Y-83557200D01*
X122235714Y-83557200D02*
X122092857Y-83604819D01*
X122092857Y-83604819D02*
X121997619Y-83604819D01*
X121997619Y-83604819D02*
X121854762Y-83557200D01*
X121854762Y-83557200D02*
X121759524Y-83461961D01*
X121759524Y-83461961D02*
X121711905Y-83366723D01*
X121711905Y-83366723D02*
X121664286Y-83176247D01*
X121664286Y-83176247D02*
X121664286Y-83033390D01*
X121664286Y-83033390D02*
X121711905Y-82842914D01*
X121711905Y-82842914D02*
X121759524Y-82747676D01*
X121759524Y-82747676D02*
X121854762Y-82652438D01*
X121854762Y-82652438D02*
X121997619Y-82604819D01*
X121997619Y-82604819D02*
X122092857Y-82604819D01*
X122092857Y-82604819D02*
X122235714Y-82652438D01*
X122235714Y-82652438D02*
X122283333Y-82700057D01*
X122664286Y-82700057D02*
X122711905Y-82652438D01*
X122711905Y-82652438D02*
X122807143Y-82604819D01*
X122807143Y-82604819D02*
X123045238Y-82604819D01*
X123045238Y-82604819D02*
X123140476Y-82652438D01*
X123140476Y-82652438D02*
X123188095Y-82700057D01*
X123188095Y-82700057D02*
X123235714Y-82795295D01*
X123235714Y-82795295D02*
X123235714Y-82890533D01*
X123235714Y-82890533D02*
X123188095Y-83033390D01*
X123188095Y-83033390D02*
X122616667Y-83604819D01*
X122616667Y-83604819D02*
X123235714Y-83604819D01*
X119284819Y-97166666D02*
X118808628Y-97499999D01*
X119284819Y-97738094D02*
X118284819Y-97738094D01*
X118284819Y-97738094D02*
X118284819Y-97357142D01*
X118284819Y-97357142D02*
X118332438Y-97261904D01*
X118332438Y-97261904D02*
X118380057Y-97214285D01*
X118380057Y-97214285D02*
X118475295Y-97166666D01*
X118475295Y-97166666D02*
X118618152Y-97166666D01*
X118618152Y-97166666D02*
X118713390Y-97214285D01*
X118713390Y-97214285D02*
X118761009Y-97261904D01*
X118761009Y-97261904D02*
X118808628Y-97357142D01*
X118808628Y-97357142D02*
X118808628Y-97738094D01*
X118284819Y-96833332D02*
X118284819Y-96166666D01*
X118284819Y-96166666D02*
X119284819Y-96595237D01*
X103359580Y-88392857D02*
X103407200Y-88440476D01*
X103407200Y-88440476D02*
X103454819Y-88583333D01*
X103454819Y-88583333D02*
X103454819Y-88678571D01*
X103454819Y-88678571D02*
X103407200Y-88821428D01*
X103407200Y-88821428D02*
X103311961Y-88916666D01*
X103311961Y-88916666D02*
X103216723Y-88964285D01*
X103216723Y-88964285D02*
X103026247Y-89011904D01*
X103026247Y-89011904D02*
X102883390Y-89011904D01*
X102883390Y-89011904D02*
X102692914Y-88964285D01*
X102692914Y-88964285D02*
X102597676Y-88916666D01*
X102597676Y-88916666D02*
X102502438Y-88821428D01*
X102502438Y-88821428D02*
X102454819Y-88678571D01*
X102454819Y-88678571D02*
X102454819Y-88583333D01*
X102454819Y-88583333D02*
X102502438Y-88440476D01*
X102502438Y-88440476D02*
X102550057Y-88392857D01*
X102550057Y-88011904D02*
X102502438Y-87964285D01*
X102502438Y-87964285D02*
X102454819Y-87869047D01*
X102454819Y-87869047D02*
X102454819Y-87630952D01*
X102454819Y-87630952D02*
X102502438Y-87535714D01*
X102502438Y-87535714D02*
X102550057Y-87488095D01*
X102550057Y-87488095D02*
X102645295Y-87440476D01*
X102645295Y-87440476D02*
X102740533Y-87440476D01*
X102740533Y-87440476D02*
X102883390Y-87488095D01*
X102883390Y-87488095D02*
X103454819Y-88059523D01*
X103454819Y-88059523D02*
X103454819Y-87440476D01*
X102454819Y-86821428D02*
X102454819Y-86726190D01*
X102454819Y-86726190D02*
X102502438Y-86630952D01*
X102502438Y-86630952D02*
X102550057Y-86583333D01*
X102550057Y-86583333D02*
X102645295Y-86535714D01*
X102645295Y-86535714D02*
X102835771Y-86488095D01*
X102835771Y-86488095D02*
X103073866Y-86488095D01*
X103073866Y-86488095D02*
X103264342Y-86535714D01*
X103264342Y-86535714D02*
X103359580Y-86583333D01*
X103359580Y-86583333D02*
X103407200Y-86630952D01*
X103407200Y-86630952D02*
X103454819Y-86726190D01*
X103454819Y-86726190D02*
X103454819Y-86821428D01*
X103454819Y-86821428D02*
X103407200Y-86916666D01*
X103407200Y-86916666D02*
X103359580Y-86964285D01*
X103359580Y-86964285D02*
X103264342Y-87011904D01*
X103264342Y-87011904D02*
X103073866Y-87059523D01*
X103073866Y-87059523D02*
X102835771Y-87059523D01*
X102835771Y-87059523D02*
X102645295Y-87011904D01*
X102645295Y-87011904D02*
X102550057Y-86964285D01*
X102550057Y-86964285D02*
X102502438Y-86916666D01*
X102502438Y-86916666D02*
X102454819Y-86821428D01*
X114988095Y-84554819D02*
X114988095Y-85364342D01*
X114988095Y-85364342D02*
X115035714Y-85459580D01*
X115035714Y-85459580D02*
X115083333Y-85507200D01*
X115083333Y-85507200D02*
X115178571Y-85554819D01*
X115178571Y-85554819D02*
X115369047Y-85554819D01*
X115369047Y-85554819D02*
X115464285Y-85507200D01*
X115464285Y-85507200D02*
X115511904Y-85459580D01*
X115511904Y-85459580D02*
X115559523Y-85364342D01*
X115559523Y-85364342D02*
X115559523Y-84554819D01*
X116464285Y-84888152D02*
X116464285Y-85554819D01*
X116226190Y-84507200D02*
X115988095Y-85221485D01*
X115988095Y-85221485D02*
X116607142Y-85221485D01*
X127207142Y-93874819D02*
X126873809Y-93398628D01*
X126635714Y-93874819D02*
X126635714Y-92874819D01*
X126635714Y-92874819D02*
X127016666Y-92874819D01*
X127016666Y-92874819D02*
X127111904Y-92922438D01*
X127111904Y-92922438D02*
X127159523Y-92970057D01*
X127159523Y-92970057D02*
X127207142Y-93065295D01*
X127207142Y-93065295D02*
X127207142Y-93208152D01*
X127207142Y-93208152D02*
X127159523Y-93303390D01*
X127159523Y-93303390D02*
X127111904Y-93351009D01*
X127111904Y-93351009D02*
X127016666Y-93398628D01*
X127016666Y-93398628D02*
X126635714Y-93398628D01*
X128159523Y-93874819D02*
X127588095Y-93874819D01*
X127873809Y-93874819D02*
X127873809Y-92874819D01*
X127873809Y-92874819D02*
X127778571Y-93017676D01*
X127778571Y-93017676D02*
X127683333Y-93112914D01*
X127683333Y-93112914D02*
X127588095Y-93160533D01*
X128492857Y-92874819D02*
X129111904Y-92874819D01*
X129111904Y-92874819D02*
X128778571Y-93255771D01*
X128778571Y-93255771D02*
X128921428Y-93255771D01*
X128921428Y-93255771D02*
X129016666Y-93303390D01*
X129016666Y-93303390D02*
X129064285Y-93351009D01*
X129064285Y-93351009D02*
X129111904Y-93446247D01*
X129111904Y-93446247D02*
X129111904Y-93684342D01*
X129111904Y-93684342D02*
X129064285Y-93779580D01*
X129064285Y-93779580D02*
X129016666Y-93827200D01*
X129016666Y-93827200D02*
X128921428Y-93874819D01*
X128921428Y-93874819D02*
X128635714Y-93874819D01*
X128635714Y-93874819D02*
X128540476Y-93827200D01*
X128540476Y-93827200D02*
X128492857Y-93779580D01*
X99124819Y-77642857D02*
X98648628Y-77976190D01*
X99124819Y-78214285D02*
X98124819Y-78214285D01*
X98124819Y-78214285D02*
X98124819Y-77833333D01*
X98124819Y-77833333D02*
X98172438Y-77738095D01*
X98172438Y-77738095D02*
X98220057Y-77690476D01*
X98220057Y-77690476D02*
X98315295Y-77642857D01*
X98315295Y-77642857D02*
X98458152Y-77642857D01*
X98458152Y-77642857D02*
X98553390Y-77690476D01*
X98553390Y-77690476D02*
X98601009Y-77738095D01*
X98601009Y-77738095D02*
X98648628Y-77833333D01*
X98648628Y-77833333D02*
X98648628Y-78214285D01*
X99124819Y-76690476D02*
X99124819Y-77261904D01*
X99124819Y-76976190D02*
X98124819Y-76976190D01*
X98124819Y-76976190D02*
X98267676Y-77071428D01*
X98267676Y-77071428D02*
X98362914Y-77166666D01*
X98362914Y-77166666D02*
X98410533Y-77261904D01*
X98124819Y-76071428D02*
X98124819Y-75976190D01*
X98124819Y-75976190D02*
X98172438Y-75880952D01*
X98172438Y-75880952D02*
X98220057Y-75833333D01*
X98220057Y-75833333D02*
X98315295Y-75785714D01*
X98315295Y-75785714D02*
X98505771Y-75738095D01*
X98505771Y-75738095D02*
X98743866Y-75738095D01*
X98743866Y-75738095D02*
X98934342Y-75785714D01*
X98934342Y-75785714D02*
X99029580Y-75833333D01*
X99029580Y-75833333D02*
X99077200Y-75880952D01*
X99077200Y-75880952D02*
X99124819Y-75976190D01*
X99124819Y-75976190D02*
X99124819Y-76071428D01*
X99124819Y-76071428D02*
X99077200Y-76166666D01*
X99077200Y-76166666D02*
X99029580Y-76214285D01*
X99029580Y-76214285D02*
X98934342Y-76261904D01*
X98934342Y-76261904D02*
X98743866Y-76309523D01*
X98743866Y-76309523D02*
X98505771Y-76309523D01*
X98505771Y-76309523D02*
X98315295Y-76261904D01*
X98315295Y-76261904D02*
X98220057Y-76214285D01*
X98220057Y-76214285D02*
X98172438Y-76166666D01*
X98172438Y-76166666D02*
X98124819Y-76071428D01*
X91366666Y-80924819D02*
X91366666Y-81639104D01*
X91366666Y-81639104D02*
X91319047Y-81781961D01*
X91319047Y-81781961D02*
X91223809Y-81877200D01*
X91223809Y-81877200D02*
X91080952Y-81924819D01*
X91080952Y-81924819D02*
X90985714Y-81924819D01*
X92366666Y-81924819D02*
X91795238Y-81924819D01*
X92080952Y-81924819D02*
X92080952Y-80924819D01*
X92080952Y-80924819D02*
X91985714Y-81067676D01*
X91985714Y-81067676D02*
X91890476Y-81162914D01*
X91890476Y-81162914D02*
X91795238Y-81210533D01*
X103083333Y-116949580D02*
X103035714Y-116997200D01*
X103035714Y-116997200D02*
X102892857Y-117044819D01*
X102892857Y-117044819D02*
X102797619Y-117044819D01*
X102797619Y-117044819D02*
X102654762Y-116997200D01*
X102654762Y-116997200D02*
X102559524Y-116901961D01*
X102559524Y-116901961D02*
X102511905Y-116806723D01*
X102511905Y-116806723D02*
X102464286Y-116616247D01*
X102464286Y-116616247D02*
X102464286Y-116473390D01*
X102464286Y-116473390D02*
X102511905Y-116282914D01*
X102511905Y-116282914D02*
X102559524Y-116187676D01*
X102559524Y-116187676D02*
X102654762Y-116092438D01*
X102654762Y-116092438D02*
X102797619Y-116044819D01*
X102797619Y-116044819D02*
X102892857Y-116044819D01*
X102892857Y-116044819D02*
X103035714Y-116092438D01*
X103035714Y-116092438D02*
X103083333Y-116140057D01*
X104035714Y-117044819D02*
X103464286Y-117044819D01*
X103750000Y-117044819D02*
X103750000Y-116044819D01*
X103750000Y-116044819D02*
X103654762Y-116187676D01*
X103654762Y-116187676D02*
X103559524Y-116282914D01*
X103559524Y-116282914D02*
X103464286Y-116330533D01*
X102659580Y-116442857D02*
X102707200Y-116490476D01*
X102707200Y-116490476D02*
X102754819Y-116633333D01*
X102754819Y-116633333D02*
X102754819Y-116728571D01*
X102754819Y-116728571D02*
X102707200Y-116871428D01*
X102707200Y-116871428D02*
X102611961Y-116966666D01*
X102611961Y-116966666D02*
X102516723Y-117014285D01*
X102516723Y-117014285D02*
X102326247Y-117061904D01*
X102326247Y-117061904D02*
X102183390Y-117061904D01*
X102183390Y-117061904D02*
X101992914Y-117014285D01*
X101992914Y-117014285D02*
X101897676Y-116966666D01*
X101897676Y-116966666D02*
X101802438Y-116871428D01*
X101802438Y-116871428D02*
X101754819Y-116728571D01*
X101754819Y-116728571D02*
X101754819Y-116633333D01*
X101754819Y-116633333D02*
X101802438Y-116490476D01*
X101802438Y-116490476D02*
X101850057Y-116442857D01*
X102754819Y-115490476D02*
X102754819Y-116061904D01*
X102754819Y-115776190D02*
X101754819Y-115776190D01*
X101754819Y-115776190D02*
X101897676Y-115871428D01*
X101897676Y-115871428D02*
X101992914Y-115966666D01*
X101992914Y-115966666D02*
X102040533Y-116061904D01*
X101850057Y-115109523D02*
X101802438Y-115061904D01*
X101802438Y-115061904D02*
X101754819Y-114966666D01*
X101754819Y-114966666D02*
X101754819Y-114728571D01*
X101754819Y-114728571D02*
X101802438Y-114633333D01*
X101802438Y-114633333D02*
X101850057Y-114585714D01*
X101850057Y-114585714D02*
X101945295Y-114538095D01*
X101945295Y-114538095D02*
X102040533Y-114538095D01*
X102040533Y-114538095D02*
X102183390Y-114585714D01*
X102183390Y-114585714D02*
X102754819Y-115157142D01*
X102754819Y-115157142D02*
X102754819Y-114538095D01*
X118011905Y-108024819D02*
X118011905Y-107024819D01*
X118011905Y-107024819D02*
X118250000Y-107024819D01*
X118250000Y-107024819D02*
X118392857Y-107072438D01*
X118392857Y-107072438D02*
X118488095Y-107167676D01*
X118488095Y-107167676D02*
X118535714Y-107262914D01*
X118535714Y-107262914D02*
X118583333Y-107453390D01*
X118583333Y-107453390D02*
X118583333Y-107596247D01*
X118583333Y-107596247D02*
X118535714Y-107786723D01*
X118535714Y-107786723D02*
X118488095Y-107881961D01*
X118488095Y-107881961D02*
X118392857Y-107977200D01*
X118392857Y-107977200D02*
X118250000Y-108024819D01*
X118250000Y-108024819D02*
X118011905Y-108024819D01*
X119440476Y-107024819D02*
X119250000Y-107024819D01*
X119250000Y-107024819D02*
X119154762Y-107072438D01*
X119154762Y-107072438D02*
X119107143Y-107120057D01*
X119107143Y-107120057D02*
X119011905Y-107262914D01*
X119011905Y-107262914D02*
X118964286Y-107453390D01*
X118964286Y-107453390D02*
X118964286Y-107834342D01*
X118964286Y-107834342D02*
X119011905Y-107929580D01*
X119011905Y-107929580D02*
X119059524Y-107977200D01*
X119059524Y-107977200D02*
X119154762Y-108024819D01*
X119154762Y-108024819D02*
X119345238Y-108024819D01*
X119345238Y-108024819D02*
X119440476Y-107977200D01*
X119440476Y-107977200D02*
X119488095Y-107929580D01*
X119488095Y-107929580D02*
X119535714Y-107834342D01*
X119535714Y-107834342D02*
X119535714Y-107596247D01*
X119535714Y-107596247D02*
X119488095Y-107501009D01*
X119488095Y-107501009D02*
X119440476Y-107453390D01*
X119440476Y-107453390D02*
X119345238Y-107405771D01*
X119345238Y-107405771D02*
X119154762Y-107405771D01*
X119154762Y-107405771D02*
X119059524Y-107453390D01*
X119059524Y-107453390D02*
X119011905Y-107501009D01*
X119011905Y-107501009D02*
X118964286Y-107596247D01*
X126754819Y-109833333D02*
X127469104Y-109833333D01*
X127469104Y-109833333D02*
X127611961Y-109880952D01*
X127611961Y-109880952D02*
X127707200Y-109976190D01*
X127707200Y-109976190D02*
X127754819Y-110119047D01*
X127754819Y-110119047D02*
X127754819Y-110214285D01*
X126754819Y-109452380D02*
X126754819Y-108833333D01*
X126754819Y-108833333D02*
X127135771Y-109166666D01*
X127135771Y-109166666D02*
X127135771Y-109023809D01*
X127135771Y-109023809D02*
X127183390Y-108928571D01*
X127183390Y-108928571D02*
X127231009Y-108880952D01*
X127231009Y-108880952D02*
X127326247Y-108833333D01*
X127326247Y-108833333D02*
X127564342Y-108833333D01*
X127564342Y-108833333D02*
X127659580Y-108880952D01*
X127659580Y-108880952D02*
X127707200Y-108928571D01*
X127707200Y-108928571D02*
X127754819Y-109023809D01*
X127754819Y-109023809D02*
X127754819Y-109309523D01*
X127754819Y-109309523D02*
X127707200Y-109404761D01*
X127707200Y-109404761D02*
X127659580Y-109452380D01*
X100704819Y-90892857D02*
X100228628Y-91226190D01*
X100704819Y-91464285D02*
X99704819Y-91464285D01*
X99704819Y-91464285D02*
X99704819Y-91083333D01*
X99704819Y-91083333D02*
X99752438Y-90988095D01*
X99752438Y-90988095D02*
X99800057Y-90940476D01*
X99800057Y-90940476D02*
X99895295Y-90892857D01*
X99895295Y-90892857D02*
X100038152Y-90892857D01*
X100038152Y-90892857D02*
X100133390Y-90940476D01*
X100133390Y-90940476D02*
X100181009Y-90988095D01*
X100181009Y-90988095D02*
X100228628Y-91083333D01*
X100228628Y-91083333D02*
X100228628Y-91464285D01*
X100704819Y-89940476D02*
X100704819Y-90511904D01*
X100704819Y-90226190D02*
X99704819Y-90226190D01*
X99704819Y-90226190D02*
X99847676Y-90321428D01*
X99847676Y-90321428D02*
X99942914Y-90416666D01*
X99942914Y-90416666D02*
X99990533Y-90511904D01*
X99800057Y-89559523D02*
X99752438Y-89511904D01*
X99752438Y-89511904D02*
X99704819Y-89416666D01*
X99704819Y-89416666D02*
X99704819Y-89178571D01*
X99704819Y-89178571D02*
X99752438Y-89083333D01*
X99752438Y-89083333D02*
X99800057Y-89035714D01*
X99800057Y-89035714D02*
X99895295Y-88988095D01*
X99895295Y-88988095D02*
X99990533Y-88988095D01*
X99990533Y-88988095D02*
X100133390Y-89035714D01*
X100133390Y-89035714D02*
X100704819Y-89607142D01*
X100704819Y-89607142D02*
X100704819Y-88988095D01*
X130529580Y-84166666D02*
X130577200Y-84214285D01*
X130577200Y-84214285D02*
X130624819Y-84357142D01*
X130624819Y-84357142D02*
X130624819Y-84452380D01*
X130624819Y-84452380D02*
X130577200Y-84595237D01*
X130577200Y-84595237D02*
X130481961Y-84690475D01*
X130481961Y-84690475D02*
X130386723Y-84738094D01*
X130386723Y-84738094D02*
X130196247Y-84785713D01*
X130196247Y-84785713D02*
X130053390Y-84785713D01*
X130053390Y-84785713D02*
X129862914Y-84738094D01*
X129862914Y-84738094D02*
X129767676Y-84690475D01*
X129767676Y-84690475D02*
X129672438Y-84595237D01*
X129672438Y-84595237D02*
X129624819Y-84452380D01*
X129624819Y-84452380D02*
X129624819Y-84357142D01*
X129624819Y-84357142D02*
X129672438Y-84214285D01*
X129672438Y-84214285D02*
X129720057Y-84166666D01*
X129624819Y-83261904D02*
X129624819Y-83738094D01*
X129624819Y-83738094D02*
X130101009Y-83785713D01*
X130101009Y-83785713D02*
X130053390Y-83738094D01*
X130053390Y-83738094D02*
X130005771Y-83642856D01*
X130005771Y-83642856D02*
X130005771Y-83404761D01*
X130005771Y-83404761D02*
X130053390Y-83309523D01*
X130053390Y-83309523D02*
X130101009Y-83261904D01*
X130101009Y-83261904D02*
X130196247Y-83214285D01*
X130196247Y-83214285D02*
X130434342Y-83214285D01*
X130434342Y-83214285D02*
X130529580Y-83261904D01*
X130529580Y-83261904D02*
X130577200Y-83309523D01*
X130577200Y-83309523D02*
X130624819Y-83404761D01*
X130624819Y-83404761D02*
X130624819Y-83642856D01*
X130624819Y-83642856D02*
X130577200Y-83738094D01*
X130577200Y-83738094D02*
X130529580Y-83785713D01*
X90916666Y-107854819D02*
X90916666Y-108569104D01*
X90916666Y-108569104D02*
X90869047Y-108711961D01*
X90869047Y-108711961D02*
X90773809Y-108807200D01*
X90773809Y-108807200D02*
X90630952Y-108854819D01*
X90630952Y-108854819D02*
X90535714Y-108854819D01*
X91869047Y-107854819D02*
X91392857Y-107854819D01*
X91392857Y-107854819D02*
X91345238Y-108331009D01*
X91345238Y-108331009D02*
X91392857Y-108283390D01*
X91392857Y-108283390D02*
X91488095Y-108235771D01*
X91488095Y-108235771D02*
X91726190Y-108235771D01*
X91726190Y-108235771D02*
X91821428Y-108283390D01*
X91821428Y-108283390D02*
X91869047Y-108331009D01*
X91869047Y-108331009D02*
X91916666Y-108426247D01*
X91916666Y-108426247D02*
X91916666Y-108664342D01*
X91916666Y-108664342D02*
X91869047Y-108759580D01*
X91869047Y-108759580D02*
X91821428Y-108807200D01*
X91821428Y-108807200D02*
X91726190Y-108854819D01*
X91726190Y-108854819D02*
X91488095Y-108854819D01*
X91488095Y-108854819D02*
X91392857Y-108807200D01*
X91392857Y-108807200D02*
X91345238Y-108759580D01*
X124124819Y-87990357D02*
X123648628Y-88323690D01*
X124124819Y-88561785D02*
X123124819Y-88561785D01*
X123124819Y-88561785D02*
X123124819Y-88180833D01*
X123124819Y-88180833D02*
X123172438Y-88085595D01*
X123172438Y-88085595D02*
X123220057Y-88037976D01*
X123220057Y-88037976D02*
X123315295Y-87990357D01*
X123315295Y-87990357D02*
X123458152Y-87990357D01*
X123458152Y-87990357D02*
X123553390Y-88037976D01*
X123553390Y-88037976D02*
X123601009Y-88085595D01*
X123601009Y-88085595D02*
X123648628Y-88180833D01*
X123648628Y-88180833D02*
X123648628Y-88561785D01*
X124124819Y-87037976D02*
X124124819Y-87609404D01*
X124124819Y-87323690D02*
X123124819Y-87323690D01*
X123124819Y-87323690D02*
X123267676Y-87418928D01*
X123267676Y-87418928D02*
X123362914Y-87514166D01*
X123362914Y-87514166D02*
X123410533Y-87609404D01*
X124124819Y-86085595D02*
X124124819Y-86657023D01*
X124124819Y-86371309D02*
X123124819Y-86371309D01*
X123124819Y-86371309D02*
X123267676Y-86466547D01*
X123267676Y-86466547D02*
X123362914Y-86561785D01*
X123362914Y-86561785D02*
X123410533Y-86657023D01*
X107638095Y-115734819D02*
X107638095Y-116544342D01*
X107638095Y-116544342D02*
X107685714Y-116639580D01*
X107685714Y-116639580D02*
X107733333Y-116687200D01*
X107733333Y-116687200D02*
X107828571Y-116734819D01*
X107828571Y-116734819D02*
X108019047Y-116734819D01*
X108019047Y-116734819D02*
X108114285Y-116687200D01*
X108114285Y-116687200D02*
X108161904Y-116639580D01*
X108161904Y-116639580D02*
X108209523Y-116544342D01*
X108209523Y-116544342D02*
X108209523Y-115734819D01*
X108590476Y-115734819D02*
X109209523Y-115734819D01*
X109209523Y-115734819D02*
X108876190Y-116115771D01*
X108876190Y-116115771D02*
X109019047Y-116115771D01*
X109019047Y-116115771D02*
X109114285Y-116163390D01*
X109114285Y-116163390D02*
X109161904Y-116211009D01*
X109161904Y-116211009D02*
X109209523Y-116306247D01*
X109209523Y-116306247D02*
X109209523Y-116544342D01*
X109209523Y-116544342D02*
X109161904Y-116639580D01*
X109161904Y-116639580D02*
X109114285Y-116687200D01*
X109114285Y-116687200D02*
X109019047Y-116734819D01*
X109019047Y-116734819D02*
X108733333Y-116734819D01*
X108733333Y-116734819D02*
X108638095Y-116687200D01*
X108638095Y-116687200D02*
X108590476Y-116639580D01*
X94607142Y-87109580D02*
X94559523Y-87157200D01*
X94559523Y-87157200D02*
X94416666Y-87204819D01*
X94416666Y-87204819D02*
X94321428Y-87204819D01*
X94321428Y-87204819D02*
X94178571Y-87157200D01*
X94178571Y-87157200D02*
X94083333Y-87061961D01*
X94083333Y-87061961D02*
X94035714Y-86966723D01*
X94035714Y-86966723D02*
X93988095Y-86776247D01*
X93988095Y-86776247D02*
X93988095Y-86633390D01*
X93988095Y-86633390D02*
X94035714Y-86442914D01*
X94035714Y-86442914D02*
X94083333Y-86347676D01*
X94083333Y-86347676D02*
X94178571Y-86252438D01*
X94178571Y-86252438D02*
X94321428Y-86204819D01*
X94321428Y-86204819D02*
X94416666Y-86204819D01*
X94416666Y-86204819D02*
X94559523Y-86252438D01*
X94559523Y-86252438D02*
X94607142Y-86300057D01*
X95559523Y-87204819D02*
X94988095Y-87204819D01*
X95273809Y-87204819D02*
X95273809Y-86204819D01*
X95273809Y-86204819D02*
X95178571Y-86347676D01*
X95178571Y-86347676D02*
X95083333Y-86442914D01*
X95083333Y-86442914D02*
X94988095Y-86490533D01*
X96464285Y-86204819D02*
X95988095Y-86204819D01*
X95988095Y-86204819D02*
X95940476Y-86681009D01*
X95940476Y-86681009D02*
X95988095Y-86633390D01*
X95988095Y-86633390D02*
X96083333Y-86585771D01*
X96083333Y-86585771D02*
X96321428Y-86585771D01*
X96321428Y-86585771D02*
X96416666Y-86633390D01*
X96416666Y-86633390D02*
X96464285Y-86681009D01*
X96464285Y-86681009D02*
X96511904Y-86776247D01*
X96511904Y-86776247D02*
X96511904Y-87014342D01*
X96511904Y-87014342D02*
X96464285Y-87109580D01*
X96464285Y-87109580D02*
X96416666Y-87157200D01*
X96416666Y-87157200D02*
X96321428Y-87204819D01*
X96321428Y-87204819D02*
X96083333Y-87204819D01*
X96083333Y-87204819D02*
X95988095Y-87157200D01*
X95988095Y-87157200D02*
X95940476Y-87109580D01*
X121833333Y-113609580D02*
X121785714Y-113657200D01*
X121785714Y-113657200D02*
X121642857Y-113704819D01*
X121642857Y-113704819D02*
X121547619Y-113704819D01*
X121547619Y-113704819D02*
X121404762Y-113657200D01*
X121404762Y-113657200D02*
X121309524Y-113561961D01*
X121309524Y-113561961D02*
X121261905Y-113466723D01*
X121261905Y-113466723D02*
X121214286Y-113276247D01*
X121214286Y-113276247D02*
X121214286Y-113133390D01*
X121214286Y-113133390D02*
X121261905Y-112942914D01*
X121261905Y-112942914D02*
X121309524Y-112847676D01*
X121309524Y-112847676D02*
X121404762Y-112752438D01*
X121404762Y-112752438D02*
X121547619Y-112704819D01*
X121547619Y-112704819D02*
X121642857Y-112704819D01*
X121642857Y-112704819D02*
X121785714Y-112752438D01*
X121785714Y-112752438D02*
X121833333Y-112800057D01*
X122166667Y-112704819D02*
X122785714Y-112704819D01*
X122785714Y-112704819D02*
X122452381Y-113085771D01*
X122452381Y-113085771D02*
X122595238Y-113085771D01*
X122595238Y-113085771D02*
X122690476Y-113133390D01*
X122690476Y-113133390D02*
X122738095Y-113181009D01*
X122738095Y-113181009D02*
X122785714Y-113276247D01*
X122785714Y-113276247D02*
X122785714Y-113514342D01*
X122785714Y-113514342D02*
X122738095Y-113609580D01*
X122738095Y-113609580D02*
X122690476Y-113657200D01*
X122690476Y-113657200D02*
X122595238Y-113704819D01*
X122595238Y-113704819D02*
X122309524Y-113704819D01*
X122309524Y-113704819D02*
X122214286Y-113657200D01*
X122214286Y-113657200D02*
X122166667Y-113609580D01*
X114737319Y-92881904D02*
X115546842Y-92881904D01*
X115546842Y-92881904D02*
X115642080Y-92834285D01*
X115642080Y-92834285D02*
X115689700Y-92786666D01*
X115689700Y-92786666D02*
X115737319Y-92691428D01*
X115737319Y-92691428D02*
X115737319Y-92500952D01*
X115737319Y-92500952D02*
X115689700Y-92405714D01*
X115689700Y-92405714D02*
X115642080Y-92358095D01*
X115642080Y-92358095D02*
X115546842Y-92310476D01*
X115546842Y-92310476D02*
X114737319Y-92310476D01*
X115165890Y-91691428D02*
X115118271Y-91786666D01*
X115118271Y-91786666D02*
X115070652Y-91834285D01*
X115070652Y-91834285D02*
X114975414Y-91881904D01*
X114975414Y-91881904D02*
X114927795Y-91881904D01*
X114927795Y-91881904D02*
X114832557Y-91834285D01*
X114832557Y-91834285D02*
X114784938Y-91786666D01*
X114784938Y-91786666D02*
X114737319Y-91691428D01*
X114737319Y-91691428D02*
X114737319Y-91500952D01*
X114737319Y-91500952D02*
X114784938Y-91405714D01*
X114784938Y-91405714D02*
X114832557Y-91358095D01*
X114832557Y-91358095D02*
X114927795Y-91310476D01*
X114927795Y-91310476D02*
X114975414Y-91310476D01*
X114975414Y-91310476D02*
X115070652Y-91358095D01*
X115070652Y-91358095D02*
X115118271Y-91405714D01*
X115118271Y-91405714D02*
X115165890Y-91500952D01*
X115165890Y-91500952D02*
X115165890Y-91691428D01*
X115165890Y-91691428D02*
X115213509Y-91786666D01*
X115213509Y-91786666D02*
X115261128Y-91834285D01*
X115261128Y-91834285D02*
X115356366Y-91881904D01*
X115356366Y-91881904D02*
X115546842Y-91881904D01*
X115546842Y-91881904D02*
X115642080Y-91834285D01*
X115642080Y-91834285D02*
X115689700Y-91786666D01*
X115689700Y-91786666D02*
X115737319Y-91691428D01*
X115737319Y-91691428D02*
X115737319Y-91500952D01*
X115737319Y-91500952D02*
X115689700Y-91405714D01*
X115689700Y-91405714D02*
X115642080Y-91358095D01*
X115642080Y-91358095D02*
X115546842Y-91310476D01*
X115546842Y-91310476D02*
X115356366Y-91310476D01*
X115356366Y-91310476D02*
X115261128Y-91358095D01*
X115261128Y-91358095D02*
X115213509Y-91405714D01*
X115213509Y-91405714D02*
X115165890Y-91500952D01*
X117023809Y-114728628D02*
X117023809Y-115204819D01*
X116690476Y-114204819D02*
X117023809Y-114728628D01*
X117023809Y-114728628D02*
X117357142Y-114204819D01*
X118214285Y-115204819D02*
X117642857Y-115204819D01*
X117928571Y-115204819D02*
X117928571Y-114204819D01*
X117928571Y-114204819D02*
X117833333Y-114347676D01*
X117833333Y-114347676D02*
X117738095Y-114442914D01*
X117738095Y-114442914D02*
X117642857Y-114490533D01*
X113082142Y-90269580D02*
X113034523Y-90317200D01*
X113034523Y-90317200D02*
X112891666Y-90364819D01*
X112891666Y-90364819D02*
X112796428Y-90364819D01*
X112796428Y-90364819D02*
X112653571Y-90317200D01*
X112653571Y-90317200D02*
X112558333Y-90221961D01*
X112558333Y-90221961D02*
X112510714Y-90126723D01*
X112510714Y-90126723D02*
X112463095Y-89936247D01*
X112463095Y-89936247D02*
X112463095Y-89793390D01*
X112463095Y-89793390D02*
X112510714Y-89602914D01*
X112510714Y-89602914D02*
X112558333Y-89507676D01*
X112558333Y-89507676D02*
X112653571Y-89412438D01*
X112653571Y-89412438D02*
X112796428Y-89364819D01*
X112796428Y-89364819D02*
X112891666Y-89364819D01*
X112891666Y-89364819D02*
X113034523Y-89412438D01*
X113034523Y-89412438D02*
X113082142Y-89460057D01*
X114034523Y-90364819D02*
X113463095Y-90364819D01*
X113748809Y-90364819D02*
X113748809Y-89364819D01*
X113748809Y-89364819D02*
X113653571Y-89507676D01*
X113653571Y-89507676D02*
X113558333Y-89602914D01*
X113558333Y-89602914D02*
X113463095Y-89650533D01*
X114510714Y-90364819D02*
X114701190Y-90364819D01*
X114701190Y-90364819D02*
X114796428Y-90317200D01*
X114796428Y-90317200D02*
X114844047Y-90269580D01*
X114844047Y-90269580D02*
X114939285Y-90126723D01*
X114939285Y-90126723D02*
X114986904Y-89936247D01*
X114986904Y-89936247D02*
X114986904Y-89555295D01*
X114986904Y-89555295D02*
X114939285Y-89460057D01*
X114939285Y-89460057D02*
X114891666Y-89412438D01*
X114891666Y-89412438D02*
X114796428Y-89364819D01*
X114796428Y-89364819D02*
X114605952Y-89364819D01*
X114605952Y-89364819D02*
X114510714Y-89412438D01*
X114510714Y-89412438D02*
X114463095Y-89460057D01*
X114463095Y-89460057D02*
X114415476Y-89555295D01*
X114415476Y-89555295D02*
X114415476Y-89793390D01*
X114415476Y-89793390D02*
X114463095Y-89888628D01*
X114463095Y-89888628D02*
X114510714Y-89936247D01*
X114510714Y-89936247D02*
X114605952Y-89983866D01*
X114605952Y-89983866D02*
X114796428Y-89983866D01*
X114796428Y-89983866D02*
X114891666Y-89936247D01*
X114891666Y-89936247D02*
X114939285Y-89888628D01*
X114939285Y-89888628D02*
X114986904Y-89793390D01*
X109832142Y-87109580D02*
X109784523Y-87157200D01*
X109784523Y-87157200D02*
X109641666Y-87204819D01*
X109641666Y-87204819D02*
X109546428Y-87204819D01*
X109546428Y-87204819D02*
X109403571Y-87157200D01*
X109403571Y-87157200D02*
X109308333Y-87061961D01*
X109308333Y-87061961D02*
X109260714Y-86966723D01*
X109260714Y-86966723D02*
X109213095Y-86776247D01*
X109213095Y-86776247D02*
X109213095Y-86633390D01*
X109213095Y-86633390D02*
X109260714Y-86442914D01*
X109260714Y-86442914D02*
X109308333Y-86347676D01*
X109308333Y-86347676D02*
X109403571Y-86252438D01*
X109403571Y-86252438D02*
X109546428Y-86204819D01*
X109546428Y-86204819D02*
X109641666Y-86204819D01*
X109641666Y-86204819D02*
X109784523Y-86252438D01*
X109784523Y-86252438D02*
X109832142Y-86300057D01*
X110213095Y-86300057D02*
X110260714Y-86252438D01*
X110260714Y-86252438D02*
X110355952Y-86204819D01*
X110355952Y-86204819D02*
X110594047Y-86204819D01*
X110594047Y-86204819D02*
X110689285Y-86252438D01*
X110689285Y-86252438D02*
X110736904Y-86300057D01*
X110736904Y-86300057D02*
X110784523Y-86395295D01*
X110784523Y-86395295D02*
X110784523Y-86490533D01*
X110784523Y-86490533D02*
X110736904Y-86633390D01*
X110736904Y-86633390D02*
X110165476Y-87204819D01*
X110165476Y-87204819D02*
X110784523Y-87204819D01*
X111736904Y-87204819D02*
X111165476Y-87204819D01*
X111451190Y-87204819D02*
X111451190Y-86204819D01*
X111451190Y-86204819D02*
X111355952Y-86347676D01*
X111355952Y-86347676D02*
X111260714Y-86442914D01*
X111260714Y-86442914D02*
X111165476Y-86490533D01*
X118583333Y-86789580D02*
X118535714Y-86837200D01*
X118535714Y-86837200D02*
X118392857Y-86884819D01*
X118392857Y-86884819D02*
X118297619Y-86884819D01*
X118297619Y-86884819D02*
X118154762Y-86837200D01*
X118154762Y-86837200D02*
X118059524Y-86741961D01*
X118059524Y-86741961D02*
X118011905Y-86646723D01*
X118011905Y-86646723D02*
X117964286Y-86456247D01*
X117964286Y-86456247D02*
X117964286Y-86313390D01*
X117964286Y-86313390D02*
X118011905Y-86122914D01*
X118011905Y-86122914D02*
X118059524Y-86027676D01*
X118059524Y-86027676D02*
X118154762Y-85932438D01*
X118154762Y-85932438D02*
X118297619Y-85884819D01*
X118297619Y-85884819D02*
X118392857Y-85884819D01*
X118392857Y-85884819D02*
X118535714Y-85932438D01*
X118535714Y-85932438D02*
X118583333Y-85980057D01*
X119059524Y-86884819D02*
X119250000Y-86884819D01*
X119250000Y-86884819D02*
X119345238Y-86837200D01*
X119345238Y-86837200D02*
X119392857Y-86789580D01*
X119392857Y-86789580D02*
X119488095Y-86646723D01*
X119488095Y-86646723D02*
X119535714Y-86456247D01*
X119535714Y-86456247D02*
X119535714Y-86075295D01*
X119535714Y-86075295D02*
X119488095Y-85980057D01*
X119488095Y-85980057D02*
X119440476Y-85932438D01*
X119440476Y-85932438D02*
X119345238Y-85884819D01*
X119345238Y-85884819D02*
X119154762Y-85884819D01*
X119154762Y-85884819D02*
X119059524Y-85932438D01*
X119059524Y-85932438D02*
X119011905Y-85980057D01*
X119011905Y-85980057D02*
X118964286Y-86075295D01*
X118964286Y-86075295D02*
X118964286Y-86313390D01*
X118964286Y-86313390D02*
X119011905Y-86408628D01*
X119011905Y-86408628D02*
X119059524Y-86456247D01*
X119059524Y-86456247D02*
X119154762Y-86503866D01*
X119154762Y-86503866D02*
X119345238Y-86503866D01*
X119345238Y-86503866D02*
X119440476Y-86456247D01*
X119440476Y-86456247D02*
X119488095Y-86408628D01*
X119488095Y-86408628D02*
X119535714Y-86313390D01*
X114359580Y-103810357D02*
X114407200Y-103857976D01*
X114407200Y-103857976D02*
X114454819Y-104000833D01*
X114454819Y-104000833D02*
X114454819Y-104096071D01*
X114454819Y-104096071D02*
X114407200Y-104238928D01*
X114407200Y-104238928D02*
X114311961Y-104334166D01*
X114311961Y-104334166D02*
X114216723Y-104381785D01*
X114216723Y-104381785D02*
X114026247Y-104429404D01*
X114026247Y-104429404D02*
X113883390Y-104429404D01*
X113883390Y-104429404D02*
X113692914Y-104381785D01*
X113692914Y-104381785D02*
X113597676Y-104334166D01*
X113597676Y-104334166D02*
X113502438Y-104238928D01*
X113502438Y-104238928D02*
X113454819Y-104096071D01*
X113454819Y-104096071D02*
X113454819Y-104000833D01*
X113454819Y-104000833D02*
X113502438Y-103857976D01*
X113502438Y-103857976D02*
X113550057Y-103810357D01*
X113550057Y-103429404D02*
X113502438Y-103381785D01*
X113502438Y-103381785D02*
X113454819Y-103286547D01*
X113454819Y-103286547D02*
X113454819Y-103048452D01*
X113454819Y-103048452D02*
X113502438Y-102953214D01*
X113502438Y-102953214D02*
X113550057Y-102905595D01*
X113550057Y-102905595D02*
X113645295Y-102857976D01*
X113645295Y-102857976D02*
X113740533Y-102857976D01*
X113740533Y-102857976D02*
X113883390Y-102905595D01*
X113883390Y-102905595D02*
X114454819Y-103477023D01*
X114454819Y-103477023D02*
X114454819Y-102857976D01*
X113454819Y-102524642D02*
X113454819Y-101905595D01*
X113454819Y-101905595D02*
X113835771Y-102238928D01*
X113835771Y-102238928D02*
X113835771Y-102096071D01*
X113835771Y-102096071D02*
X113883390Y-102000833D01*
X113883390Y-102000833D02*
X113931009Y-101953214D01*
X113931009Y-101953214D02*
X114026247Y-101905595D01*
X114026247Y-101905595D02*
X114264342Y-101905595D01*
X114264342Y-101905595D02*
X114359580Y-101953214D01*
X114359580Y-101953214D02*
X114407200Y-102000833D01*
X114407200Y-102000833D02*
X114454819Y-102096071D01*
X114454819Y-102096071D02*
X114454819Y-102381785D01*
X114454819Y-102381785D02*
X114407200Y-102477023D01*
X114407200Y-102477023D02*
X114359580Y-102524642D01*
X100916666Y-117054819D02*
X100916666Y-117769104D01*
X100916666Y-117769104D02*
X100869047Y-117911961D01*
X100869047Y-117911961D02*
X100773809Y-118007200D01*
X100773809Y-118007200D02*
X100630952Y-118054819D01*
X100630952Y-118054819D02*
X100535714Y-118054819D01*
X101821428Y-117388152D02*
X101821428Y-118054819D01*
X101583333Y-117007200D02*
X101345238Y-117721485D01*
X101345238Y-117721485D02*
X101964285Y-117721485D01*
X130083333Y-102704819D02*
X129750000Y-102228628D01*
X129511905Y-102704819D02*
X129511905Y-101704819D01*
X129511905Y-101704819D02*
X129892857Y-101704819D01*
X129892857Y-101704819D02*
X129988095Y-101752438D01*
X129988095Y-101752438D02*
X130035714Y-101800057D01*
X130035714Y-101800057D02*
X130083333Y-101895295D01*
X130083333Y-101895295D02*
X130083333Y-102038152D01*
X130083333Y-102038152D02*
X130035714Y-102133390D01*
X130035714Y-102133390D02*
X129988095Y-102181009D01*
X129988095Y-102181009D02*
X129892857Y-102228628D01*
X129892857Y-102228628D02*
X129511905Y-102228628D01*
X130559524Y-102704819D02*
X130750000Y-102704819D01*
X130750000Y-102704819D02*
X130845238Y-102657200D01*
X130845238Y-102657200D02*
X130892857Y-102609580D01*
X130892857Y-102609580D02*
X130988095Y-102466723D01*
X130988095Y-102466723D02*
X131035714Y-102276247D01*
X131035714Y-102276247D02*
X131035714Y-101895295D01*
X131035714Y-101895295D02*
X130988095Y-101800057D01*
X130988095Y-101800057D02*
X130940476Y-101752438D01*
X130940476Y-101752438D02*
X130845238Y-101704819D01*
X130845238Y-101704819D02*
X130654762Y-101704819D01*
X130654762Y-101704819D02*
X130559524Y-101752438D01*
X130559524Y-101752438D02*
X130511905Y-101800057D01*
X130511905Y-101800057D02*
X130464286Y-101895295D01*
X130464286Y-101895295D02*
X130464286Y-102133390D01*
X130464286Y-102133390D02*
X130511905Y-102228628D01*
X130511905Y-102228628D02*
X130559524Y-102276247D01*
X130559524Y-102276247D02*
X130654762Y-102323866D01*
X130654762Y-102323866D02*
X130845238Y-102323866D01*
X130845238Y-102323866D02*
X130940476Y-102276247D01*
X130940476Y-102276247D02*
X130988095Y-102228628D01*
X130988095Y-102228628D02*
X131035714Y-102133390D01*
X114454819Y-79238094D02*
X113454819Y-79238094D01*
X113454819Y-79238094D02*
X113454819Y-78999999D01*
X113454819Y-78999999D02*
X113502438Y-78857142D01*
X113502438Y-78857142D02*
X113597676Y-78761904D01*
X113597676Y-78761904D02*
X113692914Y-78714285D01*
X113692914Y-78714285D02*
X113883390Y-78666666D01*
X113883390Y-78666666D02*
X114026247Y-78666666D01*
X114026247Y-78666666D02*
X114216723Y-78714285D01*
X114216723Y-78714285D02*
X114311961Y-78761904D01*
X114311961Y-78761904D02*
X114407200Y-78857142D01*
X114407200Y-78857142D02*
X114454819Y-78999999D01*
X114454819Y-78999999D02*
X114454819Y-79238094D01*
X113550057Y-78285713D02*
X113502438Y-78238094D01*
X113502438Y-78238094D02*
X113454819Y-78142856D01*
X113454819Y-78142856D02*
X113454819Y-77904761D01*
X113454819Y-77904761D02*
X113502438Y-77809523D01*
X113502438Y-77809523D02*
X113550057Y-77761904D01*
X113550057Y-77761904D02*
X113645295Y-77714285D01*
X113645295Y-77714285D02*
X113740533Y-77714285D01*
X113740533Y-77714285D02*
X113883390Y-77761904D01*
X113883390Y-77761904D02*
X114454819Y-78333332D01*
X114454819Y-78333332D02*
X114454819Y-77714285D01*
X99333333Y-116204819D02*
X99000000Y-115728628D01*
X98761905Y-116204819D02*
X98761905Y-115204819D01*
X98761905Y-115204819D02*
X99142857Y-115204819D01*
X99142857Y-115204819D02*
X99238095Y-115252438D01*
X99238095Y-115252438D02*
X99285714Y-115300057D01*
X99285714Y-115300057D02*
X99333333Y-115395295D01*
X99333333Y-115395295D02*
X99333333Y-115538152D01*
X99333333Y-115538152D02*
X99285714Y-115633390D01*
X99285714Y-115633390D02*
X99238095Y-115681009D01*
X99238095Y-115681009D02*
X99142857Y-115728628D01*
X99142857Y-115728628D02*
X98761905Y-115728628D01*
X99714286Y-115300057D02*
X99761905Y-115252438D01*
X99761905Y-115252438D02*
X99857143Y-115204819D01*
X99857143Y-115204819D02*
X100095238Y-115204819D01*
X100095238Y-115204819D02*
X100190476Y-115252438D01*
X100190476Y-115252438D02*
X100238095Y-115300057D01*
X100238095Y-115300057D02*
X100285714Y-115395295D01*
X100285714Y-115395295D02*
X100285714Y-115490533D01*
X100285714Y-115490533D02*
X100238095Y-115633390D01*
X100238095Y-115633390D02*
X99666667Y-116204819D01*
X99666667Y-116204819D02*
X100285714Y-116204819D01*
X119954819Y-88738094D02*
X118954819Y-88738094D01*
X118954819Y-88738094D02*
X118954819Y-88499999D01*
X118954819Y-88499999D02*
X119002438Y-88357142D01*
X119002438Y-88357142D02*
X119097676Y-88261904D01*
X119097676Y-88261904D02*
X119192914Y-88214285D01*
X119192914Y-88214285D02*
X119383390Y-88166666D01*
X119383390Y-88166666D02*
X119526247Y-88166666D01*
X119526247Y-88166666D02*
X119716723Y-88214285D01*
X119716723Y-88214285D02*
X119811961Y-88261904D01*
X119811961Y-88261904D02*
X119907200Y-88357142D01*
X119907200Y-88357142D02*
X119954819Y-88499999D01*
X119954819Y-88499999D02*
X119954819Y-88738094D01*
X119288152Y-87309523D02*
X119954819Y-87309523D01*
X118907200Y-87547618D02*
X119621485Y-87785713D01*
X119621485Y-87785713D02*
X119621485Y-87166666D01*
X117083333Y-103624819D02*
X116750000Y-103148628D01*
X116511905Y-103624819D02*
X116511905Y-102624819D01*
X116511905Y-102624819D02*
X116892857Y-102624819D01*
X116892857Y-102624819D02*
X116988095Y-102672438D01*
X116988095Y-102672438D02*
X117035714Y-102720057D01*
X117035714Y-102720057D02*
X117083333Y-102815295D01*
X117083333Y-102815295D02*
X117083333Y-102958152D01*
X117083333Y-102958152D02*
X117035714Y-103053390D01*
X117035714Y-103053390D02*
X116988095Y-103101009D01*
X116988095Y-103101009D02*
X116892857Y-103148628D01*
X116892857Y-103148628D02*
X116511905Y-103148628D01*
X117654762Y-103053390D02*
X117559524Y-103005771D01*
X117559524Y-103005771D02*
X117511905Y-102958152D01*
X117511905Y-102958152D02*
X117464286Y-102862914D01*
X117464286Y-102862914D02*
X117464286Y-102815295D01*
X117464286Y-102815295D02*
X117511905Y-102720057D01*
X117511905Y-102720057D02*
X117559524Y-102672438D01*
X117559524Y-102672438D02*
X117654762Y-102624819D01*
X117654762Y-102624819D02*
X117845238Y-102624819D01*
X117845238Y-102624819D02*
X117940476Y-102672438D01*
X117940476Y-102672438D02*
X117988095Y-102720057D01*
X117988095Y-102720057D02*
X118035714Y-102815295D01*
X118035714Y-102815295D02*
X118035714Y-102862914D01*
X118035714Y-102862914D02*
X117988095Y-102958152D01*
X117988095Y-102958152D02*
X117940476Y-103005771D01*
X117940476Y-103005771D02*
X117845238Y-103053390D01*
X117845238Y-103053390D02*
X117654762Y-103053390D01*
X117654762Y-103053390D02*
X117559524Y-103101009D01*
X117559524Y-103101009D02*
X117511905Y-103148628D01*
X117511905Y-103148628D02*
X117464286Y-103243866D01*
X117464286Y-103243866D02*
X117464286Y-103434342D01*
X117464286Y-103434342D02*
X117511905Y-103529580D01*
X117511905Y-103529580D02*
X117559524Y-103577200D01*
X117559524Y-103577200D02*
X117654762Y-103624819D01*
X117654762Y-103624819D02*
X117845238Y-103624819D01*
X117845238Y-103624819D02*
X117940476Y-103577200D01*
X117940476Y-103577200D02*
X117988095Y-103529580D01*
X117988095Y-103529580D02*
X118035714Y-103434342D01*
X118035714Y-103434342D02*
X118035714Y-103243866D01*
X118035714Y-103243866D02*
X117988095Y-103148628D01*
X117988095Y-103148628D02*
X117940476Y-103101009D01*
X117940476Y-103101009D02*
X117845238Y-103053390D01*
X115333333Y-114204819D02*
X115000000Y-113728628D01*
X114761905Y-114204819D02*
X114761905Y-113204819D01*
X114761905Y-113204819D02*
X115142857Y-113204819D01*
X115142857Y-113204819D02*
X115238095Y-113252438D01*
X115238095Y-113252438D02*
X115285714Y-113300057D01*
X115285714Y-113300057D02*
X115333333Y-113395295D01*
X115333333Y-113395295D02*
X115333333Y-113538152D01*
X115333333Y-113538152D02*
X115285714Y-113633390D01*
X115285714Y-113633390D02*
X115238095Y-113681009D01*
X115238095Y-113681009D02*
X115142857Y-113728628D01*
X115142857Y-113728628D02*
X114761905Y-113728628D01*
X116190476Y-113204819D02*
X116000000Y-113204819D01*
X116000000Y-113204819D02*
X115904762Y-113252438D01*
X115904762Y-113252438D02*
X115857143Y-113300057D01*
X115857143Y-113300057D02*
X115761905Y-113442914D01*
X115761905Y-113442914D02*
X115714286Y-113633390D01*
X115714286Y-113633390D02*
X115714286Y-114014342D01*
X115714286Y-114014342D02*
X115761905Y-114109580D01*
X115761905Y-114109580D02*
X115809524Y-114157200D01*
X115809524Y-114157200D02*
X115904762Y-114204819D01*
X115904762Y-114204819D02*
X116095238Y-114204819D01*
X116095238Y-114204819D02*
X116190476Y-114157200D01*
X116190476Y-114157200D02*
X116238095Y-114109580D01*
X116238095Y-114109580D02*
X116285714Y-114014342D01*
X116285714Y-114014342D02*
X116285714Y-113776247D01*
X116285714Y-113776247D02*
X116238095Y-113681009D01*
X116238095Y-113681009D02*
X116190476Y-113633390D01*
X116190476Y-113633390D02*
X116095238Y-113585771D01*
X116095238Y-113585771D02*
X115904762Y-113585771D01*
X115904762Y-113585771D02*
X115809524Y-113633390D01*
X115809524Y-113633390D02*
X115761905Y-113681009D01*
X115761905Y-113681009D02*
X115714286Y-113776247D01*
X115609580Y-103560357D02*
X115657200Y-103607976D01*
X115657200Y-103607976D02*
X115704819Y-103750833D01*
X115704819Y-103750833D02*
X115704819Y-103846071D01*
X115704819Y-103846071D02*
X115657200Y-103988928D01*
X115657200Y-103988928D02*
X115561961Y-104084166D01*
X115561961Y-104084166D02*
X115466723Y-104131785D01*
X115466723Y-104131785D02*
X115276247Y-104179404D01*
X115276247Y-104179404D02*
X115133390Y-104179404D01*
X115133390Y-104179404D02*
X114942914Y-104131785D01*
X114942914Y-104131785D02*
X114847676Y-104084166D01*
X114847676Y-104084166D02*
X114752438Y-103988928D01*
X114752438Y-103988928D02*
X114704819Y-103846071D01*
X114704819Y-103846071D02*
X114704819Y-103750833D01*
X114704819Y-103750833D02*
X114752438Y-103607976D01*
X114752438Y-103607976D02*
X114800057Y-103560357D01*
X114800057Y-103179404D02*
X114752438Y-103131785D01*
X114752438Y-103131785D02*
X114704819Y-103036547D01*
X114704819Y-103036547D02*
X114704819Y-102798452D01*
X114704819Y-102798452D02*
X114752438Y-102703214D01*
X114752438Y-102703214D02*
X114800057Y-102655595D01*
X114800057Y-102655595D02*
X114895295Y-102607976D01*
X114895295Y-102607976D02*
X114990533Y-102607976D01*
X114990533Y-102607976D02*
X115133390Y-102655595D01*
X115133390Y-102655595D02*
X115704819Y-103227023D01*
X115704819Y-103227023D02*
X115704819Y-102607976D01*
X115038152Y-101750833D02*
X115704819Y-101750833D01*
X114657200Y-101988928D02*
X115371485Y-102227023D01*
X115371485Y-102227023D02*
X115371485Y-101607976D01*
X105151666Y-89511009D02*
X104818333Y-89511009D01*
X104818333Y-90034819D02*
X104818333Y-89034819D01*
X104818333Y-89034819D02*
X105294523Y-89034819D01*
X106008809Y-89511009D02*
X106151666Y-89558628D01*
X106151666Y-89558628D02*
X106199285Y-89606247D01*
X106199285Y-89606247D02*
X106246904Y-89701485D01*
X106246904Y-89701485D02*
X106246904Y-89844342D01*
X106246904Y-89844342D02*
X106199285Y-89939580D01*
X106199285Y-89939580D02*
X106151666Y-89987200D01*
X106151666Y-89987200D02*
X106056428Y-90034819D01*
X106056428Y-90034819D02*
X105675476Y-90034819D01*
X105675476Y-90034819D02*
X105675476Y-89034819D01*
X105675476Y-89034819D02*
X106008809Y-89034819D01*
X106008809Y-89034819D02*
X106104047Y-89082438D01*
X106104047Y-89082438D02*
X106151666Y-89130057D01*
X106151666Y-89130057D02*
X106199285Y-89225295D01*
X106199285Y-89225295D02*
X106199285Y-89320533D01*
X106199285Y-89320533D02*
X106151666Y-89415771D01*
X106151666Y-89415771D02*
X106104047Y-89463390D01*
X106104047Y-89463390D02*
X106008809Y-89511009D01*
X106008809Y-89511009D02*
X105675476Y-89511009D01*
X107199285Y-90034819D02*
X106627857Y-90034819D01*
X106913571Y-90034819D02*
X106913571Y-89034819D01*
X106913571Y-89034819D02*
X106818333Y-89177676D01*
X106818333Y-89177676D02*
X106723095Y-89272914D01*
X106723095Y-89272914D02*
X106627857Y-89320533D01*
X114247142Y-97284580D02*
X114199523Y-97332200D01*
X114199523Y-97332200D02*
X114056666Y-97379819D01*
X114056666Y-97379819D02*
X113961428Y-97379819D01*
X113961428Y-97379819D02*
X113818571Y-97332200D01*
X113818571Y-97332200D02*
X113723333Y-97236961D01*
X113723333Y-97236961D02*
X113675714Y-97141723D01*
X113675714Y-97141723D02*
X113628095Y-96951247D01*
X113628095Y-96951247D02*
X113628095Y-96808390D01*
X113628095Y-96808390D02*
X113675714Y-96617914D01*
X113675714Y-96617914D02*
X113723333Y-96522676D01*
X113723333Y-96522676D02*
X113818571Y-96427438D01*
X113818571Y-96427438D02*
X113961428Y-96379819D01*
X113961428Y-96379819D02*
X114056666Y-96379819D01*
X114056666Y-96379819D02*
X114199523Y-96427438D01*
X114199523Y-96427438D02*
X114247142Y-96475057D01*
X115199523Y-97379819D02*
X114628095Y-97379819D01*
X114913809Y-97379819D02*
X114913809Y-96379819D01*
X114913809Y-96379819D02*
X114818571Y-96522676D01*
X114818571Y-96522676D02*
X114723333Y-96617914D01*
X114723333Y-96617914D02*
X114628095Y-96665533D01*
X115532857Y-96379819D02*
X116199523Y-96379819D01*
X116199523Y-96379819D02*
X115770952Y-97379819D01*
X113607142Y-108949580D02*
X113559523Y-108997200D01*
X113559523Y-108997200D02*
X113416666Y-109044819D01*
X113416666Y-109044819D02*
X113321428Y-109044819D01*
X113321428Y-109044819D02*
X113178571Y-108997200D01*
X113178571Y-108997200D02*
X113083333Y-108901961D01*
X113083333Y-108901961D02*
X113035714Y-108806723D01*
X113035714Y-108806723D02*
X112988095Y-108616247D01*
X112988095Y-108616247D02*
X112988095Y-108473390D01*
X112988095Y-108473390D02*
X113035714Y-108282914D01*
X113035714Y-108282914D02*
X113083333Y-108187676D01*
X113083333Y-108187676D02*
X113178571Y-108092438D01*
X113178571Y-108092438D02*
X113321428Y-108044819D01*
X113321428Y-108044819D02*
X113416666Y-108044819D01*
X113416666Y-108044819D02*
X113559523Y-108092438D01*
X113559523Y-108092438D02*
X113607142Y-108140057D01*
X114559523Y-109044819D02*
X113988095Y-109044819D01*
X114273809Y-109044819D02*
X114273809Y-108044819D01*
X114273809Y-108044819D02*
X114178571Y-108187676D01*
X114178571Y-108187676D02*
X114083333Y-108282914D01*
X114083333Y-108282914D02*
X113988095Y-108330533D01*
X115416666Y-108378152D02*
X115416666Y-109044819D01*
X115178571Y-107997200D02*
X114940476Y-108711485D01*
X114940476Y-108711485D02*
X115559523Y-108711485D01*
X110613095Y-100929819D02*
X110613095Y-101739342D01*
X110613095Y-101739342D02*
X110660714Y-101834580D01*
X110660714Y-101834580D02*
X110708333Y-101882200D01*
X110708333Y-101882200D02*
X110803571Y-101929819D01*
X110803571Y-101929819D02*
X110994047Y-101929819D01*
X110994047Y-101929819D02*
X111089285Y-101882200D01*
X111089285Y-101882200D02*
X111136904Y-101834580D01*
X111136904Y-101834580D02*
X111184523Y-101739342D01*
X111184523Y-101739342D02*
X111184523Y-100929819D01*
X111565476Y-100929819D02*
X112232142Y-100929819D01*
X112232142Y-100929819D02*
X111803571Y-101929819D01*
X110761905Y-79954819D02*
X110761905Y-78954819D01*
X110761905Y-78954819D02*
X111000000Y-78954819D01*
X111000000Y-78954819D02*
X111142857Y-79002438D01*
X111142857Y-79002438D02*
X111238095Y-79097676D01*
X111238095Y-79097676D02*
X111285714Y-79192914D01*
X111285714Y-79192914D02*
X111333333Y-79383390D01*
X111333333Y-79383390D02*
X111333333Y-79526247D01*
X111333333Y-79526247D02*
X111285714Y-79716723D01*
X111285714Y-79716723D02*
X111238095Y-79811961D01*
X111238095Y-79811961D02*
X111142857Y-79907200D01*
X111142857Y-79907200D02*
X111000000Y-79954819D01*
X111000000Y-79954819D02*
X110761905Y-79954819D01*
X112285714Y-79954819D02*
X111714286Y-79954819D01*
X112000000Y-79954819D02*
X112000000Y-78954819D01*
X112000000Y-78954819D02*
X111904762Y-79097676D01*
X111904762Y-79097676D02*
X111809524Y-79192914D01*
X111809524Y-79192914D02*
X111714286Y-79240533D01*
X116704819Y-107142857D02*
X116228628Y-107476190D01*
X116704819Y-107714285D02*
X115704819Y-107714285D01*
X115704819Y-107714285D02*
X115704819Y-107333333D01*
X115704819Y-107333333D02*
X115752438Y-107238095D01*
X115752438Y-107238095D02*
X115800057Y-107190476D01*
X115800057Y-107190476D02*
X115895295Y-107142857D01*
X115895295Y-107142857D02*
X116038152Y-107142857D01*
X116038152Y-107142857D02*
X116133390Y-107190476D01*
X116133390Y-107190476D02*
X116181009Y-107238095D01*
X116181009Y-107238095D02*
X116228628Y-107333333D01*
X116228628Y-107333333D02*
X116228628Y-107714285D01*
X116704819Y-106190476D02*
X116704819Y-106761904D01*
X116704819Y-106476190D02*
X115704819Y-106476190D01*
X115704819Y-106476190D02*
X115847676Y-106571428D01*
X115847676Y-106571428D02*
X115942914Y-106666666D01*
X115942914Y-106666666D02*
X115990533Y-106761904D01*
X116038152Y-105333333D02*
X116704819Y-105333333D01*
X115657200Y-105571428D02*
X116371485Y-105809523D01*
X116371485Y-105809523D02*
X116371485Y-105190476D01*
X99857142Y-87039580D02*
X99809523Y-87087200D01*
X99809523Y-87087200D02*
X99666666Y-87134819D01*
X99666666Y-87134819D02*
X99571428Y-87134819D01*
X99571428Y-87134819D02*
X99428571Y-87087200D01*
X99428571Y-87087200D02*
X99333333Y-86991961D01*
X99333333Y-86991961D02*
X99285714Y-86896723D01*
X99285714Y-86896723D02*
X99238095Y-86706247D01*
X99238095Y-86706247D02*
X99238095Y-86563390D01*
X99238095Y-86563390D02*
X99285714Y-86372914D01*
X99285714Y-86372914D02*
X99333333Y-86277676D01*
X99333333Y-86277676D02*
X99428571Y-86182438D01*
X99428571Y-86182438D02*
X99571428Y-86134819D01*
X99571428Y-86134819D02*
X99666666Y-86134819D01*
X99666666Y-86134819D02*
X99809523Y-86182438D01*
X99809523Y-86182438D02*
X99857142Y-86230057D01*
X100809523Y-87134819D02*
X100238095Y-87134819D01*
X100523809Y-87134819D02*
X100523809Y-86134819D01*
X100523809Y-86134819D02*
X100428571Y-86277676D01*
X100428571Y-86277676D02*
X100333333Y-86372914D01*
X100333333Y-86372914D02*
X100238095Y-86420533D01*
X101428571Y-86134819D02*
X101523809Y-86134819D01*
X101523809Y-86134819D02*
X101619047Y-86182438D01*
X101619047Y-86182438D02*
X101666666Y-86230057D01*
X101666666Y-86230057D02*
X101714285Y-86325295D01*
X101714285Y-86325295D02*
X101761904Y-86515771D01*
X101761904Y-86515771D02*
X101761904Y-86753866D01*
X101761904Y-86753866D02*
X101714285Y-86944342D01*
X101714285Y-86944342D02*
X101666666Y-87039580D01*
X101666666Y-87039580D02*
X101619047Y-87087200D01*
X101619047Y-87087200D02*
X101523809Y-87134819D01*
X101523809Y-87134819D02*
X101428571Y-87134819D01*
X101428571Y-87134819D02*
X101333333Y-87087200D01*
X101333333Y-87087200D02*
X101285714Y-87039580D01*
X101285714Y-87039580D02*
X101238095Y-86944342D01*
X101238095Y-86944342D02*
X101190476Y-86753866D01*
X101190476Y-86753866D02*
X101190476Y-86515771D01*
X101190476Y-86515771D02*
X101238095Y-86325295D01*
X101238095Y-86325295D02*
X101285714Y-86230057D01*
X101285714Y-86230057D02*
X101333333Y-86182438D01*
X101333333Y-86182438D02*
X101428571Y-86134819D01*
X110454819Y-122333333D02*
X111169104Y-122333333D01*
X111169104Y-122333333D02*
X111311961Y-122380952D01*
X111311961Y-122380952D02*
X111407200Y-122476190D01*
X111407200Y-122476190D02*
X111454819Y-122619047D01*
X111454819Y-122619047D02*
X111454819Y-122714285D01*
X110550057Y-121904761D02*
X110502438Y-121857142D01*
X110502438Y-121857142D02*
X110454819Y-121761904D01*
X110454819Y-121761904D02*
X110454819Y-121523809D01*
X110454819Y-121523809D02*
X110502438Y-121428571D01*
X110502438Y-121428571D02*
X110550057Y-121380952D01*
X110550057Y-121380952D02*
X110645295Y-121333333D01*
X110645295Y-121333333D02*
X110740533Y-121333333D01*
X110740533Y-121333333D02*
X110883390Y-121380952D01*
X110883390Y-121380952D02*
X111454819Y-121952380D01*
X111454819Y-121952380D02*
X111454819Y-121333333D01*
X101583333Y-113954819D02*
X101250000Y-113478628D01*
X101011905Y-113954819D02*
X101011905Y-112954819D01*
X101011905Y-112954819D02*
X101392857Y-112954819D01*
X101392857Y-112954819D02*
X101488095Y-113002438D01*
X101488095Y-113002438D02*
X101535714Y-113050057D01*
X101535714Y-113050057D02*
X101583333Y-113145295D01*
X101583333Y-113145295D02*
X101583333Y-113288152D01*
X101583333Y-113288152D02*
X101535714Y-113383390D01*
X101535714Y-113383390D02*
X101488095Y-113431009D01*
X101488095Y-113431009D02*
X101392857Y-113478628D01*
X101392857Y-113478628D02*
X101011905Y-113478628D01*
X102535714Y-113954819D02*
X101964286Y-113954819D01*
X102250000Y-113954819D02*
X102250000Y-112954819D01*
X102250000Y-112954819D02*
X102154762Y-113097676D01*
X102154762Y-113097676D02*
X102059524Y-113192914D01*
X102059524Y-113192914D02*
X101964286Y-113240533D01*
X122988095Y-97104819D02*
X122988095Y-97914342D01*
X122988095Y-97914342D02*
X123035714Y-98009580D01*
X123035714Y-98009580D02*
X123083333Y-98057200D01*
X123083333Y-98057200D02*
X123178571Y-98104819D01*
X123178571Y-98104819D02*
X123369047Y-98104819D01*
X123369047Y-98104819D02*
X123464285Y-98057200D01*
X123464285Y-98057200D02*
X123511904Y-98009580D01*
X123511904Y-98009580D02*
X123559523Y-97914342D01*
X123559523Y-97914342D02*
X123559523Y-97104819D01*
X124511904Y-97104819D02*
X124035714Y-97104819D01*
X124035714Y-97104819D02*
X123988095Y-97581009D01*
X123988095Y-97581009D02*
X124035714Y-97533390D01*
X124035714Y-97533390D02*
X124130952Y-97485771D01*
X124130952Y-97485771D02*
X124369047Y-97485771D01*
X124369047Y-97485771D02*
X124464285Y-97533390D01*
X124464285Y-97533390D02*
X124511904Y-97581009D01*
X124511904Y-97581009D02*
X124559523Y-97676247D01*
X124559523Y-97676247D02*
X124559523Y-97914342D01*
X124559523Y-97914342D02*
X124511904Y-98009580D01*
X124511904Y-98009580D02*
X124464285Y-98057200D01*
X124464285Y-98057200D02*
X124369047Y-98104819D01*
X124369047Y-98104819D02*
X124130952Y-98104819D01*
X124130952Y-98104819D02*
X124035714Y-98057200D01*
X124035714Y-98057200D02*
X123988095Y-98009580D01*
X104166666Y-80054819D02*
X104166666Y-80769104D01*
X104166666Y-80769104D02*
X104119047Y-80911961D01*
X104119047Y-80911961D02*
X104023809Y-81007200D01*
X104023809Y-81007200D02*
X103880952Y-81054819D01*
X103880952Y-81054819D02*
X103785714Y-81054819D01*
X105071428Y-80054819D02*
X104880952Y-80054819D01*
X104880952Y-80054819D02*
X104785714Y-80102438D01*
X104785714Y-80102438D02*
X104738095Y-80150057D01*
X104738095Y-80150057D02*
X104642857Y-80292914D01*
X104642857Y-80292914D02*
X104595238Y-80483390D01*
X104595238Y-80483390D02*
X104595238Y-80864342D01*
X104595238Y-80864342D02*
X104642857Y-80959580D01*
X104642857Y-80959580D02*
X104690476Y-81007200D01*
X104690476Y-81007200D02*
X104785714Y-81054819D01*
X104785714Y-81054819D02*
X104976190Y-81054819D01*
X104976190Y-81054819D02*
X105071428Y-81007200D01*
X105071428Y-81007200D02*
X105119047Y-80959580D01*
X105119047Y-80959580D02*
X105166666Y-80864342D01*
X105166666Y-80864342D02*
X105166666Y-80626247D01*
X105166666Y-80626247D02*
X105119047Y-80531009D01*
X105119047Y-80531009D02*
X105071428Y-80483390D01*
X105071428Y-80483390D02*
X104976190Y-80435771D01*
X104976190Y-80435771D02*
X104785714Y-80435771D01*
X104785714Y-80435771D02*
X104690476Y-80483390D01*
X104690476Y-80483390D02*
X104642857Y-80531009D01*
X104642857Y-80531009D02*
X104595238Y-80626247D01*
X102109580Y-89392857D02*
X102157200Y-89440476D01*
X102157200Y-89440476D02*
X102204819Y-89583333D01*
X102204819Y-89583333D02*
X102204819Y-89678571D01*
X102204819Y-89678571D02*
X102157200Y-89821428D01*
X102157200Y-89821428D02*
X102061961Y-89916666D01*
X102061961Y-89916666D02*
X101966723Y-89964285D01*
X101966723Y-89964285D02*
X101776247Y-90011904D01*
X101776247Y-90011904D02*
X101633390Y-90011904D01*
X101633390Y-90011904D02*
X101442914Y-89964285D01*
X101442914Y-89964285D02*
X101347676Y-89916666D01*
X101347676Y-89916666D02*
X101252438Y-89821428D01*
X101252438Y-89821428D02*
X101204819Y-89678571D01*
X101204819Y-89678571D02*
X101204819Y-89583333D01*
X101204819Y-89583333D02*
X101252438Y-89440476D01*
X101252438Y-89440476D02*
X101300057Y-89392857D01*
X102204819Y-88440476D02*
X102204819Y-89011904D01*
X102204819Y-88726190D02*
X101204819Y-88726190D01*
X101204819Y-88726190D02*
X101347676Y-88821428D01*
X101347676Y-88821428D02*
X101442914Y-88916666D01*
X101442914Y-88916666D02*
X101490533Y-89011904D01*
X101633390Y-87869047D02*
X101585771Y-87964285D01*
X101585771Y-87964285D02*
X101538152Y-88011904D01*
X101538152Y-88011904D02*
X101442914Y-88059523D01*
X101442914Y-88059523D02*
X101395295Y-88059523D01*
X101395295Y-88059523D02*
X101300057Y-88011904D01*
X101300057Y-88011904D02*
X101252438Y-87964285D01*
X101252438Y-87964285D02*
X101204819Y-87869047D01*
X101204819Y-87869047D02*
X101204819Y-87678571D01*
X101204819Y-87678571D02*
X101252438Y-87583333D01*
X101252438Y-87583333D02*
X101300057Y-87535714D01*
X101300057Y-87535714D02*
X101395295Y-87488095D01*
X101395295Y-87488095D02*
X101442914Y-87488095D01*
X101442914Y-87488095D02*
X101538152Y-87535714D01*
X101538152Y-87535714D02*
X101585771Y-87583333D01*
X101585771Y-87583333D02*
X101633390Y-87678571D01*
X101633390Y-87678571D02*
X101633390Y-87869047D01*
X101633390Y-87869047D02*
X101681009Y-87964285D01*
X101681009Y-87964285D02*
X101728628Y-88011904D01*
X101728628Y-88011904D02*
X101823866Y-88059523D01*
X101823866Y-88059523D02*
X102014342Y-88059523D01*
X102014342Y-88059523D02*
X102109580Y-88011904D01*
X102109580Y-88011904D02*
X102157200Y-87964285D01*
X102157200Y-87964285D02*
X102204819Y-87869047D01*
X102204819Y-87869047D02*
X102204819Y-87678571D01*
X102204819Y-87678571D02*
X102157200Y-87583333D01*
X102157200Y-87583333D02*
X102109580Y-87535714D01*
X102109580Y-87535714D02*
X102014342Y-87488095D01*
X102014342Y-87488095D02*
X101823866Y-87488095D01*
X101823866Y-87488095D02*
X101728628Y-87535714D01*
X101728628Y-87535714D02*
X101681009Y-87583333D01*
X101681009Y-87583333D02*
X101633390Y-87678571D01*
X103083333Y-105109580D02*
X103035714Y-105157200D01*
X103035714Y-105157200D02*
X102892857Y-105204819D01*
X102892857Y-105204819D02*
X102797619Y-105204819D01*
X102797619Y-105204819D02*
X102654762Y-105157200D01*
X102654762Y-105157200D02*
X102559524Y-105061961D01*
X102559524Y-105061961D02*
X102511905Y-104966723D01*
X102511905Y-104966723D02*
X102464286Y-104776247D01*
X102464286Y-104776247D02*
X102464286Y-104633390D01*
X102464286Y-104633390D02*
X102511905Y-104442914D01*
X102511905Y-104442914D02*
X102559524Y-104347676D01*
X102559524Y-104347676D02*
X102654762Y-104252438D01*
X102654762Y-104252438D02*
X102797619Y-104204819D01*
X102797619Y-104204819D02*
X102892857Y-104204819D01*
X102892857Y-104204819D02*
X103035714Y-104252438D01*
X103035714Y-104252438D02*
X103083333Y-104300057D01*
X103940476Y-104204819D02*
X103750000Y-104204819D01*
X103750000Y-104204819D02*
X103654762Y-104252438D01*
X103654762Y-104252438D02*
X103607143Y-104300057D01*
X103607143Y-104300057D02*
X103511905Y-104442914D01*
X103511905Y-104442914D02*
X103464286Y-104633390D01*
X103464286Y-104633390D02*
X103464286Y-105014342D01*
X103464286Y-105014342D02*
X103511905Y-105109580D01*
X103511905Y-105109580D02*
X103559524Y-105157200D01*
X103559524Y-105157200D02*
X103654762Y-105204819D01*
X103654762Y-105204819D02*
X103845238Y-105204819D01*
X103845238Y-105204819D02*
X103940476Y-105157200D01*
X103940476Y-105157200D02*
X103988095Y-105109580D01*
X103988095Y-105109580D02*
X104035714Y-105014342D01*
X104035714Y-105014342D02*
X104035714Y-104776247D01*
X104035714Y-104776247D02*
X103988095Y-104681009D01*
X103988095Y-104681009D02*
X103940476Y-104633390D01*
X103940476Y-104633390D02*
X103845238Y-104585771D01*
X103845238Y-104585771D02*
X103654762Y-104585771D01*
X103654762Y-104585771D02*
X103559524Y-104633390D01*
X103559524Y-104633390D02*
X103511905Y-104681009D01*
X103511905Y-104681009D02*
X103464286Y-104776247D01*
X99454819Y-95761904D02*
X100264342Y-95761904D01*
X100264342Y-95761904D02*
X100359580Y-95714285D01*
X100359580Y-95714285D02*
X100407200Y-95666666D01*
X100407200Y-95666666D02*
X100454819Y-95571428D01*
X100454819Y-95571428D02*
X100454819Y-95380952D01*
X100454819Y-95380952D02*
X100407200Y-95285714D01*
X100407200Y-95285714D02*
X100359580Y-95238095D01*
X100359580Y-95238095D02*
X100264342Y-95190476D01*
X100264342Y-95190476D02*
X99454819Y-95190476D01*
X100454819Y-94666666D02*
X100454819Y-94476190D01*
X100454819Y-94476190D02*
X100407200Y-94380952D01*
X100407200Y-94380952D02*
X100359580Y-94333333D01*
X100359580Y-94333333D02*
X100216723Y-94238095D01*
X100216723Y-94238095D02*
X100026247Y-94190476D01*
X100026247Y-94190476D02*
X99645295Y-94190476D01*
X99645295Y-94190476D02*
X99550057Y-94238095D01*
X99550057Y-94238095D02*
X99502438Y-94285714D01*
X99502438Y-94285714D02*
X99454819Y-94380952D01*
X99454819Y-94380952D02*
X99454819Y-94571428D01*
X99454819Y-94571428D02*
X99502438Y-94666666D01*
X99502438Y-94666666D02*
X99550057Y-94714285D01*
X99550057Y-94714285D02*
X99645295Y-94761904D01*
X99645295Y-94761904D02*
X99883390Y-94761904D01*
X99883390Y-94761904D02*
X99978628Y-94714285D01*
X99978628Y-94714285D02*
X100026247Y-94666666D01*
X100026247Y-94666666D02*
X100073866Y-94571428D01*
X100073866Y-94571428D02*
X100073866Y-94380952D01*
X100073866Y-94380952D02*
X100026247Y-94285714D01*
X100026247Y-94285714D02*
X99978628Y-94238095D01*
X99978628Y-94238095D02*
X99883390Y-94190476D01*
X101857142Y-106609580D02*
X101809523Y-106657200D01*
X101809523Y-106657200D02*
X101666666Y-106704819D01*
X101666666Y-106704819D02*
X101571428Y-106704819D01*
X101571428Y-106704819D02*
X101428571Y-106657200D01*
X101428571Y-106657200D02*
X101333333Y-106561961D01*
X101333333Y-106561961D02*
X101285714Y-106466723D01*
X101285714Y-106466723D02*
X101238095Y-106276247D01*
X101238095Y-106276247D02*
X101238095Y-106133390D01*
X101238095Y-106133390D02*
X101285714Y-105942914D01*
X101285714Y-105942914D02*
X101333333Y-105847676D01*
X101333333Y-105847676D02*
X101428571Y-105752438D01*
X101428571Y-105752438D02*
X101571428Y-105704819D01*
X101571428Y-105704819D02*
X101666666Y-105704819D01*
X101666666Y-105704819D02*
X101809523Y-105752438D01*
X101809523Y-105752438D02*
X101857142Y-105800057D01*
X102809523Y-106704819D02*
X102238095Y-106704819D01*
X102523809Y-106704819D02*
X102523809Y-105704819D01*
X102523809Y-105704819D02*
X102428571Y-105847676D01*
X102428571Y-105847676D02*
X102333333Y-105942914D01*
X102333333Y-105942914D02*
X102238095Y-105990533D01*
X103761904Y-106704819D02*
X103190476Y-106704819D01*
X103476190Y-106704819D02*
X103476190Y-105704819D01*
X103476190Y-105704819D02*
X103380952Y-105847676D01*
X103380952Y-105847676D02*
X103285714Y-105942914D01*
X103285714Y-105942914D02*
X103190476Y-105990533D01*
X95261905Y-78204819D02*
X95261905Y-77204819D01*
X95261905Y-77204819D02*
X95500000Y-77204819D01*
X95500000Y-77204819D02*
X95642857Y-77252438D01*
X95642857Y-77252438D02*
X95738095Y-77347676D01*
X95738095Y-77347676D02*
X95785714Y-77442914D01*
X95785714Y-77442914D02*
X95833333Y-77633390D01*
X95833333Y-77633390D02*
X95833333Y-77776247D01*
X95833333Y-77776247D02*
X95785714Y-77966723D01*
X95785714Y-77966723D02*
X95738095Y-78061961D01*
X95738095Y-78061961D02*
X95642857Y-78157200D01*
X95642857Y-78157200D02*
X95500000Y-78204819D01*
X95500000Y-78204819D02*
X95261905Y-78204819D01*
X96166667Y-77204819D02*
X96785714Y-77204819D01*
X96785714Y-77204819D02*
X96452381Y-77585771D01*
X96452381Y-77585771D02*
X96595238Y-77585771D01*
X96595238Y-77585771D02*
X96690476Y-77633390D01*
X96690476Y-77633390D02*
X96738095Y-77681009D01*
X96738095Y-77681009D02*
X96785714Y-77776247D01*
X96785714Y-77776247D02*
X96785714Y-78014342D01*
X96785714Y-78014342D02*
X96738095Y-78109580D01*
X96738095Y-78109580D02*
X96690476Y-78157200D01*
X96690476Y-78157200D02*
X96595238Y-78204819D01*
X96595238Y-78204819D02*
X96309524Y-78204819D01*
X96309524Y-78204819D02*
X96214286Y-78157200D01*
X96214286Y-78157200D02*
X96166667Y-78109580D01*
X127111905Y-89774819D02*
X127111905Y-88774819D01*
X127111905Y-88774819D02*
X127350000Y-88774819D01*
X127350000Y-88774819D02*
X127492857Y-88822438D01*
X127492857Y-88822438D02*
X127588095Y-88917676D01*
X127588095Y-88917676D02*
X127635714Y-89012914D01*
X127635714Y-89012914D02*
X127683333Y-89203390D01*
X127683333Y-89203390D02*
X127683333Y-89346247D01*
X127683333Y-89346247D02*
X127635714Y-89536723D01*
X127635714Y-89536723D02*
X127588095Y-89631961D01*
X127588095Y-89631961D02*
X127492857Y-89727200D01*
X127492857Y-89727200D02*
X127350000Y-89774819D01*
X127350000Y-89774819D02*
X127111905Y-89774819D01*
X128588095Y-88774819D02*
X128111905Y-88774819D01*
X128111905Y-88774819D02*
X128064286Y-89251009D01*
X128064286Y-89251009D02*
X128111905Y-89203390D01*
X128111905Y-89203390D02*
X128207143Y-89155771D01*
X128207143Y-89155771D02*
X128445238Y-89155771D01*
X128445238Y-89155771D02*
X128540476Y-89203390D01*
X128540476Y-89203390D02*
X128588095Y-89251009D01*
X128588095Y-89251009D02*
X128635714Y-89346247D01*
X128635714Y-89346247D02*
X128635714Y-89584342D01*
X128635714Y-89584342D02*
X128588095Y-89679580D01*
X128588095Y-89679580D02*
X128540476Y-89727200D01*
X128540476Y-89727200D02*
X128445238Y-89774819D01*
X128445238Y-89774819D02*
X128207143Y-89774819D01*
X128207143Y-89774819D02*
X128111905Y-89727200D01*
X128111905Y-89727200D02*
X128064286Y-89679580D01*
X129607142Y-98449580D02*
X129559523Y-98497200D01*
X129559523Y-98497200D02*
X129416666Y-98544819D01*
X129416666Y-98544819D02*
X129321428Y-98544819D01*
X129321428Y-98544819D02*
X129178571Y-98497200D01*
X129178571Y-98497200D02*
X129083333Y-98401961D01*
X129083333Y-98401961D02*
X129035714Y-98306723D01*
X129035714Y-98306723D02*
X128988095Y-98116247D01*
X128988095Y-98116247D02*
X128988095Y-97973390D01*
X128988095Y-97973390D02*
X129035714Y-97782914D01*
X129035714Y-97782914D02*
X129083333Y-97687676D01*
X129083333Y-97687676D02*
X129178571Y-97592438D01*
X129178571Y-97592438D02*
X129321428Y-97544819D01*
X129321428Y-97544819D02*
X129416666Y-97544819D01*
X129416666Y-97544819D02*
X129559523Y-97592438D01*
X129559523Y-97592438D02*
X129607142Y-97640057D01*
X130559523Y-98544819D02*
X129988095Y-98544819D01*
X130273809Y-98544819D02*
X130273809Y-97544819D01*
X130273809Y-97544819D02*
X130178571Y-97687676D01*
X130178571Y-97687676D02*
X130083333Y-97782914D01*
X130083333Y-97782914D02*
X129988095Y-97830533D01*
X131416666Y-97544819D02*
X131226190Y-97544819D01*
X131226190Y-97544819D02*
X131130952Y-97592438D01*
X131130952Y-97592438D02*
X131083333Y-97640057D01*
X131083333Y-97640057D02*
X130988095Y-97782914D01*
X130988095Y-97782914D02*
X130940476Y-97973390D01*
X130940476Y-97973390D02*
X130940476Y-98354342D01*
X130940476Y-98354342D02*
X130988095Y-98449580D01*
X130988095Y-98449580D02*
X131035714Y-98497200D01*
X131035714Y-98497200D02*
X131130952Y-98544819D01*
X131130952Y-98544819D02*
X131321428Y-98544819D01*
X131321428Y-98544819D02*
X131416666Y-98497200D01*
X131416666Y-98497200D02*
X131464285Y-98449580D01*
X131464285Y-98449580D02*
X131511904Y-98354342D01*
X131511904Y-98354342D02*
X131511904Y-98116247D01*
X131511904Y-98116247D02*
X131464285Y-98021009D01*
X131464285Y-98021009D02*
X131416666Y-97973390D01*
X131416666Y-97973390D02*
X131321428Y-97925771D01*
X131321428Y-97925771D02*
X131130952Y-97925771D01*
X131130952Y-97925771D02*
X131035714Y-97973390D01*
X131035714Y-97973390D02*
X130988095Y-98021009D01*
X130988095Y-98021009D02*
X130940476Y-98116247D01*
X130404819Y-87624404D02*
X131214342Y-87624404D01*
X131214342Y-87624404D02*
X131309580Y-87576785D01*
X131309580Y-87576785D02*
X131357200Y-87529166D01*
X131357200Y-87529166D02*
X131404819Y-87433928D01*
X131404819Y-87433928D02*
X131404819Y-87243452D01*
X131404819Y-87243452D02*
X131357200Y-87148214D01*
X131357200Y-87148214D02*
X131309580Y-87100595D01*
X131309580Y-87100595D02*
X131214342Y-87052976D01*
X131214342Y-87052976D02*
X130404819Y-87052976D01*
X130500057Y-86624404D02*
X130452438Y-86576785D01*
X130452438Y-86576785D02*
X130404819Y-86481547D01*
X130404819Y-86481547D02*
X130404819Y-86243452D01*
X130404819Y-86243452D02*
X130452438Y-86148214D01*
X130452438Y-86148214D02*
X130500057Y-86100595D01*
X130500057Y-86100595D02*
X130595295Y-86052976D01*
X130595295Y-86052976D02*
X130690533Y-86052976D01*
X130690533Y-86052976D02*
X130833390Y-86100595D01*
X130833390Y-86100595D02*
X131404819Y-86672023D01*
X131404819Y-86672023D02*
X131404819Y-86052976D01*
X114835714Y-94462295D02*
X114569047Y-94081342D01*
X114378571Y-94462295D02*
X114378571Y-93662295D01*
X114378571Y-93662295D02*
X114683333Y-93662295D01*
X114683333Y-93662295D02*
X114759523Y-93700390D01*
X114759523Y-93700390D02*
X114797618Y-93738485D01*
X114797618Y-93738485D02*
X114835714Y-93814676D01*
X114835714Y-93814676D02*
X114835714Y-93928961D01*
X114835714Y-93928961D02*
X114797618Y-94005152D01*
X114797618Y-94005152D02*
X114759523Y-94043247D01*
X114759523Y-94043247D02*
X114683333Y-94081342D01*
X114683333Y-94081342D02*
X114378571Y-94081342D01*
X115597618Y-94462295D02*
X115140475Y-94462295D01*
X115369047Y-94462295D02*
X115369047Y-93662295D01*
X115369047Y-93662295D02*
X115292856Y-93776580D01*
X115292856Y-93776580D02*
X115216666Y-93852771D01*
X115216666Y-93852771D02*
X115140475Y-93890866D01*
X115864285Y-93662295D02*
X116397619Y-93662295D01*
X116397619Y-93662295D02*
X116054761Y-94462295D01*
X112833333Y-83929580D02*
X112785714Y-83977200D01*
X112785714Y-83977200D02*
X112642857Y-84024819D01*
X112642857Y-84024819D02*
X112547619Y-84024819D01*
X112547619Y-84024819D02*
X112404762Y-83977200D01*
X112404762Y-83977200D02*
X112309524Y-83881961D01*
X112309524Y-83881961D02*
X112261905Y-83786723D01*
X112261905Y-83786723D02*
X112214286Y-83596247D01*
X112214286Y-83596247D02*
X112214286Y-83453390D01*
X112214286Y-83453390D02*
X112261905Y-83262914D01*
X112261905Y-83262914D02*
X112309524Y-83167676D01*
X112309524Y-83167676D02*
X112404762Y-83072438D01*
X112404762Y-83072438D02*
X112547619Y-83024819D01*
X112547619Y-83024819D02*
X112642857Y-83024819D01*
X112642857Y-83024819D02*
X112785714Y-83072438D01*
X112785714Y-83072438D02*
X112833333Y-83120057D01*
X113404762Y-83453390D02*
X113309524Y-83405771D01*
X113309524Y-83405771D02*
X113261905Y-83358152D01*
X113261905Y-83358152D02*
X113214286Y-83262914D01*
X113214286Y-83262914D02*
X113214286Y-83215295D01*
X113214286Y-83215295D02*
X113261905Y-83120057D01*
X113261905Y-83120057D02*
X113309524Y-83072438D01*
X113309524Y-83072438D02*
X113404762Y-83024819D01*
X113404762Y-83024819D02*
X113595238Y-83024819D01*
X113595238Y-83024819D02*
X113690476Y-83072438D01*
X113690476Y-83072438D02*
X113738095Y-83120057D01*
X113738095Y-83120057D02*
X113785714Y-83215295D01*
X113785714Y-83215295D02*
X113785714Y-83262914D01*
X113785714Y-83262914D02*
X113738095Y-83358152D01*
X113738095Y-83358152D02*
X113690476Y-83405771D01*
X113690476Y-83405771D02*
X113595238Y-83453390D01*
X113595238Y-83453390D02*
X113404762Y-83453390D01*
X113404762Y-83453390D02*
X113309524Y-83501009D01*
X113309524Y-83501009D02*
X113261905Y-83548628D01*
X113261905Y-83548628D02*
X113214286Y-83643866D01*
X113214286Y-83643866D02*
X113214286Y-83834342D01*
X113214286Y-83834342D02*
X113261905Y-83929580D01*
X113261905Y-83929580D02*
X113309524Y-83977200D01*
X113309524Y-83977200D02*
X113404762Y-84024819D01*
X113404762Y-84024819D02*
X113595238Y-84024819D01*
X113595238Y-84024819D02*
X113690476Y-83977200D01*
X113690476Y-83977200D02*
X113738095Y-83929580D01*
X113738095Y-83929580D02*
X113785714Y-83834342D01*
X113785714Y-83834342D02*
X113785714Y-83643866D01*
X113785714Y-83643866D02*
X113738095Y-83548628D01*
X113738095Y-83548628D02*
X113690476Y-83501009D01*
X113690476Y-83501009D02*
X113595238Y-83453390D01*
X111294819Y-96675236D02*
X110818628Y-97008569D01*
X111294819Y-97246664D02*
X110294819Y-97246664D01*
X110294819Y-97246664D02*
X110294819Y-96865712D01*
X110294819Y-96865712D02*
X110342438Y-96770474D01*
X110342438Y-96770474D02*
X110390057Y-96722855D01*
X110390057Y-96722855D02*
X110485295Y-96675236D01*
X110485295Y-96675236D02*
X110628152Y-96675236D01*
X110628152Y-96675236D02*
X110723390Y-96722855D01*
X110723390Y-96722855D02*
X110771009Y-96770474D01*
X110771009Y-96770474D02*
X110818628Y-96865712D01*
X110818628Y-96865712D02*
X110818628Y-97246664D01*
X111294819Y-95722855D02*
X111294819Y-96294283D01*
X111294819Y-96008569D02*
X110294819Y-96008569D01*
X110294819Y-96008569D02*
X110437676Y-96103807D01*
X110437676Y-96103807D02*
X110532914Y-96199045D01*
X110532914Y-96199045D02*
X110580533Y-96294283D01*
X110723390Y-95151426D02*
X110675771Y-95246664D01*
X110675771Y-95246664D02*
X110628152Y-95294283D01*
X110628152Y-95294283D02*
X110532914Y-95341902D01*
X110532914Y-95341902D02*
X110485295Y-95341902D01*
X110485295Y-95341902D02*
X110390057Y-95294283D01*
X110390057Y-95294283D02*
X110342438Y-95246664D01*
X110342438Y-95246664D02*
X110294819Y-95151426D01*
X110294819Y-95151426D02*
X110294819Y-94960950D01*
X110294819Y-94960950D02*
X110342438Y-94865712D01*
X110342438Y-94865712D02*
X110390057Y-94818093D01*
X110390057Y-94818093D02*
X110485295Y-94770474D01*
X110485295Y-94770474D02*
X110532914Y-94770474D01*
X110532914Y-94770474D02*
X110628152Y-94818093D01*
X110628152Y-94818093D02*
X110675771Y-94865712D01*
X110675771Y-94865712D02*
X110723390Y-94960950D01*
X110723390Y-94960950D02*
X110723390Y-95151426D01*
X110723390Y-95151426D02*
X110771009Y-95246664D01*
X110771009Y-95246664D02*
X110818628Y-95294283D01*
X110818628Y-95294283D02*
X110913866Y-95341902D01*
X110913866Y-95341902D02*
X111104342Y-95341902D01*
X111104342Y-95341902D02*
X111199580Y-95294283D01*
X111199580Y-95294283D02*
X111247200Y-95246664D01*
X111247200Y-95246664D02*
X111294819Y-95151426D01*
X111294819Y-95151426D02*
X111294819Y-94960950D01*
X111294819Y-94960950D02*
X111247200Y-94865712D01*
X111247200Y-94865712D02*
X111199580Y-94818093D01*
X111199580Y-94818093D02*
X111104342Y-94770474D01*
X111104342Y-94770474D02*
X110913866Y-94770474D01*
X110913866Y-94770474D02*
X110818628Y-94818093D01*
X110818628Y-94818093D02*
X110771009Y-94865712D01*
X110771009Y-94865712D02*
X110723390Y-94960950D01*
X132889580Y-90416666D02*
X132937200Y-90464285D01*
X132937200Y-90464285D02*
X132984819Y-90607142D01*
X132984819Y-90607142D02*
X132984819Y-90702380D01*
X132984819Y-90702380D02*
X132937200Y-90845237D01*
X132937200Y-90845237D02*
X132841961Y-90940475D01*
X132841961Y-90940475D02*
X132746723Y-90988094D01*
X132746723Y-90988094D02*
X132556247Y-91035713D01*
X132556247Y-91035713D02*
X132413390Y-91035713D01*
X132413390Y-91035713D02*
X132222914Y-90988094D01*
X132222914Y-90988094D02*
X132127676Y-90940475D01*
X132127676Y-90940475D02*
X132032438Y-90845237D01*
X132032438Y-90845237D02*
X131984819Y-90702380D01*
X131984819Y-90702380D02*
X131984819Y-90607142D01*
X131984819Y-90607142D02*
X132032438Y-90464285D01*
X132032438Y-90464285D02*
X132080057Y-90416666D01*
X131984819Y-90083332D02*
X131984819Y-89416666D01*
X131984819Y-89416666D02*
X132984819Y-89845237D01*
D11*
%TO.C,C22*%
X101890000Y-97624165D02*
X101890000Y-97855835D01*
X102610000Y-97624165D02*
X102610000Y-97855835D01*
%TO.C,U6*%
X97250000Y-80690000D02*
X96450000Y-80690000D01*
X97250000Y-80690000D02*
X98050000Y-80690000D01*
X97250000Y-83810000D02*
X96450000Y-83810000D01*
X97250000Y-83810000D02*
X98050000Y-83810000D01*
X98790000Y-84090000D02*
X98310000Y-84090000D01*
X98550000Y-83760000D01*
X98790000Y-84090000D01*
G36*
X98790000Y-84090000D02*
G01*
X98310000Y-84090000D01*
X98550000Y-83760000D01*
X98790000Y-84090000D01*
G37*
%TO.C,C4*%
X119865835Y-110890000D02*
X119634165Y-110890000D01*
X119865835Y-111610000D02*
X119634165Y-111610000D01*
%TO.C,C13*%
X113440835Y-115865000D02*
X113209165Y-115865000D01*
X113440835Y-116585000D02*
X113209165Y-116585000D01*
%TO.C,U1*%
X97150000Y-113010000D02*
X96100000Y-113010000D01*
X97150000Y-114990000D02*
X95850000Y-114990000D01*
X95730000Y-113010000D02*
X95450000Y-113010000D01*
X95730000Y-112730000D01*
X95730000Y-113010000D01*
G36*
X95730000Y-113010000D02*
G01*
X95450000Y-113010000D01*
X95730000Y-112730000D01*
X95730000Y-113010000D01*
G37*
%TO.C,R3*%
X98620000Y-111582379D02*
X98620000Y-111917621D01*
X99380000Y-111582379D02*
X99380000Y-111917621D01*
%TO.C,C2*%
X119740000Y-75740000D02*
X121440000Y-75740000D01*
X119740000Y-80195563D02*
X119740000Y-75740000D01*
X120502500Y-81812500D02*
X121127500Y-81812500D01*
X120804437Y-81260000D02*
X119740000Y-80195563D01*
X120804437Y-81260000D02*
X121440000Y-81260000D01*
X120815000Y-82125000D02*
X120815000Y-81500000D01*
X124195563Y-81260000D02*
X123560000Y-81260000D01*
X124195563Y-81260000D02*
X125260000Y-80195563D01*
X125260000Y-75740000D02*
X123560000Y-75740000D01*
X125260000Y-80195563D02*
X125260000Y-75740000D01*
%TO.C,R7*%
X119620000Y-97167621D02*
X119620000Y-96832379D01*
X120380000Y-97167621D02*
X120380000Y-96832379D01*
%TO.C,C20*%
X103490000Y-91136267D02*
X103490000Y-90843733D01*
X104510000Y-91136267D02*
X104510000Y-90843733D01*
%TO.C,U4*%
X115750000Y-85940000D02*
X114950000Y-85940000D01*
X115750000Y-85940000D02*
X116550000Y-85940000D01*
X115750000Y-89060000D02*
X114950000Y-89060000D01*
X115750000Y-89060000D02*
X116550000Y-89060000D01*
X114450000Y-85990000D02*
X114210000Y-85660000D01*
X114690000Y-85660000D01*
X114450000Y-85990000D01*
G36*
X114450000Y-85990000D02*
G01*
X114210000Y-85660000D01*
X114690000Y-85660000D01*
X114450000Y-85990000D01*
G37*
%TO.C,R13*%
X128017621Y-91870000D02*
X127682379Y-91870000D01*
X128017621Y-92630000D02*
X127682379Y-92630000D01*
%TO.C,R10*%
X97120000Y-76832379D02*
X97120000Y-77167621D01*
X97880000Y-76832379D02*
X97880000Y-77167621D01*
%TO.C,C1*%
X103134165Y-117390000D02*
X103365835Y-117390000D01*
X103134165Y-118110000D02*
X103365835Y-118110000D01*
%TO.C,C12*%
X103140000Y-115365835D02*
X103140000Y-115134165D01*
X103860000Y-115365835D02*
X103860000Y-115134165D01*
%TO.C,D6*%
X117090000Y-108265000D02*
X117090000Y-109735000D01*
X117090000Y-109735000D02*
X119550000Y-109735000D01*
X119550000Y-108265000D02*
X117090000Y-108265000D01*
%TO.C,J3*%
X128090000Y-113610000D02*
X128090000Y-114860000D01*
X128090000Y-114860000D02*
X129340000Y-114860000D01*
X128190000Y-112800000D02*
X128190000Y-113100000D01*
X128190000Y-113100000D02*
X128390000Y-113100000D01*
X128290000Y-112800000D02*
X128290000Y-113100000D01*
X128390000Y-104440000D02*
X128390000Y-114560000D01*
X128390000Y-112000000D02*
X129000000Y-112000000D01*
X128390000Y-112800000D02*
X128190000Y-112800000D01*
X128390000Y-114560000D02*
X133110000Y-114560000D01*
X129000000Y-105050000D02*
X129000000Y-107000000D01*
X129000000Y-107000000D02*
X128390000Y-107000000D01*
X129000000Y-112000000D02*
X129000000Y-113950000D01*
X129000000Y-113950000D02*
X132500000Y-113950000D01*
X129700000Y-104440000D02*
X129700000Y-105050000D01*
X129700000Y-114560000D02*
X129700000Y-113950000D01*
X131000000Y-104440000D02*
X131000000Y-105050000D01*
X131000000Y-114560000D02*
X131000000Y-113950000D01*
X132000000Y-107400000D02*
X132500000Y-107400000D01*
X132000000Y-107600000D02*
X132000000Y-107400000D01*
X132000000Y-109400000D02*
X132500000Y-109400000D01*
X132000000Y-109600000D02*
X132000000Y-109400000D01*
X132000000Y-111400000D02*
X132500000Y-111400000D01*
X132000000Y-111600000D02*
X132000000Y-111400000D01*
X132500000Y-105050000D02*
X129000000Y-105050000D01*
X132500000Y-107500000D02*
X132000000Y-107500000D01*
X132500000Y-107600000D02*
X132000000Y-107600000D01*
X132500000Y-109500000D02*
X132000000Y-109500000D01*
X132500000Y-109600000D02*
X132000000Y-109600000D01*
X132500000Y-111500000D02*
X132000000Y-111500000D01*
X132500000Y-111600000D02*
X132000000Y-111600000D01*
X132500000Y-113950000D02*
X132500000Y-105050000D01*
X133110000Y-104440000D02*
X128390000Y-104440000D01*
X133110000Y-114560000D02*
X133110000Y-104440000D01*
%TO.C,R12*%
X101370000Y-91907621D02*
X101370000Y-91572379D01*
X102130000Y-91907621D02*
X102130000Y-91572379D01*
%TO.C,C5*%
X131090000Y-84146267D02*
X131090000Y-83853733D01*
X132110000Y-84146267D02*
X132110000Y-83853733D01*
%TO.C,J5*%
X89100000Y-109600000D02*
X89350000Y-109600000D01*
X89100000Y-117400000D02*
X89350000Y-117400000D01*
X91650000Y-109600000D02*
X93500000Y-109600000D01*
X91650000Y-117400000D02*
X93500000Y-117400000D01*
X93500000Y-109600000D02*
X93500000Y-110050000D01*
X93500000Y-117400000D02*
X93500000Y-116950000D01*
X94050000Y-111800000D02*
X93600000Y-111800000D01*
X94050000Y-111800000D02*
X94050000Y-112250000D01*
%TO.C,R11*%
X122120000Y-87179879D02*
X122120000Y-87515121D01*
X122880000Y-87179879D02*
X122880000Y-87515121D01*
%TO.C,U3*%
X104790000Y-107840000D02*
X104790000Y-108315000D01*
X104790000Y-115060000D02*
X104790000Y-114585000D01*
X105265000Y-107840000D02*
X104790000Y-107840000D01*
X105265000Y-115060000D02*
X104790000Y-115060000D01*
X111535000Y-107840000D02*
X112010000Y-107840000D01*
X111535000Y-115060000D02*
X111710000Y-115060000D01*
X112010000Y-107840000D02*
X112010000Y-108315000D01*
X112010000Y-114585000D02*
X112010000Y-114820000D01*
X112250000Y-115390000D02*
X111770000Y-115390000D01*
X112010000Y-115060000D01*
X112250000Y-115390000D01*
G36*
X112250000Y-115390000D02*
G01*
X111770000Y-115390000D01*
X112010000Y-115060000D01*
X112250000Y-115390000D01*
G37*
%TO.C,C15*%
X95103733Y-84740000D02*
X95396267Y-84740000D01*
X95103733Y-85760000D02*
X95396267Y-85760000D01*
%TO.C,C3*%
X119634165Y-112890000D02*
X119865835Y-112890000D01*
X119634165Y-113610000D02*
X119865835Y-113610000D01*
D12*
%TO.C,U8*%
X108907500Y-91020000D02*
X108907500Y-93220000D01*
X108967500Y-91020000D02*
X108907500Y-91020000D01*
X108967500Y-93220000D02*
X108907500Y-93220000D01*
X111707500Y-91020000D02*
X111647500Y-91020000D01*
X111707500Y-91020000D02*
X111707500Y-93220000D01*
X111707500Y-93220000D02*
X111647500Y-93220000D01*
D13*
X111407500Y-93420000D02*
G75*
G02*
X111207500Y-93420000I-100000J0D01*
G01*
X111207500Y-93420000D02*
G75*
G02*
X111407500Y-93420000I100000J0D01*
G01*
D14*
X111587500Y-93120000D02*
G75*
G02*
X111527500Y-93120000I-30000J0D01*
G01*
X111527500Y-93120000D02*
G75*
G02*
X111587500Y-93120000I30000J0D01*
G01*
D11*
%TO.C,Y1*%
X116640000Y-110740000D02*
X116640000Y-113710000D01*
X116640000Y-113710000D02*
X118360000Y-113710000D01*
X118360000Y-113710000D02*
X118360000Y-110740000D01*
%TO.C,C19*%
X110683767Y-88890000D02*
X110391233Y-88890000D01*
X110683767Y-89910000D02*
X110391233Y-89910000D01*
%TO.C,C21*%
X110903335Y-87540000D02*
X110671665Y-87540000D01*
X110903335Y-88260000D02*
X110671665Y-88260000D01*
%TO.C,C9*%
X118896267Y-84490000D02*
X118603733Y-84490000D01*
X118896267Y-85510000D02*
X118603733Y-85510000D01*
%TO.C,C23*%
X113640000Y-100051665D02*
X113640000Y-100283335D01*
X114360000Y-100051665D02*
X114360000Y-100283335D01*
%TO.C,J4*%
X95890000Y-118390000D02*
X95890000Y-119640000D01*
X96190000Y-118690000D02*
X96190000Y-123410000D01*
X96190000Y-120000000D02*
X96800000Y-120000000D01*
X96190000Y-121300000D02*
X96800000Y-121300000D01*
X96190000Y-123410000D02*
X106310000Y-123410000D01*
X96800000Y-119300000D02*
X96800000Y-122800000D01*
X96800000Y-122800000D02*
X105700000Y-122800000D01*
X97140000Y-118390000D02*
X95890000Y-118390000D01*
X97650000Y-118490000D02*
X97650000Y-118690000D01*
X97950000Y-118490000D02*
X97650000Y-118490000D01*
X97950000Y-118590000D02*
X97650000Y-118590000D01*
X97950000Y-118690000D02*
X97950000Y-118490000D01*
X98750000Y-118690000D02*
X98750000Y-119300000D01*
X98750000Y-119300000D02*
X96800000Y-119300000D01*
X99150000Y-122300000D02*
X99350000Y-122300000D01*
X99150000Y-122800000D02*
X99150000Y-122300000D01*
X99250000Y-122800000D02*
X99250000Y-122300000D01*
X99350000Y-122300000D02*
X99350000Y-122800000D01*
X101150000Y-122300000D02*
X101350000Y-122300000D01*
X101150000Y-122800000D02*
X101150000Y-122300000D01*
X101250000Y-122800000D02*
X101250000Y-122300000D01*
X101350000Y-122300000D02*
X101350000Y-122800000D01*
X103150000Y-122300000D02*
X103350000Y-122300000D01*
X103150000Y-122800000D02*
X103150000Y-122300000D01*
X103250000Y-122800000D02*
X103250000Y-122300000D01*
X103350000Y-122300000D02*
X103350000Y-122800000D01*
X103750000Y-119300000D02*
X103750000Y-118690000D01*
X105700000Y-119300000D02*
X103750000Y-119300000D01*
X105700000Y-122800000D02*
X105700000Y-119300000D01*
X106310000Y-118690000D02*
X96190000Y-118690000D01*
X106310000Y-120000000D02*
X105700000Y-120000000D01*
X106310000Y-121300000D02*
X105700000Y-121300000D01*
X106310000Y-123410000D02*
X106310000Y-118690000D01*
%TO.C,R9*%
X130082379Y-100370000D02*
X130417621Y-100370000D01*
X130082379Y-101130000D02*
X130417621Y-101130000D01*
%TO.C,D2*%
X114850000Y-82160000D02*
X114850000Y-76350000D01*
X114850000Y-82160000D02*
X119150000Y-82160000D01*
X119150000Y-82160000D02*
X119150000Y-76350000D01*
%TO.C,R2*%
X99667621Y-114120000D02*
X99332379Y-114120000D01*
X99667621Y-114880000D02*
X99332379Y-114880000D01*
%TO.C,D4*%
X120265000Y-86950000D02*
X120265000Y-89410000D01*
X120265000Y-89410000D02*
X121735000Y-89410000D01*
X121735000Y-89410000D02*
X121735000Y-86950000D01*
%TO.C,R8*%
X117417621Y-101620000D02*
X117082379Y-101620000D01*
X117417621Y-102380000D02*
X117082379Y-102380000D01*
%TO.C,R6*%
X115120000Y-111832379D02*
X115120000Y-112167621D01*
X115880000Y-111832379D02*
X115880000Y-112167621D01*
%TO.C,C24*%
X114890000Y-100051665D02*
X114890000Y-100283335D01*
X115610000Y-100051665D02*
X115610000Y-100283335D01*
%TO.C,C17*%
X114484165Y-97940000D02*
X114715835Y-97940000D01*
X114484165Y-98660000D02*
X114715835Y-98660000D01*
%TO.C,C14*%
X114134165Y-109390000D02*
X114365835Y-109390000D01*
X114134165Y-110110000D02*
X114365835Y-110110000D01*
D10*
%TO.C,U7*%
X109920000Y-97670000D02*
X109920000Y-97920000D01*
X109920000Y-100330000D02*
X109920000Y-100080000D01*
X110670000Y-97670000D02*
X109920000Y-97670000D01*
X110670000Y-100330000D02*
X109920000Y-100330000D01*
X112330000Y-97670000D02*
X113080000Y-97670000D01*
X112330000Y-100330000D02*
X113080000Y-100330000D01*
X113080000Y-97670000D02*
X113080000Y-97920000D01*
X113080000Y-100330000D02*
X113080000Y-100080000D01*
X109670000Y-98240000D02*
G75*
G02*
X109510000Y-98240000I-80000J0D01*
G01*
X109510000Y-98240000D02*
G75*
G02*
X109670000Y-98240000I80000J0D01*
G01*
D14*
X110030000Y-97750000D02*
G75*
G02*
X109970000Y-97750000I-30000J0D01*
G01*
X109970000Y-97750000D02*
G75*
G02*
X110030000Y-97750000I30000J0D01*
G01*
D11*
%TO.C,D1*%
X111500000Y-75440000D02*
X110850000Y-75440000D01*
X111500000Y-75440000D02*
X112150000Y-75440000D01*
X111500000Y-78560000D02*
X110850000Y-78560000D01*
X111500000Y-78560000D02*
X112150000Y-78560000D01*
X110337500Y-75490000D02*
X110097500Y-75160000D01*
X110577500Y-75160000D01*
X110337500Y-75490000D01*
G36*
X110337500Y-75490000D02*
G01*
X110097500Y-75160000D01*
X110577500Y-75160000D01*
X110337500Y-75490000D01*
G37*
%TO.C,R14*%
X115870000Y-109167621D02*
X115870000Y-108832379D01*
X116630000Y-109167621D02*
X116630000Y-108832379D01*
%TO.C,C10*%
X100646267Y-84740000D02*
X100353733Y-84740000D01*
X100646267Y-85760000D02*
X100353733Y-85760000D01*
%TO.C,R1*%
X99667621Y-113120000D02*
X99332379Y-113120000D01*
X99667621Y-113880000D02*
X99332379Y-113880000D01*
%TO.C,U5*%
X120990000Y-98490000D02*
X120990000Y-98760000D01*
X120990000Y-104010000D02*
X120990000Y-103740000D01*
X123750000Y-98490000D02*
X120990000Y-98490000D01*
X123750000Y-98490000D02*
X126510000Y-98490000D01*
X123750000Y-104010000D02*
X120990000Y-104010000D01*
X123750000Y-104010000D02*
X126510000Y-104010000D01*
X126510000Y-98490000D02*
X126510000Y-98760000D01*
X126510000Y-104010000D02*
X126510000Y-103740000D01*
X120225000Y-98760000D02*
X119985000Y-98430000D01*
X120465000Y-98430000D01*
X120225000Y-98760000D01*
G36*
X120225000Y-98760000D02*
G01*
X119985000Y-98430000D01*
X120465000Y-98430000D01*
X120225000Y-98760000D01*
G37*
%TO.C,J6*%
X101440000Y-74790000D02*
X101440000Y-79510000D01*
X101440000Y-76900000D02*
X102050000Y-76900000D01*
X101440000Y-78200000D02*
X102050000Y-78200000D01*
X101440000Y-79510000D02*
X107560000Y-79510000D01*
X102050000Y-75400000D02*
X102050000Y-78900000D01*
X102050000Y-78900000D02*
X104000000Y-78900000D01*
X104000000Y-78900000D02*
X104000000Y-79510000D01*
X104400000Y-75900000D02*
X104400000Y-75400000D01*
X104500000Y-75400000D02*
X104500000Y-75900000D01*
X104600000Y-75400000D02*
X104600000Y-75900000D01*
X104600000Y-75900000D02*
X104400000Y-75900000D01*
X105000000Y-78900000D02*
X106950000Y-78900000D01*
X105000000Y-79510000D02*
X105000000Y-78900000D01*
X105800000Y-79510000D02*
X105800000Y-79710000D01*
X105800000Y-79610000D02*
X106100000Y-79610000D01*
X105800000Y-79710000D02*
X106100000Y-79710000D01*
X106100000Y-79710000D02*
X106100000Y-79510000D01*
X106610000Y-79810000D02*
X107860000Y-79810000D01*
X106950000Y-75400000D02*
X102050000Y-75400000D01*
X106950000Y-78900000D02*
X106950000Y-75400000D01*
X107560000Y-74790000D02*
X101440000Y-74790000D01*
X107560000Y-76900000D02*
X106950000Y-76900000D01*
X107560000Y-78200000D02*
X106950000Y-78200000D01*
X107560000Y-79510000D02*
X107560000Y-74790000D01*
X107860000Y-79810000D02*
X107860000Y-78560000D01*
%TO.C,C18*%
X102390000Y-91355835D02*
X102390000Y-91124165D01*
X103110000Y-91355835D02*
X103110000Y-91124165D01*
%TO.C,C6*%
X106146267Y-104490000D02*
X105853733Y-104490000D01*
X106146267Y-105510000D02*
X105853733Y-105510000D01*
D10*
%TO.C,U9*%
X100890000Y-96600000D02*
X100890000Y-96190000D01*
X100900000Y-93390000D02*
X101310000Y-93390000D01*
X100900000Y-93800000D02*
X100900000Y-93390000D01*
X101300000Y-96600000D02*
X100890000Y-96600000D01*
X103700000Y-93400000D02*
X104110000Y-93400000D01*
X104100000Y-96190000D02*
X104100000Y-96600000D01*
X104100000Y-96600000D02*
X103690000Y-96600000D01*
X104110000Y-93400000D02*
X104110000Y-93810000D01*
D12*
X103300000Y-93300000D02*
G75*
G02*
X103302429Y-93299975I-20J120000D01*
G01*
D14*
X104030000Y-93500000D02*
G75*
G02*
X103970000Y-93500000I-30000J0D01*
G01*
X103970000Y-93500000D02*
G75*
G02*
X104030000Y-93500000I30000J0D01*
G01*
D11*
%TO.C,C11*%
X104884165Y-105890000D02*
X105115835Y-105890000D01*
X104884165Y-106610000D02*
X105115835Y-106610000D01*
%TO.C,D3*%
X95700000Y-79985000D02*
X98160000Y-79985000D01*
X98160000Y-78515000D02*
X95700000Y-78515000D01*
X98160000Y-79985000D02*
X98160000Y-78515000D01*
%TO.C,D5*%
X126190000Y-90015000D02*
X126190000Y-91485000D01*
X126190000Y-91485000D02*
X128650000Y-91485000D01*
X128650000Y-90015000D02*
X126190000Y-90015000D01*
%TO.C,C16*%
X130134165Y-98890000D02*
X130365835Y-98890000D01*
X130134165Y-99610000D02*
X130365835Y-99610000D01*
%TO.C,U2*%
X126990000Y-86862500D02*
X126990000Y-86062500D01*
X126990000Y-86862500D02*
X126990000Y-87662500D01*
X130110000Y-86862500D02*
X130110000Y-86062500D01*
X130110000Y-86862500D02*
X130110000Y-87662500D01*
X130390000Y-85802500D02*
X130060000Y-85562500D01*
X130390000Y-85322500D01*
X130390000Y-85802500D01*
G36*
X130390000Y-85802500D02*
G01*
X130060000Y-85562500D01*
X130390000Y-85322500D01*
X130390000Y-85802500D01*
G37*
%TO.C,R17*%
X113267621Y-93720000D02*
X112932379Y-93720000D01*
X113267621Y-94480000D02*
X112932379Y-94480000D01*
%TO.C,C8*%
X112853733Y-84490000D02*
X113146267Y-84490000D01*
X112853733Y-85510000D02*
X113146267Y-85510000D01*
%TO.C,R18*%
X111620000Y-96032379D02*
X111620000Y-96367621D01*
X112380000Y-96032379D02*
X112380000Y-96367621D01*
%TO.C,C7*%
X130590000Y-90103733D02*
X130590000Y-90396267D01*
X131610000Y-90103733D02*
X131610000Y-90396267D01*
%TD*%
M02*
