%TF.GenerationSoftware,KiCad,Pcbnew,9.0.4*%
%TF.CreationDate,2026-05-30T16:23:29-04:00*%
%TF.ProjectId,XDQ-001,5844512d-3030-4312-9e6b-696361645f70,rev?*%
%TF.SameCoordinates,Original*%
%TF.FileFunction,Soldermask,Top*%
%TF.FilePolarity,Negative*%
%FSLAX46Y46*%
G04 Gerber Fmt 4.6, Leading zero omitted, Abs format (unit mm)*
G04 Created by KiCad (PCBNEW 9.0.4) date 2026-05-30 16:23:29*
%MOMM*%
%LPD*%
G01*
G04 APERTURE LIST*
G04 Aperture macros list*
%AMRoundRect*
0 Rectangle with rounded corners*
0 $1 Rounding radius*
0 $2 $3 $4 $5 $6 $7 $8 $9 X,Y pos of 4 corners*
0 Add a 4 corners polygon primitive as box body*
4,1,4,$2,$3,$4,$5,$6,$7,$8,$9,$2,$3,0*
0 Add four circle primitives for the rounded corners*
1,1,$1+$1,$2,$3*
1,1,$1+$1,$4,$5*
1,1,$1+$1,$6,$7*
1,1,$1+$1,$8,$9*
0 Add four rect primitives between the rounded corners*
20,1,$1+$1,$2,$3,$4,$5,0*
20,1,$1+$1,$4,$5,$6,$7,0*
20,1,$1+$1,$6,$7,$8,$9,0*
20,1,$1+$1,$8,$9,$2,$3,0*%
G04 Aperture macros list end*
%ADD10RoundRect,0.155000X-0.155000X0.212500X-0.155000X-0.212500X0.155000X-0.212500X0.155000X0.212500X0*%
%ADD11RoundRect,0.150000X0.512500X0.150000X-0.512500X0.150000X-0.512500X-0.150000X0.512500X-0.150000X0*%
%ADD12RoundRect,0.155000X0.212500X0.155000X-0.212500X0.155000X-0.212500X-0.155000X0.212500X-0.155000X0*%
%ADD13RoundRect,0.093750X-0.156250X-0.093750X0.156250X-0.093750X0.156250X0.093750X-0.156250X0.093750X0*%
%ADD14RoundRect,0.075000X-0.250000X-0.075000X0.250000X-0.075000X0.250000X0.075000X-0.250000X0.075000X0*%
%ADD15RoundRect,0.160000X-0.160000X0.197500X-0.160000X-0.197500X0.160000X-0.197500X0.160000X0.197500X0*%
%ADD16RoundRect,0.147500X-0.147500X-0.172500X0.147500X-0.172500X0.147500X0.172500X-0.147500X0.172500X0*%
%ADD17RoundRect,0.250000X-0.550000X1.250000X-0.550000X-1.250000X0.550000X-1.250000X0.550000X1.250000X0*%
%ADD18RoundRect,0.160000X0.160000X-0.197500X0.160000X0.197500X-0.160000X0.197500X-0.160000X-0.197500X0*%
%ADD19RoundRect,0.237500X0.237500X-0.300000X0.237500X0.300000X-0.237500X0.300000X-0.237500X-0.300000X0*%
%ADD20RoundRect,0.150000X-0.512500X-0.150000X0.512500X-0.150000X0.512500X0.150000X-0.512500X0.150000X0*%
%ADD21RoundRect,0.155000X-0.212500X-0.155000X0.212500X-0.155000X0.212500X0.155000X-0.212500X0.155000X0*%
%ADD22RoundRect,0.155000X0.155000X-0.212500X0.155000X0.212500X-0.155000X0.212500X-0.155000X-0.212500X0*%
%ADD23RoundRect,0.237500X-0.287500X-0.237500X0.287500X-0.237500X0.287500X0.237500X-0.287500X0.237500X0*%
%ADD24R,1.700000X1.700000*%
%ADD25C,1.700000*%
%ADD26RoundRect,0.237500X0.300000X0.237500X-0.300000X0.237500X-0.300000X-0.237500X0.300000X-0.237500X0*%
%ADD27R,1.350000X0.400000*%
%ADD28O,1.900000X1.200000*%
%ADD29R,1.900000X1.200000*%
%ADD30C,1.450000*%
%ADD31R,1.900000X1.500000*%
%ADD32RoundRect,0.062500X0.375000X0.062500X-0.375000X0.062500X-0.375000X-0.062500X0.375000X-0.062500X0*%
%ADD33RoundRect,0.062500X0.062500X0.375000X-0.062500X0.375000X-0.062500X-0.375000X0.062500X-0.375000X0*%
%ADD34R,5.600000X5.600000*%
%ADD35RoundRect,0.237500X-0.300000X-0.237500X0.300000X-0.237500X0.300000X0.237500X-0.300000X0.237500X0*%
%ADD36R,0.400000X0.600000*%
%ADD37RoundRect,0.250000X0.300000X-0.275000X0.300000X0.275000X-0.300000X0.275000X-0.300000X-0.275000X0*%
%ADD38RoundRect,0.160000X-0.197500X-0.160000X0.197500X-0.160000X0.197500X0.160000X-0.197500X0.160000X0*%
%ADD39RoundRect,0.250000X-1.000000X-0.900000X1.000000X-0.900000X1.000000X0.900000X-1.000000X0.900000X0*%
%ADD40RoundRect,0.160000X0.197500X0.160000X-0.197500X0.160000X-0.197500X-0.160000X0.197500X-0.160000X0*%
%ADD41RoundRect,0.237500X0.237500X-0.287500X0.237500X0.287500X-0.237500X0.287500X-0.237500X-0.287500X0*%
%ADD42R,0.675000X0.280000*%
%ADD43R,0.280000X0.675000*%
%ADD44RoundRect,0.150000X-0.587500X-0.150000X0.587500X-0.150000X0.587500X0.150000X-0.587500X0.150000X0*%
%ADD45C,2.200000*%
%ADD46RoundRect,0.162500X-0.650000X-0.162500X0.650000X-0.162500X0.650000X0.162500X-0.650000X0.162500X0*%
%ADD47RoundRect,0.250000X0.350000X0.625000X-0.350000X0.625000X-0.350000X-0.625000X0.350000X-0.625000X0*%
%ADD48O,1.200000X1.750000*%
%ADD49R,0.250000X0.450000*%
%ADD50R,0.450000X0.250000*%
%ADD51RoundRect,0.237500X0.287500X0.237500X-0.287500X0.237500X-0.287500X-0.237500X0.287500X-0.237500X0*%
G04 APERTURE END LIST*
D10*
%TO.C,C22*%
X102250000Y-97172500D03*
X102250000Y-98307500D03*
%TD*%
D11*
%TO.C,U6*%
X98137500Y-75450000D03*
X98137500Y-74500000D03*
X98137500Y-73550000D03*
X95862500Y-73550000D03*
X95862500Y-75450000D03*
%TD*%
D12*
%TO.C,C4*%
X120317500Y-111250000D03*
X119182500Y-111250000D03*
%TD*%
%TO.C,C13*%
X113317500Y-116250000D03*
X112182500Y-116250000D03*
%TD*%
D13*
%TO.C,U1*%
X95650000Y-110212500D03*
D14*
X95575000Y-110750000D03*
D13*
X95650000Y-111287500D03*
X97350000Y-111287500D03*
D14*
X97425000Y-110750000D03*
D13*
X97350000Y-110212500D03*
%TD*%
D15*
%TO.C,R3*%
X99000000Y-107902500D03*
X99000000Y-109097500D03*
%TD*%
D16*
%TO.C,FB2*%
X116515000Y-95250000D03*
X117485000Y-95250000D03*
%TD*%
D17*
%TO.C,C2*%
X113750000Y-72550000D03*
X113750000Y-76950000D03*
%TD*%
D18*
%TO.C,R7*%
X120000000Y-97597500D03*
X120000000Y-96402500D03*
%TD*%
D19*
%TO.C,C20*%
X104000000Y-91852500D03*
X104000000Y-90127500D03*
%TD*%
D20*
%TO.C,U4*%
X114612500Y-86550000D03*
X114612500Y-87500000D03*
X114612500Y-88450000D03*
X116887500Y-88450000D03*
X116887500Y-86550000D03*
%TD*%
D15*
%TO.C,R13*%
X131500000Y-74652500D03*
X131500000Y-75847500D03*
%TD*%
%TO.C,R10*%
X97250000Y-68652500D03*
X97250000Y-69847500D03*
%TD*%
D21*
%TO.C,C1*%
X103182500Y-119250000D03*
X104317500Y-119250000D03*
%TD*%
D22*
%TO.C,C12*%
X103500000Y-115817500D03*
X103500000Y-114682500D03*
%TD*%
D23*
%TO.C,D6*%
X117875000Y-109000000D03*
X119625000Y-109000000D03*
%TD*%
D18*
%TO.C,R12*%
X101750000Y-92337500D03*
X101750000Y-91142500D03*
%TD*%
D24*
%TO.C,J2*%
X112950000Y-121975000D03*
D25*
X115490000Y-121975000D03*
X118030000Y-121975000D03*
X120570000Y-121975000D03*
X123110000Y-121975000D03*
%TD*%
D26*
%TO.C,C5*%
X124112500Y-71500000D03*
X122387500Y-71500000D03*
%TD*%
D27*
%TO.C,J5*%
X93450000Y-109050000D03*
X93450000Y-109700000D03*
X93450000Y-110350000D03*
X93450000Y-111000000D03*
X93450000Y-111650000D03*
D28*
X90750000Y-106850000D03*
D29*
X90750000Y-107450000D03*
D30*
X93450000Y-107850000D03*
D31*
X90750000Y-109350000D03*
X90750000Y-111350000D03*
D30*
X93450000Y-112850000D03*
D29*
X90750000Y-113250000D03*
D28*
X90750000Y-113850000D03*
%TD*%
D15*
%TO.C,R11*%
X122500000Y-86750000D03*
X122500000Y-87945000D03*
%TD*%
D32*
%TO.C,U3*%
X111837500Y-114200000D03*
X111837500Y-113700000D03*
X111837500Y-113200000D03*
X111837500Y-112700000D03*
X111837500Y-112200000D03*
X111837500Y-111700000D03*
X111837500Y-111200000D03*
X111837500Y-110700000D03*
X111837500Y-110200000D03*
X111837500Y-109700000D03*
X111837500Y-109200000D03*
X111837500Y-108700000D03*
D33*
X111150000Y-108012500D03*
X110650000Y-108012500D03*
X110150000Y-108012500D03*
X109650000Y-108012500D03*
X109150000Y-108012500D03*
X108650000Y-108012500D03*
X108150000Y-108012500D03*
X107650000Y-108012500D03*
X107150000Y-108012500D03*
X106650000Y-108012500D03*
X106150000Y-108012500D03*
X105650000Y-108012500D03*
D32*
X104962500Y-108700000D03*
X104962500Y-109200000D03*
X104962500Y-109700000D03*
X104962500Y-110200000D03*
X104962500Y-110700000D03*
X104962500Y-111200000D03*
X104962500Y-111700000D03*
X104962500Y-112200000D03*
X104962500Y-112700000D03*
X104962500Y-113200000D03*
X104962500Y-113700000D03*
X104962500Y-114200000D03*
D33*
X105650000Y-114887500D03*
X106150000Y-114887500D03*
X106650000Y-114887500D03*
X107150000Y-114887500D03*
X107650000Y-114887500D03*
X108150000Y-114887500D03*
X108650000Y-114887500D03*
X109150000Y-114887500D03*
X109650000Y-114887500D03*
X110150000Y-114887500D03*
X110650000Y-114887500D03*
X111150000Y-114887500D03*
D34*
X108400000Y-111450000D03*
%TD*%
D35*
%TO.C,C15*%
X94137500Y-77500000D03*
X95862500Y-77500000D03*
%TD*%
D21*
%TO.C,C3*%
X119182500Y-113250000D03*
X120317500Y-113250000D03*
%TD*%
D36*
%TO.C,U8*%
X108410000Y-87190000D03*
X107750000Y-87190000D03*
X107110000Y-87190000D03*
X106450000Y-87190000D03*
X106450000Y-85750000D03*
X107110000Y-85750000D03*
X107750000Y-85750000D03*
X108410000Y-85750000D03*
%TD*%
D37*
%TO.C,Y1*%
X117500000Y-112925000D03*
X117500000Y-111075000D03*
%TD*%
D26*
%TO.C,C19*%
X108522500Y-83750000D03*
X106797500Y-83750000D03*
%TD*%
D12*
%TO.C,C21*%
X108477500Y-82250000D03*
X107342500Y-82250000D03*
%TD*%
D26*
%TO.C,C9*%
X119612500Y-85000000D03*
X117887500Y-85000000D03*
%TD*%
D10*
%TO.C,C23*%
X114000000Y-95182500D03*
X114000000Y-96317500D03*
%TD*%
D38*
%TO.C,R9*%
X129652500Y-100750000D03*
X130847500Y-100750000D03*
%TD*%
D39*
%TO.C,D2*%
X113600000Y-67750000D03*
X117900000Y-67750000D03*
%TD*%
D40*
%TO.C,R2*%
X100097500Y-111250000D03*
X98902500Y-111250000D03*
%TD*%
D41*
%TO.C,D4*%
X121000000Y-88625000D03*
X121000000Y-86875000D03*
%TD*%
D40*
%TO.C,R8*%
X117847500Y-102000000D03*
X116652500Y-102000000D03*
%TD*%
D15*
%TO.C,R6*%
X115500000Y-111402500D03*
X115500000Y-112597500D03*
%TD*%
D10*
%TO.C,C24*%
X115250000Y-95182500D03*
X115250000Y-96317500D03*
%TD*%
D16*
%TO.C,FB1*%
X105500000Y-90750000D03*
X106470000Y-90750000D03*
%TD*%
D24*
%TO.C,J1*%
X91000000Y-75340000D03*
D25*
X91000000Y-77880000D03*
X91000000Y-80420000D03*
X91000000Y-82960000D03*
X91000000Y-85500000D03*
X91000000Y-88040000D03*
X91000000Y-90580000D03*
X91000000Y-93120000D03*
X91000000Y-95660000D03*
X91000000Y-98200000D03*
%TD*%
D21*
%TO.C,C17*%
X111182500Y-96250000D03*
X112317500Y-96250000D03*
%TD*%
%TO.C,C14*%
X113682500Y-109750000D03*
X114817500Y-109750000D03*
%TD*%
D42*
%TO.C,U7*%
X110240000Y-93250000D03*
X110240000Y-93750000D03*
X110240000Y-94250000D03*
X110240000Y-94750000D03*
D43*
X111000000Y-95010000D03*
X111500000Y-95010000D03*
X112000000Y-95010000D03*
D42*
X112760000Y-94750000D03*
X112760000Y-94250000D03*
X112760000Y-93750000D03*
X112760000Y-93250000D03*
D43*
X112000000Y-92990000D03*
X111500000Y-92990000D03*
X111000000Y-92990000D03*
%TD*%
D44*
%TO.C,D1*%
X107062500Y-71800000D03*
X107062500Y-73700000D03*
X108937500Y-72750000D03*
%TD*%
D18*
%TO.C,R14*%
X116250000Y-109597500D03*
X116250000Y-108402500D03*
%TD*%
D26*
%TO.C,C10*%
X101112500Y-77500000D03*
X99387500Y-77500000D03*
%TD*%
D45*
%TO.C,REF\u002A\u002A2*%
X131000000Y-67000000D03*
%TD*%
%TO.C,REF\u002A\u002A1*%
X92000000Y-67000000D03*
%TD*%
D40*
%TO.C,R1*%
X100097500Y-110250000D03*
X98902500Y-110250000D03*
%TD*%
D24*
%TO.C,J3*%
X132000000Y-114540000D03*
D25*
X132000000Y-112000000D03*
X132000000Y-109460000D03*
X132000000Y-106920000D03*
%TD*%
D46*
%TO.C,U5*%
X120162500Y-99345000D03*
X120162500Y-100615000D03*
X120162500Y-101885000D03*
X120162500Y-103155000D03*
X127337500Y-103155000D03*
X127337500Y-101885000D03*
X127337500Y-100615000D03*
X127337500Y-99345000D03*
%TD*%
D45*
%TO.C,REF\u002A\u002A*%
X131000000Y-121000000D03*
%TD*%
D47*
%TO.C,J6*%
X105500000Y-68000000D03*
D48*
X103500000Y-68000000D03*
%TD*%
D22*
%TO.C,C18*%
X102750000Y-91807500D03*
X102750000Y-90672500D03*
%TD*%
D26*
%TO.C,C6*%
X106862500Y-105000000D03*
X105137500Y-105000000D03*
%TD*%
D49*
%TO.C,U9*%
X103250000Y-93740000D03*
X102750000Y-93740000D03*
X102250000Y-93740000D03*
X101750000Y-93740000D03*
D50*
X101240000Y-94250000D03*
X101240000Y-94750000D03*
X101240000Y-95250000D03*
X101240000Y-95750000D03*
D49*
X101750000Y-96260000D03*
X102250000Y-96260000D03*
X102750000Y-96260000D03*
X103250000Y-96260000D03*
D50*
X103760000Y-95750000D03*
X103760000Y-95250000D03*
X103760000Y-94750000D03*
X103760000Y-94250000D03*
%TD*%
D21*
%TO.C,C11*%
X104432500Y-106250000D03*
X105567500Y-106250000D03*
%TD*%
D51*
%TO.C,D3*%
X97125000Y-71500000D03*
X95375000Y-71500000D03*
%TD*%
D41*
%TO.C,D5*%
X130000000Y-76125000D03*
X130000000Y-74375000D03*
%TD*%
D21*
%TO.C,C16*%
X129682500Y-99250000D03*
X130817500Y-99250000D03*
%TD*%
D20*
%TO.C,U2*%
X124975000Y-73600000D03*
X124975000Y-74550000D03*
X124975000Y-75500000D03*
X127250000Y-75500000D03*
X127250000Y-73600000D03*
%TD*%
D45*
%TO.C,REF\u002A\u002A3*%
X92000000Y-121000000D03*
%TD*%
D24*
%TO.C,J4*%
X97450000Y-121975000D03*
D25*
X99990000Y-121975000D03*
X102530000Y-121975000D03*
X105070000Y-121975000D03*
%TD*%
D40*
%TO.C,R17*%
X110847500Y-89250000D03*
X109652500Y-89250000D03*
%TD*%
D35*
%TO.C,C8*%
X112137500Y-85000000D03*
X113862500Y-85000000D03*
%TD*%
D15*
%TO.C,R18*%
X112000000Y-90652500D03*
X112000000Y-91847500D03*
%TD*%
D35*
%TO.C,C7*%
X128637500Y-72000000D03*
X130362500Y-72000000D03*
%TD*%
M02*
