M48
; DRILL file {KiCad 9.0.4} date 2026-05-30T16:23:24-0400
; FORMAT={-:-/ absolute / metric / decimal}
; #@! TF.CreationDate,2026-05-30T16:23:24-04:00
; #@! TF.GenerationSoftware,Kicad,Pcbnew,9.0.4
; #@! TF.FileFunction,Plated,1,4,PTH
FMAT,2
METRIC
; #@! TA.AperFunction,Plated,PTH,ViaDrill
T1C0.300
; #@! TA.AperFunction,Plated,PTH,ComponentDrill
T2C0.600
; #@! TA.AperFunction,Plated,PTH,ComponentDrill
T3C0.750
; #@! TA.AperFunction,Plated,PTH,ComponentDrill
T4C0.850
; #@! TA.AperFunction,Plated,PTH,ComponentDrill
T5C1.000
%
G90
G05
T1
X95.5Y-106.25
X99.0Y-107.902
X100.097Y-110.25
X100.93Y-92.2
X101.056Y-77.444
X101.75Y-92.337
X102.216Y-98.274
X102.45Y-111.6
X103.182Y-119.25
X103.184Y-111.1
X103.25Y-113.0
X104.0Y-90.127
X104.0Y-91.852
X104.209Y-86.459
X104.75Y-94.75
X104.75Y-96.0
X104.775Y-87.025
X105.0Y-116.5
X105.768Y-117.037
X106.225Y-109.275
X106.225Y-110.775
X106.225Y-112.275
X106.225Y-113.775
X106.538Y-90.682
X106.585Y-117.014
X106.75Y-92.809
X107.062Y-73.7
X107.11Y-88.0
X107.343Y-82.25
X107.417Y-117.022
X107.482Y-105.907
X107.486Y-107.084
X107.497Y-93.409
X107.725Y-109.275
X107.725Y-110.775
X107.725Y-112.275
X107.725Y-113.775
X108.098Y-94.25
X108.15Y-91.374
X108.5Y-106.0
X108.648Y-92.0
X108.83Y-87.92
X109.225Y-109.275
X109.225Y-110.775
X109.225Y-112.275
X109.225Y-113.775
X109.25Y-97.25
X109.375Y-105.375
X109.434Y-90.14
X109.652Y-89.25
X110.0Y-95.75
X110.0Y-104.75
X110.211Y-102.384
X110.466Y-103.142
X110.725Y-109.275
X110.725Y-110.775
X110.725Y-112.275
X110.725Y-113.775
X111.25Y-103.5
X112.0Y-90.652
X112.0Y-91.847
X112.0Y-107.0
X112.137Y-85.0
X112.8Y-107.0
X113.0Y-92.0
X113.5Y-72.55
X113.5Y-114.75
X113.75Y-76.95
X113.75Y-107.25
X113.75Y-113.0
X114.5Y-111.0
X115.25Y-96.317
X117.887Y-85.0
X117.9Y-67.75
X119.625Y-109.0
X120.162Y-99.345
X120.162Y-100.615
X120.162Y-103.155
X120.317Y-113.25
X127.337Y-101.885
X127.337Y-103.155
X130.817Y-99.25
T3
X103.5Y-68.0
X105.5Y-68.0
T4
X93.45Y-107.85
X93.45Y-112.85
T5
X91.0Y-75.34
X91.0Y-77.88
X91.0Y-80.42
X91.0Y-82.96
X91.0Y-85.5
X91.0Y-88.04
X91.0Y-90.58
X91.0Y-93.12
X91.0Y-95.66
X91.0Y-98.2
X97.45Y-121.975
X99.99Y-121.975
X102.53Y-121.975
X105.07Y-121.975
X112.95Y-121.975
X115.49Y-121.975
X118.03Y-121.975
X120.57Y-121.975
X123.11Y-121.975
X132.0Y-106.92
X132.0Y-109.46
X132.0Y-112.0
X132.0Y-114.54
T2
G00X90.4Y-106.85
M15
G01X91.1Y-106.85
M16
G05
G00X91.1Y-113.85
M15
G01X90.4Y-113.85
M16
G05
M30
